<?xml version="1.0" encoding="UTF-8" standalone="no"?>
<svg
   xmlns:dc="http://purl.org/dc/elements/1.1/"
   xmlns:cc="http://creativecommons.org/ns#"
   xmlns:rdf="http://www.w3.org/1999/02/22-rdf-syntax-ns#"
   xmlns:svg="http://www.w3.org/2000/svg"
   xmlns="http://www.w3.org/2000/svg"
   xmlns:sodipodi="http://sodipodi.sourceforge.net/DTD/sodipodi-0.dtd"
   xmlns:inkscape="http://www.inkscape.org/namespaces/inkscape"
   width="16"
   height="16"
   version="1.1"
   id="svg6"
   sodipodi:docname="battery-full-charging-symbolic.svg"
   inkscape:version="0.92.1 r15371">
  <metadata
     id="metadata12">
    <rdf:RDF>
      <cc:Work
         rdf:about="">
        <dc:format>image/svg+xml</dc:format>
        <dc:type
           rdf:resource="http://purl.org/dc/dcmitype/StillImage" />
      </cc:Work>
    </rdf:RDF>
  </metadata>
  <defs
     id="defs10" />
  <sodipodi:namedview
     pagecolor="#ffffff"
     bordercolor="#666666"
     borderopacity="1"
     objecttolerance="10"
     gridtolerance="10"
     guidetolerance="10"
     inkscape:pageopacity="0"
     inkscape:pageshadow="2"
     inkscape:window-width="645"
     inkscape:window-height="480"
     id="namedview8"
     showgrid="false"
     inkscape:zoom="14.75"
     inkscape:cx="8"
     inkscape:cy="8"
     inkscape:window-x="0"
     inkscape:window-y="24"
     inkscape:window-maximized="0"
     inkscape:current-layer="svg6" />
  <path
     style="fill:#5c616c"
     d="M 6,1 V 2 H 3 C 3,2 3,2.45 3,3 V 14 C 3,14.55 3.45,15 4,15 H 12 C 12.55,15 13,14.55 13,14 V 3 C 13,2.45 13,2 13,2 H 10 V 1 Z M 8,5 V 8 H 11 L 8,13 V 10 H 5 Z"
     id="path2" />
  <path
     style="fill:#5c616c"
     d="M 6,1 V 2 H 3 V 14 C 3,14.55 3.446,15 4,15 H 12 C 12.554,15 13,14.55 13,14 V 2 H 10 V 1 Z M 8,5 V 8 H 11 L 8,13 V 10 H 5 Z"
     id="path4" />
  <path
     style="fill:#1a1a1a;stroke-width:0.06779661"
     d="M 3.6338983,14.908052 C 3.475793,14.850256 3.2239893,14.601798 3.1189821,14.399977 3.039236,14.246707 3.0237288,13.223002 3.0237288,8.1118414 V 2.0067797 H 4.5152542 6.0067797 V 1.4983051 0.98983051 h 2 2.0000003 V 1.4983051 2.0067797 h 1.491525 1.491526 l -1.36e-4,6.0847457 c -1.36e-4,6.7866776 0.02827,6.3792876 -0.467548,6.7105136 l -0.230335,0.153893 -4.2781092,-0.0054 c -2.3529602,-0.0029 -4.3238723,-0.02208 -4.3798045,-0.04253 z M 9.5343616,10.46703 11.010692,8.0067797 9.5256851,7.9885336 8.040678,7.9702875 V 6.5139572 c 0,-0.8009815 -0.022881,-1.4553345 -0.050847,-1.4541177 -0.027966,0.00122 -0.7113936,1.107149 -1.5187276,2.4576271 l -1.4678802,2.4554148 1.4848294,0.018246 1.4848293,0.018247 v 1.501528 c 0,0.82584 0.019159,1.482369 0.042575,1.458952 0.023416,-0.02341 0.7069236,-1.149687 1.5189047,-2.502824 z"
     id="path14"
     inkscape:connector-curvature="0" />
</svg>
