<?xml version="1.0" encoding="UTF-8" standalone="no"?>
<svg
   xmlns:dc="http://purl.org/dc/elements/1.1/"
   xmlns:cc="http://creativecommons.org/ns#"
   xmlns:rdf="http://www.w3.org/1999/02/22-rdf-syntax-ns#"
   xmlns:svg="http://www.w3.org/2000/svg"
   xmlns="http://www.w3.org/2000/svg"
   xmlns:sodipodi="http://sodipodi.sourceforge.net/DTD/sodipodi-0.dtd"
   xmlns:inkscape="http://www.inkscape.org/namespaces/inkscape"
   height="22"
   width="22"
   version="1"
   id="svg2"
   inkscape:version="0.91 r13725"
   sodipodi:docname="bookmark-missing.svg">
  <metadata
     id="metadata14">
    <rdf:RDF>
      <cc:Work
         rdf:about="">
        <dc:format>image/svg+xml</dc:format>
        <dc:type
           rdf:resource="http://purl.org/dc/dcmitype/StillImage" />
      </cc:Work>
    </rdf:RDF>
  </metadata>
  <defs
     id="defs12" />
  <sodipodi:namedview
     pagecolor="#ffffff"
     bordercolor="#666666"
     borderopacity="1"
     objecttolerance="10"
     gridtolerance="10"
     guidetolerance="10"
     inkscape:pageopacity="0"
     inkscape:pageshadow="2"
     inkscape:window-width="1366"
     inkscape:window-height="723"
     id="namedview10"
     showgrid="false"
     inkscape:zoom="23.424006"
     inkscape:cx="11"
     inkscape:cy="11"
     inkscape:window-x="0"
     inkscape:window-y="0"
     inkscape:window-maximized="1"
     inkscape:current-layer="svg2" />
  <path
     fill="#c2352a"
     d="m11 1 3.2 6.8 6.8 0.8-4.8 5.2 1.2 7.2-6.4-3.6-6.4 3.6 1.2-7.2-4.8-5.2 6.8-0.8z"
     id="path4" />
  <path
     opacity=".2"
     d="m11 1-3.1992 6.8008-6.8008 0.7988 0.416 0.4512 6.3848-0.75 3.1992-6.8008 3.199 6.8008 6.385 0.75 0.416-0.4512-6.801-0.7988-3.199-6.8008zm-5.2695 13.225-1.1309 6.775l0.091797-0.05273 1.1094-6.6465-0.070312-0.07617zm10.539 0-0.07031 0.07617 1.1094 6.6465 0.0918 0.05273-1.1309-6.7754z"
     fill="#fff"
     id="path6" />
  <path
     opacity=".2"
     d="m1.416 9.0508-0.416 0.0488 4.7305 5.1254 0.0703-0.424-4.3848-4.7502zm19.168 0-4.3848 4.75 0.07031 0.42383l4.731-5.1254-0.416-0.0488zm-9.584 8.3492-6.3086 3.547-0.0918 0.553 6.4004-3.6 6.4 3.6-0.091-0.553-6.309-3.547z"
     id="path8" />
  <path
     style="opacity:1;fill:#000000;fill-opacity:0.30952382;stroke:none;stroke-width:1;stroke-miterlimit:4;stroke-dasharray:none;stroke-opacity:0"
     d="M 3.3837874,11.66556 C 1.5435569,9.6709895 1.0638875,9.1282409 1.1211513,9.1053747 1.3626791,9.0089293 1.3402691,8.9886116 3.1190554,10.916752 c 0.9368558,1.015518 1.9202397,2.080164 2.1852975,2.36588 l 0.4819236,0.519483 -0.033592,0.197307 -0.033592,0.197306 -2.3353054,-2.531168 z"
     id="path3342"
     inkscape:connector-curvature="0" />
  <path
     style="opacity:1;fill:#000000;fill-opacity:0.30952382;stroke:none;stroke-width:1;stroke-miterlimit:4;stroke-dasharray:none;stroke-opacity:0"
     d="m 4.6511778,21.269379 c 0.015519,-0.09979 0.03661,-0.21158 0.046868,-0.24842 0.020824,-0.07479 6.1790341,-3.555038 6.2978331,-3.559159 0.04145,-0.0014 1.476867,0.785039 3.189813,1.747727 l 3.114448,1.750341 0.04048,0.247345 c 0.03333,0.203681 0.03015,0.243383 -0.01802,0.2249 -0.03217,-0.01235 -1.458949,-0.810447 -3.170617,-1.773558 -1.711668,-0.963111 -3.1295,-1.751111 -3.150738,-1.751111 -0.02124,0 -1.455825,0.797259 -3.1879711,1.771686 -1.732146,0.974428 -3.1585716,1.771687 -3.1698346,1.771687 -0.011263,0 -0.00778,-0.08165 0.00774,-0.181438 z"
     id="path3344"
     inkscape:connector-curvature="0" />
  <path
     style="opacity:1;fill:#000000;fill-opacity:0.30952382;stroke:none;stroke-width:1;stroke-miterlimit:4;stroke-dasharray:none;stroke-opacity:0"
     d="m 16.268398,14.083085 c -0.09099,-0.237105 -0.100826,-0.224903 2.136028,-2.648731 1.369478,-1.4839499 2.195541,-2.3472849 2.253607,-2.3552899 0.05042,-0.00695 0.136003,0.00376 0.190192,0.02381 0.0911,0.0337 -0.07571,0.2253209 -2.212905,2.542094 -1.271287,1.378105 -2.318086,2.505646 -2.32622,2.505646 -0.0081,0 -0.02645,-0.03039 -0.0407,-0.06753 z"
     id="path3346"
     inkscape:connector-curvature="0" />
  <path
     style="opacity:1;fill:#000000;fill-opacity:0.30952382;stroke:none;stroke-width:1;stroke-miterlimit:4;stroke-dasharray:none;stroke-opacity:0"
     d="m 4.7158485,20.873436 c 0,-0.01232 0.2388084,-1.45795 0.5306853,-3.212517 0.2918769,-1.754566 0.532422,-3.305387 0.5345446,-3.446268 0.00212,-0.140881 0.00825,-0.295666 0.013628,-0.343965 C 5.8017375,13.807478 5.204351,13.131526 3.6630019,11.45863 2.4851916,10.180299 1.5193725,9.1151815 1.5167372,9.0917013 1.5139094,9.0665049 2.7990679,8.8980188 4.6528,8.680559 6.3802696,8.4779109 7.7997907,8.3050113 7.8072907,8.2963377 7.8147907,8.2876642 8.5277896,6.7765213 9.3917324,4.9382429 10.255675,3.0999643 10.975625,1.5878299 10.99162,1.5779442 c 0.016,-0.00989 0.738115,1.4914964 1.604711,3.3364045 1.15164,2.4517434 1.598604,3.3625795 1.661011,3.3848549 0.04696,0.016762 1.473382,0.1923198 3.169825,0.3901288 1.696444,0.1978087 3.084443,0.3716781 3.084443,0.3863763 0,0.014699 -0.968668,1.0760353 -2.152595,2.3585263 l -2.152596,2.331801 0.01419,0.416418 c 0.0094,0.27629 0.188395,1.457119 0.531878,3.509064 0.284729,1.700956 0.512189,3.117149 0.505467,3.147097 -0.0075,0.03345 -1.212829,-0.621226 -3.125805,-1.69781 -2.643983,-1.48798 -3.127325,-1.745998 -3.204707,-1.71074 -0.05012,0.02284 -1.460715,0.811975 -3.1346568,1.753643 -1.6739417,0.941668 -3.0510465,1.712123 -3.060233,1.712123 -0.00919,0 -0.016703,-0.01008 -0.016703,-0.02239 z"
     id="path3348"
     inkscape:connector-curvature="0" />
  <path
     style="opacity:1;fill:#000000;fill-opacity:0.30952382;stroke:none;stroke-width:1;stroke-miterlimit:4;stroke-dasharray:none;stroke-opacity:0"
     d="m 4.7350589,20.803977 c 0.098656,-0.431048 1.0191398,-6.216883 1.0448762,-6.567721 L 5.8127992,13.788257 4.9506935,12.848791 C 4.4765354,12.332083 3.6032384,11.381019 3.0100337,10.735314 1.7971838,9.4151238 1.5364147,9.119098 1.5629415,9.0925713 1.5889137,9.0665993 3.243173,8.8557711 5.5910191,8.5792104 6.6945878,8.4492172 7.6473625,8.3327734 7.7082961,8.3204463 7.8075465,8.3003682 7.9126873,8.0992707 8.7178468,6.3895401 10.532678,2.5358031 10.96046,1.6420788 10.990225,1.6420788 c 0.03992,0 0.256953,0.4449731 1.634574,3.3512628 0.634405,1.3383706 1.24687,2.6294478 1.361034,2.869061 0.1907,0.4002535 0.218841,0.4376454 0.346267,0.4600942 0.07628,0.013439 1.425839,0.1777032 2.999012,0.3650315 2.944134,0.3505784 3.137806,0.3762132 3.137806,0.4153269 0,0.026391 -0.162721,0.204705 -2.529456,2.7718398 l -1.739668,1.886972 0,0.276886 c 0,0.305536 0.07256,0.786055 0.638802,4.230449 0.377057,2.293591 0.412221,2.541446 0.360565,2.541446 -0.04307,0 -1.148121,-0.606074 -3.368731,-1.847602 -1.17401,-0.656381 -2.287993,-1.279023 -2.47552,-1.383649 -0.335728,-0.187312 -0.343101,-0.189207 -0.480772,-0.123556 -0.106025,0.05056 -3.8965354,2.171331 -5.9360284,3.321179 l -0.225997,0.127415 0.022946,-0.100258 z"
     id="path3350"
     inkscape:connector-curvature="0" />
</svg>
