<?xml version="1.0" encoding="UTF-8" standalone="no"?>
<svg
   xmlns:dc="http://purl.org/dc/elements/1.1/"
   xmlns:cc="http://creativecommons.org/ns#"
   xmlns:rdf="http://www.w3.org/1999/02/22-rdf-syntax-ns#"
   xmlns:svg="http://www.w3.org/2000/svg"
   xmlns="http://www.w3.org/2000/svg"
   xmlns:sodipodi="http://sodipodi.sourceforge.net/DTD/sodipodi-0.dtd"
   xmlns:inkscape="http://www.inkscape.org/namespaces/inkscape"
   height="22"
   width="22"
   version="1"
   id="svg2"
   inkscape:version="0.91 r13725"
   sodipodi:docname="bookmarks.svg">
  <metadata
     id="metadata14">
    <rdf:RDF>
      <cc:Work
         rdf:about="">
        <dc:format>image/svg+xml</dc:format>
        <dc:type
           rdf:resource="http://purl.org/dc/dcmitype/StillImage" />
      </cc:Work>
    </rdf:RDF>
  </metadata>
  <defs
     id="defs12" />
  <sodipodi:namedview
     pagecolor="#ffffff"
     bordercolor="#666666"
     borderopacity="1"
     objecttolerance="10"
     gridtolerance="10"
     guidetolerance="10"
     inkscape:pageopacity="0"
     inkscape:pageshadow="2"
     inkscape:window-width="1366"
     inkscape:window-height="723"
     id="namedview10"
     showgrid="false"
     inkscape:zoom="23.424006"
     inkscape:cx="11"
     inkscape:cy="11"
     inkscape:window-x="0"
     inkscape:window-y="0"
     inkscape:window-maximized="1"
     inkscape:current-layer="svg2" />
  <path
     fill="#fecd38"
     d="m11 1 3.2 6.8 6.8 0.8-4.8 5.2 1.2 7.2-6.4-3.6-6.4 3.6 1.2-7.2-4.8-5.2 6.8-0.8z"
     id="path4" />
  <path
     opacity=".2"
     d="m11 1-3.1992 6.8008-6.8008 0.7988 0.416 0.4512 6.3848-0.75 3.1992-6.8008 3.199 6.8008 6.385 0.75 0.416-0.4512-6.801-0.7988-3.199-6.8008zm-5.2695 13.225-1.1309 6.775l0.091797-0.05273 1.1094-6.6465-0.070312-0.07617zm10.539 0-0.07031 0.07617 1.1094 6.6465 0.0918 0.05273-1.1309-6.7754z"
     fill="#fff"
     id="path6" />
  <path
     opacity=".2"
     d="m1.416 9.0508-0.416 0.0488 4.7305 5.1254 0.0703-0.424-4.3848-4.7502zm19.168 0-4.3848 4.75 0.07031 0.42383l4.731-5.1254-0.416-0.0488zm-9.584 8.3492-6.3086 3.547-0.0918 0.553 6.4004-3.6 6.4 3.6-0.091-0.553-6.309-3.547z"
     id="path8" />
  <path
     style="opacity:1;fill:#000000;fill-opacity:0.30952382;stroke:none;stroke-width:1;stroke-miterlimit:4;stroke-dasharray:none;stroke-opacity:0"
     d="M 14.235996,19.203819 C 12.557163,18.257877 11.142208,17.4617 11.09165,17.434535 c -0.08178,-0.04394 -0.436854,0.144642 -3.2170343,1.70855 -1.7188119,0.966867 -3.1358457,1.747206 -3.1489639,1.734089 -0.013118,-0.01312 0.2203732,-1.489556 0.5188695,-3.280973 0.2984963,-1.791418 0.5319071,-3.285302 0.5186904,-3.319744 -0.013216,-0.03444 -0.00645,-0.15673 0.01504,-0.271752 l 0.03907,-0.209131 -2.1917714,-2.373282 C 2.1464,9.8206466 1.4572312,9.0455281 1.5059103,9.0383014 1.5455827,9.0324117 2.9699161,8.864282 4.6710955,8.6646804 6.3722749,8.4650783 7.7781224,8.2873922 7.795201,8.2698218 7.8122796,8.2522518 8.530527,6.7394136 9.3913059,4.9079591 10.252085,3.0765047 10.969209,1.5644447 10.984915,1.5478259 c 0.01571,-0.016619 0.746157,1.4962522 1.623225,3.3619356 0.877067,1.8656835 1.608143,3.3921517 1.624615,3.3921517 0.03957,0 6.197702,0.7231364 6.273201,0.7366482 0.03211,0.00575 -0.922724,1.0733076 -2.121854,2.3723576 l -2.180238,2.36191 0.01918,0.391676 c 0.01055,0.215422 0.258532,1.822144 0.551072,3.570495 0.29254,1.74835 0.527933,3.181045 0.523097,3.183766 -0.0048,0.0027 -1.382385,-0.769006 -3.061219,-1.714947 z"
     id="path3342"
     inkscape:connector-curvature="0" />
  <path
     style="opacity:1;fill:#000000;fill-opacity:0.30952382;stroke:none;stroke-width:1;stroke-miterlimit:4;stroke-dasharray:none;stroke-opacity:0"
     d="m 4.6511778,21.269379 c 0.015519,-0.09979 0.037155,-0.213299 0.048081,-0.252241 0.017853,-0.06363 5.2387972,-3.031627 6.0272925,-3.426383 l 0.311422,-0.155912 3.13152,1.761231 3.13152,1.761231 0.04004,0.248627 c 0.03296,0.204632 0.02969,0.244655 -0.01845,0.226181 -0.03217,-0.01235 -1.458949,-0.810447 -3.170617,-1.773558 -1.711668,-0.963111 -3.1295,-1.751111 -3.150738,-1.751111 -0.02124,0 -1.455825,0.797259 -3.1879711,1.771686 -1.732146,0.974428 -3.1585716,1.771687 -3.1698346,1.771687 -0.011263,0 -0.00778,-0.08165 0.00774,-0.181438 z"
     id="path3344"
     inkscape:connector-curvature="0" />
  <path
     style="opacity:1;fill:#000000;fill-opacity:0.30952382;stroke:none;stroke-width:1;stroke-miterlimit:4;stroke-dasharray:none;stroke-opacity:0"
     d="M 3.3837874,11.66556 C 1.5435569,9.6709895 1.0638875,9.1282409 1.1211513,9.1053747 1.3626791,9.0089293 1.3402691,8.9886116 3.1190554,10.916752 c 0.9368558,1.015518 1.9202397,2.080164 2.1852975,2.36588 l 0.4819236,0.519483 -0.033592,0.197307 -0.033592,0.197306 -2.3353054,-2.531168 z"
     id="path3346"
     inkscape:connector-curvature="0" />
  <path
     style="opacity:1;fill:#000000;fill-opacity:0.30952382;stroke:none;stroke-width:1;stroke-miterlimit:4;stroke-dasharray:none;stroke-opacity:0"
     d="m 16.267309,14.12294 c -0.01365,-0.03558 -0.02482,-0.128824 -0.02482,-0.207209 0,-0.128848 0.207217,-0.367038 2.160355,-2.483274 1.896309,-2.0546613 2.176769,-2.3421175 2.294654,-2.3518978 0.07387,-0.00613 0.160742,0.00611 0.193059,0.027199 0.04433,0.028925 -0.51312,0.6574167 -2.26983,2.5591065 -1.609862,1.742723 -2.336251,2.500799 -2.353414,2.456075 z"
     id="path3348"
     inkscape:connector-curvature="0" />
  <path
     style="opacity:1;fill:#000000;fill-opacity:0.30952382;stroke:none;stroke-width:1;stroke-miterlimit:4;stroke-dasharray:none;stroke-opacity:0"
     d="m 14.150614,19.139609 c -1.702313,-0.958457 -3.111517,-1.743057 -3.131563,-1.743555 -0.02005,-4.99e-4 -0.654011,0.343318 -1.4088112,0.764036 -0.7548,0.420718 -2.1504114,1.198766 -3.1013589,1.728997 -1.4241191,0.794063 -1.7312263,0.950334 -1.7416463,0.886236 -0.00696,-0.0428 0.1981765,-1.373168 0.4558544,-2.956371 0.4537962,-2.788176 0.5316134,-3.299091 0.5782293,-3.796412 l 0.022009,-0.234802 -0.4363382,-0.47389 C 2.1782587,9.8289646 1.5566963,9.1416906 1.5566963,9.0786164 c 0,-0.01861 0.2161244,-0.057607 0.4802765,-0.086661 C 2.8447125,8.9031131 7.106557,8.3903486 7.4607744,8.3393897 L 7.7936449,8.2915021 7.9259643,8.0298872 c 0.1401532,-0.2771017 2.6849497,-5.652103 2.9080907,-6.1423338 0.07214,-0.1584912 0.143471,-0.2881659 0.158509,-0.2881659 0.01504,0 0.143516,0.2449411 0.285505,0.5443134 0.141989,0.2993724 0.713337,1.5048665 1.269662,2.6788757 1.626756,3.4329342 1.649914,3.47927 1.749141,3.4998007 0.0487,0.010076 1.457332,0.1773082 3.130295,0.3716268 1.672963,0.1943186 3.041422,0.3632944 3.041021,0.375502 -0.0013,0.039713 -0.916511,1.0535629 -2.598329,2.8783959 l -1.64872,1.78892 -0.01304,0.236228 c -0.01537,0.278482 -0.01087,0.308805 0.593087,3.995134 0.257448,1.57136 0.46279,2.869855 0.456316,2.885546 -0.0065,0.01569 -1.404574,-0.755664 -3.106887,-1.714121 z"
     id="path3350"
     inkscape:connector-curvature="0" />
</svg>
