<?xml version="1.0" encoding="UTF-8" standalone="no"?>
<svg
   xmlns:dc="http://purl.org/dc/elements/1.1/"
   xmlns:cc="http://creativecommons.org/ns#"
   xmlns:rdf="http://www.w3.org/1999/02/22-rdf-syntax-ns#"
   xmlns:svg="http://www.w3.org/2000/svg"
   xmlns="http://www.w3.org/2000/svg"
   xmlns:sodipodi="http://sodipodi.sourceforge.net/DTD/sodipodi-0.dtd"
   xmlns:inkscape="http://www.inkscape.org/namespaces/inkscape"
   width="22"
   height="22"
   version="1.1"
   viewBox="0 0 22 22"
   id="svg2"
   inkscape:version="0.91 r13725"
   sodipodi:docname="distributor-logo-ubuntu-mate.svg">
  <metadata
     id="metadata18">
    <rdf:RDF>
      <cc:Work
         rdf:about="">
        <dc:format>image/svg+xml</dc:format>
        <dc:type
           rdf:resource="http://purl.org/dc/dcmitype/StillImage" />
      </cc:Work>
    </rdf:RDF>
  </metadata>
  <defs
     id="defs16" />
  <sodipodi:namedview
     pagecolor="#ffffff"
     bordercolor="#666666"
     borderopacity="1"
     objecttolerance="10"
     gridtolerance="10"
     guidetolerance="10"
     inkscape:pageopacity="0"
     inkscape:pageshadow="2"
     inkscape:window-width="1366"
     inkscape:window-height="723"
     id="namedview14"
     showgrid="false"
     inkscape:zoom="23.424006"
     inkscape:cx="11"
     inkscape:cy="11"
     inkscape:window-x="0"
     inkscape:window-y="0"
     inkscape:window-maximized="1"
     inkscape:current-layer="svg2" />
  <circle
     style="fill:#87a556"
     cx="11"
     cy="11"
     r="10"
     id="circle4" />
  <path
     style="opacity:0.2;fill:#ffffff"
     d="m 11,1 a 10,10 0 0 0 -10,10 10,10 0 0 0 0.01075,0.291 10,10 0 0 1 9.989,-9.791 10,10 0 0 1 9.9895,9.709 10,10 0 0 0 0.0105,-0.209 10,10 0 0 0 -10,-10 z"
     id="path6" />
  <path
     style="opacity:0.2"
     d="M 20.9895,11.209 A 10,10 0 0 1 11,21 10,10 0 0 1 1.011,11.291 10,10 0 0 0 1,11.5 a 10,10 0 0 0 10,10 10,10 0 0 0 10,-10 10,10 0 0 0 -0.011,-0.291 z"
     id="path8" />
  <path
     style="opacity:0.2"
     d="m 12,4.5 v 5 L 16,7 Z m -1,1 A 6,6 0 0 0 5.6269531,8.8378906 L 6.4824219,9.373047 A 5,5 0 0 1 11,6.5 Z m 0,2 A 4,4 0 0 0 7.3359375,9.90625 l 0.859375,0.537109 A 3,3 0 0 1 11,8.5 Z m 4.994141,0.6816406 -0.84961,0.53125 A 5,5 0 0 1 16,11.5 5,5 0 0 1 15.148438,14.289062 l 0.845703,0.529297 A 6,6 0 0 0 17,11.5 6,6 0 0 0 15.994141,8.1816406 Z M 4,9 v 5 L 8,11.5 Z M 14.300781,9.240234 13.449219,9.773438 A 3,3 0 0 1 14,11.5 3,3 0 0 1 13.451172,13.228516 l 0.845703,0.529296 A 4,4 0 0 0 15,11.5 4,4 0 0 0 14.300781,9.240234 Z m -6.1074216,3.31836 -0.859375,0.537109 A 4,4 0 0 0 11,15.5 v -1 A 3,3 0 0 1 8.1933594,12.558594 Z M 12,13.5 v 5 L 16,16 Z M 6.4824219,13.626953 5.6308594,14.160156 A 6,6 0 0 0 11,17.5 v -1 A 5,5 0 0 1 6.4824219,13.626953 Z"
     id="path10" />
  <path
     style="fill:#ffffff"
     d="M 12,4 V 9 L 16,6.5 Z M 11,5 A 6,6 0 0 0 5.6269531,8.3378906 L 6.4824219,8.8730469 A 5,5 0 0 1 11,6 Z m 0,2 A 4,4 0 0 0 7.3359375,9.40625 l 0.859375,0.537109 A 3,3 0 0 1 11,8 Z m 4.994141,0.6816406 -0.84961,0.53125 A 5,5 0 0 1 16,11 5,5 0 0 1 15.148438,13.789062 l 0.845703,0.529297 A 6,6 0 0 0 17,11 6,6 0 0 0 15.994141,7.6816406 Z M 4,8.5 v 5 L 8,11 Z M 14.300781,8.7402344 13.449219,9.273438 A 3,3 0 0 1 14,11 3,3 0 0 1 13.451172,12.728516 l 0.845703,0.529296 A 4,4 0 0 0 15,11 4,4 0 0 0 14.300781,8.7402344 Z M 8.1933594,12.058594 7.3339844,12.595703 A 4,4 0 0 0 11,15 V 14 A 3,3 0 0 1 8.1933594,12.058594 Z M 12,13 v 5 l 4,-2.5 z M 6.4824219,13.126953 5.6308594,13.660156 A 6,6 0 0 0 11,17 V 16 A 5,5 0 0 1 6.4824219,13.126953 Z"
     id="path12" />
  <path
     style="opacity:1;fill:#000000;fill-opacity:0.30952382;stroke:none;stroke-width:1;stroke-miterlimit:4;stroke-dasharray:none;stroke-opacity:0"
     d="M 10.201674,20.955028 C 8.8177742,20.809383 7.7673505,20.517319 6.615609,19.957947 3.7338992,18.558371 1.6890821,15.821381 1.1535631,12.646992 0.9470602,11.422908 1.0068669,10.278533 1.3465985,8.9533458 2.2258444,5.5236811 5.0458916,2.7092112 8.4835572,1.8305021 9.5542669,1.5568158 10.89451,1.4493636 11.952015,1.5524231 c 2.970003,0.2894429 5.673205,1.900229 7.319797,4.3617269 0.386008,0.5770443 0.66162,1.0720365 0.874991,1.5714613 0.863541,2.0212406 1.036515,3.9372207 0.536195,5.9392517 -0.707337,2.830409 -2.606564,5.191241 -5.230388,6.501629 -0.940373,0.46964 -1.936811,0.787527 -2.966955,0.946526 -0.430976,0.06652 -1.92234,0.12007 -2.283981,0.08201 z m 3.829041,-3.719494 c 1.875035,-1.171691 1.959294,-1.229799 1.872615,-1.29141 -0.30151,-0.214313 -0.29413,-0.190973 -0.09616,-0.304086 0.09815,-0.05608 0.172336,-0.12117 0.164864,-0.14465 -0.01398,-0.04393 -3.909252,-2.495869 -3.966659,-2.496876 -0.01761,-2.99e-4 -0.0319,1.070455 -0.03176,2.379475 2.14e-4,2.168992 0.02232,3.084443 0.07441,3.084443 0.01062,0 0.902835,-0.552103 1.982693,-1.226896 z m -3.0243,-0.103091 c 0.01526,-0.214929 0.02774,-0.557966 0.02774,-0.762305 l 0,-0.371525 -0.352203,-0.02934 C 9.7722996,15.893478 9.0200923,15.639552 8.2841268,15.159826 7.6299923,14.73344 6.9450915,13.992588 6.6324187,13.373186 6.5637968,13.237247 6.4955198,13.126024 6.4806923,13.126024 c -0.030536,0 -0.8683276,0.513401 -0.8683276,0.532113 0,0.0067 0.048808,0.09945 0.1084622,0.20618 0.1069228,0.191305 0.1072259,0.194452 0.021346,0.22171 -0.1270752,0.04033 -0.110362,0.108278 0.1232009,0.500862 0.8168189,1.372952 2.1412115,2.345155 3.7402049,2.74559 0.3604042,0.09026 0.6018466,0.124465 1.3047806,0.184873 0.05627,0.0048 0.07321,-0.06302 0.09606,-0.384909 z m 0,-2.006489 c 0.01526,-0.214929 0.02774,-0.560728 0.02774,-0.768442 l 0,-0.377663 -0.151219,0 c -0.321021,0 -0.816535,-0.133989 -1.2147916,-0.328486 C 9.1336433,13.39033 8.6217134,12.893358 8.3684027,12.3896 8.2768996,12.207629 8.192887,12.058743 8.1817079,12.058743 c -0.033329,0 -0.8616933,0.518336 -0.8616933,0.539191 0,0.01056 0.040866,0.0993 0.090814,0.197206 l 0.090814,0.178011 -0.089305,0.0593 -0.089305,0.0593 0.1244087,0.246453 c 0.2733662,0.541535 0.7936619,1.124046 1.3240767,1.482405 0.5729161,0.387075 1.3898721,0.656276 2.0961511,0.690719 0.109971,0.0054 0.111268,0.0018 0.138747,-0.385367 z m 5.19919,-0.64376 c 0.3771,-0.645684 0.668356,-1.546318 0.763012,-2.359414 0.06905,-0.593132 0.02588,-1.883632 -0.07855,-2.3480188 C 16.769564,9.23889 16.570274,8.6926239 16.321589,8.2165307 15.992919,7.5873117 16.064332,7.6154841 15.574887,7.9219556 c -0.231566,0.1449978 -0.428643,0.2702036 -0.437949,0.2782359 -0.0093,0.00803 0.03536,0.093601 0.09925,0.1901537 0.0639,0.096553 0.109932,0.1801574 0.102303,0.1857888 -0.0076,0.00563 -0.0552,0.037971 -0.10572,0.071866 l -0.09185,0.061627 0.166665,0.2764199 c 0.332041,0.5507004 0.596997,1.3513581 0.657555,1.9870301 0.06102,0.640557 -0.165425,1.564108 -0.576935,2.352982 l -0.249099,0.477528 0.105022,0.06881 0.105021,0.06881 -0.09457,0.168259 c -0.05201,0.09254 -0.08004,0.182792 -0.06228,0.200552 0.06965,0.06965 0.732995,0.475539 0.781472,0.478168 0.02831,0.0015 0.132635,-0.136164 0.231823,-0.305998 z M 6.0179315,12.745328 c 1.0566084,-0.660874 1.9211061,-1.223445 1.9211061,-1.250157 0,-0.02671 -0.078657,-0.09016 -0.1747937,-0.141 l -0.1747942,-0.09243 0.2068126,-0.116255 c 0.1137466,-0.06394 0.206048,-0.129554 0.2051139,-0.14581 C 8.0004426,10.983416 7.2588333,10.509051 6.3533562,9.9455262 5.4478796,9.3820018 4.5457237,8.8200821 4.3485659,8.6968158 l -0.3584686,-0.2241209 0,2.7581441 c 0,2.189273 0.011007,2.753807 0.053364,2.737112 0.02935,-0.01157 0.9178618,-0.561749 1.9744701,-1.222623 z m 8.6879185,0.241408 c 0.244138,-0.625713 0.274162,-0.823293 0.274012,-1.803164 -1.29e-4,-0.855881 -0.0054,-0.913623 -0.116793,-1.2739504 C 14.745732,9.5299841 14.50698,9.0036685 14.369308,8.8211515 l -0.0741,-0.098236 -0.431124,0.2690829 -0.431123,0.2690834 0.109755,0.1872822 0.109755,0.1872822 -0.09522,0.071827 -0.09522,0.071827 0.173507,0.3216717 c 0.233411,0.432729 0.358128,0.917112 0.322713,1.253366 -0.03525,0.33472 -0.20339,0.835653 -0.381683,1.137164 l -0.142302,0.240647 0.110347,0.08239 0.110347,0.08239 -0.09911,0.160368 c -0.05548,0.08977 -0.08263,0.175674 -0.06168,0.195135 0.02059,0.01912 0.210092,0.141666 0.421122,0.272321 l 0.38369,0.237553 0.138788,-0.222081 c 0.07633,-0.122145 0.196975,-0.371211 0.268091,-0.55348 z M 8.3552956,10.124208 C 8.6403511,9.5689083 9.1430823,9.0749313 9.6876907,8.8150138 10.013304,8.6596129 10.548648,8.5153695 10.799787,8.5153695 l 0.178889,0 0.02774,-0.3907795 c 0.01526,-0.2149291 0.02774,-0.5632085 0.02774,-0.7739551 l 0,-0.3831753 -0.348575,0.030406 C 9.3052864,7.1182707 8.0833383,7.9237887 7.4593319,9.1246329 L 7.3211561,9.39054 l 0.092252,0.076905 0.092252,0.076905 -0.087787,0.1806916 -0.087787,0.1806915 0.4112038,0.2615452 c 0.2261616,0.14385 0.4208089,0.263184 0.432549,0.265188 0.01174,0.002 0.093395,-0.136712 0.1814561,-0.308258 z M 14.332052,8.0494748 c 0.909857,-0.5687525 1.654286,-1.039844 1.654286,-1.0468697 0,-0.00703 -0.07957,-0.065428 -0.176811,-0.1297822 L 15.632716,6.7558152 15.80922,6.643021 c 0.09708,-0.062037 0.176641,-0.1259161 0.17681,-0.1419531 2.94e-4,-0.027871 -3.946537,-2.5109706 -3.99113,-2.5109706 -0.03169,0 -0.02627,4.6589414 0.0059,5.1128356 l 0.02749,0.3872241 0.324717,-0.2032935 C 12.531643,9.1750521 13.422195,8.6182272 14.332052,8.0494748 Z M 6.615609,9.1237103 C 7.1761182,8.050247 8.2953832,7.1253058 9.4899415,6.7484116 9.8747352,6.6270058 10.521624,6.5093278 10.805725,6.5090525 l 0.177139,-1.708e-4 0.0292,-0.5229677 c 0.01606,-0.2876323 0.0228,-0.6286286 0.01497,-0.7577697 l -0.01423,-0.2348027 -0.34153,0.011544 C 9.6444103,5.0395938 8.5711686,5.399821 7.625514,6.0271776 6.9324681,6.4869508 6.1513805,7.3346252 5.7706288,8.0401894 l -0.1619202,0.3000512 0.1043477,0.068371 0.104348,0.068371 -0.1008311,0.1804059 -0.1008308,0.1804064 0.4145508,0.2629516 c 0.2280029,0.1446235 0.4241563,0.2641427 0.4358964,0.2655981 0.01174,0.00146 0.078979,-0.1077301 0.1494194,-0.2426349 z"
     id="path3346"
     inkscape:connector-curvature="0" />
  <path
     style="opacity:1;fill:#000000;fill-opacity:0.30952382;stroke:none;stroke-width:1;stroke-miterlimit:4;stroke-dasharray:none;stroke-opacity:0"
     d="M 10.108977,21.449981 C 8.2085731,21.265232 6.484397,20.593929 4.9430261,19.438634 4.4067768,19.036701 3.460301,18.090832 3.0603008,17.557115 2.0631154,16.226577 1.4241123,14.751908 1.1516725,13.15245 1.051147,12.562278 1.0810466,12.493605 1.1964002,13.049721 c 0.2874716,1.38589 0.9407263,2.818229 1.8245196,4.000478 0.4150213,0.555173 1.4003931,1.533127 1.9724218,1.957573 3.0619242,2.271952 7.0303484,2.641603 10.4166644,0.970291 1.634336,-0.806624 2.918761,-1.933858 3.940313,-3.458085 0.62875,-0.938141 1.192863,-2.270622 1.442469,-3.407234 0.09179,-0.417997 0.102134,-0.443726 0.08277,-0.205953 -0.08424,1.034316 -0.658281,2.645655 -1.351174,3.792774 -0.525075,0.869288 -1.420048,1.891449 -2.234188,2.551697 -1.39653,1.132551 -3.102874,1.875574 -4.911267,2.138601 -0.536206,0.07799 -1.754282,0.11025 -2.26995,0.06012 z"
     id="path3348"
     inkscape:connector-curvature="0" />
  <path
     style="opacity:1;fill:#000000;fill-opacity:0.30952382;stroke:none;stroke-width:1;stroke-miterlimit:4;stroke-dasharray:none;stroke-opacity:0"
     d="m 12.221503,1.5702245 c 0.03082,-0.012332 0.06764,-0.010815 0.08183,0.00337 0.01419,0.014186 -0.01103,0.024276 -0.05603,0.022422 -0.04973,-0.00205 -0.05985,-0.012164 -0.02579,-0.025793 z"
     id="path3350"
     inkscape:connector-curvature="0" />
  <path
     style="opacity:1;fill:#000000;fill-opacity:0.30952382;stroke:none;stroke-width:1;stroke-miterlimit:4;stroke-dasharray:none;stroke-opacity:0"
     d="M 9.6366149,20.876766 C 6.8231081,20.412927 4.5530663,19.056184 2.9607173,16.886761 2.0397437,15.632022 1.4176456,14.146463 1.1445111,12.549692 1.0307461,11.884611 1.0417101,10.57632 1.166991,9.867268 1.5495607,7.7020376 2.4802235,5.9181074 4.0155171,4.4071033 5.6543511,2.7941969 7.555534,1.8793259 9.8601437,1.5946021 10.498366,1.5157527 11.767128,1.5259134 12.372635,1.614723 16.299294,2.1906454 19.491369,4.9638 20.5803,8.7452336 c 0.279209,0.9695861 0.335162,1.3839684 0.335005,2.4810304 -1.71e-4,1.062829 -0.03769,1.374415 -0.27898,2.315609 -0.947896,3.697448 -4.049355,6.562809 -7.87239,7.273106 -0.61466,0.1142 -2.574525,0.152922 -3.1273201,0.06179 z m 3.3570211,-2.996207 c 1.156352,-0.708917 1.941852,-1.205682 2.427391,-1.535128 0.217383,-0.147498 0.432248,-0.279924 0.477479,-0.294279 0.07381,-0.02343 0.06639,-0.04062 -0.07245,-0.167856 L 15.67138,15.741541 15.82833,15.63981 c 0.08632,-0.05595 0.157188,-0.116265 0.157479,-0.134029 6.4e-4,-0.0392 -0.169401,-0.148904 -2.276964,-1.469016 -0.912159,-0.571348 -1.676747,-1.038815 -1.699086,-1.038815 -0.05111,0 -0.02967,5.240846 0.02187,5.347079 0.01994,0.04109 0.04666,0.07471 0.05938,0.07471 0.01272,0 0.418904,-0.242631 0.902621,-0.53918 z m -2.008068,-0.599258 c 0.02672,-0.133058 0.04858,-0.477327 0.04858,-0.765045 l 0,-0.523122 -0.288166,-0.02755 C 9.3185071,15.829117 8.3249913,15.350436 7.3627058,14.335502 7.0989016,14.057264 6.877095,13.771123 6.7281427,13.516885 6.602195,13.301911 6.4873875,13.126024 6.4730155,13.126024 c -0.040932,0 -0.8165986,0.475555 -0.8415695,0.515959 -0.012271,0.01985 0.019003,0.11708 0.069497,0.216056 0.078627,0.154123 0.082969,0.186509 0.030245,0.225594 -0.088484,0.06559 -0.039873,0.202716 0.2210313,0.623491 0.6844556,1.103859 1.715193,1.932204 2.9900629,2.402943 0.5100477,0.188332 0.8345285,0.27223 1.3343371,0.345008 0.682946,0.09944 0.652584,0.106887 0.708949,-0.173774 z m -0.01619,-1.860622 c 0.01681,-0.05283 0.04048,-0.395724 0.05261,-0.761985 l 0.02205,-0.665929 -0.25041,-0.02942 C 9.7289744,13.838284 8.8353971,13.245308 8.3662771,12.352571 8.2813561,12.190965 8.196643,12.058743 8.1780262,12.058743 c -0.035541,0 -0.7681858,0.450774 -0.8294521,0.510337 -0.019512,0.01897 0.00591,0.115625 0.056504,0.214789 l 0.091981,0.180298 -0.089294,0.06254 c -0.089256,0.06252 -0.08923,0.06267 0.061954,0.35037 0.3043455,0.579171 1.0653477,1.342361 1.6132693,1.617909 0.5190282,0.261018 1.3331856,0.512435 1.6793656,0.518601 0.14691,0.0026 0.181576,-0.01294 0.20702,-0.09291 z m 5.23382,-0.949881 c 0.340182,-0.564106 0.682439,-1.660747 0.771384,-2.471632 0.06022,-0.54905 0.02048,-1.775905 -0.07137,-2.2030592 C 16.798118,9.3073412 16.597402,8.7546163 16.34511,8.259222 15.995821,7.5733653 16.064913,7.6033862 15.561267,7.9186423 c -0.235815,0.147608 -0.428754,0.2772049 -0.428754,0.2879935 0,0.010788 0.04323,0.096678 0.09605,0.190867 l 0.09606,0.1712512 -0.09415,0.062629 -0.09414,0.062629 0.191525,0.3542251 c 0.81409,1.5056481 0.818126,2.7758061 0.01377,4.3339351 l -0.209366,0.405566 0.107271,0.08732 c 0.09765,0.07949 0.101612,0.0948 0.04417,0.170765 -0.08528,0.112778 -0.08163,0.24804 0.0089,0.329779 0.154347,0.139363 0.590198,0.375318 0.671562,0.363561 0.05099,-0.0074 0.145888,-0.113919 0.239027,-0.268366 z M 4.6506462,13.596332 c 0.7693475,-0.464637 1.9573364,-1.218092 2.6326769,-1.669716 0.3437628,-0.229886 0.6329358,-0.414271 0.6426066,-0.409744 0.046997,0.022 -0.1767631,-0.1684 -0.2440402,-0.207654 -0.068441,-0.03993 -0.054428,-0.05854 0.1219283,-0.161892 0.109591,-0.06423 0.1990454,-0.130371 0.1987867,-0.146991 C 8.0023483,10.983715 7.8918822,10.901013 7.7571298,10.816554 7.042708,10.368774 4.2872533,8.6478848 4.1472917,8.5620686 l -0.1629899,-0.099936 0.0092,2.7569854 c 0.0091,2.726427 0.010133,2.756488 0.093133,2.712068 0.046161,-0.0247 0.2999654,-0.175389 0.5640086,-0.334854 z M 14.726993,12.896086 c 0.17232,-0.442497 0.188283,-0.519055 0.236913,-1.136182 0.06821,-0.865602 0.03421,-1.457263 -0.108942,-1.8957985 C 14.72291,9.4595671 14.49474,8.9600705 14.376725,8.8171705 l -0.0857,-0.1037657 -0.401065,0.2496007 c -0.220585,0.1372801 -0.417107,0.263414 -0.436715,0.2802975 -0.01961,0.016884 0.01538,0.1115305 0.07774,0.2103266 0.103843,0.1644979 0.107745,0.1858721 0.04632,0.2537418 -0.09304,0.1028095 -0.08718,0.1363148 0.0829,0.4740466 0.380559,0.755689 0.36726,1.390681 -0.04609,2.200759 l -0.182414,0.35749 0.110102,0.0802 c 0.105693,0.07699 0.107266,0.08425 0.03927,0.181332 -0.13673,0.195209 -0.09734,0.258743 0.322256,0.519746 l 0.393089,0.244517 0.1229,-0.197456 c 0.06759,-0.108601 0.206046,-0.410966 0.30767,-0.671924 z M 8.3636759,10.125087 C 8.701683,9.5249666 9.1360878,9.1031033 9.6893787,8.8376581 10.004576,8.6864397 10.616946,8.5153695 10.843055,8.5153695 c 0.07503,0 0.137357,-0.023523 0.141392,-0.053364 0.004,-0.02935 0.01935,-0.3781958 0.03419,-0.775212 l 0.02698,-0.7218475 -0.336587,0.026527 C 9.3294945,7.1001956 8.1493428,7.8726485 7.4479632,9.1259584 l -0.1386257,0.247713 0.094009,0.1000683 0.094009,0.1000683 -0.08503,0.1645137 -0.08503,0.1645133 0.4088451,0.265064 c 0.2248646,0.145785 0.4244748,0.255404 0.4435779,0.243597 0.019103,-0.01181 0.1018843,-0.14069 0.1839578,-0.286409 z M 13.539947,8.5519904 c 1.786129,-1.1170988 2.403735,-1.5183146 2.403576,-1.5614391 -6.7e-5,-0.018377 -0.05765,-0.071834 -0.12795,-0.1187948 -0.07031,-0.04696 -0.127884,-0.098224 -0.127951,-0.1139191 -8.6e-5,-0.015695 0.06712,-0.070092 0.149296,-0.1208828 0.08218,-0.050791 0.14942,-0.1074376 0.14942,-0.1258824 0,-0.018445 -0.07204,-0.081176 -0.160093,-0.1394023 -0.381967,-0.2525874 -3.734266,-2.3451891 -3.793114,-2.3677716 -0.0579,-0.022216 -0.06356,0.2692451 -0.05172,2.6594997 0.0117,2.3620102 0.0269,2.7911789 0.09888,2.7911789 0.0091,0 0.665926,-0.4061641 1.459656,-0.9025865 z M 6.6856303,9.0148703 C 7.2724932,8.0016247 8.3820601,7.1058142 9.4639408,6.7717962 9.8263685,6.6599007 10.603343,6.5088809 10.8166,6.5088809 l 0.162333,0 0.02761,-0.3266256 c 0.01519,-0.1796439 0.02761,-0.525443 0.02761,-0.7684424 l 0,-0.4418169 -0.129756,0 c -0.07137,0 -0.316307,0.020262 -0.544314,0.045026 C 9.2831792,5.1339861 8.2414355,5.5484261 7.3542252,6.2128512 6.790769,6.6348196 6.0810992,7.4602024 5.7169407,8.1170981 l -0.1223765,0.2207518 0.1020927,0.08267 0.1020931,0.082669 -0.095455,0.1617849 c -0.0525,0.088982 -0.080029,0.1760122 -0.061174,0.1934012 0.100105,0.092323 0.8038275,0.5019833 0.8321971,0.48445 0.018301,-0.011311 0.1133918,-0.1588904 0.2113127,-0.327955 z"
     id="path3352"
     inkscape:connector-curvature="0" />
  <path
     style="opacity:1;fill:#000000;fill-opacity:0.30952382;stroke:none;stroke-width:1;stroke-miterlimit:4;stroke-dasharray:none;stroke-opacity:0"
     d="M 1.04934,10.264591 C 1.0466237,10.205274 1.0644163,9.9939526 1.088879,9.7949871 1.3227686,7.8926638 2.1450142,6.0216572 3.4054181,4.5237379 4.6942213,2.992068 6.5774516,1.8216064 8.5547231,1.3233523 9.8749674,0.99066287 11.340326,0.93039943 12.65642,1.1546684 c 3.113261,0.5305148 5.796205,2.500127 7.233715,5.310439 0.301639,0.5896989 0.583159,1.319268 0.749955,1.9435339 0.136644,0.5114156 0.300463,1.4479253 0.294976,1.6863047 -0.0019,0.08218 -0.04037,-0.0619 -0.08552,-0.3201848 C 20.364217,6.9981021 18.684821,4.5080941 16.285176,3.0072605 15.477697,2.5022308 14.36147,2.028966 13.406855,1.7868923 12.035874,1.4392354 10.365065,1.4177304 8.8568994,1.7283297 6.0055191,2.3155579 3.387394,4.3609708 2.0547436,7.0425215 1.5925644,7.9725152 1.267463,8.9859521 1.1166381,9.9668718 1.0823404,10.189934 1.0520563,10.323907 1.04934,10.264591 Z"
     id="path3354"
     inkscape:connector-curvature="0" />
  <path
     style="opacity:1;fill:#000000;fill-opacity:0.30952382;stroke:none;stroke-width:1;stroke-miterlimit:4;stroke-dasharray:none;stroke-opacity:0"
     d="M 12.042595,9.3204738 C 11.981349,9.0142417 11.90713,9.0751745 13.713771,7.9484532 14.6467,7.3666271 15.467639,6.8558415 15.53808,6.8133742 l 0.128073,-0.077214 0.140843,0.133771 0.140842,0.133771 -0.525064,0.3447211 c -0.398678,0.2617449 -3.014686,1.9050329 -3.305469,2.0763841 -0.02987,0.017604 -0.05825,-0.022019 -0.07471,-0.1043341 z"
     id="path3356"
     inkscape:connector-curvature="0" />
  <path
     style="opacity:1;fill:#000000;fill-opacity:0.30952382;stroke:none;stroke-width:1;stroke-miterlimit:4;stroke-dasharray:none;stroke-opacity:0"
     d="M 9.9882175,20.896276 C 8.9725692,20.815252 7.5938742,20.410878 6.5302265,19.882042 4.3243201,18.785286 2.6063215,16.887676 1.7028007,14.549924 1.4724153,13.95383 1.2401998,13.09264 1.1519369,12.507001 1.0765685,12.00692 1.0653601,10.717179 1.1317075,10.179208 1.3392854,8.4960828 2.1439981,6.6109185 3.2135865,5.3020835 4.5941671,3.6126935 6.3333127,2.4548485 8.3019132,1.9145043 9.3589925,1.6243557 9.7253939,1.5794321 11.034153,1.5795112 c 1.034391,6.23e-5 1.232982,0.011323 1.669896,0.094688 3.844089,0.7334674 6.808733,3.4116152 7.877321,7.1160749 0.274704,0.9523136 0.325142,1.3876218 0.304335,2.6265848 -0.01667,0.992835 -0.02881,1.137775 -0.135985,1.623783 -0.61853,2.804875 -2.284682,5.109846 -4.73486,6.55025 -1.119917,0.658375 -2.534398,1.147712 -3.635933,1.257845 -0.617137,0.0617 -1.894728,0.08711 -2.3907095,0.04754 z M 12.31114,18.305958 c 0.772297,-0.448649 3.632506,-2.260202 3.632506,-2.300698 0,-0.008 -0.05968,-0.07037 -0.132621,-0.13854 l -0.132621,-0.123945 0.153967,-0.09516 c 0.08468,-0.05234 0.153967,-0.111878 0.153967,-0.132315 0,-0.0486 -0.166833,-0.160565 -1.36612,-0.916822 -1.460333,-0.92087 -2.570369,-1.600531 -2.614018,-1.600531 -0.04772,0 -0.02499,5.294202 0.02304,5.368425 0.04675,0.07224 0.05751,0.06993 0.281896,-0.06042 z m -1.323216,-0.998293 c 0.02543,-0.118557 0.04623,-0.463179 0.04623,-0.765827 l 0,-0.550269 -0.202783,-0.02443 C 9.931862,15.858787 9.3480695,15.70202 8.7928626,15.419737 7.9630088,14.997815 7.1722264,14.248494 6.6763441,13.41419 6.582142,13.255699 6.4897812,13.126024 6.471097,13.126024 c -0.046168,0 -0.7377116,0.416733 -0.8092092,0.48764 -0.047799,0.0474 -0.045938,0.07852 0.011317,0.189239 0.046647,0.0902 0.060089,0.185246 0.042106,0.297706 -0.031394,0.196325 0.015199,0.298785 0.3767588,0.828514 0.7216921,1.057367 1.7729081,1.833938 3.0699711,2.2679 0.5286939,0.176886 1.1660353,0.304136 1.6017543,0.319803 l 0.1779,0.0064 0.04623,-0.215557 z m -0.01596,-1.865641 c 0.01778,-0.04109 0.04125,-0.384783 0.05216,-0.763762 l 0.01983,-0.689053 -0.229029,-0.02961 C 9.7467899,13.821529 8.9161071,13.282078 8.3973273,12.3896 8.2915512,12.207629 8.1915606,12.058743 8.1751258,12.058743 c -0.040969,0 -0.7349772,0.420837 -0.8041144,0.487604 -0.045786,0.04421 -0.042945,0.08578 0.015915,0.232885 0.066318,0.165744 0.066459,0.184796 0.0019,0.256138 -0.064952,0.07177 -0.061641,0.09218 0.048121,0.296595 0.295978,0.551215 0.9791626,1.280985 1.4824553,1.583542 0.6744559,0.405452 1.9620284,0.735735 2.0525674,0.526517 z m 5.205217,-0.918183 c 0.252013,-0.379558 0.570377,-1.265203 0.755689,-2.102222 0.07693,-0.347463 0.07739,-2.10919 6.66e-4,-2.518784 C 16.84237,9.4161466 16.597788,8.7422482 16.31377,8.1951851 16.09598,7.7756855 16.032571,7.6854969 15.963707,7.6972818 c -0.106916,0.018297 -0.831194,0.4719547 -0.831194,0.5206253 0,0.020039 0.04039,0.1048975 0.08976,0.1885749 l 0.08976,0.1521405 -0.08958,0.074429 -0.08958,0.074429 0.234608,0.4550536 c 0.75678,1.4678753 0.754263,2.6208183 -0.0091,4.1498453 l -0.231562,0.463848 0.09186,0.09778 c 0.07435,0.07914 0.08303,0.114293 0.04551,0.184387 -0.07146,0.133517 -0.05557,0.239439 0.05092,0.339483 0.128608,0.12082 0.544823,0.34866 0.638714,0.349638 0.04274,4.44e-4 0.137539,-0.09451 0.2233,-0.223677 z M 4.6474674,13.607613 c 0.849099,-0.510009 3.1305909,-1.969576 3.2699518,-2.091925 0.01159,-0.01018 -0.044734,-0.07221 -0.1251643,-0.137853 l -0.1462372,-0.119353 0.1785284,-0.1127 C 7.9227368,11.083797 8.0028367,11.018915 8.002546,11.001599 8.0022471,10.984283 7.9302138,10.923212 7.8424538,10.865885 7.4891897,10.635122 4.0243039,8.4726782 4.0078173,8.4726782 c -0.029169,0 -0.019999,5.1862648 0.00943,5.3334098 0.033007,0.165035 0.016226,0.17032 0.63022,-0.198475 z m 9.8548546,-0.184596 c 0.314817,-0.624461 0.416268,-0.981066 0.466179,-1.638635 0.06924,-0.912223 0.03086,-1.500549 -0.12903,-1.9777782 -0.146285,-0.4366303 -0.389862,-0.9463804 -0.493192,-1.0321365 -0.05775,-0.04793 -0.117815,-0.025647 -0.409374,0.1518767 -0.18793,0.1144266 -0.383078,0.2392545 -0.433663,0.2773953 l -0.09197,0.069347 0.09668,0.1564262 c 0.08504,0.1375999 0.09033,0.1717482 0.04395,0.2837299 -0.04762,0.1149684 -0.03769,0.1601993 0.102453,0.4667903 0.166526,0.364302 0.281618,0.783415 0.28144,1.024885 -2.14e-4,0.284208 -0.12377,0.731028 -0.312081,1.128556 l -0.189068,0.399128 0.08694,0.08694 c 0.07728,0.07728 0.08094,0.101412 0.03294,0.21729 -0.0297,0.07169 -0.04283,0.159447 -0.02918,0.195007 0.02975,0.07754 0.713747,0.536173 0.774701,0.519458 0.02348,-0.0064 0.11451,-0.154163 0.202289,-0.328277 z M 8.4143206,10.062885 C 8.6326376,9.6846097 9.1241321,9.1728117 9.4610284,8.9729381 9.7687213,8.7903899 10.384211,8.5804219 10.740346,8.5365114 l 0.239833,-0.029571 0.02699,-0.2581954 c 0.01484,-0.1420077 0.02699,-0.4916759 0.02699,-0.7770404 l 0,-0.5188442 -0.352203,0.033936 C 9.2719651,7.1226533 8.1150178,7.8997997 7.4038059,9.1887974 l -0.1006838,0.1824786 0.091198,0.091198 0.091198,0.091198 -0.086211,0.1689877 c -0.047416,0.092943 -0.070246,0.1841888 -0.050734,0.2027681 0.019512,0.018579 0.2068178,0.1408255 0.4162341,0.2716585 0.2708457,0.169211 0.3957197,0.22546 0.4325917,0.194859 0.028509,-0.02366 0.1261236,-0.171738 0.2169207,-0.329061 z M 13.588648,8.5298755 c 1.702689,-1.063961 2.354998,-1.4936403 2.354998,-1.5512496 0,-0.022352 -0.05763,-0.070443 -0.128073,-0.1068694 -0.07044,-0.036426 -0.127836,-0.080144 -0.127546,-0.097152 2.99e-4,-0.017007 0.06879,-0.075153 0.152232,-0.1292136 0.08344,-0.05406 0.144046,-0.1212987 0.134687,-0.1494194 C 15.957852,6.4446079 14.939717,5.790867 13.093184,4.6456042 12.546818,4.3067351 12.070163,4.0181091 12.033951,4.0042131 c -0.05898,-0.022634 -0.06446,0.2543383 -0.05254,2.6591849 0.01196,2.4132666 0.02616,2.7911789 0.104893,2.7911789 0.01239,0 0.688441,-0.4161154 1.502347,-0.9247014 z M 6.8514004,8.7868525 C 7.3381724,8.0400929 8.2585274,7.2676204 9.058023,6.9347897 9.4682786,6.7639995 10.039137,6.6183907 10.57007,6.5491118 l 0.411087,-0.053641 0.02613,-0.217424 c 0.01437,-0.1195833 0.02629,-0.4652005 0.0265,-0.7680385 l 3.71e-4,-0.5506147 -0.41624,0.029138 C 9.5179379,5.0655341 8.4178712,5.4524372 7.5334708,6.0733576 7.1638239,6.3328794 6.561815,6.9199216 6.2331402,7.3413602 5.9517588,7.702158 5.6123647,8.2405019 5.6123647,8.3260291 c 0,0.027969 0.040351,0.077645 0.089669,0.1103906 l 0.08967,0.059538 -0.095716,0.1622268 C 5.5801179,8.8545685 5.5760332,8.8493303 6.0819684,9.1531916 l 0.3628756,0.217941 0.076093,-0.097024 C 6.562788,9.220745 6.7114965,9.0014797 6.8514004,8.7868525 Z"
     id="path3358"
     inkscape:connector-curvature="0" />
  <path
     style="opacity:1;fill:#000000;fill-opacity:0.30952382;stroke:none;stroke-width:1;stroke-miterlimit:4;stroke-dasharray:none;stroke-opacity:0"
     d="m 12.041965,18.309519 c -0.01425,-0.03714 -0.02591,-0.118828 -0.02591,-0.181528 0,-0.103975 0.160434,-0.214251 1.82456,-1.254131 l 1.824561,-1.140133 0.117891,0.112947 c 0.06484,0.06212 0.117891,0.126499 0.117891,0.143063 0,0.03981 -1.067824,0.736984 -2.262636,1.477266 -1.628281,1.00885 -1.548653,0.966824 -1.596354,0.842516 z"
     id="path3360"
     inkscape:connector-curvature="0" />
  <path
     style="opacity:1;fill:#000000;fill-opacity:0.30952382;stroke:none;stroke-width:1;stroke-miterlimit:4;stroke-dasharray:none;stroke-opacity:0"
     d="m 15.573611,14.550984 c -0.30987,-0.183312 -0.370523,-0.283815 -0.288709,-0.478394 l 0.05768,-0.137175 0.310102,0.192982 c 0.170556,0.10614 0.324159,0.192982 0.341341,0.192982 0.05483,0 0.381014,-0.594926 0.556657,-1.015289 0.0934,-0.223525 0.215005,-0.581213 0.27024,-0.79486 0.05523,-0.213648 0.101347,-0.340423 0.102471,-0.281722 0.0057,0.298843 -0.358666,1.492889 -0.605809,1.985143 -0.278559,0.554827 -0.333013,0.579445 -0.743971,0.336333 z"
     id="path3362"
     inkscape:connector-curvature="0" />
  <path
     style="opacity:1;fill:#000000;fill-opacity:0.30952382;stroke:none;stroke-width:1;stroke-miterlimit:4;stroke-dasharray:none;stroke-opacity:0"
     d="m 13.910848,13.501227 c -0.185111,-0.124181 -0.34307,-0.260922 -0.351019,-0.30387 -0.008,-0.04295 0.0082,-0.1328 0.03591,-0.199673 l 0.05036,-0.121586 0.315625,0.194782 c 0.247866,0.152965 0.328331,0.184237 0.374808,0.145664 0.08337,-0.06919 0.351615,-0.610799 0.478282,-0.96569 l 0.106661,-0.298839 -0.02272,0.243696 c -0.03593,0.385379 -0.469634,1.47073 -0.605845,1.516134 -0.02502,0.0083 -0.196952,-0.08644 -0.382064,-0.210618 z"
     id="path3364"
     inkscape:connector-curvature="0" />
  <path
     style="opacity:1;fill:#000000;fill-opacity:0.30952382;stroke:none;stroke-width:1;stroke-miterlimit:4;stroke-dasharray:none;stroke-opacity:0"
     d="M 10.561108,15.473595 C 9.9425727,15.36891 9.1660319,15.068096 8.7533919,14.773328 8.2553978,14.417588 7.5816355,13.636884 7.4053725,13.211347 c -0.047448,-0.114548 -0.046837,-0.141885 0.00388,-0.173995 0.089778,-0.05683 0.088696,-0.05773 0.2871722,0.236776 0.3637563,0.539747 0.9928607,1.074234 1.6055699,1.364092 0.3563618,0.168586 0.9525016,0.325764 1.3420496,0.353844 l 0.356992,0.02573 -0.02031,0.211328 c -0.01895,0.197202 -0.08013,0.292293 -0.181384,0.281934 -0.02348,-0.0024 -0.130689,-0.01926 -0.238243,-0.03746 z"
     id="path3366"
     inkscape:connector-curvature="0" />
  <path
     style="opacity:1;fill:#000000;fill-opacity:0.30952382;stroke:none;stroke-width:1;stroke-miterlimit:4;stroke-dasharray:none;stroke-opacity:0"
     d="M 10.393784,17.45918 C 8.5567692,17.204862 7.016085,16.272658 6.061514,14.837904 5.7340624,14.345733 5.6800972,14.220671 5.7438053,14.101632 c 0.041585,-0.0777 0.07338,-0.04592 0.3265602,0.32642 0.9941047,1.461985 2.7220091,2.446797 4.5048565,2.567524 l 0.41624,0.02819 -0.0043,0.132329 c -0.0065,0.20313 -0.05701,0.344609 -0.12569,0.352287 -0.03419,0.0038 -0.244669,-0.01832 -0.467731,-0.0492 z"
     id="path3368"
     inkscape:connector-curvature="0" />
  <path
     style="opacity:1;fill:#000000;fill-opacity:0.30952382;stroke:none;stroke-width:1;stroke-miterlimit:4;stroke-dasharray:none;stroke-opacity:0"
     d="m 4.0411223,13.692972 0.013012,-0.201494 1.7503411,-1.09786 c 0.9626876,-0.603823 1.7717642,-1.099088 1.7979479,-1.100589 0.058411,-0.0033 0.2725776,0.160951 0.2725776,0.209109 0,0.07684 -3.6651072,2.392329 -3.7867356,2.392329 -0.045087,0 -0.056896,-0.05047 -0.047143,-0.201495 z"
     id="path3370"
     inkscape:connector-curvature="0" />
  <path
     style="opacity:1;fill:#000000;fill-opacity:0.30952382;stroke:none;stroke-width:1;stroke-miterlimit:4;stroke-dasharray:none;stroke-opacity:0"
     d="M 6.0819684,9.1307615 C 5.6215565,8.8519819 5.6204439,8.8504722 5.7244549,8.6456653 L 5.8107568,8.4757291 6.1462609,8.6836334 6.481765,8.8915376 6.6670659,8.5663767 C 7.1565887,7.7073757 7.8137411,7.0679616 8.6861344,6.6018082 9.3032271,6.2720718 10.144366,6.0392772 10.718685,6.0392772 l 0.272777,0 0,0.1672733 c 0,0.2591999 -0.0308,0.3023304 -0.215923,0.3023304 -0.09025,0 -0.256294,0.019302 -0.368981,0.042894 -0.112686,0.023592 -0.262517,0.049882 -0.332958,0.058424 -0.07044,0.00854 -0.1568904,0.025842 -0.1921107,0.038447 -0.03522,0.012604 -0.2316229,0.073225 -0.4364502,0.1347122 C 8.7341918,6.9967478 8.087814,7.4017158 7.4675287,8.0223049 7.2279855,8.2619655 6.9416776,8.6020793 6.8188732,8.7928626 6.5303404,9.241114 6.4682197,9.3266905 6.4321781,9.3255682 6.4156642,9.325054 6.2580698,9.237391 6.0819684,9.1307615 Z"
     id="path3372"
     inkscape:connector-curvature="0" />
  <path
     style="opacity:1;fill:#000000;fill-opacity:0.30952382;stroke:none;stroke-width:1;stroke-miterlimit:4;stroke-dasharray:none;stroke-opacity:0"
     d="M 7.7854605,10.177904 C 7.5881657,10.059367 7.4097195,9.9454093 7.3889134,9.9246636 7.3669505,9.9027644 7.3866294,9.815101 7.4358332,9.7156514 L 7.5205822,9.5443584 7.8578837,9.753633 8.1951851,9.9629076 8.3446045,9.6696246 C 8.6910158,8.9896822 9.1982724,8.525833 9.9280243,8.2217027 10.124099,8.1399871 10.407887,8.0750146 10.788678,8.0246589 l 0.202784,-0.026816 -5.83e-4,0.162708 c -0.0011,0.298429 -0.03429,0.3548186 -0.209025,0.3548186 -0.234092,0 -0.8811486,0.1997717 -1.220549,0.376831 -0.3818573,0.1992083 -0.8851314,0.6918886 -1.1280893,1.1043435 -0.099515,0.168941 -0.2052593,0.327351 -0.234987,0.352023 -0.039713,0.03296 -0.1492011,-0.01231 -0.4127682,-0.170663 z"
     id="path3374"
     inkscape:connector-curvature="0" />
  <path
     style="opacity:1;fill:#000000;fill-opacity:0.30952382;stroke:none;stroke-width:1;stroke-miterlimit:4;stroke-dasharray:none;stroke-opacity:0"
     d="m 4.0327886,10.99351 c 0,-1.9400905 0.010942,-2.4342754 0.053364,-2.4101872 0.02935,0.016666 0.9139165,0.5671713 1.9657029,1.2233461 l 1.9123387,1.1930451 -1.9123387,1.196108 c -1.0517864,0.65786 -1.9363526,1.205574 -1.9657029,1.217142 -0.042314,0.01668 -0.053364,-0.484307 -0.053364,-2.419454 z"
     id="path3376"
     inkscape:connector-curvature="0" />
  <path
     style="opacity:1;fill:#000000;fill-opacity:0.30952382;stroke:none;stroke-width:1;stroke-miterlimit:4;stroke-dasharray:none;stroke-opacity:0"
     d="m 12.016052,15.49198 0,-2.461158 0.09605,0.06101 c 0.05283,0.03355 0.937223,0.586438 1.965316,1.228629 1.028094,0.642191 1.85417,1.182366 1.835724,1.200389 -0.03427,0.03349 -3.686868,2.319399 -3.822386,2.39217 -0.07075,0.03799 -0.07471,-0.09026 -0.07471,-2.42104 z"
     id="path3378"
     inkscape:connector-curvature="0" />
  <path
     style="opacity:1;fill:#000000;fill-opacity:0.30952382;stroke:none;stroke-width:1;stroke-miterlimit:4;stroke-dasharray:none;stroke-opacity:0"
     d="M 10.030909,16.899268 C 9.1141035,16.734697 8.2529779,16.378527 7.5334708,15.866304 7.1378018,15.584624 6.5375084,14.996672 6.2447675,14.604095 5.9949211,14.269042 5.6343726,13.68599 5.6619166,13.661553 c 0.064909,-0.05759 0.8109943,-0.499992 0.8222155,-0.487547 0.00796,0.0088 0.062898,0.11211 0.1220788,0.229511 0.3828542,0.759492 1.3167796,1.662388 2.1617388,2.089914 0.4983126,0.252132 1.2556283,0.45636 1.9140003,0.516153 l 0.309512,0.02811 0,0.465271 0,0.465271 -0.309512,-0.0038 c -0.170231,-0.0021 -0.4632,-0.03142 -0.651041,-0.06514 z"
     id="path3380"
     inkscape:connector-curvature="0" />
  <path
     style="opacity:1;fill:#000000;fill-opacity:0.30952382;stroke:none;stroke-width:1;stroke-miterlimit:4;stroke-dasharray:none;stroke-opacity:0"
     d="M 10.180328,14.895795 C 9.7927081,14.81315 9.364058,14.642468 8.9642006,14.411552 8.3632444,14.064502 7.5857046,13.199785 7.3860151,12.65642 c -0.016758,-0.0456 0.093903,-0.136117 0.3843711,-0.3144 0.2243479,-0.137701 0.4117063,-0.243361 0.4163521,-0.234802 0.00465,0.0086 0.075686,0.150039 0.1578662,0.314401 0.2274504,0.4549 0.8043815,1.0188 1.2807374,1.251808 0.3906391,0.19108 0.7079811,0.285682 1.1114411,0.331328 l 0.254679,0.02881 0,0.464089 0,0.46409 -0.266821,-0.0034 c -0.146751,-0.0019 -0.391692,-0.03002 -0.544313,-0.06256 z"
     id="path3382"
     inkscape:connector-curvature="0" />
  <path
     style="opacity:1;fill:#000000;fill-opacity:0.30952382;stroke:none;stroke-width:1;stroke-miterlimit:4;stroke-dasharray:none;stroke-opacity:0"
     d="M 6.0280857,8.5718725 5.6540187,8.3353922 5.8127853,8.0414468 C 6.0530472,7.5966186 6.3504273,7.2155466 6.8265381,6.7423928 7.8472693,5.7280014 9.1301178,5.146682 10.596568,5.0340141 l 0.394894,-0.03034 0,0.4901835 0,0.4901835 -0.394894,0.024889 C 9.8453606,6.0562771 9.0298629,6.328815 8.3139336,6.7717829 7.663074,7.17449 6.8263805,8.0872929 6.5479256,8.6984347 6.5189131,8.7621101 6.4742455,8.8128907 6.4486642,8.8112805 6.4230829,8.8096702 6.2338226,8.7019367 6.0280857,8.5718725 Z"
     id="path3384"
     inkscape:connector-curvature="0" />
  <path
     style="opacity:1;fill:#000000;fill-opacity:0.30952382;stroke:none;stroke-width:1;stroke-miterlimit:4;stroke-dasharray:none;stroke-opacity:0"
     d="M 7.7609531,9.6543648 C 7.5690858,9.5325165 7.3987803,9.4194993 7.3824963,9.4032153 7.2897247,9.3104436 7.9908108,8.3384774 8.4044396,7.9864216 9.0562755,7.4316184 10.084625,7.0229924 10.832768,7.0214983 l 0.16149,-3.225e-4 -0.01207,0.4802766 -0.01207,0.4802765 -0.285596,0.028242 C 10.291537,8.0488324 9.9636656,8.1502712 9.561305,8.3574777 9.0981255,8.5960044 8.5994227,9.0937637 8.3637833,9.5527335 8.2710543,9.7333478 8.175974,9.8799495 8.1524939,9.8785151 8.1290137,9.8770807 7.9528203,9.776213 7.7609531,9.6543648 Z"
     id="path3386"
     inkscape:connector-curvature="0" />
  <path
     style="opacity:1;fill:#000000;fill-opacity:0.30952382;stroke:none;stroke-width:1;stroke-miterlimit:4;stroke-dasharray:none;stroke-opacity:0"
     d="m 12.016052,6.4877184 0,-2.4545635 0.290531,0.1812546 c 3.338292,2.0826731 3.633249,2.2737644 3.582871,2.3211984 -0.06196,0.058341 -3.820549,2.406674 -3.851964,2.406674 -0.01179,0 -0.02144,-1.1045535 -0.02144,-2.4545635 z"
     id="path3388"
     inkscape:connector-curvature="0" />
  <path
     style="opacity:1;fill:#000000;fill-opacity:0.30952382;stroke:none;stroke-width:1;stroke-miterlimit:4;stroke-dasharray:none;stroke-opacity:0"
     d="m 13.865333,12.965684 c -0.244731,-0.151974 -0.378535,-0.259808 -0.356147,-0.28702 0.09472,-0.115134 0.343178,-0.671324 0.410419,-0.91876 0.10225,-0.37626 0.105005,-1.120171 0.0055,-1.494193 -0.04059,-0.152622 -0.152441,-0.4379317 -0.248559,-0.6340228 -0.09612,-0.1960911 -0.158455,-0.3704754 -0.138528,-0.3875206 0.01993,-0.017045 0.196757,-0.131253 0.392956,-0.2537952 0.414886,-0.25913 0.370433,-0.278061 0.643076,0.2738665 0.300568,0.6084592 0.366349,0.9188021 0.366107,1.7272231 -1.83e-4,0.613256 -0.01336,0.750501 -0.101818,1.060634 -0.103106,0.361482 -0.460268,1.120556 -0.53834,1.14413 -0.02348,0.0071 -0.219095,-0.09665 -0.4347,-0.230542 z"
     id="path3390"
     inkscape:connector-curvature="0" />
  <path
     style="opacity:1;fill:#000000;fill-opacity:0.30952382;stroke:none;stroke-width:1;stroke-miterlimit:4;stroke-dasharray:none;stroke-opacity:0"
     d="m 15.578543,14.036464 -0.386448,-0.240065 0.268972,-0.537971 c 0.65262,-1.305304 0.728794,-2.644887 0.22864,-4.0208375 C 15.616454,9.0360673 15.472775,8.7286904 15.37042,8.5545305 15.268065,8.3803707 15.191117,8.2265281 15.199425,8.212658 c 0.04267,-0.071248 0.755059,-0.4707073 0.80516,-0.4514815 0.09509,0.03649 0.611282,1.1280225 0.730156,1.543981 0.376908,1.3188635 0.299405,2.7311035 -0.218549,3.9823495 -0.145481,0.351445 -0.487832,0.99088 -0.529854,0.989649 -0.01174,-3.42e-4 -0.195248,-0.108655 -0.407795,-0.240692 z"
     id="path3392"
     inkscape:connector-curvature="0" />
  <path
     style="opacity:1;fill:#000000;fill-opacity:0.30952382;stroke:none;stroke-width:1;stroke-miterlimit:4;stroke-dasharray:none;stroke-opacity:0"
     d="M 9.39054,20.812138 C 6.6892569,20.326774 4.3889483,18.882501 2.8603498,16.712089 1.9470546,15.415328 1.2668324,13.645226 1.1247927,12.19575 1.0630554,11.565737 1.0993386,10.336953 1.1956489,9.7961068 1.8573803,6.0800456 4.581377,3.018758 8.1646399,1.9642007 9.2730345,1.6379992 9.4016619,1.6225261 11.012807,1.6215829 c 1.34769,-7.89e-4 1.48232,0.00598 1.882395,0.09465 1.663411,0.3686659 3.118926,1.0503471 4.350527,2.0375417 1.559935,1.2503715 2.755166,3.059871 3.328912,5.039748 0.273908,0.9451991 0.297067,1.1378707 0.294986,2.4540864 -0.0017,1.086 -0.01198,1.263768 -0.09551,1.654858 -0.445334,2.084932 -1.376491,3.788827 -2.852899,5.220434 -0.830181,0.80499 -1.579547,1.326973 -2.639283,1.838436 -1.009145,0.487046 -2.072063,0.79895 -3.033337,0.890105 -0.7671,0.07274 -2.3560777,0.05089 -2.858055,-0.0393 z m 2.851761,-2.462251 c 0.339776,-0.173714 3.521655,-2.184704 3.672622,-2.321147 0.01942,-0.01755 -0.02585,-0.08908 -0.100603,-0.158941 l -0.135916,-0.127024 0.153967,-0.09516 c 0.08468,-0.05234 0.153967,-0.112215 0.153967,-0.133065 0,-0.05182 -0.410957,-0.324396 -1.814378,-1.203443 -1.491033,-0.933922 -2.116462,-1.31316 -2.165632,-1.31316 -0.04784,0 -0.02524,5.294018 0.02292,5.368425 0.04385,0.06775 0.04908,0.06734 0.213057,-0.01649 z m -1.269382,-0.901374 c 0.01831,-0.04109 0.04151,-0.384938 0.05156,-0.764107 l 0.01827,-0.689397 -0.121699,-0.02302 c -0.06693,-0.01266 -0.236965,-0.03471 -0.377846,-0.049 C 10.159673,15.884096 9.4449227,15.698581 9.0709772,15.540871 8.2561896,15.197237 7.2988119,14.367274 6.7655453,13.542264 6.6175694,13.313332 6.4798679,13.126024 6.4595422,13.126024 c -0.049481,0 -0.7949456,0.46232 -0.8256978,0.512079 -0.013308,0.02153 0.00409,0.106841 0.038657,0.189576 0.037018,0.0886 0.053005,0.211113 0.038893,0.298068 -0.030178,0.185968 0.1544053,0.530316 0.5782175,1.078692 0.9138557,1.182448 2.3408524,2.005319 3.9120622,2.255873 0.511887,0.08163 0.731117,0.07828 0.771245,-0.0118 z m -9.52e-4,-2.006489 c 0.01778,-0.04109 0.04127,-0.385379 0.05219,-0.765087 l 0.01986,-0.690377 -0.207715,-0.02817 C 9.7434037,13.810166 8.9321581,13.278333 8.3781892,12.346909 8.2839261,12.188418 8.1895742,12.058743 8.1685193,12.058743 c -0.053724,0 -0.7968108,0.463192 -0.8304775,0.517666 -0.015207,0.0246 0.00627,0.119957 0.047727,0.211891 0.071796,0.159216 0.071828,0.171076 6.617e-4,0.249713 -0.071495,0.079 -0.069893,0.09141 0.037173,0.288067 0.2923885,0.537052 1.0072308,1.298794 1.4881985,1.585838 0.7090444,0.423162 1.9664311,0.746704 2.0601631,0.530106 l 10e-7,0 z m 5.160132,-0.834559 c 0.222778,-0.292077 0.558604,-1.162533 0.752723,-1.951045 0.111131,-0.451416 0.158937,-1.719065 0.09016,-2.390709 -0.07316,-0.714476 -0.339289,-1.5156131 -0.748068,-2.2519637 -0.126768,-0.2283529 -0.194829,-0.309465 -0.259563,-0.3093339 -0.108879,2.134e-4 -0.834942,0.4581949 -0.834556,0.5264082 1.71e-4,0.02736 0.03792,0.106843 0.08392,0.1766282 0.08307,0.1260289 0.08307,0.1274825 -2.99e-4,0.2162197 -0.08383,0.089235 -0.08366,0.089867 0.150634,0.5509775 0.75454,1.485008 0.735087,2.648193 -0.07129,4.262922 l -0.166242,0.332891 0.08594,0.109257 c 0.06434,0.08179 0.07544,0.128868 0.04419,0.18727 -0.06692,0.125041 -0.04883,0.232861 0.05552,0.330893 0.127476,0.119757 0.54448,0.348652 0.636977,0.349638 0.0399,4.27e-4 0.120873,-0.0626 0.179951,-0.140053 l 7e-6,0 z M 4.764817,13.53974 c 0.9724482,-0.589635 2.8950011,-1.820676 3.1315294,-2.005168 0.025806,-0.02013 -0.012685,-0.08089 -0.097319,-0.153622 L 7.6590181,11.260627 7.8310463,11.146784 c 0.094615,-0.06261 0.1720282,-0.13166 0.1720282,-0.153437 0,-0.03426 -3.938493,-2.5206688 -3.9927561,-2.5206688 -0.02996,0 -0.023413,5.2561078 0.00669,5.3684238 0.014158,0.05283 0.040734,0.09606 0.059058,0.09606 0.018324,0 0.3282632,-0.178839 0.6887536,-0.397418 z m 9.757482,-0.155332 c 0.390263,-0.77288 0.51449,-1.465836 0.47108,-2.627748 -0.01768,-0.473189 -0.04021,-0.612946 -0.152892,-0.9482367 -0.147708,-0.4395209 -0.391011,-0.9483105 -0.494589,-1.0342727 -0.05835,-0.048429 -0.125964,-0.021458 -0.473854,0.1890231 -0.223184,0.1350316 -0.415829,0.2617567 -0.4281,0.2816111 -0.01227,0.019855 0.01605,0.111282 0.06292,0.2031724 0.06938,0.1359908 0.07677,0.1898748 0.03973,0.2896302 -0.03915,0.1054457 -0.02331,0.1727843 0.113466,0.4823186 0.08743,0.197869 0.187975,0.506991 0.223426,0.686939 0.05801,0.29447 0.05771,0.360288 -0.0031,0.6584 -0.03715,0.182173 -0.152139,0.51986 -0.255531,0.750416 -0.183915,0.410118 -0.186249,0.420928 -0.107809,0.499368 0.06851,0.06851 0.07321,0.100161 0.03232,0.217465 -0.02632,0.07551 -0.03728,0.164871 -0.02434,0.198582 0.02957,0.07705 0.716621,0.540171 0.774739,0.522225 0.02362,-0.0073 0.123754,-0.173295 0.22252,-0.368893 l -2e-6,0 z M 8.4726782,9.9855326 C 8.7006328,9.6079268 9.209296,9.1169775 9.561305,8.9348169 9.9003055,8.7593875 10.437954,8.5818064 10.761978,8.538243 l 0.218775,-0.029413 0.0267,-0.1947997 c 0.01469,-0.1071397 0.0267,-0.4607056 0.0267,-0.7857016 l 0,-0.5909024 -0.202783,0.023901 C 9.6227121,7.1037868 8.8992299,7.4361954 8.1524939,8.1921545 7.86457,8.4836341 7.6582872,8.7391937 7.5188828,8.977121 7.3161348,9.3231591 7.3090002,9.3591555 7.4141291,9.5056412 c 0.041823,0.058275 0.037262,0.1032445 -0.023363,0.2303777 -0.041431,0.086883 -0.059891,0.1729628 -0.041022,0.1912897 0.018869,0.018327 0.2071947,0.1415534 0.4185018,0.2738374 l 0.3841939,0.240517 0.08541,-0.104309 c 0.046975,-0.05737 0.1526481,-0.21569 0.2348287,-0.3518214 z M 13.658006,8.4916835 c 1.672308,-1.0472824 2.250241,-1.4283467 2.273895,-1.4993072 0.009,-0.026971 -0.04362,-0.084355 -0.116907,-0.1275204 l -0.133252,-0.078482 0.16297,-0.1371175 c 0.14367,-0.120879 0.155388,-0.1443327 0.09893,-0.1980404 -0.134384,-0.1278492 -3.866545,-2.4611188 -3.93666,-2.4611188 -0.04958,0 -0.02586,5.3367153 0.02406,5.4140258 0.01999,0.030951 0.06177,0.046514 0.09286,0.034585 0.03109,-0.01193 0.721434,-0.4380903 1.534103,-0.9470242 z M 6.7811857,8.8963619 C 6.9685576,8.6123981 7.2234969,8.3044973 7.4855913,8.0456223 8.3855629,7.1567043 9.2771448,6.7281529 10.590001,6.5534441 c 0.208369,-0.027728 0.388742,-0.060288 0.400829,-0.072354 0.01209,-0.012066 0.02874,-0.3595645 0.037,-0.7722187 l 0.01502,-0.7502802 -0.433748,0.028425 C 9.5678914,5.0552511 8.5810512,5.3892542 7.6671046,5.9827574 6.9923255,6.4209484 6.0920077,7.3965967 5.733534,8.0781116 l -0.1425149,0.270943 0.09661,0.079777 0.09661,0.079777 -0.091984,0.1559012 c -0.078404,0.1328838 -0.083212,0.1644078 -0.032573,0.2135182 0.1048612,0.1016939 0.7409492,0.4861508 0.785162,0.474558 0.02348,-0.00616 0.1748339,-0.2114574 0.3363417,-0.4562239 z"
     id="path3394"
     inkscape:connector-curvature="0" />
  <path
     style="opacity:1;fill:#000000;fill-opacity:0.30952382;stroke:none;stroke-width:1;stroke-miterlimit:4;stroke-dasharray:none;stroke-opacity:0"
     d="M 9.561305,21.368325 C 7.032825,20.970299 4.898038,19.747816 3.2299831,17.7427 2.3869979,16.729375 1.6521266,15.241185 1.319176,13.873121 1.1707997,13.263456 1.1944768,13.194135 1.3629206,13.745047 c 0.1990344,0.650962 0.3298761,0.985281 0.6188849,1.581338 0.5751276,1.186154 1.0138398,1.799327 1.9858555,2.775562 1.4990437,1.505551 3.3962649,2.462779 5.593644,2.822229 0.653878,0.106962 2.192674,0.107438 2.873281,8.88e-4 1.879405,-0.294221 3.75538,-1.166673 5.1909,-2.414112 0.643152,-0.558886 1.29797,-1.320986 1.794392,-2.088374 0.442601,-0.68419 1.071503,-2.12587 1.307689,-2.997715 0.04673,-0.172503 0.07663,-0.234166 0.07903,-0.162977 0.0058,0.172286 -0.224642,1.026894 -0.425065,1.576394 -0.551259,1.511389 -1.300024,2.670601 -2.474086,3.830292 -1.387559,1.370575 -3.297862,2.328777 -5.337001,2.677021 -0.269099,0.04596 -0.755897,0.0749 -1.450908,0.08627 -0.876099,0.01433 -1.1291202,0.004 -1.55823,-0.06354 z"
     id="path3396"
     inkscape:connector-curvature="0" />
  <path
     style="opacity:1;fill:#000000;fill-opacity:0.30952382;stroke:none;stroke-width:1;stroke-miterlimit:4;stroke-dasharray:none;stroke-opacity:0"
     d="m 1.1297838,9.6238946 c 0,-0.050528 0.039516,-0.286997 0.087814,-0.5254874 C 1.630461,7.0597089 2.6360279,5.2247945 4.1223257,3.7979867 4.8753916,3.0750628 5.633756,2.5488771 6.615609,2.0680398 7.3225205,1.7218482 7.8700166,1.5150256 8.5264333,1.346205 9.4140091,1.1179338 9.8805587,1.0665344 11.055499,1.0675797 c 1.132449,0.00101 1.44426,0.035344 2.329568,0.2565357 3.321117,0.8297696 5.990503,3.2925287 7.059634,6.5131728 0.240553,0.7246412 0.489476,1.8833209 0.381376,1.7752211 -0.01488,-0.014884 -0.03323,-0.070917 -0.04078,-0.1245158 -0.0075,-0.053599 -0.04613,-0.2127199 -0.08574,-0.353601 -0.03962,-0.1408811 -0.07618,-0.284964 -0.08126,-0.3201843 -0.0051,-0.03522 -0.0281,-0.1120645 -0.05117,-0.170765 C 20.54407,8.5847427 20.460455,8.3446045 20.381324,8.1098026 20.082454,7.222982 19.40979,6.034234 18.738632,5.2067979 18.340229,4.7156284 17.21458,3.6177044 17.041196,3.5511707 c -0.04013,-0.015399 -0.07296,-0.047811 -0.07296,-0.072029 0,-0.024217 -0.02882,-0.044031 -0.06404,-0.044031 -0.03522,0 -0.06404,-0.019211 -0.06404,-0.042691 0,-0.02348 -0.02942,-0.042691 -0.06538,-0.042691 -0.03596,0 -0.07639,-0.028706 -0.08986,-0.063792 -0.01346,-0.035085 -0.04181,-0.053079 -0.063,-0.039985 -0.02118,0.013093 -0.05004,-0.00623 -0.06413,-0.042937 -0.01409,-0.036709 -0.05237,-0.066743 -0.08508,-0.066743 -0.03271,0 -0.05947,-0.020345 -0.05947,-0.045211 0,-0.024866 -0.0172,-0.034582 -0.03822,-0.021591 -0.02102,0.012991 -0.0497,-0.0063 -0.06374,-0.042878 -0.01403,-0.036574 -0.04486,-0.054541 -0.06851,-0.039927 -0.02364,0.014614 -0.04299,0.00623 -0.04299,-0.01864 0,-0.024866 -0.02745,-0.045211 -0.06099,-0.045211 -0.03354,0 -0.09461,-0.033619 -0.135697,-0.07471 -0.04109,-0.04109 -0.08569,-0.073489 -0.0991,-0.071996 -0.01342,0.00149 -0.29335,-0.1264757 -0.622073,-0.2843741 C 14.953209,2.3338382 14.434511,2.124675 14.129268,2.0269294 13.824026,1.9291839 13.539882,1.8307714 13.497836,1.8082351 c -0.04205,-0.022536 -0.09355,-0.030405 -0.114451,-0.017487 -0.0209,0.012919 -0.05056,0.00318 -0.06589,-0.021636 -0.01534,-0.024818 -0.06469,-0.033443 -0.109678,-0.019165 -0.0489,0.01552 -0.08179,0.0058 -0.08179,-0.024177 0,-0.02829 -0.02958,-0.038784 -0.06789,-0.024084 -0.03734,0.014328 -0.09017,0.011709 -0.117401,-0.00582 -0.02723,-0.01753 -0.08793,-0.035599 -0.134894,-0.040153 -0.04696,-0.00455 -0.152621,-0.018761 -0.234802,-0.031571 -0.744875,-0.1161081 -2.063275,-0.1281893 -2.820744,-0.025848 -0.1743843,0.023561 -0.3843015,0.052079 -0.4664821,0.063373 -0.082181,0.011294 -0.220499,0.038084 -0.3073744,0.059533 -0.086875,0.021448 -0.168058,0.028894 -0.180406,0.016546 -0.012348,-0.012348 -0.049297,-1.708e-4 -0.082109,0.02706 -0.032812,0.027231 -0.090909,0.037519 -0.1291052,0.022862 -0.039841,-0.015288 -0.069448,-0.00528 -0.069448,0.023486 0,0.030708 -0.033086,0.039635 -0.085382,0.023036 -0.047877,-0.015196 -0.085382,-0.00767 -0.085382,0.017129 0,0.024325 -0.026873,0.033916 -0.059719,0.021312 -0.032845,-0.012604 -0.071883,-0.00323 -0.086749,0.020821 -0.014867,0.024056 -0.055233,0.032915 -0.089701,0.019689 -0.034468,-0.013227 -0.06267,-0.00339 -0.06267,0.02187 0,0.025256 -0.028816,0.034861 -0.064037,0.021346 -0.03522,-0.013515 -0.064037,-0.00391 -0.064037,0.021346 0,0.025255 -0.028817,0.034861 -0.064037,0.021346 -0.03522,-0.013515 -0.064037,-0.00391 -0.064037,0.021346 0,0.025255 -0.028817,0.034861 -0.064037,0.021346 -0.03522,-0.013515 -0.064037,-0.00217 -0.064037,0.025205 0,0.027378 -0.017884,0.038725 -0.039741,0.025217 -0.021858,-0.013509 -0.052002,-0.00472 -0.066987,0.019523 -0.014985,0.024246 -0.045129,0.033031 -0.066987,0.019522 -0.021858,-0.013509 -0.039741,-0.00482 -0.039741,0.019309 0,0.024129 -0.028817,0.032813 -0.064037,0.019298 -0.03522,-0.013515 -0.064037,-0.00217 -0.064037,0.025205 0,0.027378 -0.017571,0.038919 -0.039045,0.025647 -0.021475,-0.013272 -0.045773,-0.00395 -0.053996,0.020723 -0.00822,0.02467 -0.057892,0.048089 -0.1103744,0.052042 -0.052482,0.00395 -0.095423,0.023445 -0.095423,0.043314 0,0.019869 -0.019211,0.024253 -0.042691,0.00974 -0.02348,-0.014512 -0.042691,-0.00604 -0.042691,0.018826 0,0.024866 -0.014631,0.040408 -0.032513,0.034538 C 6.8727213,2.3898169 6.213469,2.705589 6.1673509,2.7523478 6.1556108,2.7642509 5.9923168,2.8675741 5.8044753,2.9819547 3.8514814,4.1711737 2.2544938,6.1679832 1.5600231,8.2890486 1.4616091,8.5896266 1.3695228,8.8643704 1.3553867,8.8995907 c -0.014136,0.03522 -0.021978,0.080467 -0.017426,0.100549 0.00455,0.020081 -0.013759,0.063062 -0.04069,0.095512 -0.026931,0.03245 -0.037813,0.08806 -0.024183,0.1235801 0.01363,0.035519 0.00412,0.06458 -0.021137,0.06458 -0.025255,0 -0.033926,0.031252 -0.019269,0.069448 0.014657,0.038196 0.00496,0.095585 -0.021554,0.1275298 -0.026512,0.031945 -0.037288,0.086528 -0.023947,0.1212957 0.013342,0.034767 0.00589,0.074568 -0.016569,0.088446 -0.022455,0.013878 -0.040827,-0.016109 -0.040827,-0.066636 z"
     id="path3398"
     inkscape:connector-curvature="0" />
  <path
     style="opacity:1;fill:#000000;fill-opacity:0.30952382;stroke:none;stroke-width:1;stroke-miterlimit:4;stroke-dasharray:none;stroke-opacity:0"
     d="M 9.6940227,20.850473 C 9.2975879,20.804473 8.8506695,20.705218 8.2490311,20.529555 5.5050833,19.728398 3.3333655,17.909066 2.0869172,15.367315 1.3067923,13.776488 1.0058891,12.29562 1.1224756,10.620904 1.2074303,9.4005656 1.5112484,8.3008464 2.0874824,7.1279039 2.5927175,6.0994816 3.1220947,5.3563676 3.9381343,4.5300479 5.2647963,3.1866732 6.7398555,2.3369433 8.5793957,1.85638 9.421495,1.6363891 9.5891461,1.6206488 11.076844,1.6219012 c 1.522185,0.00128 1.615761,0.012433 2.662231,0.3172765 3.351779,0.9763937 5.892731,3.5575099 6.857775,6.9661742 0.243805,0.8611516 0.265335,1.082273 0.246816,2.5348691 l -0.01632,1.280236 -0.175578,0.661715 c -0.216089,0.8144 -0.368447,1.23279 -0.699573,1.921106 -1.184899,2.463063 -3.301506,4.302215 -5.938137,5.159738 -0.647805,0.210689 -1.233222,0.33228 -1.87202,0.388817 -0.562233,0.04976 -2.014394,0.04895 -2.4480153,-0.0014 l 0,2e-6 z m 2.9228393,-2.721237 c 1.035694,-0.616772 3.326784,-2.081348 3.326784,-2.126642 0,-0.01159 -0.05916,-0.07511 -0.131474,-0.141153 l -0.131475,-0.120083 0.15282,-0.09445 c 0.08405,-0.05195 0.152821,-0.111596 0.152821,-0.132556 0,-0.05326 -0.530347,-0.402894 -2.113217,-1.393157 -1.360098,-0.850893 -1.81444,-1.123246 -1.87382,-1.123246 -0.04277,0 -0.0132,5.301768 0.02994,5.368425 0.019,0.02935 0.04922,0.05336 0.06717,0.05336 0.01795,0 0.25215,-0.130727 0.520448,-0.290503 z m -1.643943,-0.680723 c 0.01831,-0.04109 0.04152,-0.385654 0.05159,-0.765696 l 0.0183,-0.690985 -0.143077,-0.02262 c -0.07869,-0.01244 -0.28716,-0.04467 -0.463261,-0.07162 C 9.5844714,15.767205 8.8870612,15.504656 8.271009,15.082369 7.7911923,14.753467 7.1350441,14.081901 6.7871185,13.563609 6.6255569,13.322937 6.4752214,13.126024 6.4530399,13.126024 c -0.054041,0 -0.74162,0.423035 -0.7980049,0.490975 -0.030543,0.0368 -0.030825,0.08961 -8.965e-4,0.168326 0.023985,0.06308 0.043609,0.200537 0.043609,0.30545 0,0.222081 0.1110916,0.459634 0.417292,0.892318 0.9105795,1.286718 2.3958046,2.19525 4.0439434,2.473731 0.508482,0.08592 0.773161,0.08321 0.813937,-0.0083 l -1e-6,0 z m 0.02605,-2.145235 c 0.01587,-0.105661 0.03028,-0.445131 0.03202,-0.754378 l 0.0032,-0.562267 -0.117401,-0.02245 c -0.06457,-0.01235 -0.202227,-0.03531 -0.305903,-0.05103 C 10.342673,13.872496 9.8828657,13.709505 9.578095,13.547064 9.2024684,13.346857 8.7508117,12.90518 8.4547543,12.448544 8.3157554,12.234154 8.180723,12.058743 8.1546826,12.058743 c -0.069684,0 -0.834668,0.502435 -0.834668,0.548203 0,0.02148 0.027859,0.105724 0.061909,0.187218 0.054498,0.13043 0.054191,0.159191 -0.00256,0.240211 -0.059045,0.0843 -0.055191,0.10908 0.045828,0.294628 0.317932,0.583966 1.0897722,1.381833 1.5915788,1.645248 0.591088,0.310281 1.3680931,0.547269 1.7398861,0.530669 l 0.213457,-0.0095 0.02885,-0.19211 -10e-7,0 z m 5.133875,-0.696794 c 0.21088,-0.276478 0.516159,-1.038798 0.70607,-1.763144 0.143399,-0.546944 0.185932,-1.072783 0.160095,-1.979251 -0.01995,-0.699906 -0.0409,-0.8994264 -0.130999,-1.2473259 -0.17108,-0.6606219 -0.565814,-1.5818068 -0.787517,-1.8378176 -0.09523,-0.1099671 -0.162068,-0.094525 -0.49614,0.1146277 -0.510255,0.319456 -0.482232,0.2843207 -0.389966,0.4889287 0.07413,0.164395 0.07465,0.1808461 0.008,0.2545278 -0.06726,0.074326 -0.05695,0.1086599 0.182764,0.6082521 0.438921,0.9147672 0.539392,1.3424992 0.504445,2.1475682 -0.02739,0.631074 -0.138518,1.036394 -0.502277,1.832029 -0.233783,0.511345 -0.248992,0.562525 -0.187382,0.630603 0.05006,0.05532 0.06001,0.12107 0.03925,0.25948 -0.02395,0.159703 -0.01387,0.198476 0.07274,0.279845 0.130138,0.122258 0.54665,0.351713 0.640249,0.352711 0.03989,4.27e-4 0.121209,-0.06304 0.180698,-0.141034 z M 4.87207,13.475745 c 0.7981994,-0.48356 2.7889157,-1.75492 2.9646828,-1.893377 L 7.9390376,11.501795 7.7990278,11.381211 7.6590181,11.260627 7.8310463,11.146784 c 0.094615,-0.06261 0.1720282,-0.128144 0.1720282,-0.145623 0,-0.01748 -0.1488857,-0.129007 -0.3308572,-0.247839 C 7.1007058,10.38011 4.0425526,8.4726782 4.0156998,8.4726782 c -0.033666,0 -0.033361,5.3092058 3.117e-4,5.3969508 0.014252,0.03714 0.041327,0.06753 0.060166,0.06753 0.018839,0 0.3769912,-0.207636 0.7958934,-0.461413 l -1e-6,0 z m 9.626844,-0.03099 c 0.385174,-0.711634 0.530773,-1.482258 0.495781,-2.624056 -0.01694,-0.55281 -0.03327,-0.661087 -0.152668,-1.0122737 -0.148294,-0.4361829 -0.393148,-0.9488066 -0.492635,-1.0313732 -0.05236,-0.043451 -0.09063,-0.040115 -0.202303,0.017635 -0.205114,0.1060694 -0.722226,0.4423164 -0.722226,0.4696213 0,0.01306 0.03081,0.083323 0.06846,0.1561394 0.04673,0.090362 0.06003,0.185113 0.04191,0.298454 -0.02073,0.1296521 8.76e-4,0.2288597 0.09856,0.4524913 0.373134,0.85426 0.361142,1.324203 -0.05721,2.242225 -0.128799,0.28263 -0.138828,0.328427 -0.08222,0.37541 0.04861,0.04035 0.05782,0.101902 0.03743,0.250183 -0.02183,0.158715 -0.0121,0.210055 0.05041,0.266013 0.145637,0.130367 0.675068,0.461012 0.716309,0.447357 0.02264,-0.0075 0.112824,-0.14602 0.200403,-0.307826 z M 8.4476249,10.03887 C 8.7055713,9.6477159 9.2026345,9.1443682 9.5041606,8.9689746 9.7639407,8.8178638 10.341527,8.6186767 10.69828,8.5571693 c 0.281282,-0.048496 0.28332,-0.04985 0.309041,-0.2054008 0.01424,-0.086121 0.0261,-0.441635 0.02636,-0.7900318 l 4.7e-4,-0.6334485 -0.160093,0.023318 c -0.08805,0.012825 -0.265753,0.035971 -0.394894,0.051435 C 9.8787989,7.0749318 9.1185844,7.3857339 8.6125416,7.7661825 8.2362596,8.0490752 7.761317,8.576041 7.5152463,8.9836702 7.3057962,9.3306352 7.3052182,9.3326199 7.3778352,9.4555507 c 0.066604,0.1127518 0.067259,0.1370081 0.00755,0.2799077 -0.035955,0.086052 -0.065372,0.1634767 -0.065372,0.1720547 0,0.00858 0.081647,0.067655 0.1814378,0.1312819 0.4487277,0.286111 0.644552,0.393538 0.6787904,0.372377 0.020301,-0.01255 0.1406224,-0.180082 0.2673821,-0.372302 z M 13.602685,8.5310171 C 15.239415,7.5075602 15.910266,7.0638688 15.933873,6.9892048 15.943144,6.9598802 15.89173,6.902247 15.81962,6.861131 L 15.688509,6.786374 15.844493,6.6549887 c 0.08866,-0.074679 0.143191,-0.1520816 0.126346,-0.1793383 -0.05442,-0.088051 -3.877623,-2.4855531 -3.963617,-2.4855531 -0.0498,0 -0.02632,5.3363772 0.02382,5.4140258 0.01999,0.030951 0.06489,0.045318 0.09979,0.031926 0.0349,-0.013391 0.697233,-0.4206561 1.471855,-0.9050322 z M 6.5294884,9.2731391 C 6.5664953,9.2203087 6.7162779,9.0056481 6.8623388,8.7961156 7.372839,8.0637742 8.1322719,7.4021337 8.8796974,7.0385324 9.3004021,6.8338718 9.9979609,6.6383737 10.612928,6.5527773 l 0.368564,-0.0513 0.02586,-0.1563905 c 0.01422,-0.086015 0.02607,-0.4330501 0.02633,-0.7711896 l 4.7e-4,-0.6147993 -0.417202,0.025417 C 9.5901387,5.0470712 8.5833121,5.3877861 7.6671046,5.9827574 6.9922371,6.4210056 6.074471,7.4149804 5.7303428,8.0803418 l -0.1393237,0.2693784 0.090558,0.074544 0.090558,0.074544 -0.083661,0.1630724 c -0.074322,0.1448685 -0.076521,0.170213 -0.019699,0.2270346 0.069659,0.069659 0.714619,0.4731172 0.7634036,0.4775512 0.016514,0.0015 0.060303,-0.040496 0.09731,-0.093326 z"
     id="path3400"
     inkscape:connector-curvature="0" />
</svg>
