<?xml version="1.0" encoding="UTF-8" standalone="no"?>
<svg
   xmlns:dc="http://purl.org/dc/elements/1.1/"
   xmlns:cc="http://creativecommons.org/ns#"
   xmlns:rdf="http://www.w3.org/1999/02/22-rdf-syntax-ns#"
   xmlns:svg="http://www.w3.org/2000/svg"
   xmlns="http://www.w3.org/2000/svg"
   xmlns:sodipodi="http://sodipodi.sourceforge.net/DTD/sodipodi-0.dtd"
   xmlns:inkscape="http://www.inkscape.org/namespaces/inkscape"
   width="22"
   height="22"
   version="1.1"
   viewBox="0 0 22 22"
   id="svg2"
   inkscape:version="0.91 r13725"
   sodipodi:docname="distributor-logo-freebsd.svg">
  <metadata
     id="metadata18">
    <rdf:RDF>
      <cc:Work
         rdf:about="">
        <dc:format>image/svg+xml</dc:format>
        <dc:type
           rdf:resource="http://purl.org/dc/dcmitype/StillImage" />
      </cc:Work>
    </rdf:RDF>
  </metadata>
  <defs
     id="defs16" />
  <sodipodi:namedview
     pagecolor="#ffffff"
     bordercolor="#666666"
     borderopacity="1"
     objecttolerance="10"
     gridtolerance="10"
     guidetolerance="10"
     inkscape:pageopacity="0"
     inkscape:pageshadow="2"
     inkscape:window-width="1366"
     inkscape:window-height="723"
     id="namedview14"
     showgrid="false"
     inkscape:zoom="23.424006"
     inkscape:cx="11"
     inkscape:cy="11"
     inkscape:window-x="0"
     inkscape:window-y="0"
     inkscape:window-maximized="1"
     inkscape:current-layer="svg2" />
  <path
     style="opacity:0.2"
     d="M 5.1011943,1.5195312 C 4.6338828,1.4770042 4.0604983,1.4754187 3.3765849,1.7148438 2.691142,1.9548042 1.950978,2.5297462 1.5484599,3.1679688 0.8017827,4.3524997 0.973545,4.9496009 1.0093974,5.5117188 1.0452714,6.0741729 1.1553215,6.576876 1.331663,7.0976562 1.6120203,7.9256304 1.9794036,8.6307506 2.3824443,9.357422 2.4285463,9.440542 2.5014255,9.514454 2.5426006,9.591797 2.2192126,10.52704 2.0019014,11.495281 1.9996318,12.494141 V 12.5 c 0,4.935029 4.0649712,9 9.0000002,9 4.935029,0 9,-4.064971 9,-9 V 12.498 C 19.999045,11.496404 19.782149,10.525894 19.458616,9.587844 19.500426,9.509474 19.574107,9.43565 19.620726,9.351516 20.022483,8.6264553 20.388093,7.9230741 20.667601,7.0976092 20.843946,6.5768185 20.953995,6.0741226 20.989866,5.5116718 21.025736,4.9492209 21.19899,4.3518928 20.450804,3.1659686 20.048359,2.528116 19.308113,1.9548124 18.622679,1.7148438 17.938775,1.4754105 17.365373,1.477005 16.89807,1.5195312 h -0.0039 c -0.252835,0.023041 -0.548664,0.07204 -0.857422,0.1484376 -1.512701,0.3654091 -2.779327,1.0683393 -4.111328,1.9609374 -0.0081,0.00546 -0.02307,0.021975 -0.03125,0.027344 C 11.595018,3.6251198 11.31106,3.5009972 11.009398,3.5 c -0.0065,-2.12e-5 -0.01302,-2.12e-5 -0.01953,0 -0.301662,9.972e-4 -0.58562,0.1251198 -0.884765,0.15625 -0.0082,-0.00537 -0.0231,-0.021885 -0.03125,-0.027344 C 8.7418473,2.7363029 7.475221,2.0333773 5.9625224,1.6679688 5.6538605,1.5915947 5.3580444,1.5425757 5.1051006,1.5195312 Z"
     id="path4" />
  <path
     style="fill:#fb5140"
     d="M 5.1011943,1.0195312 C 4.6338828,0.9770042 4.0604983,0.9754187 3.3765849,1.2148438 2.691142,1.4548042 1.950978,2.0297462 1.5484599,2.6679688 0.8017827,3.8524997 0.973545,4.4496009 1.0093974,5.0117188 1.0452713,5.5741729 1.1553215,6.076876 1.331663,6.5976562 1.6120203,7.4256304 1.9794036,8.1307506 2.3824443,8.8574219 2.4285463,8.9405424 2.5014255,9.014454 2.5426006,9.091797 2.2192126,10.02704 2.0019014,10.995281 1.9996318,11.994141 V 12 c 0,4.935029 4.0649712,9 9.0000002,9 4.935029,0 9,-4.064971 9,-9 V 11.998 C 19.999045,10.996404 19.782149,10.025894 19.458616,9.087844 19.500426,9.009474 19.574107,8.93565 19.620726,8.8515155 20.022483,8.1264553 20.388093,7.4230741 20.667601,6.5976092 20.843946,6.0768185 20.953995,5.5741226 20.989866,5.0116718 21.025736,4.4492209 21.19899,3.8518928 20.450804,2.6659686 20.048359,2.028116 19.308113,1.4548124 18.622679,1.2148438 17.938775,0.9754105 17.365373,0.977005 16.89807,1.0195312 h -0.0039 c -0.252835,0.023041 -0.548664,0.07204 -0.857422,0.1484376 -1.512701,0.3654091 -2.779327,1.0683393 -4.111328,1.9609374 -0.0081,0.00546 -0.02307,0.021975 -0.03125,0.027344 C 11.595018,3.1251198 11.31106,3.0009972 11.009398,3 c -0.0065,-2.12e-5 -0.01302,-2.12e-5 -0.01953,0 -0.301662,9.972e-4 -0.58562,0.1251198 -0.884765,0.15625 -0.0082,-0.00537 -0.0231,-0.021885 -0.03125,-0.027344 C 8.7418473,2.2363029 7.475221,1.5333773 5.9625224,1.1679688 5.6538605,1.0915947 5.3580444,1.0425757 5.1051006,1.0195312 Z"
     id="path6" />
  <path
     style="opacity:0.2"
     d="M 4.831663,4.5078125 C 4.4557022,4.4734188 4.217626,4.5581923 4.0855693,4.7675781 3.9444039,4.9913261 3.9802505,5.5641704 4.1734599,6.1347656 4.3753568,6.731024 4.8716022,7.6893222 5.3179912,8.4316406 6.0676948,7.3887891 7.092005,6.5548861 8.2886943,6.0488281 7.2194681,5.3472685 6.0243368,4.7654916 5.253538,4.5800781 5.0965555,4.540393 4.9569924,4.519151 4.831663,4.5078125 Z m 12.335938,0 c -0.125291,0.011338 -0.264892,0.03258 -0.421875,0.072266 -0.79818,0.1919999 -2.053337,0.8058598 -3.150391,1.5410157 -0.558345,0.3741731 -0.59587,0.4235343 -0.595703,0.8027343 1.32e-4,0.2709921 0.02146,0.3608022 0.158203,0.6445313 0.378629,0.7852347 1.225129,1.5879276 1.949219,1.8476566 0.321222,0.115275 0.73255,0.111622 0.884766,-0.0078 0.382266,-0.299716 1.506171,-2.3053114 1.833984,-3.2734374 0.19321,-0.5705952 0.22905,-1.1434395 0.08789,-1.3671875 C 17.781595,4.5581933 17.543562,4.4734188 17.167601,4.5078125 Z M 10.999632,6.5 a 6,6 0 0 0 -6.0000002,6 6,6 0 0 0 6.0000002,6 6,6 0 0 0 6,-6 6,6 0 0 0 -0.449219,-2.267578 C 16.166727,10.510222 15.88994,10.497721 15.620726,10.5 15.337271,10.5024 15.060415,10.46194 14.769163,10.357422 13.662092,9.960318 12.773509,9.07221 12.257444,8.0019531 12.103001,7.6814952 11.99979,7.2483134 11.999632,6.9238281 c -3.5e-5,-0.079667 0.01756,-0.2069462 0.03516,-0.328125 A 6,6 0 0 0 10.999632,6.5 Z"
     id="path8" />
  <path
     style="fill:#ffffff"
     d="M 4.831663,4.0078125 C 4.4557022,3.9734188 4.217626,4.0581923 4.0855693,4.2675781 3.9444039,4.4913261 3.9802505,5.0641704 4.1734599,5.6347656 4.3753568,6.231024 4.8716022,7.1893222 5.3179912,7.9316406 6.0676948,6.8887891 7.092005,6.0548861 8.2886943,5.5488281 7.2194681,4.8472685 6.0243368,4.2654916 5.253538,4.0800781 5.0965555,4.040393 4.9569924,4.019151 4.831663,4.0078125 Z m 12.335938,0 c -0.125291,0.011338 -0.264892,0.03258 -0.421875,0.072266 -0.79818,0.1919999 -2.053337,0.8058598 -3.150391,1.5410157 -0.558345,0.3741731 -0.59587,0.4235343 -0.595703,0.8027343 1.32e-4,0.2709921 0.02146,0.3608022 0.158203,0.6445313 0.378629,0.7852347 1.225129,1.5879271 1.949219,1.8476562 0.321222,0.1152754 0.73255,0.1116224 0.884766,-0.00781 0.382266,-0.2997166 1.506171,-2.3053115 1.833984,-3.2734375 0.19321,-0.5705952 0.22905,-1.1434395 0.08789,-1.3671875 C 17.781595,4.0581933 17.543562,3.9734188 17.167601,4.0078125 Z M 10.999632,6 a 6,6 0 0 0 -6.0000002,6 6,6 0 0 0 6.0000002,6 6,6 0 0 0 6,-6 6,6 0 0 0 -0.449219,-2.267578 C 16.166727,10.010222 15.88994,9.997721 15.620726,10 15.337271,10.002397 15.060415,9.961942 14.769163,9.857422 13.662092,9.460318 12.773509,8.5722103 12.257444,7.5019531 12.103001,7.1814952 11.99979,6.7483134 11.999632,6.4238281 c -3.5e-5,-0.079667 0.01756,-0.2069462 0.03516,-0.328125 A 6,6 0 0 0 10.999632,6 Z"
     id="path10" />
  <path
     style="opacity:0.2;fill:#ffffff"
     d="M 4.3199443,1.0117188 C 4.0326951,1.0359346 3.7185416,1.0951312 3.3765849,1.2148438 2.691142,1.4548041 1.950978,2.0297461 1.5484599,2.6679688 0.9400954,3.63308 0.9432477,4.2035031 0.9840068,4.6875 1.0123339,4.2968911 1.1328352,3.827317 1.5484599,3.1679688 1.950978,2.5297462 2.691142,1.9548041 3.3765849,1.7148438 4.0604983,1.4754187 4.6338828,1.4770043 5.1011943,1.5195312 h 0.00391 c 0.2529437,0.023045 0.5487599,0.072063 0.8574218,0.1484376 1.5126986,0.3654084 2.7793226,1.0683344 4.1113289,1.9609374 0.0082,0.00546 0.02305,0.021974 0.03125,0.027344 0.299145,-0.03113 0.583103,-0.1552528 0.884765,-0.15625 0.0065,-2.12e-5 0.01303,-2.12e-5 0.01953,0 0.301662,9.972e-4 0.585613,0.1251196 0.884765,0.15625 0.0082,-0.00537 0.02315,-0.021884 0.03125,-0.027344 1.332001,-0.8925981 2.598627,-1.5955284 4.111328,-1.9609374 0.308758,-0.076398 0.604587,-0.1253965 0.857422,-0.1484376 h 0.0039 c 0.467303,-0.042526 1.040705,-0.044121 1.724609,0.1953126 0.685434,0.2399685 1.42568,0.8133192 1.828125,1.4511718 0.411211,0.6517971 0.536089,1.1177298 0.566406,1.5058594 0.03973,-0.4809666 0.03648,-1.0502393 -0.566406,-2.0058594 C 20.048359,2.028163 19.308113,1.4548123 18.622679,1.2148438 17.938775,0.9754104 17.365373,0.977005 16.89807,1.0195312 h -0.0039 c -0.252835,0.023041 -0.548664,0.07204 -0.857422,0.1484376 -1.512701,0.365409 -2.779327,1.0683393 -4.111328,1.9609374 -0.0081,0.00546 -0.02307,0.021975 -0.03125,0.027344 C 11.595011,3.1251196 11.31106,3.0009972 11.009398,3 c -0.0065,-2.12e-5 -0.01302,-2.12e-5 -0.01953,0 -0.301662,9.972e-4 -0.58562,0.1251198 -0.884765,0.15625 -0.0082,-0.00537 -0.0231,-0.021885 -0.03125,-0.027344 C 8.741845,2.2363032 7.475221,1.5333773 5.9625224,1.1679688 5.6538605,1.0915946 5.3580443,1.0425757 5.1051006,1.0195312 h -0.00391 C 4.8675385,0.9982678 4.6071935,0.9875029 4.3199443,1.0117188 Z M 19.566038,9.431641 c -0.0385,0.05217 -0.07976,0.104397 -0.107422,0.15625 0.29685,0.860684 0.494753,1.749786 0.527344,2.664062 0.0024,-0.0845 0.01367,-0.166922 0.01367,-0.251953 V 11.998 C 19.999116,11.117851 19.8262,10.262801 19.566038,9.431594 Z m -17.1308593,0.0039 c -0.2600087,0.828578 -0.4335532,1.68116 -0.4355469,2.5586 V 12 c 0,0.08635 0.0112,0.170063 0.013672,0.255859 0.033122,-0.914364 0.2318001,-1.803697 0.5292969,-2.664062 -0.027503,-0.05166 -0.069057,-0.103883 -0.1074219,-0.15625 z"
     id="path12" />
  <path
     style="opacity:1;fill:#000000;fill-opacity:0.30952382;stroke:none;stroke-width:1;stroke-miterlimit:4;stroke-dasharray:none;stroke-opacity:0"
     d="M 9.9454383,20.915057 C 5.8120176,20.413439 2.5221737,17.083984 2.0714572,12.946269 1.9692877,12.008322 2.0777296,11.110231 2.4354873,9.9314569 2.514701,9.6704558 2.5311081,9.5610322 2.4971619,9.5201297 2.4638592,9.4800025 2.4650235,9.4116423 2.5013209,9.2759294 2.5504854,9.0921094 2.5472886,9.0801324 2.3718216,8.7907404 1.9101047,8.0292459 1.38324,6.8090328 1.1930091,6.0606228 1.071861,5.5839994 0.98171318,4.74098 1.0205705,4.4480589 1.0882393,3.9379468 1.4735485,3.1914819 1.9100471,2.7248635 2.7436736,1.8337142 3.6560265,1.4702221 4.9200063,1.5256607 c 1.3406075,0.0588 2.9740467,0.6951611 4.7693724,1.8580705 l 0.4269123,0.2765296 0.370397,-0.075058 c 0.394668,-0.079976 0.728861,-0.073204 1.148866,0.02328 l 0.238525,0.054795 0.593954,-0.379304 c 0.695158,-0.4439336 1.688879,-0.9640252 2.32295,-1.2157809 1.648221,-0.6544204 3.12058,-0.7273231 4.15508,-0.2057353 0.858982,0.4330929 1.493424,1.1131847 1.861555,1.9954998 0.280942,0.6733458 0.225319,1.5568204 -0.173975,2.7632914 -0.174173,0.5262636 -0.824629,1.9130255 -1.062887,2.2660569 -0.127561,0.1890104 -0.129288,0.1982095 -0.06991,0.3724607 0.04909,0.1440834 0.05053,0.1928129 0.0074,0.2517673 -0.04412,0.060342 -0.03179,0.1418643 0.07065,0.4670043 0.600049,1.9045429 0.475904,3.7221849 -0.387128,5.6680549 -0.672335,1.515903 -1.849223,2.896358 -3.290828,3.86004 -0.490206,0.327692 -1.448227,0.793564 -2.060273,1.001882 -1.230041,0.418661 -2.609242,0.562606 -3.8952437,0.406542 z m 2.1937327,-2.51618 c 2.070205,-0.404764 3.819312,-1.920019 4.52502,-3.920035 0.263828,-0.747702 0.319475,-1.135719 0.322587,-2.249334 0.0023,-0.821603 -0.01141,-1.068945 -0.0757,-1.36612 C 16.818793,10.436805 16.583615,9.7012875 16.54608,9.7218591 16.113612,9.9588766 16.032527,9.977563 15.523085,9.9576087 15.096362,9.9408942 14.978623,9.9195319 14.693477,9.8070853 13.763193,9.4402301 12.964899,8.7254612 12.426307,7.7771289 12.153115,7.2961023 12.043263,6.9202678 12.040011,6.4554963 l -0.0026,-0.3735689 -0.149419,-0.031998 c -0.08218,-0.017599 -0.524035,-0.030175 -0.981899,-0.027947 -0.782902,0.00381 -0.861746,0.011745 -1.3239112,0.1332407 C 8.3999374,6.4660116 7.5591227,6.9428079 6.7436827,7.7648279 5.8683303,8.6472436 5.2985366,9.7327202 5.0723518,10.948771 c -0.1004516,0.540064 -0.095991,1.932076 0.00816,2.545904 0.1613143,0.95074 0.629919,2.011858 1.204045,2.726464 0.2204571,0.2744 0.8149985,0.850314 1.0994955,1.065047 0.8213245,0.619921 1.8285182,1.034366 2.8476646,1.171768 0.429152,0.05786 1.475054,0.02547 1.907455,-0.05908 z m 3.827761,-8.9812127 c 0.358295,-0.2184942 1.513699,-2.2699567 1.862885,-3.3076208 0.106286,-0.3158474 0.137169,-0.4934653 0.160761,-0.9245913 0.0436,-0.7967205 -0.01654,-1.0057052 -0.327238,-1.1372101 -0.559751,-0.2369174 -2.040208,0.2883658 -3.672919,1.3031937 -0.614219,0.3817748 -0.862112,0.5673944 -0.937594,0.7020618 -0.03252,0.058022 -0.05241,0.286872 -0.05336,0.613895 -0.0012,0.4264518 0.01433,0.5615829 0.0855,0.7421429 0.2509,0.6365389 0.940022,1.4085742 1.630179,1.826317 0.42197,0.2554128 0.99469,0.3385954 1.251789,0.1818118 z M 6.1534088,7.483388 C 6.6230727,7.0229321 7.2101145,6.5974524 7.7748475,6.3081919 8.0406834,6.172029 8.2584185,6.0508772 8.2587037,6.0389664 8.2590025,6.0270551 8.168314,5.9623992 8.057204,5.8952864 L 7.855186,5.7732633 8.0850972,5.6567584 8.3150083,5.5402536 7.9135667,5.2898711 C 7.2946666,4.9038578 6.1731612,4.3566951 5.6426665,4.1819387 4.7790033,3.8974295 4.2481074,3.9346502 4.0648734,4.2925565 3.9694467,4.4789509 3.9627556,5.2058042 4.0521648,5.6731034 4.1550999,6.211097 4.5855147,7.1878173 5.1215655,8.0998453 L 5.3164499,8.431418 5.5678663,8.1211909 C 5.7061454,7.950566 5.9696396,7.6635549 6.1534088,7.483388 Z"
     id="path3346"
     inkscape:connector-curvature="0" />
  <path
     style="opacity:1;fill:#000000;fill-opacity:0.30952382;stroke:none;stroke-width:1;stroke-miterlimit:4;stroke-dasharray:none;stroke-opacity:0"
     d="M 10.521858,20.955108 C 9.2002327,20.847234 8.1992352,20.584679 7.1279039,20.064895 4.7519479,18.91214 2.9934211,16.772706 2.3221081,14.218134 1.9509141,12.805616 1.9728677,11.566551 2.3946861,10.121817 2.4631901,9.8871899 2.5098214,9.6110898 2.5172603,9.3960655 2.5292293,9.0501012 2.5286048,9.0478433 2.3186872,8.6779446 2.2028683,8.4738582 2.0055587,8.089637 1.8802213,7.8241196 1.2550934,6.4998333 1.0138332,5.565755 1.0526835,4.6201711 1.0679053,4.2496846 1.0911232,4.1343137 1.2033814,3.8713465 1.5757265,2.9991204 2.2249353,2.2939085 3.0295443,1.8876522 3.8157472,1.4906892 4.9403376,1.4313093 6.1007726,1.7254871 7.195532,2.0030156 8.2343257,2.4832436 9.6003214,3.3433074 l 0.5086196,0.3202395 0.292634,-0.050181 c 0.385871,-0.06617 0.93683,-0.062646 1.236587,0.00791 l 0.241134,0.056756 0.42058,-0.2719981 c 1.913285,-1.2373596 3.583406,-1.8587033 5.00989,-1.8638544 0.645307,-0.00233 1.069475,0.082539 1.565629,0.3132576 0.650157,0.3023319 1.147695,0.7277019 1.543781,1.3198579 0.61373,0.9175365 0.695944,1.6660322 0.32963,3.0010484 -0.19591,0.7139834 -0.812518,2.113002 -1.206047,2.7363928 -0.09557,0.1513943 -0.102634,0.1886996 -0.06163,0.3255481 0.02547,0.085008 0.03569,0.2212802 0.02271,0.3028274 -0.01518,0.095353 0.0159,0.2839715 0.08708,0.5285092 0.479185,1.646295 0.453703,3.097331 -0.08271,4.709576 -0.454698,1.366653 -1.161305,2.507593 -2.186211,3.530019 -0.794635,0.792712 -1.406261,1.232135 -2.381592,1.711052 -0.971278,0.476928 -1.741571,0.718189 -2.719217,0.851677 -0.470539,0.06425 -1.383617,0.108933 -1.699327,0.08316 z m 1.985143,-2.634796 c 1.488103,-0.419427 2.843105,-1.447814 3.63961,-2.762306 0.285718,-0.471526 0.60198,-1.234376 0.716218,-1.727576 0.128583,-0.55513 0.170669,-2.452037 0.06528,-2.942306 -0.06552,-0.304802 -0.33853,-1.1773996 -0.368374,-1.1773996 -0.01169,0 -0.111864,0.045722 -0.222614,0.1016055 C 16.070209,9.9470102 15.791459,9.9788937 15.318286,9.9288642 14.214901,9.8122014 13.016125,8.8796671 12.367939,7.6337726 12.151914,7.2185451 12.06022,6.8559641 12.059374,6.4136388 12.058755,6.0902266 12.056386,6.0829354 11.941342,6.0507632 11.876771,6.0327057 11.420509,6.0189023 10.927425,6.0200887 10.087913,6.022108 10.003764,6.0296443 9.6039962,6.1386018 8.1249785,6.5417113 7.0535968,7.2483389 6.1926339,8.3885585 5.4812266,9.3307142 5.0733242,10.432758 4.9909527,11.635184 c -0.028442,0.415185 0.033321,1.472531 0.113269,1.939098 0.1068171,0.623372 0.5721875,1.760953 0.9679427,2.366098 0.1857948,0.284098 1.0925607,1.173083 1.4951913,1.465872 0.3474474,0.252661 1.0882169,0.620205 1.6097281,0.798692 0.7007542,0.239833 0.8435482,0.25746 1.9424512,0.239792 0.916282,-0.01473 1.03655,-0.02552 1.387466,-0.124424 z m 3.318405,-8.867748 c 0.300904,-0.083568 0.795779,-0.8036721 1.438473,-2.0931578 0.524463,-1.0522679 0.630242,-1.3648921 0.703903,-2.080342 0.08994,-0.8735061 0.01828,-1.1287489 -0.351108,-1.2506572 -0.651705,-0.2150823 -2.406706,0.4752339 -4.054676,1.5948763 -0.571607,0.3883534 -0.582249,0.4095027 -0.55221,1.0974153 0.014,0.3207368 0.05006,0.6087832 0.08995,0.7186704 0.208575,0.5745751 1.290085,1.7004795 1.832362,1.9075768 0.159965,0.061091 0.483448,0.1311271 0.67002,0.1450628 0.03522,0.00263 0.135701,-0.015119 0.22329,-0.039445 z M 5.7601063,7.9217182 C 6.3397706,7.2741855 6.9022239,6.8090981 7.5233884,6.4636772 8.0017882,6.1976459 8.2165307,6.0634895 8.2165307,6.0306497 c 0,-0.018304 -0.067001,-0.07668 -0.1488908,-0.1297268 C 7.98575,5.8478769 7.9185112,5.7938951 7.9182205,5.780964 7.9179217,5.7680323 8.0051322,5.7149704 8.1120042,5.6630482 8.2188758,5.6111259 8.2944956,5.5495184 8.2800489,5.5261426 8.2315931,5.4477395 7.2431485,4.8849629 6.6688458,4.6087946 5.2298827,3.9168324 4.3142161,3.8044978 4.0616003,4.2889361 3.9938453,4.418869 3.9864163,4.5135174 4.0046357,5.0146872 4.0273398,5.6392174 4.0983827,5.9341359 4.4057074,6.6796459 4.6497909,7.2717448 5.24397,8.3872957 5.315258,8.3872957 c 0.015437,0 0.2156194,-0.2095098 0.4448483,-0.4655775 z"
     id="path3348"
     inkscape:connector-curvature="0" />
  <path
     style="opacity:1;fill:#000000;fill-opacity:0.30952382;stroke:none;stroke-width:1;stroke-miterlimit:4;stroke-dasharray:none;stroke-opacity:0"
     d="M 9.8387981,20.873458 C 7.6467401,20.569341 5.5831353,19.439906 4.2002745,17.78743 2.9225495,16.260587 2.1562012,14.371507 2.0841257,12.571038 2.0532473,11.799687 2.1302219,11.170097 2.3680618,10.248669 2.6246085,9.2547669 2.6239131,9.2488913 2.1370878,8.2971058 1.286341,6.6338232 0.95069613,5.406043 1.076769,4.4184872 1.1497077,3.8471419 1.4802311,3.2291849 2.0175183,2.6596321 2.5558468,2.0889756 3.280217,1.7068526 4.0320431,1.5969211 4.4964779,1.5290117 5.3857365,1.5699543 5.8802719,1.6820159 7.0448439,1.9459075 8.369073,2.559132 9.9210138,3.5532046 l 0.1889442,0.1210252 0.344696,-0.058088 c 0.365533,-0.061599 0.998459,-0.045851 1.262191,0.031405 0.133375,0.03907 0.171541,0.029436 0.362876,-0.091599 1.933171,-1.2228941 3.252394,-1.788996 4.568331,-1.9603523 0.547175,-0.071251 1.372185,-0.028644 1.750341,0.090396 1.038144,0.3267966 1.857962,1.0449548 2.304982,2.019157 0.207399,0.4519913 0.250621,0.7060379 0.223943,1.3162863 -0.02565,0.5867281 -0.130957,1.0584281 -0.394025,1.7649397 -0.211462,0.5679165 -0.666574,1.5588478 -0.895749,1.9503479 l -0.184661,0.3154558 0.03348,0.403983 c 0.01841,0.2221905 0.08282,0.5864883 0.143125,0.8095503 0.224196,0.829244 0.261169,1.118404 0.262017,2.049179 6.88e-4,0.754925 -0.01306,0.942626 -0.100045,1.36612 -0.202883,0.987734 -0.638999,2.110359 -1.142266,2.940356 -0.643554,1.061359 -1.697344,2.157131 -2.726889,2.835526 -0.857781,0.565213 -2.175886,1.117809 -3.116461,1.306527 -0.892406,0.179054 -2.136904,0.225209 -2.9670419,0.110039 z M 12.004892,18.42134 c 0.193444,-0.02224 0.551756,-0.10738 0.796248,-0.189192 1.703613,-0.570065 3.105796,-1.883311 3.783293,-3.543329 0.262954,-0.644295 0.332951,-0.971203 0.387855,-1.811404 0.06913,-1.057915 0.03046,-1.739012 -0.133295,-2.34786 -0.108322,-0.402741 -0.2459,-0.8194313 -0.270286,-0.818633 -0.0033,1.281e-4 -0.121304,0.047681 -0.262185,0.1057151 C 15.967393,9.9563373 15.385751,9.965256 14.92584,9.8378085 13.910512,9.5564467 12.907941,8.6781187 12.366093,7.5952758 12.183388,7.2301542 12.0965,6.8999122 12.064828,6.4502321 L 12.037397,6.0607773 11.78125,6.0257632 c -0.140881,-0.019258 -0.611552,-0.025242 -1.045936,-0.0133 -0.8391521,0.023072 -1.1457367,0.080829 -1.8641425,0.3511863 -1.9071417,0.7177138 -3.3382539,2.3936594 -3.7791856,4.4257251 -0.080266,0.369911 -0.094532,0.564513 -0.093054,1.269368 0.00274,1.308635 0.1046185,1.856326 0.5294692,2.846456 0.3595764,0.838006 0.5513297,1.122192 1.1725907,1.737828 0.3052424,0.302478 0.6894636,0.645263 0.8538249,0.761745 0.5608076,0.397439 1.5772426,0.84924 2.2199448,0.986756 0.3503568,0.07496 1.6825748,0.09277 2.2301308,0.02981 z m 3.866083,-8.9817495 c 0.293915,-0.1228056 0.729258,-0.7649007 1.350247,-1.9915022 0.633839,-1.2519836 0.774373,-1.7321706 0.782896,-2.6750546 0.004,-0.4371307 -0.04176,-0.5516275 -0.280432,-0.7024684 -0.219233,-0.1385535 -0.771052,-0.093983 -1.388382,0.1121396 -1.097624,0.3664899 -3.089432,1.5009792 -3.27906,1.8676797 -0.105615,0.2042357 -0.06314,1.1711925 0.06408,1.4587902 0.177219,0.4006347 0.896834,1.2320066 1.371823,1.5848707 0.449624,0.3340201 1.047697,0.4839014 1.378831,0.345545 z M 5.9895918,7.7125046 C 6.6722283,7.0236588 7.0639887,6.7190401 7.746927,6.3460641 7.9230284,6.2498893 8.1055335,6.141331 8.1524939,6.104824 8.2363933,6.0395999 8.2354664,6.0363609 8.0991298,5.9183521 8.0228192,5.8522997 7.9603833,5.7856386 7.9603833,5.7702155 c 0,-0.015423 0.078269,-0.067972 0.1739313,-0.116775 C 8.3549375,5.5408871 8.3395622,5.5211426 7.7751199,5.1921715 5.8044296,4.0436047 4.4192088,3.6923607 4.0765742,4.2543486 c -0.072265,0.118529 -0.085943,0.2135953 -0.084828,0.5895737 0.0017,0.573082 0.076108,0.9813769 0.2761915,1.5155392 0.2261465,0.6037418 0.94935,2.0278342 1.0298044,2.0278342 0.012727,0 0.3240598,-0.303656 0.6918496,-0.6747911 z"
     id="path3350"
     inkscape:connector-curvature="0" />
  <path
     style="opacity:1;fill:#000000;fill-opacity:0.30952382;stroke:none;stroke-width:1;stroke-miterlimit:4;stroke-dasharray:none;stroke-opacity:0"
     d="M 20.949005,4.2641021 C 20.835188,3.7122984 20.369701,2.9400758 19.88064,2.4917276 19.137942,1.8108565 18.353734,1.5111209 17.315453,1.5112762 15.926753,1.5114839 14.384907,2.0736425 12.421619,3.295573 L 11.866632,3.6409908 11.44359,3.5585738 C 11.040853,3.4801128 11.000895,3.479488 10.611111,3.5455569 10.38592,3.583727 10.187258,3.6236579 10.169638,3.6342923 10.152018,3.6449268 9.8638523,3.47857 9.5292695,3.2646106 8.8068563,2.8026417 7.4776592,2.1344279 6.8504108,1.9178952 6.0879648,1.654691 5.5770774,1.5530925 4.8828172,1.526606 4.4899026,1.5116161 4.1541574,1.5212764 3.9732725,1.5527762 2.6617644,1.7811654 1.5242043,2.7886802 1.0781191,4.1169571 L 0.99885611,4.3529729 1.0196789,4.0684858 C 1.0618679,3.4920871 1.4998986,2.6410281 2.0242572,2.1166695 3.3425729,0.79835376 5.107051,0.67707202 7.576162,1.7350582 8.1593232,1.9849363 8.8006392,2.3350556 9.565119,2.8209076 l 0.5588,0.3551358 0.440254,-0.09272 0.440255,-0.092719 0.442199,0.092509 0.4422,0.092509 0.479852,-0.312014 c 1.374864,-0.8939776 2.681827,-1.4733007 3.916497,-1.7360231 0.618956,-0.13170615 1.494761,-0.13318149 1.985143,-0.00334 0.654031,0.1731664 1.383869,0.6174604 1.830356,1.1142413 0.417765,0.4648244 0.782717,1.193241 0.88121,1.7588255 0.06791,0.3899563 0.03971,0.6187346 -0.03288,0.2667942 z"
     id="path3352"
     inkscape:connector-curvature="0" />
  <path
     style="opacity:1;fill:#000000;fill-opacity:0.30952382;stroke:none;stroke-width:1;stroke-miterlimit:4;stroke-dasharray:none;stroke-opacity:0"
     d="M 5.0938021,8.0350929 C 4.6055756,7.1992927 4.1129778,5.987774 4.056658,5.484291 L 4.030393,5.2494891 4.1526457,5.6123647 c 0.067239,0.1995816 0.2222775,0.5741973 0.34453,0.8324793 0.249852,0.5278608 0.7747464,1.472848 0.8180954,1.472848 0.015593,0 0.1205118,-0.1173062 0.2331529,-0.2606804 C 6.0387739,7.0328746 6.7608353,6.4088413 7.4938848,5.9756693 L 7.8768545,5.7493657 8.025347,5.8808309 c 0.081671,0.072306 0.1484925,0.1456373 0.1484925,0.1629586 0,0.017321 -0.2251645,0.1622445 -0.5003654,0.3220518 C 6.9291652,6.798056 6.5498786,7.0963195 5.910212,7.7524352 5.5926842,8.0781283 5.3197739,8.3446045 5.3037448,8.3446045 c -0.016029,0 -0.1105033,-0.1392802 -0.2099427,-0.3095116 z"
     id="path3354"
     inkscape:connector-curvature="0" />
  <path
     style="opacity:1;fill:#000000;fill-opacity:0.30952382;stroke:none;stroke-width:1;stroke-miterlimit:4;stroke-dasharray:none;stroke-opacity:0"
     d="M 15.075131,9.3702755 C 14.735276,9.2616958 14.423336,9.0454279 14.021501,8.6397948 13.378497,7.9907122 13.101723,7.5558413 13.05926,7.1279039 l -0.02542,-0.2561474 0.125736,0.2401172 c 0.481806,0.9200995 1.405198,1.715356 2.178034,1.8757962 0.355401,0.073781 0.577847,0.023366 0.76721,-0.1738795 0.418512,-0.4359311 1.438418,-2.3096122 1.755711,-3.2254354 l 0.08782,-0.2534834 -0.02552,0.2134562 c -0.04451,0.3722409 -0.258686,0.960444 -0.606238,1.6649586 -0.554118,1.123239 -0.992915,1.8300438 -1.30772,2.1064461 -0.138059,0.1212178 -0.180392,0.1346124 -0.418914,0.1325486 -0.145934,-0.00126 -0.377606,-0.038165 -0.514827,-0.082006 z"
     id="path3356"
     inkscape:connector-curvature="0" />
  <path
     style="opacity:1;fill:#000000;fill-opacity:0.30952382;stroke:none;stroke-width:1;stroke-miterlimit:4;stroke-dasharray:none;stroke-opacity:0"
     d="M 10.351093,17.945584 C 9.240321,17.82012 8.1440873,17.368581 7.2882322,16.683991 6.1729175,15.791861 5.4461359,14.608648 5.1359709,13.180073 5.0120308,12.609223 5.0032151,11.494754 5.117983,10.906079 5.5829264,8.5212649 7.3928631,6.6692574 9.7747612,6.1410571 10.123754,6.0636657 11.415012,6.0161198 11.7554,6.0681271 l 0.230298,0.035187 0.01014,0.3628756 c 0.01305,0.4669748 0.159115,0.9266171 0.448944,1.4128013 0.557684,0.9355069 1.344365,1.6197291 2.263268,1.9684956 0.334008,0.1267715 0.39953,0.136941 0.894062,0.1387639 0.502854,0.00185 0.545445,-0.00469 0.738238,-0.1134423 l 0.204597,-0.1154094 0.03823,0.100538 c 0.453837,1.1936823 0.508488,2.5881833 0.150714,3.8456923 -0.146264,0.514088 -0.596972,1.410196 -0.933395,1.855796 -1.285938,1.703253 -3.379475,2.619961 -5.449402,2.386159 z"
     id="path3358"
     inkscape:connector-curvature="0" />
  <path
     style="opacity:1;fill:#000000;fill-opacity:0.30952382;stroke:none;stroke-width:1;stroke-miterlimit:4;stroke-dasharray:none;stroke-opacity:0"
     d="M 5.2851208,7.8243419 C 5.0573989,7.5298047 4.3517512,6.1024319 4.181037,5.5910191 4.0276077,5.1313871 3.986542,4.5095218 4.0961754,4.3059448 4.4060538,3.7305355 5.7983382,4.0806357 7.7085056,5.2142918 L 8.2464159,5.5335337 7.8127043,5.757939 C 6.8794765,6.2407972 6.0974602,6.893396 5.4383993,7.7393154 5.352542,7.8495152 5.3189784,7.8681336 5.2851208,7.8243419 Z"
     id="path3360"
     inkscape:connector-curvature="0" />
  <path
     style="opacity:1;fill:#000000;fill-opacity:0.30952382;stroke:none;stroke-width:1;stroke-miterlimit:4;stroke-dasharray:none;stroke-opacity:0"
     d="M 15.24925,8.9407314 C 14.690076,8.8013094 13.857962,8.131671 13.413955,7.4637889 13.133781,7.0423473 13.040642,6.7805807 13.040642,6.4145999 c 0,-0.3040238 3.39e-4,-0.3049014 0.187035,-0.4837877 0.387605,-0.371391 1.938096,-1.2542807 2.797084,-1.5927323 0.969355,-0.3819372 1.691789,-0.4058552 1.875744,-0.062101 0.131211,0.2451894 0.0894,0.7959455 -0.10468,1.3790626 -0.249601,0.7499146 -1.272607,2.6259599 -1.679908,3.0807088 -0.192362,0.2147703 -0.205524,0.221559 -0.452021,0.2331373 -0.13964,0.00656 -0.32623,-0.00611 -0.414646,-0.028156 z"
     id="path3362"
     inkscape:connector-curvature="0" />
  <path
     style="opacity:1;fill:#000000;fill-opacity:0.30952382;stroke:none;stroke-width:1;stroke-miterlimit:4;stroke-dasharray:none;stroke-opacity:0"
     d=""
     id="path3364"
     inkscape:connector-curvature="0" />
  <path
     style="opacity:1;fill:#000000;fill-opacity:0.30952382;stroke:none;stroke-width:1;stroke-miterlimit:4;stroke-dasharray:none;stroke-opacity:0"
     d="m 19.531703,9.267706 c -0.05896,-0.1550833 -0.05646,-0.1988839 0.01596,-0.2793713 0.03335,-0.037069 0.214812,-0.3651698 0.403241,-0.7291127 0.47082,-0.9093698 0.71182,-1.5219341 0.940575,-2.3907098 0.03684,-0.1399305 0.03959,-0.1418495 0.04319,-0.030219 0.0065,0.2011874 -0.121336,0.7517155 -0.299453,1.2896104 -0.152414,0.4602782 -0.736822,1.7337276 -0.968573,2.1105628 l -0.09026,0.1467655 -0.04468,-0.1175262 z"
     id="path3366"
     inkscape:connector-curvature="0" />
  <path
     style="opacity:1;fill:#000000;fill-opacity:0.30952382;stroke:none;stroke-width:1;stroke-miterlimit:4;stroke-dasharray:none;stroke-opacity:0"
     d="M 2.332004,9.2411206 C 2.1512606,8.9533021 1.606362,7.8069785 1.4492565,7.3840514 1.2520936,6.8532901 1.0999448,6.2623876 1.0686115,5.9057342 l -0.023898,-0.2720239 0.064907,0.2543505 c 0.2288971,0.8969757 0.6101302,1.7941386 1.2850915,3.0242293 0.094033,0.1713715 0.1057478,0.2271317 0.071753,0.34153 L 2.4258359,9.39054 2.332004,9.2411206 Z"
     id="path3368"
     inkscape:connector-curvature="0" />
  <path
     style="opacity:1;fill:#000000;fill-opacity:0.30952382;stroke:none;stroke-width:1;stroke-miterlimit:4;stroke-dasharray:none;stroke-opacity:0"
     d="M 10.158982,21.445269 C 7.0871197,21.151853 4.3111472,19.224434 2.9423422,16.434596 2.6303138,15.798633 2.3265564,14.923295 2.1992855,14.293327 c -0.1369491,-0.677872 -0.09991,-0.736052 0.064524,-0.101353 1.2671074,4.890891 6.25573,7.821784 11.0727905,6.505436 3.263808,-0.891894 5.740453,-3.511553 6.492092,-6.86698 0.07823,-0.349241 0.08396,-0.361111 0.06295,-0.130382 -0.0728,0.799463 -0.424139,1.93453 -0.87285,2.81993 -1.674851,3.304827 -5.215905,5.273348 -8.859813,4.925291 z"
     id="path3370"
     inkscape:connector-curvature="0" />
  <path
     style="opacity:1;fill:#000000;fill-opacity:0.30952382;stroke:none;stroke-width:1;stroke-miterlimit:4;stroke-dasharray:none;stroke-opacity:0"
     d="M 9.7421741,21.381265 C 6.7992535,20.955493 4.1231057,18.959453 2.8759582,16.260008 2.5862001,15.632828 2.1938656,14.40616 2.1990197,14.143501 c 0.00108,-0.05479 0.0697,0.120945 0.1524997,0.390519 0.4432915,1.44324 1.1273996,2.613311 2.1606993,3.695576 2.4102635,2.524478 6.0174443,3.424016 9.3197423,2.324104 0.621596,-0.207038 1.567348,-0.664491 2.09034,-1.01108 1.784012,-1.182276 3.065923,-2.904595 3.743149,-5.02913 0.09901,-0.310619 0.118593,-0.347185 0.102208,-0.190883 -0.03027,0.288774 -0.290242,1.110329 -0.533925,1.687309 -0.234068,0.554216 -0.609226,1.213217 -1.00854,1.771596 -0.306196,0.428167 -1.15125,1.314305 -1.595787,1.673369 -1.266954,1.023349 -2.828882,1.701268 -4.450974,1.931845 -0.556194,0.07906 -1.872433,0.07611 -2.4362579,-0.0055 z"
     id="path3372"
     inkscape:connector-curvature="0" />
  <path
     style="opacity:1;fill:#000000;fill-opacity:0.30952382;stroke:none;stroke-width:1;stroke-miterlimit:4;stroke-dasharray:none;stroke-opacity:0"
     d="M 10.244365,21.408511 C 7.5834281,21.240255 4.8708305,19.564746 3.3819453,17.169753 3.055095,16.643987 2.7386621,15.948962 2.4978609,15.227915 c -0.2497357,-0.7478 -0.2877532,-1.013812 -0.050242,-0.35155 0.5252768,1.464653 1.2191822,2.545579 2.3168468,3.609052 1.3131744,1.272269 2.8921704,2.079529 4.7328026,2.419641 0.6633409,0.122571 2.2312479,0.133231 2.8798259,0.01958 1.570624,-0.275228 2.955238,-0.878691 4.16423,-1.814917 1.307768,-1.012717 2.409973,-2.555121 2.994404,-4.190307 0.237843,-0.665467 0.197655,-0.378943 -0.05085,0.36252 -0.349177,1.041846 -0.903496,2.066301 -1.510776,2.792115 -0.444605,0.531389 -1.382586,1.419451 -1.817,1.720303 -1.127728,0.781002 -2.412161,1.311877 -3.692793,1.526284 -0.564092,0.09444 -1.518578,0.132225 -2.219945,0.08788 z"
     id="path3374"
     inkscape:connector-curvature="0" />
  <path
     style="opacity:1;fill:#000000;fill-opacity:0.30952382;stroke:none;stroke-width:1;stroke-miterlimit:4;stroke-dasharray:none;stroke-opacity:0"
     d="M 2.0125498,8.5900791 C 1.5743575,7.695873 1.38254,7.218399 1.2388987,6.6642994 1.0915155,6.0957653 1.1024741,5.9747842 1.2593833,6.4381506 1.457045,7.0218623 1.6593915,7.4883908 2.0729407,8.3138824 c 0.3483101,0.6952667 0.4549838,1.0126207 0.3403772,1.0126207 -0.021942,0 -0.2022877,-0.3313908 -0.4007681,-0.736424 z"
     id="path3376"
     inkscape:connector-curvature="0" />
  <path
     style="opacity:1;fill:#000000;fill-opacity:0.30952382;stroke:none;stroke-width:1;stroke-miterlimit:4;stroke-dasharray:none;stroke-opacity:0"
     d="M 10.052254,20.89063 C 6.2338169,20.451588 3.0948612,17.628274 2.2667296,13.887989 1.9871414,12.62522 2.0201501,11.646956 2.3919522,10.176824 2.6208414,9.2717794 2.6155038,9.2300299 2.1543804,8.3185654 1.3059196,6.6414837 0.96504742,5.4128636 1.0843152,4.4616843 1.2192849,3.3852804 2.2000178,2.2146673 3.3200495,1.7930885 4.241309,1.4463274 5.4541415,1.498059 6.7317919,1.9386115 7.5978795,2.2372511 8.5372154,2.7028805 9.5834976,3.3522035 L 10.117985,3.6839067 10.330594,3.64204 c 0.284297,-0.055983 1.104435,-0.054964 1.343928,0.00167 0.190595,0.045071 0.195477,0.043365 0.619023,-0.2162828 2.045194,-1.2537751 3.369394,-1.7697293 4.760074,-1.8546896 0.533841,-0.032614 1.095727,0.032724 1.507268,0.1752687 1.085271,0.3759042 2.066297,1.4252452 2.315641,2.4768933 0.232681,0.981371 -0.219931,2.629236 -1.226163,4.4642053 l -0.200617,0.365846 0.02326,0.3385595 c 0.01279,0.1862082 0.08705,0.5979093 0.165019,0.914892 0.217677,0.884971 0.245136,1.161767 0.221114,2.228897 -0.02317,1.029378 -0.0587,1.25544 -0.330672,2.104264 -0.512283,1.598819 -1.403455,2.965029 -2.650783,4.063783 -1.168586,1.02939 -2.809045,1.832177 -4.25389,2.081714 -0.819715,0.141572 -1.872319,0.183966 -2.57154,0.10357 z m 2.025392,-2.472729 c 0.380323,-0.05497 1.074222,-0.287339 1.505371,-0.504117 1.089511,-0.547795 2.059052,-1.461982 2.65485,-2.503275 0.249418,-0.435916 0.5284,-1.120045 0.622887,-1.527465 0.131736,-0.568034 0.189941,-2.085721 0.105743,-2.757215 -0.04151,-0.331006 -0.308591,-1.3129983 -0.375913,-1.382115 -0.01663,-0.017076 -0.173801,0.018879 -0.349262,0.0799 C 15.39341,10.118497 14.264821,9.7563946 13.364814,8.9007002 12.941204,8.4979472 12.573704,8.0076506 12.35958,7.5595808 12.177219,7.1779744 12.110813,6.9156858 12.06671,6.4028059 L 12.037397,6.0619296 11.866632,6.0317178 C 11.607256,5.9858294 10.506776,5.9916841 10.0736,6.0412568 9.5819121,6.097526 8.8208134,6.3508579 8.2255813,6.656371 6.6330697,7.4737547 5.4440942,9.0525158 5.0814179,10.831295 c -0.1588813,0.779249 -0.1194434,2.249217 0.081608,3.041787 0.1943167,0.766018 0.6143985,1.687345 1.0070398,2.208645 0.2296797,0.30494 0.9794003,1.026916 1.3655832,1.315047 0.4996473,0.372787 1.6288606,0.87297 2.2604575,1.001266 0.3367812,0.06841 1.8542262,0.08162 2.2815392,0.01986 z m 3.820541,-8.9832383 c 0.294788,-0.1524406 0.78102,-0.8868663 1.369872,-2.0691132 0.549072,-1.1023777 0.657387,-1.434306 0.727072,-2.2280811 0.05043,-0.57446 0.0096,-0.8137574 -0.169577,-0.9926162 -0.132737,-0.1325366 -0.136467,-0.1333889 -0.570174,-0.1302997 -0.383662,0.00273 -0.493468,0.022033 -0.906167,0.1592768 -1.089189,0.3622111 -3.10268,1.5085747 -3.291701,1.8741018 -0.107259,0.2074163 -0.06715,1.1704224 0.06072,1.4577562 0.245753,0.5522429 1.090411,1.4589422 1.635479,1.7556058 0.409652,0.2229602 0.903823,0.2978188 1.144481,0.1733696 z M 5.9544467,7.7659895 C 6.6772739,7.0398486 6.9918469,6.7883241 7.6615445,6.4010368 7.9315667,6.2448825 8.1707068,6.0996426 8.1929673,6.0782816 c 0.0251,-0.024086 -0.010681,-0.091616 -0.0942,-0.177786 L 7.964094,5.7615479 8.1358255,5.662712 C 8.3521476,5.5382128 8.3347095,5.5139448 7.8048599,5.2021115 6.9108838,4.6759787 5.9351118,4.2341847 5.3203796,4.0772297 4.6900169,3.9162838 4.2473381,3.9791622 4.0734207,4.2543486 3.990769,4.385127 3.9855218,4.4418213 4.0030499,5.0146872 c 0.017406,0.5688749 0.031519,0.657508 0.1742083,1.0940755 0.1994185,0.6101343 1.0235522,2.278533 1.1255198,2.278533 0.018259,0 0.3115099,-0.2795879 0.6516687,-0.6213062 z"
     id="path3378"
     inkscape:connector-curvature="0" />
  <path
     style="opacity:1;fill:#000000;fill-opacity:0.30952382;stroke:none;stroke-width:1;stroke-miterlimit:4;stroke-dasharray:none;stroke-opacity:0"
     d="m 15.431351,9.4427278 c 0,-0.022438 -0.04849,-0.031527 -0.107747,-0.020199 -0.05926,0.011328 -0.118837,0.00265 -0.132392,-0.019279 -0.01355,-0.021932 -0.05028,-0.03004 -0.0816,-0.018019 -0.03133,0.012022 -0.06329,0.00287 -0.07102,-0.020332 -0.0077,-0.023204 -0.057,-0.045424 -0.109486,-0.049378 -0.05248,-0.00395 -0.09542,-0.025513 -0.09542,-0.04791 0,-0.022397 -0.01165,-0.029071 -0.02589,-0.014831 -0.01424,0.01424 -0.06589,-0.011375 -0.114778,-0.056922 -0.04889,-0.045547 -0.114082,-0.082812 -0.144875,-0.082812 -0.03079,0 -0.05599,-0.019814 -0.05599,-0.044031 0,-0.024217 -0.03284,-0.056635 -0.07299,-0.072039 -0.155984,-0.059857 -1.079677,-1.0508919 -1.079677,-1.1583916 0,-0.026932 -0.01921,-0.048967 -0.04269,-0.048967 -0.02348,0 -0.03994,-0.014408 -0.03658,-0.032018 0.01192,-0.062513 -0.1005,-0.3095115 -0.140878,-0.3095115 -0.02257,0 -0.02916,-0.019211 -0.01465,-0.042691 0.01451,-0.02348 0.01245,-0.065233 -0.0046,-0.092784 -0.01703,-0.027551 -0.03569,-0.099592 -0.04148,-0.1600922 -0.0058,-0.0605 -0.02332,-0.1676325 -0.03896,-0.2380731 -0.01868,-0.084127 0.0091,-0.050277 0.08088,0.098647 0.485756,1.0073665 1.578051,1.924731 2.381035,1.9997149 0.48868,0.045634 0.627179,-0.078562 1.265592,-1.1348936 0.301462,-0.4988041 0.938153,-1.7765354 1.059783,-2.1268052 0.04281,-0.1232709 0.09459,-0.224129 0.115067,-0.224129 0.02048,0 0.0231,0.033619 0.0058,0.07471 -0.01728,0.04109 -0.03695,0.1131318 -0.0437,0.1600922 -0.0068,0.04696 -0.01681,0.094988 -0.02234,0.1067281 -0.0055,0.01174 -0.01374,0.040557 -0.01825,0.064037 -0.0045,0.02348 -0.02899,0.093086 -0.05442,0.1546804 -0.02543,0.061594 -0.05244,0.1480437 -0.06002,0.1921106 -0.0076,0.044067 -0.02916,0.091456 -0.04794,0.1053084 -0.01879,0.013853 -0.03728,0.066683 -0.0411,0.1174009 -0.0038,0.050718 -0.02207,0.092214 -0.04055,0.092214 -0.01848,0 -0.02966,0.014408 -0.02483,0.032018 0.0048,0.01761 -0.02322,0.092019 -0.06233,0.1653524 -0.03911,0.073334 -0.05907,0.1453752 -0.04435,0.1600922 0.01472,0.014717 0.0032,0.026758 -0.02557,0.026758 -0.02878,0 -0.04045,0.019211 -0.02594,0.042691 0.01451,0.02348 0.0049,0.042691 -0.02135,0.042691 -0.02625,0 -0.03586,0.019211 -0.02135,0.042691 0.01451,0.02348 0.0049,0.042691 -0.02135,0.042691 -0.02625,0 -0.03586,0.019211 -0.02135,0.042691 0.01451,0.02348 0.0049,0.042691 -0.02135,0.042691 -0.02625,0 -0.03586,0.019211 -0.02135,0.042691 0.01451,0.02348 0.0049,0.042691 -0.02135,0.042691 -0.02625,0 -0.03586,0.019211 -0.02135,0.042691 0.01451,0.02348 0.0049,0.042691 -0.02135,0.042691 -0.02625,0 -0.03586,0.019211 -0.02135,0.042691 0.01451,0.02348 0.0049,0.042691 -0.02135,0.042691 -0.02625,0 -0.03586,0.019211 -0.02135,0.042691 0.01451,0.02348 0.0049,0.042691 -0.02135,0.042691 -0.02625,0 -0.03586,0.019211 -0.02135,0.042691 0.01451,0.02348 0.0049,0.042691 -0.02135,0.042691 -0.02625,0 -0.03586,0.019211 -0.02135,0.042691 0.01451,0.02348 0.0049,0.042691 -0.02135,0.042691 -0.02625,0 -0.03586,0.019211 -0.02135,0.042691 0.01451,0.02348 0.0075,0.042691 -0.01552,0.042691 -0.02304,0 -0.06409,0.067239 -0.09121,0.1494194 -0.02712,0.082181 -0.06817,0.1494193 -0.09121,0.1494193 -0.02304,0 -0.03003,0.019211 -0.01552,0.042691 0.01451,0.02348 0.0064,0.042691 -0.01801,0.042691 -0.02442,0 -0.05645,0.048028 -0.07118,0.1067281 -0.01473,0.058701 -0.04505,0.1067282 -0.06737,0.1067282 -0.02232,0 -0.02871,0.019211 -0.0142,0.042691 0.01451,0.02348 0.006,0.042691 -0.01883,0.042691 -0.02487,0 -0.04521,0.028816 -0.04521,0.064037 0,0.03522 -0.01921,0.064037 -0.04269,0.064037 -0.02348,0 -0.04269,0.028817 -0.04269,0.064037 0,0.03522 -0.01921,0.064037 -0.04269,0.064037 -0.02348,0 -0.04269,0.028817 -0.04269,0.064037 0,0.03522 -0.01921,0.064037 -0.04269,0.064037 -0.02348,0 -0.04269,0.024195 -0.04269,0.053768 0,0.029572 -0.03842,0.077763 -0.08538,0.1070899 -0.04696,0.029327 -0.08538,0.078999 -0.08538,0.1103807 0,0.071631 -0.146781,0.2081192 -0.183898,0.1710027 -0.01515,-0.015152 -0.03962,0.00391 -0.05437,0.042353 -0.01475,0.038446 -0.04402,0.059273 -0.06504,0.046282 -0.02102,-0.012991 -0.06223,-0.00864 -0.09158,0.00967 -0.07768,0.048466 -0.330858,0.050446 -0.330858,0.00259 z"
     id="path3380"
     inkscape:connector-curvature="0" />
  <path
     style="opacity:1;fill:#000000;fill-opacity:0.30952382;stroke:none;stroke-width:1;stroke-miterlimit:4;stroke-dasharray:none;stroke-opacity:0"
     d="m 5.2388163,8.2734524 c -0.02935,-0.01174 -0.053364,-0.048561 -0.053364,-0.081825 0,-0.033264 -0.020345,-0.060479 -0.045211,-0.060479 -0.024866,0 -0.033338,-0.019211 -0.018826,-0.042691 0.014512,-0.02348 0.00813,-0.042691 -0.014191,-0.042691 -0.022316,0 -0.072811,-0.072041 -0.1122111,-0.1600921 C 4.9556139,7.7976229 4.8589819,7.6108413 4.7802758,7.4706034 4.7015697,7.3303656 4.6464038,7.2006909 4.657685,7.1824375 c 0.011281,-0.018253 -0.00304,-0.033188 -0.031815,-0.033188 -0.028779,0 -0.039773,-0.012553 -0.024431,-0.027895 0.015342,-0.015342 -0.010018,-0.089239 -0.056356,-0.1642156 -0.046338,-0.074976 -0.071698,-0.1488734 -0.056356,-0.1642157 0.015342,-0.015342 0.00957,-0.027895 -0.012827,-0.027895 -0.022397,0 -0.043956,-0.04294 -0.047909,-0.095423 -0.00395,-0.052483 -0.027372,-0.1021511 -0.052042,-0.1103743 -0.02467,-0.00822 -0.033995,-0.032522 -0.020723,-0.053996 0.013272,-0.021475 0.00439,-0.039045 -0.01974,-0.039045 -0.024129,0 -0.032813,-0.028817 -0.019298,-0.064037 0.013515,-0.03522 0.00217,-0.064037 -0.025205,-0.064037 -0.027378,0 -0.038428,-0.018365 -0.024555,-0.040812 0.013873,-0.022447 -0.00715,-0.1136991 -0.046725,-0.2027834 -0.039572,-0.089084 -0.068157,-0.1859852 -0.063523,-0.2153354 0.00463,-0.02935 -0.00983,-0.053364 -0.032141,-0.053364 -0.022311,0 -0.031085,-0.036254 -0.019498,-0.080564 0.011587,-0.04431 1.833e-4,-0.093472 -0.025342,-0.1092476 -0.052699,-0.03257 -0.063489,-0.1517179 -0.01374,-0.1517179 0.017969,0 0.067956,0.100858 0.1110822,0.224129 0.1793583,0.5126727 1.0515462,2.209272 1.1357427,2.209272 0.018506,0 0.107242,-0.091252 0.1971908,-0.2027834 C 6.0896916,6.9954762 6.9719157,6.2531219 7.7153116,5.8587903 L 7.9184981,5.7510108 8.0405296,5.8628207 c 0.1023662,0.093792 0.1150546,0.1271224 0.078737,0.2068313 -0.023812,0.052262 -0.059832,0.084801 -0.080045,0.072309 -0.020213,-0.012492 -0.048233,0.00721 -0.062268,0.043785 -0.014035,0.036574 -0.042715,0.055869 -0.063735,0.042878 -0.02102,-0.012991 -0.038218,-0.00214 -0.038218,0.02411 0,0.026252 -0.019211,0.035857 -0.042691,0.021346 -0.02348,-0.014512 -0.042691,-0.00604 -0.042691,0.018826 0,0.024866 -0.027444,0.045211 -0.060987,0.045211 -0.033543,0 -0.087313,0.026325 -0.1194884,0.058501 C 7.5769669,6.4287923 7.4924441,6.4852127 7.4213139,6.5219956 7.148415,6.663117 6.5909999,7.1136455 5.9817006,7.685557 5.633051,8.0128128 5.3352795,8.2837694 5.3199863,8.2876828 c -0.015293,0.00391 -0.05182,-0.00249 -0.08117,-0.01423 z"
     id="path3382"
     inkscape:connector-curvature="0" />
  <path
     style="opacity:1;fill:#000000;fill-opacity:0.30952382;stroke:none;stroke-width:1;stroke-miterlimit:4;stroke-dasharray:none;stroke-opacity:0"
     d="M 9.6344808,18.333544 C 9.0362179,18.176801 8.2594867,17.834636 7.7365321,17.497463 7.3738188,17.263605 6.6670164,16.623632 6.3122582,16.207858 5.8952837,15.719166 5.4272879,14.752128 5.2034675,13.916719 c -0.1372079,-0.512128 -0.1349098,-0.763141 0.00273,-0.297947 0.678988,2.294879 2.4717634,3.899326 4.8247137,4.317886 0.510347,0.09078 1.455552,0.08811 1.982301,-0.0056 2.351175,-0.418299 4.189763,-2.108626 4.808566,-4.420812 0.103786,-0.3878 0.131696,-0.326554 0.05836,0.128074 -0.09985,0.619041 -0.50504,1.565794 -0.94884,2.217039 -0.324141,0.475653 -1.164271,1.299769 -1.652612,1.621111 -0.661228,0.435105 -1.426592,0.764849 -2.0833,0.897554 -0.125298,0.02532 -0.677649,0.04467 -1.238046,0.04336 -0.853412,-0.002 -1.0605111,-0.01511 -1.3228612,-0.08384 z"
     id="path3384"
     inkscape:connector-curvature="0" />
  <path
     style="opacity:1;fill:#000000;fill-opacity:0.30952382;stroke:none;stroke-width:1;stroke-miterlimit:4;stroke-dasharray:none;stroke-opacity:0"
     d="M 19.8992,11.2903 C 19.880325,11.137679 19.789469,10.716945 19.697297,10.355336 19.53971,9.7370934 19.480959,9.3438547 19.569098,9.4972681 c 0.117386,0.2043211 0.409036,1.7044869 0.379107,1.9500239 -0.0091,0.07463 -0.02775,0.01487 -0.04901,-0.156992 z"
     id="path3386"
     inkscape:connector-curvature="0" />
  <path
     style="opacity:1;fill:#000000;fill-opacity:0.30952382;stroke:none;stroke-width:1;stroke-miterlimit:4;stroke-dasharray:none;stroke-opacity:0"
     d="M 20.89673,4.0782741 C 20.772536,3.6920336 20.466957,3.1551804 20.170137,2.8017683 19.69307,2.233743 19.08824,1.8443435 18.355702,1.6336035 c -0.489035,-0.1406877 -1.583968,-0.1393663 -2.241291,0.0027 -0.859287,0.1857233 -2.19147,0.7512285 -3.173698,1.3472198 -0.254542,0.1544498 -0.469557,0.2808179 -0.477811,0.2808179 -0.0083,0 -0.137441,0.076766 -0.287082,0.1705908 -0.330436,0.2071823 -0.378441,0.2114073 -0.949556,0.083571 -0.194965,-0.04364 -0.917862,0.031835 -0.917862,0.095831 0,0.081554 -0.169442,-2.459e-4 -0.9460604,-0.4567202 C 7.9106228,2.3043395 6.6082644,1.7424449 5.8044753,1.6225984 5.7105546,1.6085946 5.518444,1.5785774 5.3775628,1.5558935 4.9711601,1.4904568 4.1533329,1.5049863 3.8068183,1.5837993 2.7142541,1.8322978 1.6623289,2.7294144 1.1855166,3.8193323 1.0127529,4.2142429 0.9922664,4.0741587 1.149837,3.5753594 1.3498603,2.9421737 1.8664119,2.2097291 2.4042083,1.7967228 3.1312884,1.2383543 3.8897441,1.0108444 4.8759554,1.0552862 6.2409865,1.1167987 7.7675038,1.697066 9.5633956,2.8370991 l 0.5512254,0.3499179 0.451317,-0.08992 0.451316,-0.08992 0.434033,0.088522 0.434033,0.088522 0.631025,-0.3955064 c 1.736001,-1.0880704 3.288099,-1.6768802 4.56665,-1.7324218 1.094207,-0.047534 1.81574,0.185974 2.652637,0.8584644 0.49302,0.3961677 0.959881,1.1239398 1.153307,1.7978474 0.08519,0.2967969 0.151076,0.6617143 0.119478,0.6617143 -0.0091,0 -0.05933,-0.13322 -0.111687,-0.2960444 z"
     id="path3388"
     inkscape:connector-curvature="0" />
  <path
     style="opacity:1;fill:#000000;fill-opacity:0.30952382;stroke:none;stroke-width:1;stroke-miterlimit:4;stroke-dasharray:none;stroke-opacity:0"
     d=""
     id="path3390"
     inkscape:connector-curvature="0" />
  <path
     style="opacity:1;fill:#000000;fill-opacity:0.30952382;stroke:none;stroke-width:1;stroke-miterlimit:4;stroke-dasharray:none;stroke-opacity:0"
     d="M 9.6882427,21.345218 C 7.8360587,21.062399 6.0642826,20.149859 4.671613,18.76144 3.911784,18.00393 3.4309714,17.329557 2.9863423,16.39773 2.7193251,15.838132 2.3790499,14.936297 2.4196164,14.895731 c 0.011776,-0.01178 0.064428,0.09912 0.1170062,0.246432 0.2718933,0.761795 0.8265344,1.730786 1.4122454,2.467277 0.3710523,0.466573 1.1940725,1.264748 1.6777821,1.627133 2.3554331,1.764644 5.3854809,2.258151 8.1824339,1.332682 2.344749,-0.775841 4.207377,-2.415141 5.319961,-4.682099 0.126488,-0.257727 0.271125,-0.581444 0.321415,-0.71937 0.137552,-0.377249 0.147945,-0.26329 0.01308,0.143457 -0.269379,0.812457 -0.798676,1.84083 -1.263873,2.455585 -0.56007,0.740131 -1.525529,1.667392 -2.213332,2.125766 -1.049119,0.699164 -2.253556,1.188128 -3.479337,1.412499 -0.529415,0.09691 -2.283382,0.121874 -2.8187583,0.04012 z"
     id="path3392"
     inkscape:connector-curvature="0" />
  <path
     style="opacity:1;fill:#000000;fill-opacity:0.30952382;stroke:none;stroke-width:1;stroke-miterlimit:4;stroke-dasharray:none;stroke-opacity:0"
     d=""
     id="path3394"
     inkscape:connector-curvature="0" />
  <path
     style="opacity:1;fill:#000000;fill-opacity:0.30952382;stroke:none;stroke-width:1;stroke-miterlimit:4;stroke-dasharray:none;stroke-opacity:0"
     d="M 19.55623,9.2921833 C 19.494755,9.1927139 19.520622,9.0383014 19.62676,8.871169 19.769831,8.6458763 20.294795,7.6002892 20.448425,7.2346321 20.512548,7.0820109 20.639883,6.7362118 20.731392,6.4661896 20.84138,6.1416363 20.888502,6.0403518 20.870425,6.1673509 20.792067,6.7178346 20.463148,7.6090645 19.976201,8.5903212 19.6189,9.3103247 19.593587,9.352628 19.55623,9.2921833 Z"
     id="path3396"
     inkscape:connector-curvature="0" />
  <path
     style="opacity:1;fill:#000000;fill-opacity:0.30952382;stroke:none;stroke-width:1;stroke-miterlimit:4;stroke-dasharray:none;stroke-opacity:0"
     d="m 19.549557,9.2386943 c -0.04564,-0.073853 0.0085,-0.2168349 0.242991,-0.6412477 0.317283,-0.5743497 0.618161,-1.2226263 0.830649,-1.789727 0.101175,-0.2700221 0.184696,-0.4549603 0.185603,-0.4109737 0.0023,0.1139029 -0.261336,0.8859881 -0.471082,1.3793591 -0.192415,0.4526049 -0.7115,1.5077069 -0.741756,1.5077069 -0.01019,0 -0.03107,-0.020303 -0.04641,-0.045118 z"
     id="path3398"
     inkscape:connector-curvature="0" />
  <path
     style="opacity:1;fill:#000000;fill-opacity:0.30952382;stroke:none;stroke-width:1;stroke-miterlimit:4;stroke-dasharray:none;stroke-opacity:0"
     d="m 19.555815,9.2167811 c -0.01888,-0.0492 0.121055,-0.3715816 0.413894,-0.9535304 0.24333,-0.4835596 0.50697,-1.0504652 0.585867,-1.2597902 0.0789,-0.209325 0.150165,-0.3604449 0.158372,-0.335822 0.03904,0.1171088 -0.579828,1.5955517 -0.984949,2.3530033 -0.110544,0.2066826 -0.151387,0.2529402 -0.173184,0.1961393 z"
     id="path3400"
     inkscape:connector-curvature="0" />
  <path
     style="opacity:1;fill:#000000;fill-opacity:0.30952382;stroke:none;stroke-width:1;stroke-miterlimit:4;stroke-dasharray:none;stroke-opacity:0"
     d="M 2.3068883,9.1435254 C 2.1601498,8.893135 1.6355264,7.788832 1.499763,7.4445714 1.3574843,7.0837898 1.1600925,6.3966092 1.1808497,6.3343376 c 0.0088,-0.026399 0.088952,0.1509599 0.1781168,0.3941301 0.089165,0.2431701 0.3618449,0.8651919 0.605956,1.3822707 0.4014414,0.8503373 0.5439377,1.2157647 0.4740803,1.2157647 -0.013685,0 -0.073137,-0.08234 -0.1321145,-0.1829777 z"
     id="path3402"
     inkscape:connector-curvature="0" />
  <path
     style="opacity:1;fill:#000000;fill-opacity:0.30952382;stroke:none;stroke-width:1;stroke-miterlimit:4;stroke-dasharray:none;stroke-opacity:0"
     d="M 10.145129,20.895625 C 8.3932567,20.711475 6.6447628,19.97065 5.2921803,18.839463 3.3144167,17.185428 2.1041358,14.702168 2.1018573,12.293545 2.1011782,11.575609 2.1598581,11.15092 2.3882623,10.220723 2.4797232,9.8482405 2.5385949,9.5029268 2.5385949,9.3389434 2.5385949,9.0860063 2.5162437,9.0247631 2.175658,8.3444819 1.3780277,6.7513061 1.0845877,5.8171004 1.0845834,4.8708997 1.0845809,4.3317009 1.1478616,4.0359298 1.3484499,3.6375998 1.5431425,3.2509775 1.7048845,3.0268487 2.0448747,2.6725512 3.0258314,1.6503142 4.3228741,1.3440335 6.0179315,1.7343625 6.9136959,1.9406344 8.1806978,2.5084472 9.4196085,3.25884 l 0.7121285,0.4313274 0.222233,-0.042146 c 0.286509,-0.054335 1.074331,-0.052534 1.315234,0.00301 l 0.186794,0.043066 0.764867,-0.4541586 c 1.782713,-1.0585307 2.933268,-1.5110573 4.170959,-1.6404876 1.17612,-0.1229916 2.090432,0.1335431 2.911602,0.8169277 0.56367,0.4690912 1.046643,1.245111 1.178712,1.8939047 0.05894,0.2895698 0.06239,0.4162227 0.02267,0.8324793 -0.08836,0.9259305 -0.403474,1.8566061 -1.084094,3.2018436 l -0.377991,0.7470968 0.02748,0.3201843 c 0.01512,0.1761014 0.09111,0.5891394 0.168872,0.9178614 0.07776,0.328723 0.161812,0.747954 0.186775,0.931624 0.05741,0.422433 0.0581,1.55384 0.0013,2.056764 -0.115966,1.025934 -0.67675,2.504898 -1.332457,3.51411 -0.449045,0.691135 -1.299088,1.628626 -1.954133,2.155163 -1.140596,0.916834 -2.854271,1.659762 -4.25574,1.844988 -0.595263,0.07867 -1.686074,0.110908 -2.139652,0.06323 l 1e-6,0 z m 1.950459,-2.477918 c 1.509055,-0.244865 3.142121,-1.388762 4.051474,-2.837896 0.349929,-0.557643 0.698004,-1.47534 0.776872,-2.04822 0.07586,-0.55105 0.104043,-1.913975 0.04878,-2.359359 -0.04539,-0.365815 -0.310829,-1.3553627 -0.383579,-1.4299639 -0.01743,-0.017871 -0.14578,0.00724 -0.285225,0.055792 C 15.002973,10.251065 13.225259,9.2596696 12.401827,7.6219441 12.1978,7.2161553 12.14497,7.0271193 12.084908,6.4879451 12.037523,6.0625678 12.037059,6.0613699 11.909324,6.034065 11.6964,5.9885506 10.437475,5.9935386 10.051135,6.0414275 9.5776989,6.1001126 8.7969263,6.3631184 8.2255813,6.656371 6.6371958,7.4716368 5.4682822,9.0185618 5.0713852,10.830593 c -0.1061263,0.48452 -0.1047494,2.039491 0.00234,2.636961 0.1512717,0.84401 0.6449391,2.022906 1.0951251,2.615199 0.2308879,0.303771 0.979055,1.026619 1.3547815,1.308934 0.4903726,0.368459 1.7698835,0.930044 2.334608,1.024673 0.311531,0.0522 1.917979,0.05317 2.237353,0.0013 l 0,2e-6 z M 15.892402,9.4368737 C 16.153721,9.2999714 16.504643,8.8122807 17.00397,7.8920837 17.480957,7.013056 17.804059,6.265799 17.908332,5.8005131 17.984092,5.4624547 18.038826,4.7862595 18.009648,4.5488156 17.987753,4.3706342 17.949348,4.2829305 17.841857,4.1656379 17.709786,4.0215232 17.685745,4.012686 17.384362,3.9974668 16.826464,3.9692942 16.118228,4.19416 15.043271,4.7407663 13.96632,5.288387 13.140364,5.8412167 13.0411,6.0808623 c -0.03849,0.092918 -0.04858,0.2926792 -0.03449,0.6828119 0.01843,0.5104733 0.02982,0.5715884 0.153148,0.822107 0.268538,0.5454776 1.112581,1.4297094 1.60988,1.6865335 0.413559,0.2135775 0.894616,0.2840842 1.122765,0.164559 z M 5.9331211,7.7866406 C 6.6195801,7.0961002 6.9908736,6.8014751 7.7063699,6.3795486 7.9869586,6.2140863 8.2165307,6.0635792 8.2165307,6.0450887 c 0,-0.018491 -0.048028,-0.078739 -0.1067281,-0.1338853 C 8.0511021,5.856057 8.0030745,5.7966423 8.0030745,5.7791699 c 0,-0.017472 0.067934,-0.073753 0.1509644,-0.1250689 C 8.2757768,5.5788629 8.2953332,5.549148 8.255054,5.5006143 8.1145213,5.3312828 6.7368205,4.5924814 6.0533461,4.3199337 5.2729343,4.0087303 4.6440436,3.9119282 4.3098453,4.0515652 4.0586926,4.1565035 3.9903912,4.3260147 3.9905794,4.8439223 c 3.031e-4,0.8398126 0.1174712,1.2562287 0.6786739,2.4120554 0.3770304,0.7765141 0.5760875,1.131318 0.6347073,1.131318 0.01763,0 0.3007525,-0.2702949 0.6291605,-0.6006551 z"
     id="path3404"
     inkscape:connector-curvature="0" />
</svg>
