<?xml version="1.0" encoding="UTF-8" standalone="no"?>
<svg
   xmlns:dc="http://purl.org/dc/elements/1.1/"
   xmlns:cc="http://creativecommons.org/ns#"
   xmlns:rdf="http://www.w3.org/1999/02/22-rdf-syntax-ns#"
   xmlns:svg="http://www.w3.org/2000/svg"
   xmlns="http://www.w3.org/2000/svg"
   xmlns:sodipodi="http://sodipodi.sourceforge.net/DTD/sodipodi-0.dtd"
   xmlns:inkscape="http://www.inkscape.org/namespaces/inkscape"
   height="22"
   width="22"
   version="1.1"
   id="svg2"
   inkscape:version="0.91 r13725"
   sodipodi:docname="distributor-logo-fedora.svg">
  <metadata
     id="metadata20">
    <rdf:RDF>
      <cc:Work
         rdf:about="">
        <dc:format>image/svg+xml</dc:format>
        <dc:type
           rdf:resource="http://purl.org/dc/dcmitype/StillImage" />
      </cc:Work>
    </rdf:RDF>
  </metadata>
  <defs
     id="defs18" />
  <sodipodi:namedview
     pagecolor="#ffffff"
     bordercolor="#666666"
     borderopacity="1"
     objecttolerance="10"
     gridtolerance="10"
     guidetolerance="10"
     inkscape:pageopacity="0"
     inkscape:pageshadow="2"
     inkscape:window-width="1366"
     inkscape:window-height="723"
     id="namedview16"
     showgrid="false"
     inkscape:zoom="23.424006"
     inkscape:cx="11"
     inkscape:cy="11"
     inkscape:window-x="0"
     inkscape:window-y="0"
     inkscape:window-maximized="1"
     inkscape:current-layer="svg2" />
  <path
     style="opacity:.2"
     d="m11.500053 0.500525c-5.7965545 0-10.495853 4.6987735-10.500053 10.494277v8.875695c0 0.902637 0.7268661 1.629503 1.6295031 1.629503h8.8762199c5.797079 0 10.494277-4.702396 10.494277-10.500053 0-5.7991785-4.701084-10.500052-10.500053-10.500052z"
     id="path4" />
  <path
     style="fill:#324e89"
     d="m11.500053 0.000525c-5.7965545 0-10.495853 4.6987735-10.500053 10.494277v8.875695c0 0.902637 0.7268661 1.629503 1.6295031 1.629503h8.8762199c5.797079 0 10.494277-4.702396 10.494277-10.500053 0-5.7991785-4.701084-10.500052-10.500053-10.500052z"
     id="path6" />
  <g
     transform="translate(-.5 -1.5)"
     id="g8">
    <path
       d="m15 4.5c-2.485281 0-4.5 2.0147185-4.5 4.5v2.5h-2.5c-2.4852815 0-4.5 2.014719-4.5 4.5s2.0147185 4.5 4.5 4.5c2.485281 0 4.5-2.014719 4.5-4.5v-2.5h2.5c2.485281 0 4.5-2.014719 4.5-4.5 0-2.4852815-2.014719-4.5-4.5-4.5zm0 2c1.380711 0 2.5 1.1192885 2.5 2.5 0 1.380712-1.119289 2.5-2.5 2.5h-1.990234c-0.231548 0-0.509766 0.000351-0.509766-0.548828v-1.951172c0-1.3807115 1.119288-2.5 2.5-2.5zm-7 7h1.9902345c0.2315475 0 0.5097655-0.00035 0.5097655 0.548828v1.951172c0 1.380711-1.119288 2.5-2.5 2.5-1.3807115 0-2.5-1.119289-2.5-2.5 0-1.380712 1.1192885-2.5 2.5-2.5z"
       style="opacity:.2;fill:#ffffff"
       id="path10" />
    <path
       style="fill:#ffffff"
       d="m15 4.5c-2.485281 0-4.5 2.0147185-4.5 4.5v2.5h-2.5a1 1 0 0 0 -0.099609 0.0049c-0.00065 0.000014-0.0013-0.000015-0.00195 0a1 1 0 0 0 -0.898441 0.9951 1 1 0 0 0 1 1h1.9902345c0.2315475 0 0.5097655-0.00035 0.5097655 0.548828v1.951172c0 1.380711-1.119288 2.5-2.5 2.5-0.384032 0-0.743235-0.09333-1.0683595-0.248047-0.134977-0.064696-0.2816695-0.10165-0.4316405-0.101563-0.5522845 0-1 0.447716-1 1 0.0005 0.377878 0.2139685 0.723198 0.551758 0.892579 0.0000285 0.0031-0.000031 0.0057 0 0.0088 0.5901875 0.284371 1.2492565 0.448231 1.948242 0.448231 2.485281 0 4.5-2.014719 4.5-4.5v-2.5h2a1 1 0 0 0 1 -1 1 1 0 0 0 -1 -1h-1.490234c-0.231548 0-0.509766 0.000351-0.509766-0.548828v-1.951172c0-1.3807115 1.119288-2.5 2.5-2.5 0.252093 0 0.490286 0.04876 0.719727 0.118164-0.000282-0.00285-0.0007-0.00598-0.001-0.00879 0.09132 0.026995 0.186025 0.040805 0.28125 0.041015 0.552284 0 1-0.4477155 1-1-0.000038-0.093495-0.01318-0.1865235-0.03907-0.276367 0.00055-0.01534 0.0039-0.029365 0.0039-0.04492-0.0082-0.013085-0.02406-0.026795-0.0332-0.04004v-0.001c-0.124585-0.3201262-0.404826-0.5539353-0.742154-0.6191167-0.0071-0.00376-0.0144-0.00703-0.02148-0.010742-0.373055-0.1001639-0.763304-0.1582033-1.167973-0.1582033z"
       id="path12" />
  </g>
  <path
     style="opacity:.1;fill:#ffffff"
     d="m11.5 0c-5.7965545 0-10.4958 4.6986371-10.5 10.494141v0.5c0.0042-5.7955039 4.7034455-10.494141 10.5-10.494141 5.714604 0 10.352285 4.5674327 10.486328 10.25 0.001977-0.083871 0.013672-0.165654 0.013672-0.25 0-5.7991785-4.701031-10.5-10.5-10.5z"
     id="path14" />
  <path
     style="opacity:1;fill:#000000;fill-opacity:0.30952382;stroke:none;stroke-width:1;stroke-miterlimit:4;stroke-dasharray:none;stroke-opacity:0"
     d="M 2.1504861,20.901103 C 1.5547444,20.708381 1.1534172,20.240021 1.0444596,19.61034 1.0112829,19.418608 1.001759,17.936481 1.0123941,14.620218 1.0291459,9.3965979 1.0166499,9.6486316 1.3193573,8.4290264 1.5008238,7.6978995 1.7008577,7.1566339 2.0684231,6.4021528 2.6118853,5.2866177 3.1611612,4.5202465 4.0748839,3.6026601 5.7373958,1.9331179 7.6965253,0.95020667 10.081917,0.58888237 c 0.585724,-0.0887218 2.125892,-0.10035463 2.702577,-0.0204124 2.900213,0.40203845 5.36756,1.83206424 7.082173,4.10468734 1.336462,1.7714062 2.092741,3.9365099 2.095612,5.9993947 0.003,2.163371 -0.749717,4.342924 -2.140468,6.197815 -0.647899,0.864126 -1.785631,1.895755 -2.810883,2.548746 -0.862444,0.549297 -2.186089,1.083784 -3.282733,1.325566 -0.972017,0.214305 -0.840889,0.209653 -6.2587611,0.222032 -4.8029207,0.01097 -5.0932887,0.0074 -5.3189478,-0.06561 z M 8.6095382,18.87457 c 1.6066728,-0.416549 2.8303468,-1.634965 3.2651388,-3.251108 0.113146,-0.42057 0.115097,-0.450537 0.131316,-2.017161 l 0.01646,-1.590249 1.332019,0 c 1.449578,0 1.838646,-0.03167 2.40741,-0.195955 0.746497,-0.215624 1.336209,-0.568842 1.913472,-1.146105 0.760732,-0.7607318 1.183882,-1.6434694 1.307053,-2.7266543 0.09291,-0.8170456 -0.06114,-1.64267 -0.455575,-2.4417011 C 17.828387,4.0907538 16.49308,3.17048 14.904011,3.0088395 12.766793,2.7914412 10.68354,4.2379944 10.140095,6.3167703 9.9996903,6.8538411 9.9675976,7.2908283 9.9672219,8.6706806 L 9.9668804,9.9573094 8.4620139,9.9789829 C 6.882069,10.001738 6.6759851,10.023477 6.0606313,10.232301 4.8260978,10.651248 3.82016,11.603828 3.3203978,12.827185 c -0.242729,0.594172 -0.2911476,0.881269 -0.2879931,1.70765 0.00238,0.624174 0.017766,0.801011 0.093495,1.074771 0.4291821,1.551496 1.5781085,2.748207 3.0841514,3.212424 0.5128388,0.158076 0.7963757,0.192832 1.4301567,0.17531 0.4161069,-0.0115 0.6586735,-0.04223 0.9693394,-0.12277 l -8.6e-6,0 z"
     id="path3348"
     inkscape:connector-curvature="0" />
  <path
     style="opacity:1;fill:#000000;fill-opacity:0.30952382;stroke:none;stroke-width:1;stroke-miterlimit:4;stroke-dasharray:none;stroke-opacity:0"
     d="M 2.6666687,20.941377 C 2.2565848,20.920599 2.1354952,20.897705 1.931511,20.80238 1.627941,20.660517 1.3414172,20.370725 1.1888629,20.05126 1.0857177,19.835263 1.0685984,19.736035 1.0399604,19.188181 0.99697918,18.365935 0.99956956,14.444271 1.044867,11.759904 1.0844742,9.412754 1.0879438,9.3756335 1.3680902,8.3019132 1.6031425,7.401025 2.0071973,6.4521092 2.5394619,5.5509661 3.2408334,4.3635191 4.5379466,3.0349094 5.8258209,2.1848079 6.3549977,1.8355081 7.2972554,1.3637765 7.8963464,1.1482204 8.4006871,0.96675602 9.3028091,0.72968262 9.8525421,0.63414155 c 0.5873799,-0.10208397 2.3023819,-0.1289787 2.9319519,-0.045979 3.092448,0.4076943 5.727379,2.04554705 7.44327,4.62667835 1.233781,1.855917 1.852028,4.0777778 1.699797,6.1087441 -0.155021,2.068197 -0.977668,4.142633 -2.281847,5.754046 -0.629289,0.777536 -1.964402,1.943821 -2.747122,2.399744 -1.135173,0.661222 -2.370785,1.119962 -3.66584,1.361 -0.267256,0.04974 -0.982145,0.07137 -3.2872258,0.09945 -3.2770219,0.03992 -6.5298265,0.04151 -7.2788575,0.0036 l 0,-2e-6 z m 5.5712077,-1.986843 c 1.6669535,-0.271329 3.0677336,-1.492531 3.5780786,-3.119376 0.16948,-0.540256 0.200097,-0.909531 0.200097,-2.413384 l 0,-1.405722 1.376792,-2.56e-4 c 1.501862,-2.57e-4 1.933732,-0.04008 2.519815,-0.232263 1.314065,-0.430889 2.406177,-1.512111 2.852354,-2.8239086 0.626556,-1.842132 -0.0015,-3.8899521 -1.551041,-5.0575966 -1.544135,-1.1635367 -3.622715,-1.2238293 -5.232534,-0.1517739 -1.092301,0.7274153 -1.822585,1.9300731 -1.96893,3.2425058 -0.025099,0.2250998 -0.045636,0.984093 -0.045636,1.6866522 l 0,1.2773797 -1.526212,0.022311 c -1.675485,0.024494 -1.8433812,0.044688 -2.5397851,0.3054795 -0.5331065,0.19964 -1.0139341,0.503352 -1.449054,0.915289 -0.6589409,0.623832 -1.055007,1.258722 -1.2948114,2.075572 -0.1388187,0.472861 -0.1904565,1.383281 -0.10976,1.935168 0.1617334,1.1061 0.8147534,2.189213 1.7373819,2.881657 1.0182334,0.764197 2.2169096,1.063502 3.4532452,0.862266 z"
     id="path3350"
     inkscape:connector-curvature="0" />
  <path
     style="opacity:1;fill:#000000;fill-opacity:0.30952382;stroke:none;stroke-width:1;stroke-miterlimit:4;stroke-dasharray:none;stroke-opacity:0"
     d="m 21.87773,9.4339109 c 0,-0.2132133 -0.225662,-1.167825 -0.403835,-1.7083295 C 20.333902,4.2672984 17.507145,1.6531616 13.97248,0.78839754 13.023671,0.55626948 12.639321,0.51320571 11.525102,0.5141862 10.346406,0.51522339 9.900945,0.56870373 8.8608902,0.83404106 6.9861929,1.3123112 5.2942915,2.3120507 3.904093,3.7629977 3.0841326,4.6187887 2.5477576,5.3953796 2.0223128,6.4875352 1.6727579,7.2140976 1.5131293,7.6562068 1.2978466,8.4940238 1.1296071,9.1487624 1.078424,9.1911446 1.1947333,8.5794063 1.794699,5.4238397 3.8071732,2.7058012 6.6465499,1.2162074 7.7355477,0.64489719 8.8270378,0.29798705 10.158982,0.09984499 c 0.505367,-0.07517904 2.133424,-0.07601328 2.668203,-0.0013672 1.944078,0.27135994 3.594976,0.96662594 5.165641,2.17547984 0.493405,0.3797465 1.446956,1.347922 1.828985,1.8570372 0.96029,1.2797383 1.645571,2.7815211 1.942201,4.2563009 0.113771,0.5656411 0.185364,1.1526637 0.140579,1.1526637 -0.01477,0 -0.02686,-0.047722 -0.02686,-0.1060485 z"
     id="path3352"
     inkscape:connector-curvature="0" />
  <path
     style="opacity:1;fill:#000000;fill-opacity:0.30952382;stroke:none;stroke-width:1;stroke-miterlimit:4;stroke-dasharray:none;stroke-opacity:0"
     d="m 13.232752,9.9812955 c -0.596438,-0.00894 -0.973518,-0.031957 -1.03322,-0.063064 -0.163237,-0.085052 -0.18348,-0.2491974 -0.18348,-1.4877862 0,-1.325655 0.03928,-1.5949162 0.307165,-2.1057325 0.312997,-0.5968302 0.993554,-1.1021045 1.677978,-1.2458011 0.381927,-0.080187 0.586713,-0.079899 0.994371,0.0014 1.149122,0.2291592 1.9698,1.2077461 1.980688,2.3617985 0.0044,0.4617321 -0.05684,0.7411844 -0.253749,1.1586452 -0.185821,0.3939652 -0.66732,0.8940568 -1.056352,1.0971416 -0.517927,0.2703718 -0.835497,0.3073565 -2.433401,0.283402 z"
     id="path3354"
     inkscape:connector-curvature="0" />
  <path
     style="opacity:1;fill:#000000;fill-opacity:0.30952382;stroke:none;stroke-width:1;stroke-miterlimit:4;stroke-dasharray:none;stroke-opacity:0"
     d="M 6.9017479,16.901746 C 6.1508501,16.699638 5.5915487,16.249921 5.2758873,15.594443 c -0.6534877,-1.356983 -0.0064,-2.936191 1.4155934,-3.454761 0.2505323,-0.09136 0.3418838,-0.09783 1.6044131,-0.113507 1.4329637,-0.0178 1.5348365,-0.0061 1.6227489,0.186881 0.032369,0.07104 0.048229,0.520811 0.048229,1.367745 0,1.013044 -0.013345,1.313622 -0.067673,1.524204 -0.2231586,0.864986 -0.961745,1.596432 -1.8151435,1.797596 -0.3393175,0.07998 -0.8834252,0.07959 -1.1823071,-8.54e-4 l 0,-1e-6 z"
     id="path3356"
     inkscape:connector-curvature="0" />
  <path
     style="opacity:1;fill:#000000;fill-opacity:0.30952382;stroke:none;stroke-width:1;stroke-miterlimit:4;stroke-dasharray:none;stroke-opacity:0"
     d="M 7.0211758,16.92366 C 6.6382561,16.858023 6.0572437,16.545629 5.753893,16.242278 4.9560963,15.444482 4.8047506,14.197029 5.386866,13.217094 5.6133402,12.835847 6.0023414,12.486557 6.4444268,12.267495 l 0.3652169,-0.180972 0.7781532,-0.03842 c 0.4279843,-0.02113 1.0911997,-0.03078 1.473812,-0.02145 0.9746071,0.02377 0.8840864,-0.138246 0.8832411,1.580843 -6.4e-4,1.301694 -0.00564,1.389356 -0.092997,1.631743 -0.2721794,0.755172 -0.8446558,1.340056 -1.5526061,1.586257 -0.3327207,0.115709 -0.9148642,0.160421 -1.2780708,0.09816 z"
     id="path3358"
     inkscape:connector-curvature="0" />
  <path
     style="opacity:1;fill:#000000;fill-opacity:0.30952382;stroke:none;stroke-width:1;stroke-miterlimit:4;stroke-dasharray:none;stroke-opacity:0"
     d="M 12.324735,9.9359275 C 12.061367,9.9033212 12.039296,9.8153273 12.022437,8.730716 c -0.02428,-1.5621137 0.05861,-2.0476372 0.446818,-2.6170434 0.339712,-0.4982783 0.959597,-0.9056328 1.574631,-1.0347608 0.380062,-0.079795 0.504615,-0.079469 0.908989,0.00238 1.189596,0.2407824 2.015361,1.2299723 2.015361,2.4142165 0,1.1427096 -0.825464,2.178758 -1.920962,2.4110193 -0.201663,0.042755 -0.593058,0.057196 -1.430301,0.052772 -0.633965,-0.00335 -1.215472,-0.013867 -1.292238,-0.023371 z"
     id="path3360"
     inkscape:connector-curvature="0" />
  <path
     style="opacity:1;fill:#000000;fill-opacity:0.30952382;stroke:none;stroke-width:1;stroke-miterlimit:4;stroke-dasharray:none;stroke-opacity:0"
     d="M 4.8060639,18.076688 C 4.0536909,17.509758 3.5046199,16.723105 3.1980438,15.772881 3.0955867,15.455318 3.0784497,15.32281 3.0608062,14.711718 c -0.012879,-0.446072 -0.00116,-0.816146 0.03245,-1.02459 0.2004755,-1.243379 1.1115356,-2.495551 2.2704739,-3.120564 0.5234655,-0.282305 1.2464006,-0.51431 1.6026051,-0.51431 0.1047012,0 0.1015916,0.0063 -0.060823,0.123992 -0.2140734,0.155074 -0.3380739,0.352811 -0.3987929,0.635934 -0.093275,0.434928 0.147418,0.903408 0.5630934,1.095994 l 0.1986775,0.09205 -0.2726744,0.04671 c -0.5827866,0.09983 -1.239831,0.549191 -1.5954113,1.09113 -0.3473047,0.529325 -0.4860907,1.298138 -0.3448639,1.910391 0.1205901,0.522788 0.4528094,1.052881 0.8710038,1.389784 l 0.2074514,0.167126 -0.2195345,0.03187 c -0.7465625,0.10838 -1.1405343,0.829454 -0.8057627,1.474762 0.063446,0.1223 0.098248,0.222363 0.077337,0.222363 -0.020911,0 -0.1918981,-0.115951 -0.3799717,-0.257668 z"
     id="path3362"
     inkscape:connector-curvature="0" />
  <path
     style="opacity:1;fill:#000000;fill-opacity:0.30952382;stroke:none;stroke-width:1;stroke-miterlimit:4;stroke-dasharray:none;stroke-opacity:0"
     d="m 14.562029,11.834614 c 0.637075,-0.425764 0.57597,-1.378081 -0.111764,-1.74182 l -0.150232,-0.07946 0.213457,-0.0026 c 0.642637,-0.0079 1.285435,-0.282469 1.750774,-0.7478078 C 17.422141,8.1050216 17.181755,6.2015823 15.76983,5.3478481 15.512747,5.1924001 15.510046,5.1888386 15.629617,5.162958 16.186237,5.04248 16.495989,4.6696046 16.497535,4.1181711 16.49834,3.8310647 16.433671,3.6688715 16.22733,3.4404812 l -0.09157,-0.101358 0.106728,0.030283 c 0.177023,0.050229 0.772462,0.4053006 1.055696,0.6295318 0.731604,0.5791988 1.294134,1.4517593 1.549326,2.4032147 0.129128,0.4814405 0.161531,1.3663892 0.06815,1.8610839 -0.175334,0.9288022 -0.539839,1.6465484 -1.174408,2.3125273 -0.695524,0.729951 -1.498541,1.164821 -2.460768,1.332619 -0.204933,0.03574 -0.497131,0.06498 -0.649331,0.06498 l -0.276725,0 0.207608,-0.138746 z"
     id="path3364"
     inkscape:connector-curvature="0" />
  <path
     style="opacity:1;fill:#000000;fill-opacity:0.30952382;stroke:none;stroke-width:1;stroke-miterlimit:4;stroke-dasharray:none;stroke-opacity:0"
     d="M 6.7353947,18.911308 C 6.0315542,18.783634 5.4227479,18.510842 5.2214349,18.232938 4.9929012,17.917456 4.9621505,17.534773 5.1378084,17.192229 c 0.1059777,-0.206664 0.2363788,-0.325882 0.4745563,-0.433862 0.264458,-0.119893 0.4976427,-0.110759 0.8633864,0.03382 0.3995348,0.157939 0.6927468,0.218894 1.0491482,0.218109 1.1254199,-0.0025 2.1604443,-0.828206 2.4204557,-1.930996 0.09134,-0.387398 0.092521,-2.713899 0.00147,-2.889976 -0.101466,-0.196213 -0.2354418,-0.215965 -1.4648901,-0.215965 -1.2272138,0 -1.3601311,-0.01847 -1.609014,-0.223623 C 6.4334338,11.387476 6.4052143,10.720952 6.812134,10.314032 7.0972828,10.028883 7.2180462,10.009563 8.7152286,10.009563 l 1.2943344,0 0,-1.3352212 c 0,-1.8031425 0.06709,-2.2830739 0.426277,-3.049567 0.811996,-1.7327537 2.653561,-2.7861265 4.506372,-2.5776391 1.074781,0.1209396 1.517934,0.4364226 1.521666,1.0832825 0.0023,0.4031002 -0.18865,0.7185773 -0.543053,0.897081 -0.23955,0.1206556 -0.416606,0.126697 -0.878848,0.029988 -0.501698,-0.1049643 -0.847601,-0.093097 -1.292596,0.044349 -0.266909,0.08244 -0.685697,0.3179549 -0.908877,0.5111285 -0.386018,0.3341164 -0.691745,0.8649835 -0.804451,1.3968534 -0.07325,0.3456788 -0.08811,2.4582829 -0.01903,2.706959 0.07449,0.2681924 0.07905,0.2692925 1.211465,0.2927867 0.950013,0.01971 1.041943,0.02841 1.199622,0.113491 0.707975,0.382026 0.723442,1.368449 0.02714,1.731051 l -0.229004,0.119255 -1.126443,0 -1.126444,0 0,1.467256 c 0,1.098938 -0.01573,1.557072 -0.06266,1.825051 -0.324751,1.854331 -1.792065,3.321645 -3.6463963,3.646397 -0.4316137,0.07559 -1.1098804,0.07525 -1.528908,-7.56e-4 l 0,0 z"
     id="path3366"
     inkscape:connector-curvature="0" />
  <path
     style="opacity:1;fill:#000000;fill-opacity:0.30952382;stroke:none;stroke-width:1;stroke-miterlimit:4;stroke-dasharray:none;stroke-opacity:0"
     d="M 2.2397562,20.899318 C 1.8205392,20.816873 1.3859987,20.450966 1.1819953,20.008624 1.071357,19.768727 1.0688873,19.743144 1.0389123,18.526467 1.0020378,17.029743 1.0345035,11.534841 1.0875934,10.287056 1.1134674,9.6789339 1.1541333,9.2537769 1.2140096,8.9653907 1.7303011,6.4787413 3.0281414,4.375417 5.0346822,2.7734788 6.4188011,1.6684563 8.0950771,0.93103075 9.8832256,0.64051305 10.451096,0.54825194 11.876161,0.50993496 12.519009,0.56964243 c 1.726024,0.16031267 3.534613,0.82722747 4.982868,1.83742537 2.006901,1.3998697 3.571906,3.6834666 4.156911,6.0656104 0.199973,0.8142916 0.269651,1.3810691 0.270287,2.1985988 0.0012,1.591815 -0.329034,2.965191 -1.080302,4.492238 -0.543343,1.104414 -1.226475,2.029721 -2.108161,2.85552 -1.196104,1.120286 -2.161998,1.735645 -3.544062,2.257878 -1.174566,0.443827 -1.825863,0.574415 -3.095116,0.620585 -1.182936,0.04303 -9.6441921,0.04459 -9.8616778,0.0018 l 0,2e-6 z m 5.9185607,-1.928105 c 1.5517077,-0.215823 2.9460411,-1.318157 3.5375651,-2.796734 0.279774,-0.699323 0.290914,-0.790752 0.309842,-2.542916 l 0.01737,-1.607678 1.586729,-0.01811 c 1.555705,-0.01776 1.595057,-0.02034 2.01264,-0.131984 1.58816,-0.424609 2.830702,-1.671727 3.25597,-3.2679599 0.09542,-0.3581561 0.109531,-0.4979464 0.11041,-1.0937019 8.97e-4,-0.6074038 -0.01163,-0.7303448 -0.113117,-1.1099724 -0.21627,-0.8090128 -0.6252,-1.5229616 -1.199242,-2.0937547 -0.760684,-0.7563768 -1.65772,-1.1801049 -2.767327,-1.3071874 -0.771305,-0.088337 -1.586206,0.05997 -2.359462,0.429408 -1.404091,0.6708314 -2.346101,1.9810361 -2.535494,3.5265203 -0.025897,0.2113216 -0.04714,0.9749613 -0.047206,1.696977 l -1.204e-4,1.3127558 -1.2060277,1.281e-4 c -1.8180673,2.135e-4 -2.3509262,0.073379 -3.1437471,0.4316231 -0.9761889,0.4411 -1.9289954,1.447081 -2.3125093,2.441566 -0.2479645,0.642993 -0.2728418,0.794923 -0.2739864,1.673283 -9.375e-4,0.719491 0.00999,0.849719 0.09672,1.152663 0.2183238,0.76259 0.7462696,1.629662 1.3018819,2.138146 0.6610125,0.604943 1.6166902,1.067613 2.4425528,1.182507 0.2677556,0.03725 0.9676218,0.02877 1.2865604,-0.01559 l 0,1.7e-5 z"
     id="path3368"
     inkscape:connector-curvature="0" />
  <path
     style="opacity:1;fill:#000000;fill-opacity:0.30952382;stroke:none;stroke-width:1;stroke-miterlimit:4;stroke-dasharray:none;stroke-opacity:0"
     d="m 12.421946,9.9300489 c -0.384851,-0.04094 -0.382189,-0.030602 -0.380708,-1.4787163 9.72e-4,-0.9499422 0.0156,-1.2590301 0.07124,-1.5055036 0.191254,-0.8472203 0.897182,-1.5626522 1.803337,-1.8276178 1.002527,-0.2931451 2.259028,0.2714358 2.762461,1.2412503 0.285864,0.5506878 0.358026,1.2634791 0.184967,1.8270397 -0.230478,0.7505419 -0.882343,1.4266655 -1.599574,1.6591002 -0.253842,0.082263 -0.39039,0.091913 -1.433236,0.1012939 -0.633965,0.0057 -1.267783,-0.00188 -1.408484,-0.016846 z"
     id="path3370"
     inkscape:connector-curvature="0" />
  <path
     style="opacity:1;fill:#000000;fill-opacity:0.30952382;stroke:none;stroke-width:1;stroke-miterlimit:4;stroke-dasharray:none;stroke-opacity:0"
     d="M 6.7223371,16.825569 C 5.9091612,16.537872 5.3211232,15.902297 5.1169064,15.090355 c -0.097529,-0.387764 -0.064487,-1.07918 0.068371,-1.43069 0.2321965,-0.614337 0.6879681,-1.103898 1.3171181,-1.414767 L 6.8180814,12.088914 7.805472,12.05039 c 0.9446006,-0.03685 1.8849817,-0.01586 1.9771483,0.04414 0.138837,0.09038 0.1527262,0.235473 0.1478581,1.544603 -0.00566,1.521355 -0.02842,1.648208 -0.3937601,2.194438 -0.3520522,0.526362 -0.832937,0.882552 -1.3859984,1.026607 -0.395523,0.10302 -1.0867096,0.08627 -1.4283828,-0.03461 z"
     id="path3372"
     inkscape:connector-curvature="0" />
  <path
     style="opacity:1;fill:#000000;fill-opacity:0.30952382;stroke:none;stroke-width:1;stroke-miterlimit:4;stroke-dasharray:none;stroke-opacity:0"
     d="M 2.3464843,20.896948 C 2.0251862,20.859453 1.7716907,20.730729 1.5169306,20.475703 1.2519067,20.210402 1.1295548,19.943263 1.0779248,19.517192 1.017936,19.022139 1.0614662,10.129943 1.1266622,9.561305 1.3199657,7.8753162 2.1507966,5.9410954 3.2996822,4.5023923 3.9457302,3.6933725 4.9865686,2.7460353 5.8258209,2.2031832 6.2901386,1.9028493 7.1051175,1.4777862 7.5975077,1.2791362 8.100443,1.0762319 9.0052852,0.81213091 9.5726545,0.70263993 10.147096,0.59178421 11.408821,0.51709427 12.101434,0.55294454 c 4.821881,0.24958474 8.822533,3.81912956 9.713555,8.66683046 0.09455,0.5144372 0.13109,1.881391 0.0657,2.45811 -0.118708,1.046937 -0.395181,2.066133 -0.820643,3.025238 -0.692382,1.560814 -1.571551,2.715096 -2.939145,3.858875 -1.008615,0.843549 -1.890529,1.342475 -3.189209,1.804234 -1.174319,0.417542 -1.585016,0.482228 -3.363897,0.529829 -1.6730243,0.04477 -8.8393821,0.04546 -9.2213097,8.88e-4 l 0,-1e-6 z m 5.9178184,-1.942193 c 1.6687799,-0.292256 3.0225523,-1.47665 3.5561223,-3.111195 0.163405,-0.500577 0.195627,-0.89989 0.195627,-2.424306 l 0,-1.395313 1.590249,-0.01814 c 1.559488,-0.01779 1.598487,-0.02034 2.016159,-0.132012 1.590055,-0.425116 2.850607,-1.692288 3.250885,-3.2679599 C 19.264753,7.0650676 18.811255,5.4367487 17.676481,4.3083981 16.930884,3.5670224 16.066033,3.1498924 14.972903,3.0044239 13.995309,2.8743305 12.818396,3.1739098 11.925435,3.7801464 11.301371,4.2038276 10.645245,4.9996894 10.352111,5.6885442 10.030175,6.4450831 9.9668718,6.9322077 9.9668718,8.6529962 l 0,1.3138756 -1.2273733,0.0011 c -1.7731165,0.00159 -2.244006,0.060694 -2.9978843,0.3762737 -0.5273274,0.220743 -1.0377122,0.58096 -1.4827745,1.046503 -0.5672874,0.593393 -0.9741842,1.30588 -1.1492056,2.012288 -0.098145,0.396127 -0.1248609,1.502389 -0.047035,1.947673 0.2093029,1.197537 1.0479331,2.381038 2.1494519,3.033374 0.9352523,0.553871 2.0055487,0.75398 3.0522519,0.57067 z"
     id="path3374"
     inkscape:connector-curvature="0" />
  <path
     style="opacity:1;fill:#000000;fill-opacity:0.30952382;stroke:none;stroke-width:1;stroke-miterlimit:4;stroke-dasharray:none;stroke-opacity:0"
     d="M 2.6453231,20.898928 C 2.0534004,20.870686 1.8531037,20.796869 1.538357,20.490971 1.2701279,20.230282 1.1335497,19.936457 1.085213,19.516109 1.0343591,19.073871 1.03533,12.602106 1.0865143,10.842042 1.1286361,9.3936082 1.1726156,9.0366932 1.4116991,8.2030087 1.9194403,6.4325143 2.7996545,4.9300847 4.0782612,3.6514782 5.6616022,2.0681372 7.5788887,1.0596661 9.73207,0.67763889 c 0.569221,-0.10099374 1.892517,-0.15481233 2.589469,-0.10531396 2.433983,0.17286455 4.760749,1.23521577 6.503843,2.96951427 0.852331,0.8480307 1.529388,1.7926405 2.050154,2.8603136 0.690996,1.4166799 0.984558,2.5526748 1.031511,3.9916312 0.05343,1.637455 -0.285559,3.160413 -1.050023,4.717383 -0.542473,1.104844 -1.07935,1.859057 -1.915188,2.690481 -0.930934,0.926019 -1.717428,1.505062 -2.720697,2.003069 -1.084511,0.538335 -2.139708,0.890472 -3.015974,1.006483 -0.196149,0.02597 -1.077049,0.06432 -1.957556,0.08522 -1.7230975,0.04091 -7.7605481,0.04267 -8.6022859,0.0025 l 0,-10e-7 z m 5.6189796,-1.944173 c 1.6627647,-0.291202 3.0051123,-1.460976 3.5539413,-3.097042 0.162921,-0.485672 0.197808,-0.916425 0.197808,-2.442403 l 0,-1.399258 1.355447,-1.28e-4 c 0.745496,-8.6e-5 1.528346,-0.0208 1.739668,-0.04608 1.758123,-0.210286 3.31456,-1.602007 3.762178,-3.3640276 C 19.265163,7.0634483 18.814611,5.4475487 17.674989,4.3079267 16.321642,2.9545798 14.305796,2.5966831 12.596654,3.406311 12.029081,3.6751731 11.70814,3.9038348 11.268955,4.3522611 10.82213,4.8084877 10.48349,5.3270015 10.283415,5.8612824 10.018757,6.5680266 10.000531,6.7207601 9.9787485,8.4143099 L 9.9589082,9.956871 8.436678,9.9797356 c -1.5965139,0.02398 -1.81887,0.046733 -2.3974008,0.2453214 -1.1034736,0.378781 -2.0957978,1.271631 -2.6270019,2.363663 -0.2727001,0.560608 -0.3630912,0.951265 -0.3918521,1.693531 -0.038424,0.99165 0.071869,1.511413 0.490716,2.312529 0.6143879,1.175121 1.7881663,2.066855 3.0790689,2.339207 0.4560796,0.09622 1.1911562,0.105338 1.6740946,0.02076 l 0,8e-6 z"
     id="path3376"
     inkscape:connector-curvature="0" />
  <path
     style="opacity:1;fill:#000000;fill-opacity:0.30952382;stroke:none;stroke-width:1;stroke-miterlimit:4;stroke-dasharray:none;stroke-opacity:0"
     d="M 21.813647,9.1254773 C 21.317868,6.3548765 19.645771,3.8250606 17.253781,2.2265787 16.297055,1.5872329 14.810964,0.96724842 13.702356,0.74495373 13.444074,0.69316383 13.203936,0.63962081 13.168715,0.62596922 12.976747,0.55156136 11.03579,0.51256598 10.403122,0.57040626 9.0041983,0.69829993 7.3956886,1.2325208 6.1291738,1.9898769 4.9280954,2.7081032 3.5529197,4.0166299 2.7608496,5.1949523 2.1634364,6.0836936 1.6171426,7.3025321 1.3483146,8.346465 1.2817743,8.6048593 1.2125278,8.8302165 1.1944335,8.8472589 1.1400218,8.8985076 1.2139208,8.485317 1.3645039,7.8963464 2.0984006,5.0258817 4.0948698,2.5277917 6.7168884,1.1991546 7.6911501,0.70547385 8.4527154,0.44226975 9.5932863,0.20504464 10.049835,0.110088 10.256058,0.09352837 11.216242,0.07472179 c 1.425592,-0.02792223 2.059986,0.04562179 3.19106,0.36993325 1.260665,0.36146863 2.645433,1.08216076 3.67103,1.91055946 0.420577,0.3397095 1.450784,1.400493 1.75901,1.8112167 0.827402,1.1025465 1.513469,2.5501276 1.828456,3.8579889 0.12615,0.5237862 0.278141,1.463561 0.242472,1.4992291 -0.0109,0.010904 -0.05348,-0.1682735 -0.09462,-0.3981719 z"
     id="path3378"
     inkscape:connector-curvature="0" />
  <path
     style="opacity:1;fill:#000000;fill-opacity:0.30952382;stroke:none;stroke-width:1;stroke-miterlimit:4;stroke-dasharray:none;stroke-opacity:0"
     d="m 5.0787241,18.275985 c -0.04696,-0.0266 -0.1007454,-0.07237 -0.1195222,-0.101721 -0.018777,-0.02935 -0.059946,-0.05336 -0.091488,-0.05336 -0.031541,0 -0.068406,-0.02882 -0.081921,-0.06404 -0.013515,-0.03522 -0.043318,-0.06404 -0.066229,-0.06404 -0.022911,0 -0.1916103,-0.156211 -0.3748883,-0.347136 -0.4830903,-0.503245 -0.4826521,-0.502747 -0.4826521,-0.54938 0,-0.02348 -0.019211,-0.04269 -0.042691,-0.04269 -0.02348,0 -0.042691,-0.02882 -0.042691,-0.06404 0,-0.03522 -0.019211,-0.06404 -0.042691,-0.06404 -0.02348,0 -0.042691,-0.02744 -0.042691,-0.06099 0,-0.03354 -0.024014,-0.08637 -0.053364,-0.117401 -0.066493,-0.07029 -0.2638847,-0.471912 -0.253287,-0.515345 0.0043,-0.01761 -0.0146,-0.03202 -0.041994,-0.03202 -0.027393,0 -0.038464,-0.01134 -0.024601,-0.02521 0.021915,-0.02191 -0.041223,-0.246627 -0.1248629,-0.444398 -0.1144273,-0.270569 -0.165789,-1.06371 -0.1147297,-1.771687 0.022335,-0.309685 0.043686,-0.496815 0.060887,-0.53364 0.00548,-0.01174 0.014434,-0.04056 0.01989,-0.06404 0.00546,-0.02348 0.014536,-0.0571 0.02018,-0.07471 0.00564,-0.01761 0.015064,-0.05123 0.020934,-0.07471 0.00587,-0.02348 0.015476,-0.0523 0.021346,-0.06404 0.00587,-0.01174 0.015476,-0.04056 0.021346,-0.06404 0.00587,-0.02348 0.015476,-0.0523 0.021346,-0.06404 0.00587,-0.01174 0.013755,-0.03575 0.017522,-0.05336 0.00377,-0.01761 0.029506,-0.07272 0.057199,-0.122461 0.027692,-0.04974 0.038218,-0.102573 0.02339,-0.117401 -0.014827,-0.01483 -0.00341,-0.02696 0.025367,-0.02696 0.028779,0 0.040453,-0.01921 0.025941,-0.04269 -0.014512,-0.02348 -0.00491,-0.04269 0.021346,-0.04269 0.026252,0 0.035857,-0.01921 0.021346,-0.04269 -0.014511,-0.02348 -0.00491,-0.04269 0.021346,-0.04269 0.026252,0 0.035857,-0.01921 0.021346,-0.04269 -0.014512,-0.02348 -0.00284,-0.04269 0.025941,-0.04269 0.028779,0 0.040675,-0.01165 0.026436,-0.02589 -0.014239,-0.01424 0.00657,-0.06097 0.046249,-0.103849 0.039677,-0.04288 0.1103707,-0.151295 0.1570985,-0.24093 0.046728,-0.08963 0.1091636,-0.178334 0.1387465,-0.197111 0.029583,-0.01878 0.053787,-0.05119 0.053787,-0.07203 0,-0.09288 0.7604598,-0.854386 0.8532096,-0.854386 0.021485,0 0.054427,-0.02405 0.073204,-0.05343 0.018777,-0.02939 0.086646,-0.08049 0.1508201,-0.113557 0.064174,-0.03307 0.1554267,-0.09622 0.2027834,-0.14034 0.047357,-0.04412 0.086103,-0.06947 0.086103,-0.05634 0,0.02599 0.3493985,-0.143499 0.3842212,-0.186378 0.01174,-0.01446 0.059768,-0.03301 0.1067281,-0.04122 0.04696,-0.0082 0.099497,-0.03703 0.1167472,-0.06404 0.017251,-0.027 0.031659,-0.03234 0.032018,-0.01185 3.596e-4,0.02049 0.02947,0.01333 0.064691,-0.0159 0.03522,-0.02923 0.064037,-0.03884 0.064037,-0.02135 0,0.01749 0.028817,0.0079 0.064037,-0.02135 0.03522,-0.02923 0.064037,-0.03884 0.064037,-0.02135 0,0.01749 0.025781,0.0104 0.057292,-0.01575 0.031511,-0.02615 0.068655,-0.03619 0.082542,-0.0223 0.013888,0.01389 0.050204,0.0098 0.080704,-0.009 0.0305,-0.01885 0.084608,-0.03841 0.1202413,-0.04347 0.035633,-0.0051 0.1572839,-0.02253 0.2703353,-0.03884 l 0.205548,-0.02964 -0.2137062,0.213707 c -0.4530694,0.453069 -0.4444494,1.093473 0.02021,1.501449 0.087226,0.07659 0.2150812,0.158939 0.2841225,0.183007 0.151921,0.05296 0.084009,0.116261 -0.1258086,0.117267 -0.1788909,8.58e-4 -0.7031531,0.243723 -0.9786879,0.453379 -0.8041877,0.611911 -1.1621677,1.624543 -0.915395,2.589415 0.1393131,0.544709 0.4211032,0.997964 0.8130534,1.307782 0.115282,0.09113 0.1978229,0.177463 0.1834243,0.191862 -0.014399,0.0144 -0.085413,0.0266 -0.1578107,0.02712 -0.169984,0.0012 -0.4826012,0.143371 -0.6371632,0.289745 -0.313383,0.296781 -0.40298,0.819957 -0.2049892,1.196975 0.1093842,0.208292 0.1072457,0.230986 -0.01523,0.161621 z"
     id="path3382"
     inkscape:connector-curvature="0" />
  <path
     style="opacity:1;fill:#000000;fill-opacity:0.30952382;stroke:none;stroke-width:1;stroke-miterlimit:4;stroke-dasharray:none;stroke-opacity:0"
     d="m 14.470798,11.919229 c 0.18695,-0.115163 0.431841,-0.405784 0.481445,-0.571347 0.145525,-0.485721 -0.01935,-0.96514 -0.416,-1.20965 -0.205245,-0.12652 -0.220507,-0.1788922 -0.04171,-0.1431331 0.18618,0.037236 0.733576,-0.098278 1.104987,-0.2735519 0.238304,-0.112459 0.39889,-0.2311769 0.643263,-0.4755497 0.5043,-0.5043002 0.725453,-1.0393748 0.725453,-1.7552178 0,-0.8504522 -0.401991,-1.5998602 -1.11103,-2.0712287 -0.163779,-0.1088804 -0.297781,-0.205354 -0.297781,-0.2143859 0,-0.00903 0.08082,-0.038183 0.179592,-0.064781 0.469062,-0.1263051 0.759616,-0.5129947 0.759616,-1.0109502 0,-0.2764122 -0.09129,-0.5325296 -0.231212,-0.6486518 -0.153034,-0.1270067 -0.0047,-0.114973 0.232017,0.018821 0.140438,0.07938 0.255342,0.1350171 0.255342,0.1236373 0,-0.01138 0.03875,0.015407 0.0861,0.059527 0.04736,0.044119 0.138609,0.1073038 0.202784,0.1404096 0.162698,0.083932 0.185646,0.1031639 0.581226,0.4871048 0.193536,0.1878415 0.364497,0.3751493 0.379914,0.4162396 0.01542,0.04109 0.04784,0.07471 0.07206,0.07471 0.02422,0 0.04403,0.02942 0.04403,0.065377 0,0.035957 0.02871,0.076392 0.06379,0.089856 0.03509,0.013464 0.05496,0.038768 0.04417,0.056232 -0.01079,0.017464 0.01333,0.068483 0.05361,0.1133749 0.06656,0.074183 0.376841,0.6784051 0.348377,0.6784051 -0.0066,0 0.0145,0.048028 0.04699,0.1067281 0.03249,0.058701 0.06215,0.1211364 0.06591,0.1387466 0.0038,0.01761 0.01068,0.036821 0.01536,0.042691 0.0047,0.00587 0.01727,0.0587 0.02798,0.1174009 0.01071,0.058701 0.04091,0.1835724 0.06712,0.2774931 0.07161,0.256622 0.0773,0.3303391 0.07916,1.02459 0.0018,0.6783075 -0.0082,0.8252785 -0.06186,0.9121851 -0.01837,0.029727 -0.02204,0.065411 -0.0082,0.079299 0.01389,0.013887 0.0055,0.04901 -0.01857,0.078048 -0.0241,0.029039 -0.04004,0.069229 -0.03543,0.089311 0.0046,0.020082 -0.01444,0.091962 -0.04235,0.1597328 -0.02791,0.067772 -0.05596,0.1542212 -0.06234,0.1921106 -0.0064,0.03789 -0.034,0.1095888 -0.06138,0.1593322 -0.02738,0.049743 -0.03764,0.1025734 -0.02282,0.117401 0.01483,0.014827 0.0076,0.026959 -0.01609,0.026959 -0.02368,0 -0.06607,0.076844 -0.09421,0.170765 -0.02814,0.093921 -0.07074,0.170765 -0.09466,0.170765 -0.02392,0 -0.03162,0.019211 -0.01711,0.042691 0.01451,0.02348 0.006,0.042691 -0.01883,0.042691 -0.02487,0 -0.04521,0.020015 -0.04521,0.044476 0,0.024462 -0.03842,0.085718 -0.08538,0.1361236 -0.04696,0.050406 -0.08538,0.1168416 -0.08538,0.1476346 0,0.03079 -0.01981,0.05599 -0.04403,0.05599 -0.02422,0 -0.05682,0.03362 -0.07244,0.07471 -0.01563,0.04109 -0.07409,0.110852 -0.129922,0.155025 -0.05583,0.04417 -0.118543,0.125109 -0.139358,0.179856 -0.02082,0.05475 -0.115415,0.148507 -0.210223,0.208357 -0.09481,0.05985 -0.196231,0.147011 -0.225384,0.193693 -0.02915,0.04668 -0.07625,0.08488 -0.104652,0.08488 -0.0284,0 -0.06701,0.02405 -0.08579,0.05343 -0.01878,0.02939 -0.08665,0.08049 -0.15082,0.113556 -0.06417,0.03307 -0.15206,0.09308 -0.195301,0.13337 -0.08434,0.07857 -0.478155,0.272287 -0.53117,0.261276 -0.01761,-0.0037 -0.03202,0.01576 -0.03202,0.04316 0,0.02739 -0.01122,0.03859 -0.02493,0.02488 -0.02141,-0.02141 -0.374754,0.08183 -0.572748,0.167358 -0.03522,0.01521 -0.08131,0.02366 -0.102425,0.01876 -0.02111,-0.0049 -0.06914,0.0041 -0.106728,0.02006 -0.09735,0.04125 -0.187528,0.05223 -0.644672,0.07851 -0.332191,0.0191 -0.39012,0.0138 -0.320185,-0.02928 z"
     id="path3384"
     inkscape:connector-curvature="0" />
  <path
     style="opacity:1;fill:#000000;fill-opacity:0.30952382;stroke:none;stroke-width:1;stroke-miterlimit:4;stroke-dasharray:none;stroke-opacity:0"
     d="M 6.8065124,16.84821 C 5.7400367,16.49424 5.058356,15.583628 5.0587508,14.51349 c 1.489e-4,-0.403499 0.091764,-0.808316 0.25721,-1.136527 0.1991335,-0.39504 0.6872285,-0.864751 1.1502288,-1.106907 l 0.3628756,-0.189789 1.4314364,-0.01454 c 1.3795154,-0.01401 1.4352612,-0.01144 1.5368847,0.07088 l 0.1054487,0.08542 0,1.44457 c 0,1.410523 -0.00231,1.449999 -0.097858,1.674854 C 9.5166453,16.019963 8.949581,16.578741 8.3215882,16.803165 7.9558084,16.933882 7.1378994,16.9582 6.8065124,16.84821 Z"
     id="path3386"
     inkscape:connector-curvature="0" />
  <path
     style="opacity:1;fill:#000000;fill-opacity:0.30952382;stroke:none;stroke-width:1;stroke-miterlimit:4;stroke-dasharray:none;stroke-opacity:0"
     d="m 12.793496,9.9264855 c -0.477094,-0.018497 -0.618824,-0.037605 -0.650414,-0.087687 -0.16491,-0.261448 -0.135508,-2.5599682 0.03991,-3.1195423 0.18087,-0.576982 0.686419,-1.1283945 1.305913,-1.4243844 0.417609,-0.1995309 0.685881,-0.2525754 1.147326,-0.2268565 1.482359,0.08262 2.570963,1.4680288 2.272719,2.8923684 -0.129787,0.6198281 -0.499404,1.1816694 -1.023343,1.5555443 -0.449743,0.3209302 -0.630011,0.3717917 -1.457495,0.4112239 -0.399163,0.019021 -0.79299,0.031974 -0.87517,0.028784 -0.08218,-0.00319 -0.42393,-0.016443 -0.759441,-0.02945 z"
     id="path3388"
     inkscape:connector-curvature="0" />
  <path
     style="opacity:1;fill:#000000;fill-opacity:0.30952382;stroke:none;stroke-width:1;stroke-miterlimit:4;stroke-dasharray:none;stroke-opacity:0"
     d="M 6.9357933,16.878949 C 6.4343486,16.781742 5.746836,16.291242 5.4384721,15.810699 5.006788,15.137977 4.9446646,14.189283 5.2841182,13.453541 5.5014515,12.982485 5.9593098,12.536394 6.5302265,12.239458 l 0.2988387,-0.155427 1.4305649,-0.01713 c 1.3839422,-0.01657 1.4340297,-0.01432 1.5368849,0.06891 l 0.10632,0.08603 0.013244,1.133286 c 0.017029,1.457195 -0.019896,1.804955 -0.23523,2.215382 -0.3413093,0.650535 -0.9751004,1.154891 -1.6240997,1.29242 -0.3162512,0.06702 -0.8206913,0.07423 -1.1209556,0.01602 z"
     id="path3390"
     inkscape:connector-curvature="0" />
  <path
     style="opacity:1;fill:#000000;fill-opacity:0.30952382;stroke:none;stroke-width:1;stroke-miterlimit:4;stroke-dasharray:none;stroke-opacity:0"
     d="M 2.9228162,20.897229 C 2.0032765,20.867943 1.9348259,20.847463 1.5592952,20.489268 1.2276004,20.172884 1.1324486,19.945658 1.0781375,19.340244 1.0250297,18.748245 1.0672299,10.452459 1.1269251,9.7494769 1.2726049,8.0339249 2.0972772,6.0257231 3.2553547,4.5664292 3.8098565,3.8677013 4.8545573,2.8892838 5.6123647,2.3589648 6.8959099,1.4607308 8.682381,0.78511073 10.223019,0.61527538 c 0.703484,-0.0775499 2.196137,-0.0672367 2.753586,0.0190254 4.138649,0.64043331 7.381727,3.47536271 8.576177,7.49684741 0.746199,2.5123088 0.343749,5.2977688 -1.124616,7.7837648 -0.693273,1.173735 -1.95793,2.478504 -3.222345,3.324548 -1.135937,0.760076 -2.826148,1.418331 -4.037106,1.572256 -0.788343,0.100206 -7.916544,0.159698 -10.2458988,0.08551 z m 5.3414865,-1.942474 c 1.6627647,-0.291202 3.0051123,-1.460976 3.5539413,-3.097042 0.162921,-0.485672 0.197808,-0.916425 0.197808,-2.442403 l 0,-1.399258 1.355447,-3.42e-4 c 0.745496,-2.13e-4 1.527457,-0.02006 1.737691,-0.04414 1.144619,-0.131123 2.277303,-0.809286 3.021309,-1.808924 C 19.594693,8.1953721 19.184414,5.3868132 17.216182,3.9037062 15.645889,2.7204549 13.561709,2.6716017 11.925435,3.7796912 11.28494,4.2134366 10.576414,5.0948302 10.307332,5.7925819 10.016719,6.5461657 9.9676877,6.9610862 9.9672219,8.6706892 L 9.9668804,9.957318 8.4620139,9.9785018 c -1.5804222,0.022247 -1.8449974,0.04796 -2.380037,0.2313062 -1.1459564,0.392694 -2.1301007,1.269652 -2.6696931,2.378928 -0.2727001,0.560608 -0.3630911,0.951266 -0.3918521,1.693531 -0.038424,0.99165 0.071869,1.511413 0.490716,2.312529 0.6143879,1.175121 1.7881664,2.066856 3.079069,2.339207 0.4560795,0.09622 1.1911562,0.105338 1.6740945,0.02076 l -8.5e-6,-9e-6 z"
     id="path3392"
     inkscape:connector-curvature="0" />
</svg>
