<?xml version="1.0" encoding="UTF-8" standalone="no"?>
<svg
   xmlns:dc="http://purl.org/dc/elements/1.1/"
   xmlns:cc="http://creativecommons.org/ns#"
   xmlns:rdf="http://www.w3.org/1999/02/22-rdf-syntax-ns#"
   xmlns:svg="http://www.w3.org/2000/svg"
   xmlns="http://www.w3.org/2000/svg"
   xmlns:sodipodi="http://sodipodi.sourceforge.net/DTD/sodipodi-0.dtd"
   xmlns:inkscape="http://www.inkscape.org/namespaces/inkscape"
   width="22"
   height="22"
   version="1"
   id="svg2"
   inkscape:version="0.91 r13725"
   sodipodi:docname="network-workgroup.svg">
  <metadata
     id="metadata18">
    <rdf:RDF>
      <cc:Work
         rdf:about="">
        <dc:format>image/svg+xml</dc:format>
        <dc:type
           rdf:resource="http://purl.org/dc/dcmitype/StillImage" />
      </cc:Work>
    </rdf:RDF>
  </metadata>
  <defs
     id="defs16" />
  <sodipodi:namedview
     pagecolor="#ffffff"
     bordercolor="#666666"
     borderopacity="1"
     objecttolerance="10"
     gridtolerance="10"
     guidetolerance="10"
     inkscape:pageopacity="0"
     inkscape:pageshadow="2"
     inkscape:window-width="1366"
     inkscape:window-height="723"
     id="namedview14"
     showgrid="false"
     inkscape:zoom="18.97641"
     inkscape:cx="23.211864"
     inkscape:cy="11"
     inkscape:window-x="0"
     inkscape:window-y="0"
     inkscape:window-maximized="1"
     inkscape:current-layer="svg2" />
  <rect
     style="fill:#a041cf"
     width="20"
     height="20"
     x="-21"
     y="-21"
     rx="10"
     ry="10"
     transform="matrix(0,-1,-1,0,0,0)"
     id="rect4" />
  <path
     style="opacity:0.2;fill:#ffffff"
     d="M 11,1 C 5.46,1 1,5.46 1,11 1,11.084 1.0038,11.166 1.0058,11.25 1.1382,5.827 5.544,1.5 11,1.5 c 5.4558,0 9.862,4.327 9.994,9.75 C 20.996,11.1665 21,11.084 21,11 21,5.46 16.54,1 11,1 Z"
     id="path6" />
  <path
     style="opacity:0.2"
     d="M 1.0058,11.25 C 1.0038,11.334 1,11.416 1,11.5 c 0,5.54 4.46,10 10,10 5.54,0 10,-4.46 10,-10 0,-0.08394 -0.0038,-0.16657 -0.0059,-0.25 -0.132,5.423 -4.538,9.75 -9.994,9.75 -5.456,0 -9.862,-4.327 -9.994,-9.75 z"
     id="path8" />
  <path
     style="opacity:0.2"
     d="m 11,4.5000001 c -3.866,0 -7,3.134 -7,6.9999999 0,3.866 3.134,7 7,7 3.866,0 7,-3.134 7,-7 0,-3.8659998 -3.134,-6.9999999 -7,-6.9999999 z m -0.701172,1.3378911 c 0.08161,-0.0085 0.185238,0.0049 0.267578,0 0.0098,0.03904 -0.05926,0.177589 -0.152344,0.380859 -0.592693,1.294794 -0.626245,2.8125508 -0.07617,3.6230468 0.09954,0.146948 0.189453,0.286507 0.189453,0.304687 0,0.01817 -0.107136,0.03711 -0.228516,0.03711 -0.284942,0 -0.554529,-0.173105 -1.105469,-0.609375 C 8.948613,9.380414 8.631083,9.217999 8.507813,9.193359 8.31424,9.154689 8.262139,9.171429 8.01172,9.421875 7.778727,9.654826 7.707032,9.78088 7.707032,9.994141 c 0,0.808716 0.959536,1.449836 2.744141,1.828125 2.42356,0.51366 3.021041,0.975603 3.08789,2.25 0.08393,1.598058 -0.767351,2.803477 -2.630859,3.736328 -0.222422,0.111379 -0.363711,0.153463 -0.457031,0.189453 -0.04135,-0.0037 -0.07205,0.0037 -0.113281,0 -0.01586,-0.04941 -0.03906,-0.16367 -0.03906,-0.380859 0,-0.848777 -0.33377,-1.722371 -0.83789,-2.210938 C 9.325619,15.275087 8.945565,14.99773 8.621098,14.796875 8.296643,14.596032 7.969438,14.363212 7.896488,14.263672 7.775598,14.098486 7.766499,13.996563 7.859378,13.691406 8.02865,13.134074 8.229414,12.82285 8.621097,12.470703 8.826441,12.286085 9.032638,12.132606 9.078128,12.128906 9.123628,12.125206 8.817324,12.031976 8.355472,11.9375 7.893646,11.84284 7.216483,11.643995 6.867191,11.517578 6.22848,11.286469 5.367827,10.802306 5.039065,10.451172 c -0.01391,-0.01488 -0.02698,-0.02588 -0.03906,-0.03906 0.471037,-1.8763158 1.792547,-3.4132119 3.544922,-4.1542968 0.366663,-0.155085 0.745529,-0.26214 1.144531,-0.34375 0.198745,-0.04062 0.404165,-0.05531 0.609375,-0.07617 z m 5.71875,2.8593749 c 0.143276,0.08856 0.683464,1.2591689 0.837891,1.8300779 0.199379,0.737047 0.184947,2.01196 0,2.74414 -0.07039,0.278672 -0.159443,0.539816 -0.189453,0.572266 -0.03001,0.03245 -0.139563,-0.153996 -0.267578,-0.380859 -0.128029,-0.226827 -0.537105,-0.709773 -0.876954,-1.06836 -0.980964,-1.035115 -1.135518,-1.574279 -0.724609,-2.40039 0.207223,-0.41658 1.109815,-1.3653149 1.220703,-1.2968749 z"
     id="path10" />
  <path
     style="fill:#ffffff"
     d="m 11,4.0000001 c -3.866,0 -7,3.134 -7,6.9999999 0,3.866 3.134,7 7,7 3.866,0 7,-3.134 7,-7 0,-3.8659998 -3.134,-6.9999999 -7,-6.9999999 z m -0.701172,1.3378911 c 0.08161,-0.0085 0.185238,0.0049 0.267578,0 0.0098,0.03904 -0.05926,0.177589 -0.152344,0.380859 -0.592693,1.294794 -0.626245,2.8125509 -0.07617,3.6230468 0.09954,0.146948 0.189453,0.286507 0.189453,0.304687 0,0.01817 -0.107136,0.03711 -0.228516,0.03711 C 10.013887,9.683594 9.7443,9.510489 9.19336,9.074219 8.948613,8.8804142 8.631083,8.7179991 8.507813,8.6933591 8.31424,8.6546891 8.262139,8.6714292 8.01172,8.9218751 7.778727,9.154826 7.707032,9.28088 7.707032,9.494141 c 0,0.808716 0.959536,1.449836 2.744141,1.828125 2.42356,0.51366 3.021041,0.975603 3.08789,2.25 0.08393,1.598058 -0.767351,2.803477 -2.630859,3.736328 -0.222422,0.111379 -0.363711,0.153463 -0.457031,0.189453 -0.04135,-0.0037 -0.07205,0.0037 -0.113281,0 -0.01586,-0.04941 -0.03906,-0.16367 -0.03906,-0.380859 0,-0.848777 -0.33377,-1.722371 -0.83789,-2.210938 C 9.325619,14.775087 8.945565,14.49773 8.621098,14.296875 8.296643,14.096032 7.969438,13.863212 7.896488,13.763672 7.775598,13.598486 7.766499,13.496563 7.859378,13.191406 8.02865,12.634074 8.229414,12.32285 8.621097,11.970703 8.826441,11.786085 9.032638,11.632606 9.078128,11.628906 9.123628,11.625206 8.817324,11.531976 8.355472,11.4375 7.893646,11.34284 7.216483,11.143995 6.867191,11.017578 6.22848,10.786469 5.367827,10.302306 5.039065,9.951172 5.025155,9.936292 5.012085,9.925292 5.000005,9.912112 5.471042,8.0357962 6.792552,6.4989001 8.544927,5.7578152 c 0.366663,-0.155085 0.745529,-0.26214 1.144531,-0.34375 0.198745,-0.04062 0.404165,-0.05531 0.609375,-0.07617 z m 5.71875,2.8593749 c 0.143276,0.08856 0.683464,1.2591689 0.837891,1.8300779 0.199379,0.737047 0.184947,2.01196 0,2.74414 -0.07039,0.278672 -0.159443,0.539816 -0.189453,0.572266 -0.03001,0.03245 -0.139563,-0.153996 -0.267578,-0.380859 -0.128029,-0.226827 -0.537105,-0.709773 -0.876954,-1.06836 -0.980964,-1.035115 -1.135518,-1.574279 -0.724609,-2.40039 0.207223,-0.41658 1.109815,-1.3653149 1.220703,-1.2968749 z"
     id="path12" />
  <path
     style="opacity:1;fill:#000000;fill-opacity:0.30952382;stroke:none;stroke-width:1;stroke-miterlimit:4;stroke-dasharray:none;stroke-opacity:0"
     d="M 10.264557,20.944049 C 6.3188759,20.677909 2.8593141,18.021058 1.5707778,14.267459 1.1920941,13.164326 0.97144286,11.724701 1.0365077,10.781647 1.2601769,7.5397691 3.0711291,4.5990792 5.8898727,2.9005774 7.6521408,1.8386806 9.9546406,1.3349305 12.018462,1.5597402 c 3.00399,0.3272211 5.609563,1.8869832 7.257394,4.3444592 1.213805,1.8101959 1.8343,4.0084785 1.665717,5.9012776 -0.294632,3.30803 -2.076946,6.150491 -4.898231,7.811773 -1.195685,0.704066 -2.81109,1.221172 -4.078872,1.305685 -0.906101,0.0604 -1.084566,0.06262 -1.699913,0.02111 z m 2.081184,-2.575081 c 2.848971,-0.5513 5.101964,-2.86775 5.560466,-5.717078 0.108229,-0.672576 0.125454,-2.175298 0.03144,-2.7427181 C 17.704604,8.5026662 17.058883,7.2037313 16.077155,6.1666041 15.090206,5.1239603 13.804018,4.4130257 12.345741,4.1040824 11.651871,3.9570823 10.279462,3.9702621 9.5570801,4.130863 8.1078202,4.4530645 6.9180562,5.122132 5.9127794,6.180247 4.9651312,7.1777043 4.3735672,8.3378442 4.0910097,9.7529928 c -0.1246159,0.6241212 -0.1223536,2.1943932 0.00421,2.9227722 0.5059963,2.91201 2.7973419,5.220563 5.6683676,5.710937 0.2753419,0.04703 0.5954759,0.09492 0.7114099,0.106425 0.388194,0.03852 1.3651,-0.02631 1.870743,-0.124159 z"
     id="path3346"
     inkscape:connector-curvature="0" />
  <path
     style="opacity:1;fill:#000000;fill-opacity:0.30952382;stroke:none;stroke-width:1;stroke-miterlimit:4;stroke-dasharray:none;stroke-opacity:0"
     d="M 10.318814,17.036442 C 10.271769,16.458858 10.166954,16.047287 9.9531109,15.600449 9.7008351,15.073305 9.4830259,14.85164 8.6924626,14.317483 8.3076483,14.057477 7.9637089,13.809692 7.9281528,13.76685 7.8763543,13.704436 7.8846753,13.63278 7.9700193,13.406322 8.1086956,13.038347 8.4032742,12.655127 8.774639,12.359583 l 0.2979734,-0.237137 -0.2166523,-0.0732 -0.2166523,-0.0732 0.1800869,-0.149341 c 0.099048,-0.08214 0.1978721,-0.14998 0.2196096,-0.15076 0.021738,-7.79e-4 0.039523,-0.02318 0.039523,-0.04979 0,-0.0266 -0.2312081,-0.09993 -0.5137958,-0.162939 C 7.8313105,11.299672 7.0555954,11.07121 6.6104091,10.88763 6.2137805,10.724074 5.5264247,10.333887 5.2699101,10.126678 5.1251756,10.009764 5.1245087,10.006408 5.2022327,9.7861146 5.3603248,9.3380339 5.726516,8.6696609 6.0502532,8.2383058 6.6769618,7.4032647 7.607003,6.6631315 8.4931612,6.2942229 8.9207419,6.1162206 9.6996208,5.9065021 10.085003,5.8656087 L 10.327371,5.8398905 10.181757,6.293621 C 10.101669,6.5431728 10.006998,6.9475163 9.9713774,7.1921621 9.8654885,7.9194153 9.9545705,9.0307282 10.158546,9.5271186 10.23313,9.7086259 9.9904902,9.6229826 9.5715124,9.3199164 8.4707663,8.5236956 8.3345111,8.5049975 7.8533216,9.0841316 7.7190025,9.2457909 7.7084048,9.2930572 7.7084048,9.7304682 c 0,0.6943028 0.1617774,0.9879808 0.7557104,1.3718588 0.4540528,0.293468 1.016397,0.491467 2.2283948,0.784609 1.782808,0.431202 2.301171,0.694134 2.646006,1.342147 0.123993,0.233009 0.14002,0.321391 0.13856,0.764107 -0.0011,0.340854 -0.03246,0.593119 -0.09818,0.790455 -0.328184,0.985364 -1.145076,1.816517 -2.432391,2.474857 -0.585614,0.299485 -0.585197,0.299633 -0.627689,-0.22206 z"
     id="path3348"
     inkscape:connector-curvature="0" />
  <path
     style="opacity:1;fill:#000000;fill-opacity:0.30952382;stroke:none;stroke-width:1;stroke-miterlimit:4;stroke-dasharray:none;stroke-opacity:0"
     d="m 16.363981,12.896435 c -0.149014,-0.22281 -0.486079,-0.642246 -0.749032,-0.93208 -0.547548,-0.603521 -0.872432,-1.0589 -0.946285,-1.326373 -0.06548,-0.237156 0.04426,-0.531973 0.358804,-0.9639093 0.245959,-0.3377541 0.857861,-0.9505834 0.949145,-0.9505834 0.136224,0 0.693409,1.1697583 0.883569,1.8549727 0.137927,0.497001 0.122818,1.551628 -0.03136,2.189059 -0.06479,0.267841 -0.134916,0.497567 -0.155847,0.510504 -0.02093,0.01294 -0.159978,-0.158779 -0.308992,-0.38159 z"
     id="path3350"
     inkscape:connector-curvature="0" />
  <path
     style="opacity:1;fill:#000000;fill-opacity:0.30952382;stroke:none;stroke-width:1;stroke-miterlimit:4;stroke-dasharray:none;stroke-opacity:0"
     d="M 10.34372,17.943 C 8.6538443,17.771892 7.1891313,17.062471 6.0051806,15.841669 5.0374116,14.843777 4.4390165,13.708164 4.142577,12.306886 3.9974532,11.620881 4.0113449,10.29555 4.1712993,9.5666414 4.4722074,8.195411 5.0797932,7.0843951 6.0744713,6.0865495 7.065423,5.0924421 8.2239194,4.4600042 9.6054971,4.1589174 c 0.6336649,-0.1380943 2.1592769,-0.1380943 2.7929409,0 1.364801,0.2974304 2.529039,0.929419 3.506217,1.9032946 0.799874,0.7971712 1.317929,1.615612 1.678689,2.6520487 0.288774,0.8296267 0.368875,1.3308963 0.367777,2.3015483 -0.0014,1.255315 -0.226003,2.180389 -0.783985,3.229287 -0.673003,1.265115 -1.812615,2.382114 -3.073356,3.012376 -1.062921,0.531368 -2.563476,0.805677 -3.75006,0.685528 z m 0.572841,-0.62995 c 1.290514,-0.624078 2.164313,-1.496367 2.487557,-2.483258 0.108274,-0.330572 0.127249,-0.491091 0.126923,-1.073739 -3.17e-4,-0.605538 -0.01476,-0.716954 -0.124236,-0.95981 -0.159443,-0.353702 -0.552226,-0.719886 -0.980444,-0.914049 -0.382306,-0.173346 -1.103292,-0.38579 -2.131258,-0.627992 C 8.7662369,10.893982 7.9129659,10.371729 7.7623735,9.7040225 7.6996853,9.4260711 7.7765929,9.2133132 8.0348915,8.9501261 8.3756499,8.6029187 8.5308867,8.6327669 9.3156636,9.1963872 9.9363094,9.6421299 10.223022,9.7658134 10.445168,9.6836361 10.554462,9.6432059 10.553974,9.6398634 10.404386,9.4039884 9.8476288,8.5260723 9.8332657,7.1934536 10.366598,5.8979487 10.472569,5.6405364 10.564025,5.4062127 10.569833,5.3772293 10.588033,5.2863954 9.8377091,5.3488743 9.3135457,5.4818392 7.4027744,5.9665462 5.7804564,7.5038909 5.119238,9.4564588 4.9464848,9.9665969 4.9363484,9.9383229 5.4133153,10.276743 c 0.691174,0.490404 1.6570909,0.882232 2.8747566,1.166157 0.3043252,0.07096 0.5829576,0.139502 0.6191831,0.152315 0.038508,0.01362 -0.1057845,0.193615 -0.3473958,0.433355 -0.4329052,0.429551 -0.6184608,0.743147 -0.7495159,1.26671 -0.06405,0.255879 -0.061286,0.288004 0.036271,0.421576 0.058082,0.07953 0.3995024,0.344513 0.7587117,0.588863 0.8003158,0.544408 1.046884,0.785608 1.283589,1.255642 0.2250222,0.446834 0.3399912,0.875805 0.3800322,1.41797 0.0364,0.4929 0.04981,0.544559 0.141313,0.544559 0.03867,0 0.266508,-0.09488 0.506301,-0.21084 z m 5.869115,-4.228883 c 0.29705,-0.963097 0.311766,-2.327671 0.03487,-3.2333528 C 16.75947,9.6510441 16.571116,9.1971036 16.401981,8.8420575 16.167992,8.3508701 16.070523,8.1965192 15.994337,8.1965192 c -0.125783,0 -0.815357,0.6936575 -1.07802,1.0844038 -0.108654,0.1616364 -0.233496,0.4149193 -0.277427,0.5628509 -0.206865,0.6965911 -0.0341,1.0589601 1.123794,2.3571471 0.212776,0.238555 0.49256,0.597125 0.621743,0.796821 0.129184,0.199696 0.253113,0.363084 0.275399,0.363084 0.02229,0 0.07892,-0.124497 0.12585,-0.276659 z"
     id="path3352"
     inkscape:connector-curvature="0" />
  <path
     style="opacity:1;fill:#000000;fill-opacity:0.30952382;stroke:none;stroke-width:1;stroke-miterlimit:4;stroke-dasharray:none;stroke-opacity:0"
     d="M 1.1249598,9.6276161 C 1.1229353,9.5597107 1.1697816,9.2661451 1.2290626,8.9752482 1.7871078,6.2368736 3.4613409,3.8860549 5.8964024,2.4217582 7.3288172,1.5603918 8.8878092,1.107596 10.633089,1.0460286 c 1.790734,-0.0631709 3.263337,0.253012 4.848124,1.0409416 2.70147,1.343125 4.645634,3.8589468 5.273736,6.8244108 0.07024,0.3316233 0.125708,0.65622 0.123265,0.7213256 -0.0024,0.065106 -0.04813,-0.074995 -0.101532,-0.3113355 C 20.354761,7.4539899 19.304065,5.5910361 17.924475,4.2642234 14.411182,0.88533379 8.8355928,0.56785543 4.9429183,3.5250435 3.1156933,4.9131503 1.779361,6.9766857 1.2522388,9.2241109 1.1842599,9.5139444 1.1269843,9.6955219 1.1249598,9.6276161 Z"
     id="path3354"
     inkscape:connector-curvature="0" />
  <path
     style="opacity:1;fill:#000000;fill-opacity:0.30952382;stroke:none;stroke-width:1;stroke-miterlimit:4;stroke-dasharray:none;stroke-opacity:0"
     d="M 9.6845426,21.394133 C 5.5797621,20.839746 2.2768304,17.871613 1.3021887,13.861448 1.1252775,13.133546 1.1480589,12.945254 1.3308797,13.624311 c 0.9267383,3.442212 3.6816913,6.169291 7.1307372,7.05859 4.6162621,1.190253 9.3613381,-0.962611 11.4999281,-5.217573 0.309652,-0.616087 0.661068,-1.597816 0.81319,-2.271759 0.136001,-0.602522 0.133945,-0.322114 -0.0025,0.341563 -0.707195,3.439734 -3.245157,6.309026 -6.553662,7.40924 -1.475607,0.490699 -3.064162,0.648279 -4.5340258,0.449761 l -1.6e-6,0 z"
     id="path3356"
     inkscape:connector-curvature="0" />
  <path
     style="opacity:1;fill:#000000;fill-opacity:0.30952382;stroke:none;stroke-width:1;stroke-miterlimit:4;stroke-dasharray:none;stroke-opacity:0"
     d="M 10.027073,20.913666 C 6.6307974,20.570014 3.6474903,18.530105 2.1278874,15.512404 0.47854768,12.237066 0.75876637,8.7134284 2.9120334,5.6520825 3.3568695,5.0196494 4.534594,3.8441596 5.1789485,3.3894687 6.927343,2.1557083 8.8651763,1.5425111 11.028316,1.5385276 c 3.736779,-0.00688 7.175102,2.1019455 8.845083,5.4249554 0.458504,0.9123528 0.715329,1.6521966 0.94023,2.7085524 0.07494,0.3519776 0.09488,0.6793266 0.09312,1.5282136 -0.002,0.965508 -0.01719,1.150276 -0.142839,1.739001 -0.54378,2.547797 -1.84599,4.596949 -3.879428,6.104651 -1.353678,1.003691 -3.148129,1.690885 -4.832436,1.850604 -0.539281,0.05114 -1.608905,0.06126 -2.024968,0.01916 z m 1.511896,-2.465855 c 0.965841,-0.09292 1.334751,-0.174339 2.040987,-0.450463 0.942844,-0.368634 1.729575,-0.906442 2.48779,-1.70065 0.767842,-0.804291 1.30097,-1.696079 1.613658,-2.69924 0.376972,-1.209398 0.442409,-3.118053 0.146323,-4.2679531 C 17.146752,6.6848236 15.132112,4.7370691 12.424787,4.1059403 11.838066,3.9691645 10.247881,3.9668037 9.6178598,4.1017731 8.283071,4.3877249 7.1005343,5.0186973 6.1234111,5.9663249 4.8532658,7.1981291 4.1167857,8.7701472 3.9922992,10.515188 c -0.045406,0.636491 0.055194,2.000684 0.1902878,2.58043 0.4690847,2.013039 1.9481329,3.845669 3.8091902,4.719817 0.648413,0.304562 0.8866788,0.381278 1.7191139,0.553517 0.8538729,0.176676 0.8244889,0.175408 1.8280779,0.07886 z"
     id="path3358"
     inkscape:connector-curvature="0" />
  <path
     style="opacity:1;fill:#000000;fill-opacity:0.30952382;stroke:none;stroke-width:1;stroke-miterlimit:4;stroke-dasharray:none;stroke-opacity:0"
     d="m 10.376947,17.326276 c -0.01436,-0.05072 -0.04165,-0.246359 -0.06065,-0.434751 C 10.267362,16.406182 10.150782,15.978324 9.9619592,15.59106 9.6900669,15.033425 9.5513185,14.901889 8.328456,14.04247 8.0432217,13.842009 7.9206569,13.722996 7.9200541,13.645902 c -0.00192,-0.245725 0.3181685,-0.748655 0.7185201,-1.12895 0.4150957,-0.394301 0.4244974,-0.429488 0.1353269,-0.506484 -0.1143024,-0.03043 -0.1097876,-0.03999 0.09222,-0.195251 0.1820727,-0.139936 0.2648822,-0.246089 0.1919728,-0.246089 -0.1047108,0 -1.7460276,-0.451114 -2.1137955,-0.580974 C 6.4417495,10.810703 5.7648333,10.464666 5.3921832,10.19472 5.1905853,10.048683 5.1708791,10.01539 5.1999632,9.8699694 5.299071,9.3744308 5.9621702,8.3039774 6.543177,7.7015948 7.3774571,6.8366207 8.2412848,6.3265461 9.3606452,6.0379312 10.091588,5.8494656 10.319576,5.8323741 10.265856,5.9700706 c -0.01979,0.050721 -0.09541,0.3056427 -0.168039,0.5664929 -0.1933461,0.69437 -0.22038,1.5420121 -0.07582,2.3772196 0.06076,0.3510201 0.110467,0.6526249 0.110467,0.6702329 0,0.065238 -0.1970335,-0.042469 -0.6659144,-0.364016 C 8.8766997,8.815493 8.5993062,8.6707923 8.4137137,8.6707923 c -0.1781365,0 -0.4483882,0.2027493 -0.6023876,0.4519255 -0.1061431,0.1717431 -0.1148857,0.236562 -0.087961,0.6521511 0.047108,0.7271261 0.1695454,0.9423611 0.7519002,1.3217801 0.3740474,0.243701 0.8323108,0.409284 2.1051265,0.760639 1.718333,0.474338 2.099338,0.625495 2.443098,0.969256 0.328751,0.32875 0.428889,0.59664 0.428889,1.147371 0,0.554136 -0.09054,0.908579 -0.353125,1.382439 -0.364957,0.658595 -1.262807,1.442905 -2.184283,1.908064 -0.349266,0.176309 -0.500694,0.193719 -0.538024,0.06186 z"
     id="path3360"
     inkscape:connector-curvature="0" />
  <path
     style="opacity:1;fill:#000000;fill-opacity:0.30952382;stroke:none;stroke-width:1;stroke-miterlimit:4;stroke-dasharray:none;stroke-opacity:0"
     d="m 16.339503,12.843883 c -0.162219,-0.22289 -0.50072,-0.642391 -0.752224,-0.932225 -0.496865,-0.572587 -0.853672,-1.075242 -0.903127,-1.272287 -0.08592,-0.342345 0.19593,-0.8403241 0.84919,-1.500353 0.3227,-0.3260425 0.426589,-0.4028779 0.48226,-0.3566746 0.123542,0.1025303 0.368029,0.5788866 0.632432,1.2322226 l 0.255915,0.632364 4.2e-5,0.869501 c 3.1e-5,0.655019 -0.02354,0.969987 -0.09554,1.276872 -0.05257,0.224054 -0.113229,0.418276 -0.134793,0.431603 -0.02156,0.01333 -0.171933,-0.158132 -0.334152,-0.381023 z"
     id="path3362"
     inkscape:connector-curvature="0" />
  <path
     style="opacity:1;fill:#000000;fill-opacity:0.30952382;stroke:none;stroke-width:1;stroke-miterlimit:4;stroke-dasharray:none;stroke-opacity:0"
     d="M 5.0483767,9.9374147 C 5.000619,9.8601411 5.2557769,9.1471399 5.5181234,8.6247768 6.4116035,6.8457516 8.2551412,5.5539231 10.154457,5.3759426 l 0.398863,-0.037376 -0.109173,0.2626988 -0.109172,0.2626988 -0.325216,0.037068 c -0.1788692,0.020387 -0.3726437,0.03984 -0.4306104,0.043229 -0.057967,0.00339 -0.1185792,0.025288 -0.1346945,0.048666 -0.016115,0.023378 -0.099113,0.046921 -0.1844395,0.052318 -0.085327,0.0054 -0.1847811,0.032129 -0.2210103,0.059405 -0.036229,0.027276 -0.065871,0.031928 -0.065871,0.010339 0,-0.021589 -0.029642,-0.014653 -0.065871,0.015415 -0.036229,0.030068 -0.089585,0.058322 -0.1185683,0.062788 -0.1255957,0.019353 -0.9361344,0.4270218 -1.1684667,0.5876927 -0.1398939,0.096744 -0.2727976,0.170056 -0.2953416,0.1629146 -0.022544,-0.00714 -0.055485,0.02479 -0.073201,0.07096 -0.017717,0.046169 -0.071744,0.099745 -0.1200606,0.119057 C 6.9897819,7.1905086 6.1688008,8.0877317 5.918127,8.4600042 5.7912714,8.648396 5.6658899,8.8170429 5.6395016,8.834775 c -0.026388,0.017732 -0.043939,0.041446 -0.039003,0.052697 0.00494,0.011251 -0.087892,0.2207685 -0.2062871,0.4655939 -0.1183948,0.2448253 -0.2152633,0.4878902 -0.2152633,0.5401443 0,0.1015408 -0.078675,0.1281758 -0.1305718,0.044204 z"
     id="path3364"
     inkscape:connector-curvature="0" />
  <path
     style="opacity:1;fill:#000000;fill-opacity:0.30952382;stroke:none;stroke-width:1;stroke-miterlimit:4;stroke-dasharray:none;stroke-opacity:0"
     d="m 10.424291,17.369019 c -0.01828,-0.02957 -0.06686,-0.277772 -0.107955,-0.551562 C 10.190485,15.979097 9.9630605,15.426601 9.5599047,14.979814 9.4545554,14.863064 9.1047509,14.581183 8.7825613,14.353412 8.0051073,13.803793 7.903162,13.706594 7.9481442,13.557841 8.0379414,13.26089 8.2928448,12.88559 8.6437767,12.533648 8.853906,12.322914 9.02583,12.137022 9.02583,12.120555 c 0,-0.01647 -0.075404,-0.05623 -0.1675655,-0.08835 L 8.690699,11.973788 8.8965528,11.800963 C 9.0097723,11.70591 9.0882095,11.613941 9.0708575,11.59659 9.0535055,11.579238 8.7220699,11.481891 8.3343339,11.380265 7.2551208,11.0974 6.5145284,10.829043 5.9499201,10.516261 5.2896795,10.1505 5.1654001,10.037639 5.2102943,9.8445872 5.326858,9.3433455 6.1059406,8.1196131 6.6177455,7.6338542 7.6230739,6.6796873 8.2496442,6.3366077 9.6318456,5.9834786 10.191247,5.8405609 10.212107,5.8389322 10.228513,5.9368932 c 0.0094,0.05583 -0.0204,0.2141042 -0.06611,0.3517198 -0.2444417,0.7359435 -0.3037355,1.6971689 -0.159949,2.5929673 0.0442,0.2753419 0.09313,0.5421205 0.108733,0.5928413 0.04898,0.1591739 -0.09195,0.104454 -0.5847404,-0.2270406 C 8.5897624,8.6172806 8.3697054,8.5560685 8.0500771,8.8367059 7.787469,9.0672788 7.7084048,9.247177 7.7084048,9.6141277 c 0,0.6903383 0.1548588,1.0441103 0.6072569,1.3872673 0.3803996,0.288544 0.8463867,0.465205 2.4044133,0.911541 0.763551,0.218739 1.548467,0.471544 1.744258,0.56179 0.409236,0.188629 0.7763,0.545084 0.88836,0.862686 0.117826,0.333943 0.08916,1.195686 -0.05187,1.559311 -0.322887,0.832513 -1.202576,1.725002 -2.219807,2.252106 -0.47268,0.244931 -0.612465,0.291799 -0.656722,0.22019 z"
     id="path3366"
     inkscape:connector-curvature="0" />
  <path
     style="opacity:1;fill:#000000;fill-opacity:0.30952382;stroke:none;stroke-width:1;stroke-miterlimit:4;stroke-dasharray:none;stroke-opacity:0"
     d="m 16.340094,12.823052 c -0.159743,-0.211433 -0.508333,-0.644424 -0.774643,-0.962203 -0.955946,-1.140697 -1.025598,-1.334184 -0.685269,-1.9035966 0.193975,-0.3245428 0.982263,-1.1818491 1.086257,-1.1813634 0.09414,4.397e-4 0.318038,0.4105979 0.631259,1.1564271 l 0.27798,0.6619169 9e-5,0.895849 c 8.4e-5,0.857746 -0.08338,1.555544 -0.200009,1.672174 -0.02516,0.02516 -0.174051,-0.125297 -0.335663,-0.339204 l -2e-6,0 z"
     id="path3368"
     inkscape:connector-curvature="0" />
  <path
     style="opacity:1;fill:#000000;fill-opacity:0.30952382;stroke:none;stroke-width:1;stroke-miterlimit:4;stroke-dasharray:none;stroke-opacity:0"
     d="m 13.452379,13.608309 c 0,-0.193522 -0.253381,-0.649269 -0.463582,-0.833828 -0.206257,-0.181096 -0.821862,-0.484924 -1.104154,-0.544947 -0.0942,-0.02003 -0.171266,-0.06078 -0.171266,-0.09056 0,-0.02978 -0.03481,-0.04079 -0.07736,-0.02446 -0.04255,0.01633 -0.09161,0.0066 -0.109036,-0.02157 -0.01742,-0.02819 -0.05176,-0.03884 -0.07631,-0.02367 -0.02455,0.01517 -0.111836,5.06e-4 -0.193972,-0.0326 -0.08214,-0.0331 -0.196766,-0.06727 -0.254733,-0.07593 C 10.732427,11.920466 9.1008941,11.396574 8.7951964,11.252138 8.3246363,11.029809 7.9507377,10.684084 7.8448899,10.373438 7.7068584,9.9683378 7.736877,9.8955663 7.9349116,10.155207 c 0.4040623,0.529761 1.0143389,0.808365 2.6981774,1.231771 0.60865,0.153048 1.238203,0.324858 1.399005,0.381801 0.957796,0.339173 1.396565,0.829171 1.460972,1.631551 0.01454,0.181156 0.01134,0.329375 -0.0071,0.329375 -0.01846,0 -0.03356,-0.05463 -0.03356,-0.121396 z"
     id="path3370"
     inkscape:connector-curvature="0" />
  <path
     style="opacity:1;fill:#000000;fill-opacity:0.30952382;stroke:none;stroke-width:1;stroke-miterlimit:4;stroke-dasharray:none;stroke-opacity:0"
     d="M 16.751761,10.237879 C 16.513471,9.6410216 16.225557,9.0150712 16.18038,8.9956477 c -0.02261,-0.00972 -0.0276,-0.039531 -0.01109,-0.066243 0.01651,-0.026713 -0.0069,-0.062743 -0.05207,-0.080067 -0.04514,-0.017324 -0.06997,-0.051088 -0.05518,-0.075032 0.0148,-0.023944 -8.59e-4,-0.060693 -0.03479,-0.081666 -0.03853,-0.023815 -0.04758,-0.015289 -0.0241,0.022707 0.0216,0.034953 0.0061,0.060839 -0.03639,0.060839 -0.04069,0 -0.116403,0.046868 -0.168244,0.1041514 -0.05184,0.057283 -0.1148,0.091454 -0.13991,0.075935 -0.02511,-0.015519 -0.04575,-0.00903 -0.04587,0.014417 -1.2e-4,0.023448 -0.154823,0.2204852 -0.343785,0.4378604 -0.188962,0.2173751 -0.40507,0.5197242 -0.480239,0.6718866 -0.07517,0.152163 -0.149049,0.27666 -0.164177,0.27666 -0.07981,0 0.05772,-0.5720552 0.203122,-0.8448535 0.162086,-0.3041047 0.909095,-1.1600662 1.102944,-1.2638113 0.0823,-0.044045 0.12934,0.016813 0.357489,0.46248 0.295557,0.5773421 0.56224,1.2960618 0.617405,1.6639268 0.02027,0.135159 0.02823,0.24545 0.01769,0.245093 -0.01054,-3.58e-4 -0.08768,-0.172281 -0.171429,-0.382053 z"
     id="path3372"
     inkscape:connector-curvature="0" />
  <path
     style="opacity:1;fill:#000000;fill-opacity:0.30952382;stroke:none;stroke-width:1;stroke-miterlimit:4;stroke-dasharray:none;stroke-opacity:0"
     d="m 7.8382963,13.610164 c -0.09378,-0.23931 0.2768826,-1.111823 0.6108765,-1.43796 0.2046993,-0.199883 0.2074754,-0.200765 0.3779473,-0.120031 l 0.1717334,0.08133 -0.3590152,0.36335 c -0.3721168,0.376609 -0.5830116,0.682913 -0.6980528,1.013851 -0.053328,0.153409 -0.074408,0.173668 -0.1034892,0.09946 z"
     id="path3374"
     inkscape:connector-curvature="0" />
  <path
     style="opacity:1;fill:#000000;fill-opacity:0.30952382;stroke:none;stroke-width:1;stroke-miterlimit:4;stroke-dasharray:none;stroke-opacity:0"
     d="M 9.9743762,20.891773 C 6.9942387,20.605276 4.1153315,18.803258 2.5516921,16.24563 0.53546467,12.947708 0.60469643,9.1539358 2.7399079,5.9317489 3.309577,5.0720775 4.583847,3.7976971 5.4424335,3.2289891 10.041126,0.18292055 16.258004,1.4062634 19.263839,5.9487336 c 0.635667,0.9606317 1.117047,2.044909 1.420051,3.1985745 l 0.172418,0.6564698 -0.0011,1.3701221 c -0.0012,1.537322 -0.03248,1.745193 -0.451787,3.00373 -0.486629,1.460591 -1.179563,2.611641 -2.233478,3.71008 -1.722555,1.795329 -3.99364,2.850297 -6.482934,3.011464 -0.838234,0.05427 -1.082095,0.05322 -1.7126528,-0.0074 z M 11.670781,18.44743 c 0.839032,-0.08905 1.3951,-0.220591 1.986036,-0.469816 0.943583,-0.397953 1.677209,-0.908304 2.404064,-1.672398 1.061136,-1.115504 1.648881,-2.311013 1.875011,-3.813891 0.08851,-0.588247 0.08947,-2.224083 0.0016,-2.7138956 C 17.764743,8.8146072 17.288865,7.7108336 16.684758,6.8718029 16.303303,6.3420077 15.49601,5.5578991 14.959633,5.1962211 14.064409,4.5925727 12.915743,4.1459175 11.951321,4.0264487 11.379414,3.955603 10.042075,4.0002994 9.5510827,4.1066692 8.7247515,4.2856875 7.8116172,4.6780055 7.0699669,5.172653 6.5350691,5.5294062 5.6803042,6.3659113 5.286808,6.9177199 4.7155344,7.7188303 4.3180071,8.6261732 4.0916248,9.6456869 3.9670011,10.206931 3.965837,11.939826 4.0895891,12.676224 4.4497793,14.81957 5.8741637,16.7417 7.8484308,17.74858 c 0.6551355,0.33412 1.0614832,0.470945 1.9151573,0.64487 0.7240629,0.147519 0.9623029,0.154262 1.9071929,0.05398 z"
     id="path3376"
     inkscape:connector-curvature="0" />
  <path
     style="opacity:1;fill:#000000;fill-opacity:0.30952382;stroke:none;stroke-width:1;stroke-miterlimit:4;stroke-dasharray:none;stroke-opacity:0"
     d="M 10.089018,21.419453 C 6.4327164,21.066464 3.2623251,18.761924 1.8496508,15.4303 1.6058107,14.855232 1.329759,14.001934 1.3343219,13.837377 c 0.00124,-0.04473 0.080065,0.143956 0.1751663,0.419298 1.2242787,3.544593 4.3739672,6.135604 8.1028643,6.665614 0.6372385,0.09058 1.9884235,0.103397 2.6293775,0.02495 1.007656,-0.123324 2.078947,-0.439877 3.053843,-0.902371 1.848171,-0.876778 3.404067,-2.322627 4.414095,-4.10189 0.325434,-0.573285 0.506181,-0.979809 0.784899,-1.765349 0.249954,-0.70447 0.295498,-0.711604 0.104208,-0.01632 -0.987672,3.58987 -3.940889,6.345852 -7.580834,7.074537 -1.089891,0.218186 -1.987755,0.274471 -2.928923,0.183609 z"
     id="path3378"
     inkscape:connector-curvature="0" />
  <path
     style="opacity:1;fill:#000000;fill-opacity:0.30952382;stroke:none;stroke-width:1;stroke-miterlimit:4;stroke-dasharray:none;stroke-opacity:0"
     d="M 1.305582,8.7234893 C 1.3731696,8.3044954 1.7438957,7.2534372 2.0371873,6.6492908 3.2845101,4.0799518 5.6491108,2.1153201 8.3527043,1.4020352 9.2531417,1.1644742 9.9719579,1.0776588 11.03256,1.0783743 c 1.68234,0.00113 2.90603,0.2775267 4.343259,0.9810018 1.105035,0.540877 1.987149,1.1890678 2.852437,2.0960141 0.673765,0.7062037 1.141551,1.3670767 1.592213,2.2494308 0.393325,0.7700919 0.562578,1.1911152 0.770303,1.9161617 0.14802,0.5166478 0.160309,0.6132946 0.07799,0.6132946 -0.03069,0 -0.04393,-0.019217 -0.02941,-0.042703 0.03938,-0.063722 -0.07793,-0.4842671 -0.135087,-0.4842671 -0.02717,0 -0.03639,-0.02105 -0.02049,-0.046778 0.02687,-0.04347 -0.196765,-0.6404363 -0.328389,-0.8766105 C 20.123441,7.426607 20.055139,7.284861 20.003601,7.1689276 19.843691,6.8092194 19.110685,5.6260359 18.853822,5.3130101 18.824839,5.2776895 18.741841,5.172065 18.669382,5.0782889 18.470291,4.8206235 17.545553,3.8753646 17.492573,3.8753646 c -0.02552,0 -0.09402,-0.060533 -0.152213,-0.1345176 -0.0582,-0.073985 -0.117909,-0.1224205 -0.132695,-0.107635 -0.01478,0.014785 -0.07058,-0.025465 -0.123981,-0.089445 -0.05341,-0.06398 -0.09789,-0.093266 -0.09885,-0.065079 -9.64e-4,0.028186 -0.03895,-0.00185 -0.0844,-0.066753 -0.04546,-0.064901 -0.102257,-0.1058837 -0.126221,-0.091074 -0.02396,0.01481 -0.05774,-0.01001 -0.07507,-0.055155 -0.01732,-0.045146 -0.05289,-0.068859 -0.07905,-0.052697 -0.02615,0.016162 -0.06172,-0.00755 -0.07905,-0.052697 -0.01732,-0.045146 -0.05538,-0.067324 -0.08457,-0.049284 -0.02919,0.018039 -0.05307,0.013283 -0.05307,-0.010568 0,-0.053189 -0.377071,-0.2910442 -0.442033,-0.2788322 -0.02574,0.00484 -0.06131,-0.013919 -0.07905,-0.041685 -0.05023,-0.078659 -0.779794,-0.4317788 -0.816414,-0.3951587 -0.01795,0.017947 -0.03263,0.00685 -0.03263,-0.024662 0,-0.031511 -0.07672,-0.074144 -0.170492,-0.094739 -0.09377,-0.020596 -0.218268,-0.068619 -0.27666,-0.1067185 -0.05839,-0.0381 -0.184439,-0.082967 -0.280104,-0.099706 -0.09567,-0.016738 -0.214234,-0.050808 -0.263485,-0.07571 C 13.964137,1.9436022 13.717855,1.87387 13.373333,1.7937668 12.317894,1.5483713 11.237259,1.4661523 10.242903,1.5555912 9.559676,1.6170451 9.3270019,1.645032 9.1048755,1.692477 8.8539008,1.746084 8.4603727,1.8272497 8.3144204,1.8555094 c -0.08695,0.016836 -0.1836659,0.050872 -0.2149237,0.075638 -0.031258,0.024765 -0.1023992,0.053794 -0.158091,0.064508 -0.055692,0.010714 -0.1486856,0.038651 -0.2066524,0.062082 -0.057967,0.023431 -0.2239622,0.087264 -0.368879,0.141851 -0.3136921,0.1181617 -1.3061971,0.5810636 -1.3437737,0.6267326 -0.045303,0.05506 -0.2878843,0.1761382 -0.3293563,0.1643905 -0.021738,-0.00616 -0.039523,0.00713 -0.039523,0.029518 0,0.022392 -0.082998,0.085411 -0.1844396,0.1400407 -0.1014417,0.05463 -0.1844395,0.1193067 -0.1844395,0.1437261 0,0.024419 -0.035571,0.044399 -0.079046,0.044399 -0.043475,0 -0.079045,0.023714 -0.079045,0.052697 0,0.028983 -0.03537,0.052697 -0.078599,0.052697 -0.043229,0 -0.1082178,0.047427 -0.1444186,0.1053941 -0.036201,0.057967 -0.093965,0.105394 -0.1283643,0.105394 -0.0344,0 -0.1091776,0.059284 -0.1661733,0.1317425 -0.056996,0.072458 -0.1255665,0.1317425 -0.1523794,0.1317425 -0.05047,0 -0.8253992,0.7939142 -1.0844329,1.1109996 C 2.6559636,5.9154256 2.0858027,6.8757472 1.7090873,7.8397088 1.6267313,8.0504463 1.5402186,8.270295 1.5168368,8.3282617 1.493455,8.3862284 1.4657542,8.481083 1.4552794,8.5390498 c -0.010475,0.057967 -0.034506,0.1409645 -0.053403,0.1844395 -0.018897,0.043475 -0.036406,0.094855 -0.038909,0.114177 -0.0025,0.019322 -0.025046,0.054892 -0.050094,0.079045 -0.025547,0.024633 -0.028748,-0.060204 -0.00729,-0.1932225 z"
     id="path3380"
     inkscape:connector-curvature="0" />
  <path
     style="opacity:1;fill:#000000;fill-opacity:0.30952382;stroke:none;stroke-width:1;stroke-miterlimit:4;stroke-dasharray:none;stroke-opacity:0"
     d="M 9.6318456,18.34152 C 9.3130287,18.270313 8.8743261,18.14928 8.656951,18.072557 6.5551189,17.330711 4.8395484,15.46455 4.2527697,13.28178 4.0772316,12.628793 4.0971508,12.432359 4.2782862,13.030151 c 0.7234974,2.387718 2.7177111,4.249355 5.1602531,4.817195 0.6582957,0.153039 2.0245057,0.191723 2.6964137,0.07635 2.559208,-0.43945 4.622958,-2.168415 5.477839,-4.589216 0.09212,-0.26085 0.187299,-0.55727 0.211516,-0.658712 0.03776,-0.158171 0.04479,-0.164762 0.04933,-0.04628 0.0093,0.243952 -0.245479,1.137747 -0.470959,1.651877 -0.312684,0.712971 -0.773017,1.379919 -1.401234,2.030163 -0.62458,0.64648 -1.259912,1.121168 -1.943047,1.451746 -0.976593,0.472588 -1.750334,0.645842 -3.056426,0.684389 -0.700109,0.02066 -0.856709,0.0085 -1.3701224,-0.10614 z"
     id="path3382"
     inkscape:connector-curvature="0" />
  <path
     style="opacity:1;fill:#000000;fill-opacity:0.30952382;stroke:none;stroke-width:1;stroke-miterlimit:4;stroke-dasharray:none;stroke-opacity:0"
     d="m 10.207854,9.6317057 c -0.05315,-0.036516 -0.2127234,-0.7950545 -0.172998,-0.8223714 0.01021,-0.00702 0.118353,0.1842133 0.240315,0.4249671 0.212424,0.4193247 0.216857,0.4377001 0.105394,0.4369271 -0.064,-4.427e-4 -0.141716,-0.018229 -0.172711,-0.039523 z"
     id="path3384"
     inkscape:connector-curvature="0" />
  <path
     style="opacity:1;fill:#000000;fill-opacity:0.30952382;stroke:none;stroke-width:1;stroke-miterlimit:4;stroke-dasharray:none;stroke-opacity:0"
     d="M 10.032385,17.882315 C 8.4617061,17.625797 7.3193655,17.06013 6.2055521,15.987335 5.1862428,15.005564 4.6170695,14.02213 4.2202629,12.557093 4.1168092,12.175135 4.1023033,11.991491 4.1005991,11.042158 4.0984786,9.8609162 4.1446682,9.5498764 4.4527479,8.6707923 5.0270782,7.0319802 6.3492289,5.5538345 7.9607447,4.7489016 8.47391,4.4925817 9.1601896,4.2673007 9.731199,4.167725 c 0.61714,-0.1076201 1.924398,-0.1076201 2.541538,0 2.592554,0.4521037 4.755697,2.4898135 5.479519,5.1617799 0.131041,0.4837343 0.143175,0.61128 0.147887,1.5545621 0.0069,1.391269 -0.114612,2.004615 -0.604603,3.050575 -0.756777,1.615453 -2.353001,3.073706 -3.950067,3.608643 -1.053982,0.353031 -2.39015,0.489762 -3.313088,0.33903 z m 0.938699,-0.587674 c 1.353111,-0.672357 2.264421,-1.6439 2.503571,-2.669043 0.09493,-0.406945 0.09773,-1.357575 0.0049,-1.666036 C 13.384491,12.64372 13.079784,12.28355 12.699928,12.038037 12.351756,11.813003 11.539807,11.540203 10.223296,11.205936 8.9085337,10.872114 8.1251055,10.443393 7.8711265,9.9187417 7.6890009,9.5425204 7.7282839,9.3327231 8.0440824,8.9950432 8.3722008,8.6441896 8.4939461,8.6630634 9.2709154,9.185235 c 0.7540676,0.50678 1.0267696,0.6168719 1.2217996,0.4932484 0.05576,-0.035342 0.03701,-0.1038347 -0.09007,-0.3289942 -0.5101582,-0.903954 -0.5356072,-1.902959 -0.08252,-3.2394 0.128652,-0.3794775 0.233913,-0.7132928 0.233913,-0.7418116 0,-0.08925 -0.8451428,-0.010384 -1.3437735,0.1253956 C 8.0108482,5.820283 6.8691719,6.6227683 6.0418299,7.7207724 5.6638941,8.2223486 5.1670018,9.1768574 5.0534863,9.6193384 l -0.074355,0.2898335 0.1528141,0.1608151 c 0.4369557,0.459833 1.8348276,1.076849 3.1561264,1.393103 0.2753419,0.0659 0.5204465,0.137733 0.5446769,0.159621 0.024231,0.02189 -0.1247958,0.225028 -0.3311695,0.451422 -0.4227196,0.463727 -0.6746963,0.923502 -0.7211698,1.315899 -0.030092,0.254083 -0.023496,0.27238 0.1545381,0.428697 0.1022846,0.08981 0.4310758,0.336865 0.730647,0.549018 0.2995712,0.212152 0.6554741,0.496261 0.7908959,0.631352 0.4315284,0.430476 0.6887115,1.065897 0.7867445,1.943802 0.03066,0.274616 0.06711,0.517681 0.081,0.540145 0.04913,0.07949 0.190702,0.03825 0.646851,-0.188405 z m 5.819915,-4.184126 c 0.177743,-0.557004 0.217855,-0.8921 0.212893,-1.778524 -0.0061,-1.083543 -0.07927,-1.4054159 -0.53675,-2.3598851 C 16.130937,8.2706519 16.043665,8.159488 15.892984,8.2407667 15.679466,8.35594 14.984792,9.1424296 14.79171,9.4875959 c -0.189097,0.338045 -0.206346,0.4020666 -0.206346,0.7659091 0,0.3602 0.01711,0.425481 0.18444,0.703723 0.101442,0.168681 0.367761,0.523575 0.591821,0.788653 0.22406,0.265077 0.600683,0.736881 0.836939,1.048452 0.236256,0.311571 0.448232,0.566493 0.471058,0.566493 0.02283,0 0.07745,-0.11264 0.121377,-0.250311 z"
     id="path3386"
     inkscape:connector-curvature="0" />
</svg>
