<?xml version="1.0" encoding="UTF-8" standalone="no"?>
<svg
   xmlns:dc="http://purl.org/dc/elements/1.1/"
   xmlns:cc="http://creativecommons.org/ns#"
   xmlns:rdf="http://www.w3.org/1999/02/22-rdf-syntax-ns#"
   xmlns:svg="http://www.w3.org/2000/svg"
   xmlns="http://www.w3.org/2000/svg"
   xmlns:sodipodi="http://sodipodi.sourceforge.net/DTD/sodipodi-0.dtd"
   xmlns:inkscape="http://www.inkscape.org/namespaces/inkscape"
   width="22"
   height="22"
   version="1.1"
   id="svg2"
   inkscape:version="0.91 r13725"
   sodipodi:docname="org.kde.plasma.kicker.svg">
  <metadata
     id="metadata18">
    <rdf:RDF>
      <cc:Work
         rdf:about="">
        <dc:format>image/svg+xml</dc:format>
        <dc:type
           rdf:resource="http://purl.org/dc/dcmitype/StillImage" />
      </cc:Work>
    </rdf:RDF>
  </metadata>
  <defs
     id="defs16" />
  <sodipodi:namedview
     pagecolor="#ffffff"
     bordercolor="#666666"
     borderopacity="1"
     objecttolerance="10"
     gridtolerance="10"
     guidetolerance="10"
     inkscape:pageopacity="0"
     inkscape:pageshadow="2"
     inkscape:window-width="1366"
     inkscape:window-height="723"
     id="namedview14"
     showgrid="false"
     inkscape:zoom="23.424006"
     inkscape:cx="11"
     inkscape:cy="11"
     inkscape:window-x="0"
     inkscape:window-y="0"
     inkscape:window-maximized="1"
     inkscape:current-layer="svg2" />
  <rect
     fill="#2c9bff"
     width="20"
     height="20"
     x="-21"
     y="-21"
     rx="1"
     ry="1"
     transform="matrix(0,-1,-1,0,0,0)"
     id="rect4" />
  <path
     fill="#fff"
     opacity=".2"
     d="m2 1c-0.554 0-1 0.446-1 1v0.5c0-0.554 0.446-1 1-1h18c0.554 0 1 0.446 1 1v-0.5c0-0.554-0.446-1-1-1h-18z"
     id="path6" />
  <path
     opacity=".2"
     d="m2 21.5c-0.554 0-1-0.446-1-1v-0.5c0 0.554 0.446 1 1 1h18c0.554 0 1-0.446 1-1v0.5c0 0.554-0.446 1-1 1h-18z"
     id="path8" />
  <path
     style="opacity:0.2"
     d="M 12.015625,3.4746094 9,4 V 14.386719 L 12,14 11.984375,9.3183594 15.523438,14.5 19,14 15,8.6367188 l 4.013672,-4.5 -3.519531,-0.6484376 -3.509766,4.5 z M 5.6738281,6.1269531 c -0.028972,0.00241 -0.056303,0.015109 -0.078125,0.037109 l -1.0351562,1.046875 c -0.04495,0.0453 -0.052447,0.1159219 -0.017578,0.1699219 l 1.25,1.9199218 C 5.5571593,9.7192619 5.3789844,10.178103 5.2636719,10.658203 L 3.1054688,11.1875 C 3.0455625,11.2022 3,11.256359 3,11.318359 V 12 12.681641 c 0,0.062 0.045563,0.116159 0.1054688,0.130859 l 2.1582031,0.529297 c 0.1153125,0.4801 0.2934874,0.938942 0.5292969,1.357422 l -1.25,1.919922 c -0.034868,0.054 -0.027372,0.124623 0.017578,0.169921 l 1.0351562,1.046876 c 0.043643,0.044 0.1113563,0.04763 0.1640625,0.01562 L 7.71875,16.650391 c 0.3843281,0.2239 0.9855094,0.404037 1.4238281,0.523437 l 0.4589844,2.216797 C 9.614313,19.454629 9.6651406,19.5 9.7285156,19.5 H 10.5 11.271484 c 0.06338,0 0.114202,-0.04537 0.126954,-0.109375 l 0.458984,-2.216797 c 0.438319,-0.1194 1.039502,-0.299537 1.423828,-0.523437 l 1.958984,1.201171 c 0.05271,0.032 0.120422,0.02838 0.164063,-0.01562 l 1.035156,-1.046876 c 0.04495,-0.0453 0.05245,-0.115921 0.01758,-0.169921 l -1.041015,-1.59961 -0.128907,0.01953 -0.730468,-1.070312 c -0.746065,1.563963 -2.323843,2.560614 -4.056641,2.5625 -2.4852814,0 -4.5,-2.014719 -4.5,-4.5 C 6.00144,10.323124 6.9698489,8.763073 8.5,8.0039062 V 7.0214844 C 8.2147616,7.1165864 7.9344885,7.2239255 7.71875,7.3496094 L 5.7597656,6.1484375 c -0.026353,-0.016 -0.056965,-0.023891 -0.085937,-0.021484 z"
     id="path10" />
  <path
     style="fill:#ffffff"
     d="M 12.015625 2.9746094 L 9 3.5 L 9 13.886719 L 12 13.5 L 11.984375 8.8183594 L 15.523438 14 L 19 13.5 L 15 8.1367188 L 19.013672 3.6367188 L 15.494141 2.9882812 L 11.984375 7.4882812 L 12.015625 2.9746094 z M 5.6738281 5.6269531 C 5.6448561 5.6293631 5.6175251 5.6420625 5.5957031 5.6640625 L 4.5605469 6.7109375 C 4.5155969 6.7562375 4.5080997 6.8268594 4.5429688 6.8808594 L 5.7929688 8.8007812 C 5.5571593 9.2192619 5.3789844 9.6781034 5.2636719 10.158203 L 3.1054688 10.6875 C 3.0455625 10.7022 3 10.756359 3 10.818359 L 3 11.5 L 3 12.181641 C 3 12.243641 3.0455629 12.2978 3.1054688 12.3125 L 5.2636719 12.841797 C 5.3789844 13.321897 5.5571593 13.780739 5.7929688 14.199219 L 4.5429688 16.119141 C 4.5081007 16.173141 4.5155969 16.243764 4.5605469 16.289062 L 5.5957031 17.335938 C 5.6393461 17.379938 5.7070594 17.383573 5.7597656 17.351562 L 7.71875 16.150391 C 8.1030781 16.374291 8.7042594 16.554428 9.1425781 16.673828 L 9.6015625 18.890625 C 9.614313 18.954629 9.6651406 19 9.7285156 19 L 10.5 19 L 11.271484 19 C 11.334864 19 11.385686 18.95463 11.398438 18.890625 L 11.857422 16.673828 C 12.295741 16.554428 12.896924 16.374291 13.28125 16.150391 L 15.240234 17.351562 C 15.292944 17.383563 15.360656 17.379937 15.404297 17.335938 L 16.439453 16.289062 C 16.484403 16.243762 16.491901 16.173141 16.457031 16.119141 L 15.416016 14.519531 L 15.287109 14.539062 L 14.556641 13.46875 C 13.810576 15.032713 12.232798 16.029364 10.5 16.03125 C 8.0147186 16.03125 6 14.016531 6 11.53125 C 6.00144 9.823124 6.9698489 8.263073 8.5 7.5039062 L 8.5 6.5214844 C 8.2147616 6.6165864 7.9344885 6.7239255 7.71875 6.8496094 L 5.7597656 5.6484375 C 5.7334126 5.6324375 5.7028006 5.6245465 5.6738281 5.6269531 z"
     id="path12" />
  <path
     style="opacity:1;fill:#000000;fill-opacity:0.30952382;stroke:none;stroke-width:1;stroke-miterlimit:4;stroke-dasharray:none;stroke-opacity:0"
     d="M 1.5611687,20.868718 C 1.2894346,20.733307 1.1107826,20.5037 1.0474752,20.208508 1.0157419,20.06054 1.0018379,17.282987 1.0021271,11.149453 L 1.0025442,2.3037931 1.1027547,2.0885923 c 0.1071575,-0.2301192 0.304574,-0.4236942 0.5272801,-0.5170197 0.1138398,-0.047705 1.7192577,-0.057407 9.3707282,-0.05663 8.864844,9.002e-4 9.240169,0.00406 9.404119,0.079272 0.217369,0.099714 0.396408,0.2787526 0.496121,0.4961219 0.07518,0.1638937 0.07837,0.5304442 0.07927,9.1096281 7.26e-4,6.921121 -0.01084,8.978527 -0.05125,9.114581 -0.06861,0.231052 -0.383433,0.54587 -0.614485,0.614485 -0.136072,0.04041 -2.246018,0.05218 -9.351674,0.05218 l -9.1759551,0 -0.2257482,-0.112495 z m 9.8103573,-1.417546 c 0.0194,-0.03146 0.136927,-0.553336 0.261167,-1.159733 l 0.225892,-1.102538 0.430936,-0.135009 c 0.237015,-0.07426 0.5589,-0.1932 0.715301,-0.26432 l 0.284364,-0.12931 0.980569,0.602245 c 0.539312,0.331235 1.007158,0.602245 1.039657,0.602245 0.0325,0 0.316246,-0.257687 0.63055,-0.572639 l 0.571461,-0.57264 -0.08874,-0.150405 c -0.07481,-0.1268 -0.07943,-0.158134 -0.02939,-0.199658 0.146334,-0.121446 0.113041,-0.20177 -0.432841,-1.044284 -0.349439,-0.539324 -0.562207,-0.829411 -0.59821,-0.815595 -0.03503,0.01344 -0.192632,-0.176985 -0.422327,-0.510268 -0.201548,-0.29244 -0.373487,-0.531709 -0.382088,-0.531709 -0.0086,0 -0.08533,0.124618 -0.170505,0.276927 -0.979701,1.75187 -3.109423,2.641247 -5.055863,2.111342 C 8.3300643,15.583202 7.3815408,14.91022 6.8077085,14.065215 6.5594615,13.699655 6.2771063,13.088443 6.166763,12.677766 6.1118164,12.473264 6.0664429,12.147822 6.0536739,11.866632 c -0.018429,-0.405833 -0.00695,-0.525106 0.0845,-0.87832 0.058204,-0.224794 0.1664779,-0.554411 0.2406095,-0.732483 C 6.6987587,9.4872131 7.4104295,8.6650804 8.143661,8.2170153 l 0.3717085,-0.2271444 0,-0.740495 c 0,-0.4072723 -0.012027,-0.740495 -0.026726,-0.740495 -0.014699,0 -0.1968908,0.068082 -0.4048714,0.1512935 C 7.807283,6.7707959 7.6853556,6.8006119 7.6302215,6.771085 7.5887487,6.7488744 7.1455499,6.479076 6.6453349,6.1715334 6.1451203,5.8639907 5.7126046,5.6123647 5.6841889,5.6123647 c -0.075256,0 -1.1819704,1.1208476 -1.1808473,1.1959274 5.221e-4,0.034905 0.036898,0.1102343 0.080836,0.1673979 0.078326,0.1019027 0.078183,0.1062385 -0.00732,0.2218873 L 4.48965,7.3155311 5.0563721,8.1819688 5.6230943,9.0484064 5.5484965,9.2408188 C 5.5074676,9.3466457 5.4251717,9.5869197 5.3656165,9.7747612 5.3060614,9.9626027 5.2510021,10.12406 5.2432622,10.133556 c -0.00774,0.0095 -0.5069794,0.137748 -1.1094218,0.285005 -0.6024424,0.147257 -1.1131526,0.293176 -1.1349117,0.324265 -0.064086,0.09156 -0.00765,2.004788 0.060384,2.047044 0.030588,0.019 0.5365201,0.15115 1.1242938,0.293671 l 1.0686795,0.259128 0.1178842,0.371954 c 0.064837,0.204575 0.1483068,0.449439 0.1854896,0.544144 l 0.067606,0.172189 -0.5604367,0.859125 c -0.3082401,0.472518 -0.5604365,0.88674 -0.5604365,0.920493 0,0.03375 0.037928,0.09569 0.084285,0.137646 0.083919,0.07595 0.083919,0.07679 0,0.194645 -0.046357,0.0651 -0.084285,0.134355 -0.084285,0.153896 0,0.06252 1.1277004,1.167991 1.1914777,1.167991 0.033741,0 0.5007555,-0.2703 1.0378114,-0.600667 l 0.9764649,-0.600667 0.3502475,0.149055 c 0.1926362,0.08198 0.5143582,0.198538 0.7149379,0.259018 l 0.3646904,0.109965 0.2081096,1.014035 c 0.2571947,1.253208 0.2647532,1.28101 0.3551263,1.30631 0.040427,0.01132 0.424838,0.01742 0.854248,0.01357 0.600538,-0.0054 0.788886,-0.02021 0.81602,-0.0642 z m 5.895549,-5.19383 c 0.900601,-0.129141 1.653251,-0.234802 1.672553,-0.234802 0.06595,0 0.03511,-0.07309 -0.112352,-0.266213 l -0.147449,-0.193108 0.17304,-0.02767 c 0.127718,-0.02042 0.162414,-0.04134 0.13247,-0.07985 -0.02231,-0.0287 -0.834173,-1.118395 -1.804134,-2.421545 C 16.211242,9.7310027 15.372819,8.6055039 15.318041,8.5330449 L 15.218443,8.4013006 17.118728,6.2704088 19.019012,4.1395167 18.843666,4.096461 18.66832,4.0534054 18.848129,3.8491318 C 18.947023,3.7367813 19.020767,3.6379614 19.012004,3.6295319 19.00324,3.6211025 18.246839,3.4776408 17.331112,3.3107283 16.415385,3.1438158 15.626342,2.9983494 15.577683,2.9874695 15.503611,2.9709075 15.208318,3.327822 13.763305,5.1804723 L 12.037397,7.3932565 12.026344,5.179382 c -0.0061,-1.2176311 -0.02223,-2.2138746 -0.0359,-2.2138746 -0.01366,0 -0.684134,0.1152664 -1.489933,0.2561475 -0.8057977,0.1408811 -1.4764388,0.2561475 -1.490313,0.2561475 -0.030069,0 -0.034526,10.8627366 -0.00447,10.8927936 0.018031,0.01803 2.1832103,-0.244847 2.7755203,-0.336982 l 0.213456,-0.0332 0.02135,-2.297998 0.02135,-2.2979988 1.682662,2.4691558 c 0.925464,1.358035 1.711292,2.502774 1.746285,2.543864 0.03499,0.04109 0.08604,0.07471 0.113448,0.07471 0.0274,0 0.786682,-0.105661 1.687283,-0.234802 z"
     id="path3346"
     inkscape:connector-curvature="0" />
  <path
     style="opacity:1;fill:#000000;fill-opacity:0.30952382;stroke:none;stroke-width:1;stroke-miterlimit:4;stroke-dasharray:none;stroke-opacity:0"
     d="M 1.5929028,20.876285 C 1.3617082,20.752993 1.147589,20.510793 1.081799,20.298153 1.0495536,20.193933 1.0288498,17.455659 1.0133563,11.245943 L 0.99114354,2.3431523 1.0993429,2.1313621 C 1.2233577,1.8886147 1.434802,1.671028 1.6207331,1.5948256 1.7751317,1.5315467 16.363031,1.4886207 18.853707,1.5441164 l 1.522596,0.033926 0.182721,0.1284644 c 0.110603,0.07776 0.225768,0.2121119 0.291783,0.3403941 l 0.109061,0.2119297 0,8.9236059 c 0,4.907984 -0.01487,8.993468 -0.03304,9.078854 -0.04091,0.192205 -0.316232,0.511931 -0.531493,0.617213 -0.155003,0.07581 -0.516516,0.07933 -9.382524,0.09127 l -9.2213089,0.01242 -0.1985953,-0.105907 z m 9.7380612,-1.412853 c 0.05626,-0.05626 0.172232,-0.5161 0.375622,-1.489369 l 0.160046,-0.76586 0.384222,-0.13514 c 0.211321,-0.07433 0.533367,-0.195082 0.715657,-0.268343 l 0.331437,-0.133203 0.458351,0.283415 c 0.713782,0.441355 1.148782,0.693817 1.380243,0.801055 l 0.21258,0.09849 0.579207,-0.56052 0.579208,-0.560522 -0.07595,-0.159158 c -0.07109,-0.148978 -0.07138,-0.164212 -0.0045,-0.238163 0.122968,-0.135879 0.149423,-0.0814 -0.579325,-1.192928 -0.234762,-0.358072 -0.449851,-0.651041 -0.477974,-0.651041 -0.0485,0 -0.315104,-0.337216 -0.614249,-0.776937 -0.07506,-0.110333 -0.153998,-0.211436 -0.175417,-0.224674 -0.02142,-0.01324 -0.140289,0.143712 -0.264155,0.348779 -0.243506,0.403136 -0.722994,0.934986 -1.115569,1.237393 -0.543066,0.418334 -1.375884,0.766429 -2.080004,0.869385 -0.478833,0.07001 -1.2520643,0.03169 -1.7085554,-0.08468 C 8.987725,15.753281 8.2106739,15.385851 7.8750008,15.134692 7.3254022,14.723468 6.8274195,14.147968 6.5609091,13.616043 6.2042814,12.904255 6.0815714,12.425281 6.0752424,11.720338 6.0703222,11.172322 6.1930416,10.684471 6.4894803,10.0736 6.8232899,9.3857185 7.4350786,8.7018111 8.1204754,8.2503396 l 0.3948941,-0.2601169 0,-0.7406709 c 0,-0.4521225 -0.016199,-0.7406709 -0.04158,-0.7406709 -0.022869,0 -0.1866632,0.057633 -0.3639869,0.1280737 C 7.932479,6.7073952 7.7560292,6.7650283 7.7176925,6.7650283 7.6793562,6.7650283 7.2179931,6.505679 6.6924421,6.1886965 6.1668911,5.871714 5.7134115,5.6123647 5.6847093,5.6123647 c -0.07574,0 -1.182317,1.1204138 -1.182317,1.197101 0,0.035551 0.03176,0.1099816 0.070577,0.1654017 0.065843,0.094004 0.065572,0.1100576 -0.00403,0.2392985 l -0.074606,0.1385352 0.4220341,0.634698 C 5.1484877,8.3364833 5.3985627,8.7181529 5.4720911,8.8355538 L 5.6057791,9.04901 5.4238384,9.5791644 C 5.2756089,10.011088 5.2232203,10.116228 5.1410949,10.146608 c -0.055441,0.02051 -0.5244044,0.142454 -1.0421398,0.270989 -0.5177354,0.128534 -0.984562,0.252191 -1.0373924,0.274793 -0.093796,0.04013 -0.096055,0.05687 -0.096055,0.71218 0,0.369098 0.023019,0.830297 0.051154,1.024886 l 0.051154,0.353798 0.1943207,0.0638 c 0.1068764,0.03509 0.5865674,0.159621 1.0659799,0.276736 0.4794125,0.117116 0.8860611,0.227965 0.9036632,0.246333 0.017602,0.01837 0.1088456,0.263928 0.2027629,0.54569 l 0.1707594,0.512295 -0.5514545,0.857206 c -0.3033,0.471464 -0.5514546,0.882989 -0.5514546,0.9145 0,0.03151 0.031824,0.09246 0.07072,0.135439 0.065962,0.07289 0.065263,0.08828 -0.010376,0.228731 l -0.081096,0.150587 0.5895506,0.573413 0.5895506,0.573414 0.3920513,-0.204395 c 0.2156283,-0.112418 0.6755689,-0.37952 1.0220903,-0.593561 l 0.6300383,-0.389166 0.6293535,0.234123 c 0.346144,0.128767 0.6684254,0.250238 0.7161806,0.269935 0.073063,0.03014 0.1090736,0.146598 0.227155,0.734664 0.2072968,1.032371 0.3003692,1.411116 0.3746123,1.524425 l 0.066501,0.101492 0.7839,-0.01552 c 0.464825,-0.0092 0.801989,-0.03361 0.828341,-0.05996 z m 4.577575,-5.012734 c 1.282116,-0.169988 2.890375,-0.391203 2.968624,-0.408332 0.110091,-0.0241 0.09639,-0.09596 -0.05817,-0.305143 -0.12409,-0.16794 -0.124472,-0.184123 -0.0044,-0.18494 0.05283,-3.42e-4 0.120488,-0.01616 0.15035,-0.03511 0.03882,-0.02464 -0.482392,-0.754687 -1.829155,-2.562031 -1.035896,-1.3901647 -1.873956,-2.5510413 -1.862355,-2.579726 0.0116,-0.028685 0.861174,-0.9934547 1.88794,-2.143933 l 1.866849,-2.0917791 -0.14417,-0.039353 c -0.07929,-0.021644 -0.151121,-0.044647 -0.159617,-0.051116 -0.0085,-0.00647 0.05665,-0.099754 0.144777,-0.2072978 0.08812,-0.107544 0.152008,-0.2037523 0.141964,-0.2137963 -0.0166,-0.016603 -0.798513,-0.1671243 -2.784378,-0.5360059 -0.396029,-0.073564 -0.734602,-0.1177402 -0.752385,-0.09817 -0.07082,0.077939 -1.276353,1.6101954 -2.305738,2.9306382 l -1.088626,1.3964363 -0.03658,-2.1670916 c -0.02012,-1.1919004 -0.04289,-2.1738531 -0.0506,-2.1821173 -0.01403,-0.015032 -2.7922373,0.4491111 -2.9332222,0.49004 -0.070643,0.020508 -0.074678,0.3126101 -0.074127,5.3658907 3.415e-4,2.939311 0.012345,5.388107 0.02672,5.441769 0.024634,0.09196 0.041174,0.09609 0.2875827,0.07193 1.2187729,-0.119532 2.6283169,-0.302216 2.6725279,-0.346372 0.01228,-0.01226 0.03475,-0.861187 0.04995,-1.886503 0.0152,-1.025317 0.03067,-2.037112 0.03439,-2.2484333 l 0.0068,-0.3842212 0.08145,0.1067281 c 0.0448,0.058701 0.708908,1.0288594 1.4758,2.1559084 1.751907,2.574657 1.879599,2.753585 1.965103,2.753585 0.0056,0 0.150767,-0.01865 0.322698,-0.04145 z"
     id="path3348"
     inkscape:connector-curvature="0" />
  <path
     style="opacity:1;fill:#000000;fill-opacity:0.30952382;stroke:none;stroke-width:1;stroke-miterlimit:4;stroke-dasharray:none;stroke-opacity:0"
     d="m 1.0194922,1.9937562 c 0.037024,-0.4174751 0.220776,-0.6998438 0.5798953,-0.8911171 0.1442228,-0.076816 0.4664119,-0.080038 9.2640005,-0.092654 6.569297,-0.00942 9.17629,1.789e-4 9.335557,0.034374 0.452923,0.097245 0.782306,0.5007673 0.782235,0.9583037 l -3.4e-5,0.2157469 -0.09029,-0.1823992 C 20.783547,1.8192122 20.548047,1.6137104 20.340845,1.5560569 20.246038,1.529677 16.824455,1.5143942 10.979418,1.5142431 2.7534981,1.5140305 1.7504201,1.5210914 1.6086891,1.5802055 1.401199,1.6667471 1.1827067,1.8771385 1.0789156,2.0903369 L 0.99578237,2.2611018 1.0194922,1.9937562 Z"
     id="path3350"
     inkscape:connector-curvature="0" />
  <path
     style="opacity:1;fill:#000000;fill-opacity:0.30952382;stroke:none;stroke-width:1;stroke-miterlimit:4;stroke-dasharray:none;stroke-opacity:0"
     d="m 15.135276,8.2965209 c -0.05161,-0.069812 -0.08776,-0.144895 -0.08032,-0.1668503 0.0074,-0.021955 0.82555,-0.9508266 1.818028,-2.0641585 l 1.804506,-2.0242399 0.148619,0.045612 c 0.08174,0.025087 0.148618,0.05739 0.148618,0.071785 0,0.014395 -0.770858,0.8900778 -1.713017,1.9459617 -0.942159,1.055884 -1.78492,2.0095713 -1.872802,2.1193052 l -0.159785,0.1995163 -0.09384,-0.1269317 z"
     id="path3352"
     inkscape:connector-curvature="0" />
  <path
     style="opacity:1;fill:#000000;fill-opacity:0.30952382;stroke:none;stroke-width:1;stroke-miterlimit:4;stroke-dasharray:none;stroke-opacity:0"
     d="M 15.483497,14.391595 C 15.341957,14.234257 15.101689,13.890181 13.660692,11.78125 12.890599,10.654201 12.219925,9.6744368 12.170306,9.6039962 l -0.09022,-0.1280737 -0.02364,0.4482581 c -0.02101,0.3984674 -0.02419,0.3682614 -0.0286,-0.2719376 -0.0027,-0.3961076 0.01083,-0.7034846 0.03014,-0.68306 0.0193,0.020425 0.788258,1.141772 1.708789,2.491882 0.920532,1.350111 1.695655,2.477696 1.722497,2.505744 0.03772,0.03942 0.407446,-4.27e-4 1.62806,-0.175438 1.436818,-0.206012 1.58391,-0.220238 1.630839,-0.157725 0.106657,0.142073 0.200422,0.34387 0.172673,0.371619 -0.02237,0.02237 -2.023444,0.309175 -3.176765,0.455309 -0.145665,0.01846 -0.193264,0.0059 -0.260586,-0.06898 z"
     id="path3354"
     inkscape:connector-curvature="0" />
  <path
     style="opacity:1;fill:#000000;fill-opacity:0.30952382;stroke:none;stroke-width:1;stroke-miterlimit:4;stroke-dasharray:none;stroke-opacity:0"
     d="m 9.0276644,14.107923 c 0,-0.117401 0.012268,-0.213456 0.027263,-0.213456 0.066256,0 2.7364696,-0.344786 2.8245486,-0.364714 0.0948,-0.02145 0.09778,-0.01361 0.08538,0.224609 l -0.01284,0.246833 -0.48981,0.07263 c -0.697321,0.103398 -1.9985285,0.247556 -2.2345021,0.247556 l -0.2000385,0 0,-0.213456 z"
     id="path3356"
     inkscape:connector-curvature="0" />
  <path
     style="opacity:1;fill:#000000;fill-opacity:0.30952382;stroke:none;stroke-width:1;stroke-miterlimit:4;stroke-dasharray:none;stroke-opacity:0"
     d="M 1.6420788,20.89142 C 1.4399303,20.77037 1.2226267,20.560294 1.1388036,20.404882 1.0767374,20.289808 1.0666675,19.752462 1.039599,15.111167 0.98962923,6.5431239 0.99403005,2.38965 1.0532235,2.2524378 1.152889,2.0214102 1.3436883,1.7768392 1.499271,1.6806839 l 0.1572302,-0.097174 5.4252501,-0.038064 c 5.2578637,-0.036889 12.3771757,-0.015297 13.0254867,0.039505 0.282022,0.02384 0.337795,0.043688 0.490821,0.1746721 0.09495,0.081277 0.210403,0.2217912 0.256553,0.3122536 0.08263,0.161968 0.08391,0.301116 0.08391,9.1209485 0,5.462591 -0.01565,9.011059 -0.04013,9.096406 -0.04802,0.167426 -0.214955,0.374979 -0.419221,0.521216 l -0.149079,0.106729 -4.893443,0.02684 c -2.691394,0.01476 -6.8625771,0.0291 -9.2692961,0.03186 -4.3709732,0.005 -4.3760194,0.0049 -4.5252721,-0.08445 z m 9.6055302,-1.399782 c 0.136895,-0.03792 0.170409,-0.140025 0.407868,-1.242664 0.10366,-0.481344 0.197744,-0.91441 0.209077,-0.962369 0.01532,-0.06484 0.100208,-0.112836 0.331085,-0.187195 0.170764,-0.055 0.4883,-0.171556 0.705636,-0.259017 l 0.395157,-0.159019 0.480455,0.298458 c 0.506165,0.31443 1.365654,0.805247 1.497561,0.855193 0.06036,0.02285 0.205769,-0.09302 0.645866,-0.514702 0.312382,-0.299308 0.569615,-0.573014 0.57163,-0.608234 0.002,-0.03522 -0.02282,-0.111892 -0.0552,-0.170381 -0.05112,-0.09237 -0.04956,-0.122094 0.01194,-0.226203 0.0677,-0.114611 0.06632,-0.12771 -0.03148,-0.299222 -0.256296,-0.449462 -0.915779,-1.407304 -1.0839,-1.574273 -0.102268,-0.101567 -0.294829,-0.34071 -0.427912,-0.531427 -0.133083,-0.190717 -0.267649,-0.368071 -0.299036,-0.39412 -0.04511,-0.03744 -0.117397,0.04182 -0.34514,0.378488 -0.526217,0.777888 -1.09286,1.274752 -1.877062,1.645915 -1.282974,0.607232 -2.6694204,0.573068 -3.968314,-0.09778 C 6.9418269,14.68178 5.9885834,13.063166 6.0958781,11.503757 6.1790005,10.295669 6.9612044,9.0448075 8.1204754,8.266123 l 0.3948941,-0.2652509 0,-0.7459954 c 0,-0.4324585 -0.016719,-0.7459958 -0.039779,-0.7459958 -0.021878,0 -0.1946187,0.057091 -0.3838677,0.1268694 C 7.8982158,6.7070989 7.7147848,6.7504057 7.6725708,6.7347103 7.6312863,6.7193598 7.1786071,6.4605522 6.6666173,6.1595824 6.1546272,5.8586125 5.712506,5.6123647 5.6841253,5.6123647 c -0.075562,0 -1.1820023,1.1211652 -1.1802202,1.1959274 8.32e-4,0.034905 0.02754,0.1104597 0.05935,0.1678987 0.049431,0.089256 0.048153,0.1247425 -0.00879,0.2441627 L 4.4878297,7.360082 4.7376545,7.7349423 C 4.8750581,7.9411154 5.1252123,8.3216959 5.2935529,8.5806764 L 5.5996261,9.0515502 5.4174514,9.5568736 c -0.1001959,0.2779282 -0.1993762,0.5225254 -0.2204,0.5435494 -0.021024,0.02102 -0.4884974,0.152885 -1.0388295,0.293024 -0.5503322,0.14014 -1.0438288,0.273978 -1.0966592,0.297418 -0.094152,0.04177 -0.096039,0.05681 -0.09521,0.758612 8.286e-4,0.701498 0.052827,1.277693 0.1215026,1.346368 0.019004,0.019 0.493935,0.150451 1.0554019,0.292103 0.561467,0.141652 1.0435415,0.28021 1.0712772,0.307905 0.027735,0.02769 0.1255302,0.269613 0.2173219,0.537594 l 0.1668938,0.487239 -0.5296946,0.829482 c -0.2913321,0.456214 -0.5405653,0.857809 -0.5538518,0.892433 -0.013286,0.03462 0.00122,0.110368 0.032234,0.16832 0.046407,0.08671 0.046585,0.132485 0.00101,0.258529 l -0.055384,0.153163 0.4422514,0.446025 c 0.2432382,0.245315 0.5138991,0.503599 0.6014687,0.573965 l 0.1592174,0.127938 0.43846,-0.245127 c 0.2411531,-0.13482 0.684491,-0.395472 0.9851949,-0.579227 0.3007043,-0.183754 0.5696592,-0.33428 0.5976774,-0.334502 0.028019,-2.13e-4 0.3461069,0.109355 0.7068638,0.243503 0.476772,0.177289 0.6662229,0.267765 0.6936392,0.331261 0.020745,0.04804 0.122725,0.491489 0.2266222,0.985432 0.1038977,0.493943 0.2212918,0.979022 0.2608764,1.077954 l 0.071972,0.179876 0.7317891,-0.0043 c 0.402483,-0.0023 0.779816,-0.01756 0.838516,-0.03382 z m 6.022508,-5.214327 c 0.855353,-0.118158 1.588808,-0.225114 1.629898,-0.237679 0.09787,-0.02993 0.09477,-0.05313 -0.03202,-0.239718 -0.133654,-0.19669 -0.134167,-0.246977 -0.0025,-0.246977 0.05731,0 0.114381,-0.01646 0.126813,-0.03657 0.01243,-0.02012 -0.08942,-0.188213 -0.226348,-0.373549 -0.136925,-0.185335 -0.726204,-0.980544 -1.309511,-1.76713 C 16.873125,10.589097 16.141954,9.5919044 15.831608,9.1596999 L 15.267342,8.3738736 15.594821,8.0064864 c 0.180114,-0.2020628 1.019078,-1.1426547 1.864365,-2.090204 0.845286,-0.9475494 1.543338,-1.7399084 1.551226,-1.7607978 0.0079,-0.020889 -0.04494,-0.049837 -0.117401,-0.064329 -0.07246,-0.014492 -0.131742,-0.044285 -0.131742,-0.066207 0,-0.021922 0.06084,-0.1155685 0.135205,-0.2081033 0.07436,-0.092535 0.124497,-0.1789542 0.111407,-0.1920432 -0.03136,-0.03136 -3.361265,-0.6592949 -3.496207,-0.6592949 -0.02877,0 -1.024169,1.2532038 -2.558432,3.2210695 L 12.12278,7.2517384 12.095395,6.9977106 c -0.01506,-0.1397152 -0.02951,-0.6574602 -0.03212,-1.150544 -0.0026,-0.4930839 -0.01736,-1.3431734 -0.0328,-1.8890877 -0.02743,-0.9702271 -0.03007,-0.9925309 -0.117302,-0.990768 -0.04908,9.919e-4 -0.723202,0.1117239 -1.498048,0.2460712 L 9.0063188,3.4576497 8.9954829,8.8907916 c -0.00988,4.9527664 -0.00478,5.4354654 0.057637,5.4594174 0.1510002,0.05794 2.8707861,-0.290341 2.9226531,-0.374264 0.01641,-0.02656 0.04439,-1.05953 0.06217,-2.295498 0.01778,-1.235969 0.04415,-2.2175372 0.05858,-2.1812637 0.03794,0.09533 3.087189,4.5580657 3.302148,4.8328687 0.0782,0.09997 0.161096,0.160092 0.220739,0.160092 0.05253,0 0.795345,-0.09667 1.650699,-0.214833 z"
     id="path3358"
     inkscape:connector-curvature="0" />
  <path
     style="opacity:1;fill:#000000;fill-opacity:0.30952382;stroke:none;stroke-width:1;stroke-miterlimit:4;stroke-dasharray:none;stroke-opacity:0"
     d="M 1.9156209,20.942885 C 1.6617994,20.911583 1.4032403,20.755342 1.2305215,20.528896 L 1.1108948,20.372058 1.0813534,19.107732 C 1.0651056,18.412353 1.0453419,14.346994 1.0374339,10.0736 L 1.0230557,2.3037931 1.1380942,2.1081117 C 1.2013654,2.0004869 1.3285525,1.8442929 1.4207323,1.761014 L 1.5883319,1.6095978 3.2694912,1.5797352 c 0.9246375,-0.016425 5.1295446,-0.023525 9.3442378,-0.015778 7.382316,0.013569 7.66896,0.017008 7.823596,0.09386 0.08828,0.043877 0.221495,0.1567663 0.296023,0.2508661 0.129641,0.1636842 0.137109,0.1944195 0.172531,0.7100124 0.02036,0.296407 0.03124,4.3907396 0.02416,9.0985169 -0.01449,9.639357 0.02379,8.666045 -0.353854,8.99846 l -0.194435,0.171148 -0.69284,0.02465 c -0.977128,0.03476 -17.5091922,0.06398 -17.7732901,0.03142 z m 9.2887711,-1.440818 c 0.182164,-0.03643 0.20853,-0.105918 0.426887,-1.12502 0.275567,-1.286103 0.170907,-1.123209 0.897068,-1.396202 0.340462,-0.127993 0.658275,-0.242305 0.70625,-0.254025 0.05932,-0.01449 0.298374,0.10735 0.747097,0.380772 0.362928,0.221145 0.80917,0.483938 0.991648,0.583985 l 0.331778,0.181904 0.137825,-0.108193 c 0.24382,-0.191398 1.055688,-1.000186 1.055688,-1.051683 0,-0.0274 -0.02137,-0.08975 -0.04749,-0.138558 -0.03541,-0.06617 -0.03393,-0.129831 0.0058,-0.25031 0.04936,-0.149561 0.04445,-0.176874 -0.06602,-0.367387 -0.221371,-0.381777 -0.882356,-1.339688 -1.034428,-1.499109 -0.083,-0.08701 -0.281377,-0.334002 -0.440831,-0.548862 -0.159453,-0.21486 -0.308358,-0.402053 -0.3309,-0.415984 -0.02254,-0.01393 -0.162508,0.1521 -0.311038,0.368959 -0.322704,0.47116 -0.816488,0.998898 -1.169084,1.249471 -0.493231,0.350516 -1.164919,0.645507 -1.740531,0.764403 -0.407265,0.08412 -1.31575,0.08782 -1.6961139,0.0069 C 7.7720619,15.479788 6.3542434,13.989749 6.1229136,12.157431 6.011194,11.272522 6.2590355,10.381358 6.8588257,9.5113097 7.121175,9.1307501 7.7500431,8.5204869 8.1738395,8.2352017 L 8.4940238,8.0196643 8.5056815,7.2642726 c 0.00846,-0.5483597 -0.00182,-0.7553917 -0.037526,-0.7553917 -0.027051,0 -0.1823279,0.048028 -0.3450593,0.1067281 -0.1627313,0.0587 -0.3364377,0.1067281 -0.3860142,0.1067281 -0.049576,0 -0.5201749,-0.2497438 -1.0457742,-0.5549862 C 6.165709,5.8621085 5.7124646,5.6123647 5.6840988,5.6123647 c -0.028366,0 -0.3092925,0.2582492 -0.6242806,0.5738869 l -0.5727059,0.5738873 0.056431,0.1709874 c 0.045376,0.1374893 0.046067,0.1960092 0.00353,0.2987068 -0.029097,0.070246 -0.038053,0.1528928 -0.019904,0.1836599 0.01815,0.030768 0.2628614,0.4076037 0.5438039,0.8374136 L 5.581776,9.0323788 5.528768,9.2114596 C 5.4326328,9.5362388 5.2259018,10.04366 5.1712313,10.089033 c -0.029543,0.02452 -0.5042971,0.162905 -1.0550094,0.307526 -0.5507123,0.144621 -1.0349144,0.28068 -1.0760048,0.302353 -0.066753,0.03521 -0.074675,0.117677 -0.074387,0.774328 3.032e-4,0.689927 0.051407,1.250869 0.1203084,1.320546 0.016663,0.01685 0.4718116,0.148409 1.0114412,0.292352 0.5396296,0.143942 1.0141633,0.271519 1.0545193,0.283503 0.074005,0.02198 0.1559819,0.209755 0.3326707,0.762016 l 0.096374,0.301227 -0.4454551,0.702017 c -0.7020966,1.106473 -0.6540293,1.012298 -0.5970747,1.169803 0.037291,0.103128 0.037544,0.171822 0.00102,0.276603 l -0.048596,0.139402 0.4859553,0.489618 c 0.2672754,0.26929 0.5391256,0.52825 0.604111,0.575466 l 0.1181558,0.08585 0.3301023,-0.180735 c 0.1815565,-0.0994 0.6338318,-0.361716 1.005057,-0.582915 l 0.6749541,-0.40218 0.1923395,0.06554 c 0.6246647,0.212844 1.1404919,0.435839 1.1903711,0.514602 0.030599,0.04832 0.1256549,0.424046 0.2112342,0.834949 0.1514984,0.727408 0.240925,1.088769 0.3226045,1.303602 l 0.04,0.105209 0.7001261,0 c 0.385069,0 0.762324,-0.01244 0.838346,-0.02764 z m 6.297485,-5.250442 c 0.774846,-0.10678 1.42579,-0.21034 1.446542,-0.230135 0.02152,-0.02052 -0.0115,-0.119991 -0.07682,-0.231456 -0.09639,-0.164469 -0.104061,-0.198767 -0.0484,-0.216282 0.219153,-0.06896 0.209504,-0.05517 0.126837,-0.181343 -0.04215,-0.06433 -0.59596,-0.818169 -1.230692,-1.675196 -1.791681,-2.4191632 -2.419981,-3.3008181 -2.396288,-3.362562 0.012,-0.031262 0.843333,-0.9792732 1.847415,-2.1066918 1.004082,-1.1274188 1.831279,-2.0656541 1.838216,-2.0849676 0.0069,-0.019313 -0.04733,-0.056013 -0.120603,-0.081555 -0.143488,-0.05002 -0.142623,-0.057073 0.03621,-0.295285 0.05777,-0.07695 0.09482,-0.1501188 0.08234,-0.1625982 -0.03795,-0.037953 -3.312625,-0.6580463 -3.4751,-0.6580463 -0.05346,0 -0.599188,0.6779404 -2.361897,2.9340968 -0.572877,0.7332461 -1.047923,1.3268465 -1.055657,1.3191117 -0.0077,-0.00773 -0.03319,-0.9617194 -0.05656,-2.1199664 -0.02337,-1.1582471 -0.05276,-2.1161702 -0.06531,-2.1287181 -0.02063,-0.020625 -2.1310978,0.3187089 -2.7367227,0.4400259 l -0.2490735,0.049894 -0.010114,5.3986955 c -0.00605,3.2275146 0.00566,5.4235756 0.029119,5.4605596 0.03415,0.05385 0.1340287,0.05217 0.7710931,-0.01301 1.0339748,-0.105788 2.1436288,-0.272441 2.1773518,-0.327007 0.0321,-0.05194 0.08497,-2.293003 0.08497,-3.601513 0,-0.7311376 0.0086,-0.8468915 0.05916,-0.7934989 0.03254,0.034382 0.602181,0.8597719 1.265876,1.8341989 1.567817,2.301849 1.954072,2.859922 2.063965,2.982079 0.109944,0.122214 0.06223,0.12567 2.054135,-0.148828 z"
     id="path3360"
     inkscape:connector-curvature="0" />
  <path
     style="opacity:1;fill:#000000;fill-opacity:0.30952382;stroke:none;stroke-width:1;stroke-miterlimit:4;stroke-dasharray:none;stroke-opacity:0"
     d="M 9.6427368,19.377421 C 9.5764711,19.218825 9.4390087,18.640507 9.2396636,17.681651 9.1701964,17.347511 9.1227148,17.209714 9.0667196,17.179747 9.024267,17.157027 8.7019345,17.032119 8.3504256,16.902175 L 7.7113182,16.665912 6.971353,17.110388 c -0.9793784,0.588286 -1.254314,0.725398 -1.3491688,0.672843 -0.040621,-0.02251 -0.3079678,-0.277524 -0.594104,-0.566705 l -0.5202477,-0.525783 0.072949,-0.138482 0.072949,-0.138483 0.4892932,0.490686 c 0.2691113,0.269876 0.5104486,0.490685 0.5363051,0.490685 0.025856,0 0.4968409,-0.276378 1.0466319,-0.614173 l 0.9996201,-0.614172 0.211493,0.10701 c 0.1163212,0.05886 0.432437,0.178601 0.7024795,0.266101 l 0.4909866,0.15909 0.2268523,1.102428 c 0.1247686,0.606335 0.2480571,1.127978 0.2739737,1.159205 0.06646,0.08008 1.6698215,0.0825 1.7361155,0.0026 0.02472,-0.02979 0.148,-0.551425 0.273957,-1.1592 l 0.229012,-1.105046 0.491003,-0.159095 c 0.270052,-0.0875 0.586175,-0.207229 0.702497,-0.266059 l 0.211492,-0.106963 1.00126,0.614125 c 0.550693,0.337769 1.021063,0.614126 1.045267,0.614126 0.02421,0 0.26011,-0.215488 0.524233,-0.478862 0.3059,-0.305032 0.494886,-0.463879 0.520615,-0.437586 0.02222,0.0227 0.05376,0.09539 0.0701,0.161536 0.02739,0.110876 -0.0082,0.156895 -0.45591,0.58982 -0.676157,0.653797 -0.616637,0.624074 -0.931474,0.465145 -0.143631,-0.0725 -0.59581,-0.333532 -1.004844,-0.580061 l -0.743697,-0.448235 -0.724736,0.268066 -0.724737,0.268066 -0.02733,0.149419 c -0.07966,0.435523 -0.415001,1.894553 -0.456246,1.985077 -0.02635,0.05783 -0.07861,0.114101 -0.116143,0.125036 -0.03753,0.01094 -0.399492,0.03317 -0.804366,0.04942 l -0.736135,0.02953 -0.068565,-0.1641 z"
     id="path3362"
     inkscape:connector-curvature="0" />
  <path
     style="opacity:1;fill:#000000;fill-opacity:0.30952382;stroke:none;stroke-width:1;stroke-miterlimit:4;stroke-dasharray:none;stroke-opacity:0"
     d="M 9.6474909,18.933334 C 9.6334216,18.910569 9.5258858,18.42549 9.4085228,17.85538 9.2911595,17.28527 9.1808222,16.783302 9.1633282,16.739895 9.141466,16.68565 8.9651175,16.604606 8.5993162,16.480694 8.3066033,16.38154 7.9806616,16.266244 7.8750008,16.224481 l -0.1921107,-0.07593 -0.978371,0.601955 c -0.538104,0.331076 -0.9994466,0.601955 -1.0252058,0.601955 -0.067867,0 -1.1342298,-1.078938 -1.1342298,-1.147606 0,-0.03179 0.2785604,-0.485197 0.6190231,-1.00758 0.3404627,-0.522384 0.6190231,-0.972223 0.6190231,-0.999642 0,-0.02742 -0.048803,-0.146161 -0.1084506,-0.26387 C 5.6150313,13.81605 5.500939,13.52514 5.4211408,13.287294 5.3413425,13.049447 5.2508651,12.841285 5.2200798,12.824712 5.1892945,12.808139 4.7030411,12.683737 4.1395167,12.548264 3.5759922,12.412791 3.0909129,12.283298 3.0615627,12.260501 c -0.076029,-0.05905 -0.076029,-1.454321 0,-1.513762 0.02935,-0.02295 0.5400933,-0.162505 1.1349846,-0.310129 0.5948914,-0.147625 1.0872453,-0.289694 1.0941199,-0.315709 0.075399,-0.2853279 0.2744217,-0.8288605 0.384674,-1.0505453 L 5.8133491,8.7928626 5.182056,7.8323095 C 4.8348448,7.3040053 4.549485,6.8445908 4.5479232,6.8113883 4.5444522,6.7375982 5.6077646,5.6550559 5.683715,5.6550559 c 0.029823,0 0.4979174,0.2714565 1.0402106,0.6032367 0.9360675,0.572695 0.9917877,0.6005056 1.1005496,0.5492959 0.1259563,-0.059305 0.6138237,-0.2560164 0.6349521,-0.2560164 0.00729,0 0.013251,0.2108788 0.013251,0.4686196 0,0.465448 -7.94e-4,0.4691028 -0.1174009,0.5400335 -0.06457,0.039278 -0.2422728,0.1526792 -0.394894,0.2520033 -0.85451,0.5561049 -1.5319029,1.5032703 -1.8157431,2.5388645 -0.138527,0.505417 -0.1876418,1.362927 -0.1069203,1.866754 0.3016992,1.883071 1.7163173,3.355433 3.5964949,3.7433 0.4577372,0.09443 1.2741652,0.08843 1.7628142,-0.01296 1.252676,-0.259904 2.388172,-1.074077 3.007391,-2.156359 0.07517,-0.131392 0.14968,-0.238384 0.165567,-0.237761 0.01589,6.24e-4 0.172968,0.214093 0.349069,0.474376 0.176102,0.260283 0.363128,0.489723 0.415615,0.509867 0.09015,0.0346 0.917085,1.243893 1.071462,1.566883 l 0.06701,0.140205 -0.552299,0.553528 c -0.303765,0.304441 -0.572472,0.553528 -0.597127,0.553528 -0.02466,0 -0.483266,-0.268954 -1.019133,-0.597677 -0.535869,-0.328723 -0.997444,-0.597677 -1.025724,-0.597677 -0.02828,0 -0.136673,0.04177 -0.240875,0.09281 -0.104201,0.05105 -0.409382,0.163622 -0.678181,0.250167 -0.342673,0.110331 -0.498641,0.181469 -0.521907,0.238045 -0.01825,0.04438 -0.129389,0.547864 -0.246973,1.118853 -0.117584,0.570991 -0.224856,1.05607 -0.238382,1.077954 -0.03322,0.05376 -1.6717919,0.05222 -1.7050531,-0.0016 l 0,0 z"
     id="path3364"
     inkscape:connector-curvature="0" />
  <path
     style="opacity:1;fill:#000000;fill-opacity:0.30952382;stroke:none;stroke-width:1;stroke-miterlimit:4;stroke-dasharray:none;stroke-opacity:0"
     d="m 13.763931,11.390315 -1.769225,-2.5903209 -0.01104,2.3352599 c -0.0086,1.81373 -0.02287,2.339196 -0.06404,2.352882 -0.04282,0.01424 -1.819001,0.24612 -2.6891832,0.351074 l -0.2027834,0.02446 0,-5.1707738 0,-5.1707739 0.096055,-0.022329 c 0.1112608,-0.025864 2.7866493,-0.4915927 2.8239623,-0.4915927 0.01371,0 0.0299,1.0114762 0.03597,2.2477249 l 0.01105,2.2477248 1.629175,-2.0876326 C 14.519927,4.2678178 15.317186,3.2565 15.395568,3.1686431 l 0.142512,-0.15974 1.699531,0.3152717 c 0.934743,0.1733994 1.705504,0.3221266 1.712803,0.3305049 0.0073,0.00838 -0.877559,1.0126075 -1.966352,2.2316204 -1.088793,1.2190129 -1.979623,2.2316501 -1.979623,2.2503045 0,0.018655 0.841486,1.1633138 1.869969,2.5436874 2.023082,2.715269 2.074456,2.785528 2.05161,2.805743 -0.0084,0.0075 -0.716534,0.112145 -1.573561,0.232633 -0.857026,0.120487 -1.616971,0.228721 -1.688765,0.240518 -0.129904,0.02135 -0.139103,0.0089 -1.899761,-2.568871 z"
     id="path3366"
     inkscape:connector-curvature="0" />
  <path
     style="opacity:1;fill:#000000;fill-opacity:0.30952382;stroke:none;stroke-width:1;stroke-miterlimit:4;stroke-dasharray:none;stroke-opacity:0"
     d="m 5.5835335,14.33598 c 0.01545,-0.01545 0.011615,-0.04907 -0.00852,-0.07471 C 5.5548752,14.23563 5.4761681,14.026006 5.4001073,13.795441 5.2973903,13.484073 5.2382648,13.366439 5.1702694,13.338167 5.1199195,13.317232 4.6945029,13.202629 4.2248992,13.083495 2.966465,12.764242 3.0872605,12.828354 3.0279976,12.448234 c -0.023626,-0.151543 -0.018167,-0.180027 0.0289,-0.150777 0.031916,0.01983 0.5357405,0.152707 1.1196099,0.295272 l 1.0615805,0.25921 0.1403613,0.429005 c 0.077199,0.235952 0.1979298,0.543047 0.2682916,0.682433 0.1072482,0.212457 0.1192261,0.265333 0.074089,0.327061 -0.029613,0.0405 -0.078939,0.07363 -0.1096141,0.07363 -0.030675,0 -0.043132,-0.01264 -0.027682,-0.02809 z"
     id="path3368"
     inkscape:connector-curvature="0" />
  <path
     style="opacity:1;fill:#000000;fill-opacity:0.30952382;stroke:none;stroke-width:1;stroke-miterlimit:4;stroke-dasharray:none;stroke-opacity:0"
     d="M 6.0457986,11.268955 C 6.0371603,10.716609 6.2879927,9.8593446 6.624376,9.2915632 6.86891,8.8788143 7.2833929,8.3842532 7.6059224,8.1203818 7.8666632,7.9070616 8.432902,7.5334708 8.4954834,7.5334708 c 0.013392,0 0.018541,0.100157 0.011444,0.222571 L 8.4940238,7.9786129 8.1524939,8.2220887 C 7.9646524,8.3560003 7.7873929,8.467165 7.758584,8.4691213 c -0.028809,0.00196 -0.083741,0.05142 -0.1220707,0.1099185 -0.03833,0.058499 -0.083618,0.097754 -0.1006404,0.087234 -0.034589,-0.021377 -0.3995207,0.3361799 -0.3889503,0.3810908 0.0037,0.015723 -0.042473,0.067288 -0.1026073,0.1145901 -0.060135,0.047302 -0.099009,0.1027122 -0.086387,0.1231341 0.012621,0.020422 -0.01655,0.05827 -0.064826,0.084106 -0.048276,0.025836 -0.077226,0.064042 -0.064335,0.084901 0.012892,0.020859 -0.010584,0.057733 -0.052168,0.081942 -0.041584,0.024209 -0.059891,0.044601 -0.040682,0.045315 0.019209,7.142e-4 -0.00289,0.054411 -0.049118,0.119326 -0.1039187,0.1459404 -0.4363564,0.8211796 -0.4042878,0.8211796 0.012852,0 -5.478e-4,0.02882 -0.029778,0.06404 -0.02923,0.03522 -0.038836,0.06404 -0.021346,0.06404 0.01749,0 0.01187,0.02401 -0.012488,0.05336 -0.024358,0.02935 -0.045922,0.06777 -0.047919,0.08538 -0.002,0.01761 -0.00495,0.03682 -0.00657,0.04269 -0.00583,0.02116 -0.045435,0.271559 -0.079337,0.501622 l -0.0346,0.234802 -0.00467,-0.298839 z"
     id="path3370"
     inkscape:connector-curvature="0" />
  <path
     style="opacity:1;fill:#000000;fill-opacity:0.30952382;stroke:none;stroke-width:1;stroke-miterlimit:4;stroke-dasharray:none;stroke-opacity:0"
     d="M 5.0716394,8.2048501 C 4.5122299,7.3486616 4.509872,7.3440016 4.5736502,7.220668 c 0.035633,-0.068907 0.08018,-0.1075283 0.1003431,-0.086996 0.019944,0.020308 0.2749608,0.4036196 0.5667043,0.8518035 L 5.7711405,8.8003549 5.7024254,8.9327333 5.6337103,9.0651118 5.0716394,8.2048501 Z"
     id="path3372"
     inkscape:connector-curvature="0" />
  <path
     style="opacity:1;fill:#000000;fill-opacity:0.30952382;stroke:none;stroke-width:1;stroke-miterlimit:4;stroke-dasharray:none;stroke-opacity:0"
     d="M 1.6420788,20.865248 C 1.5598981,20.824035 1.4129665,20.708642 1.3155641,20.608821 1.1736772,20.46341 1.1334296,20.386903 1.113122,20.223994 1.0991813,20.112161 1.0755994,16.029106 1.060718,11.150539 L 1.0336607,2.2804175 1.1864112,2.0503586 C 1.270424,1.9238262 1.4106229,1.7657917 1.4979643,1.6991708 l 0.1588026,-0.1211289 9.1819471,0 c 5.05007,0 9.275237,0.015891 9.389258,0.035313 0.253295,0.043146 0.556025,0.3002719 0.630073,0.535158 0.06328,0.2007244 0.100957,12.5087188 0.0485,15.8443128 -0.04118,2.618882 -0.0202,2.466281 -0.37967,2.760858 l -0.199512,0.163493 -9.267934,0.0115 c -8.7652165,0.01088 -9.2760398,0.0074 -9.4173542,-0.06343 z m 9.6224102,-1.37653 c 0.130045,-0.04944 0.169583,-0.172644 0.407107,-1.268542 0.09249,-0.426742 0.19682,-0.831304 0.231842,-0.899027 0.05418,-0.104769 0.151691,-0.155762 0.653803,-0.341897 0.324571,-0.12032 0.619001,-0.229887 0.654289,-0.243482 0.03529,-0.0136 0.208169,0.05858 0.384221,0.160412 1.288601,0.745357 1.683155,0.96857 1.712051,0.96857 0.05251,0 1.039668,-0.918956 1.121781,-1.044276 0.06169,-0.09415 0.06609,-0.137406 0.02627,-0.258078 -0.0356,-0.107854 -0.03531,-0.168378 0.0011,-0.236416 0.02692,-0.0503 0.03792,-0.135381 0.02444,-0.189076 -0.03477,-0.138515 -0.943717,-1.497278 -1.15662,-1.728996 -0.09766,-0.106292 -0.29614,-0.350617 -0.441062,-0.542943 -0.144921,-0.192326 -0.279458,-0.359551 -0.298972,-0.371611 -0.01951,-0.01206 -0.17755,0.174114 -0.351192,0.413721 -0.735149,1.01442 -1.467477,1.551434 -2.580603,1.892349 -0.358397,0.109766 -0.435197,0.117603 -1.152429,0.117603 -0.7154253,0 -0.7946573,-0.008 -1.148411,-0.116439 C 7.9386572,15.367451 6.8908813,14.436018 6.3890325,13.166534 5.9159174,11.969737 6.0532795,10.74564 6.7864081,9.6253419 7.0570804,9.2117256 7.7155293,8.557618 8.1617233,8.2590939 l 0.3507598,-0.2346738 0.00144,-0.7577696 c 0.00114,-0.6015491 -0.010224,-0.7577696 -0.055151,-0.7577696 -0.031127,0 -0.1940604,0.048028 -0.3620739,0.1067281 -0.1680135,0.0587 -0.3314164,0.1067281 -0.3631177,0.1067281 -0.031701,0 -0.4948995,-0.2497438 -1.0293299,-0.5549862 C 6.1698231,5.8621085 5.7100534,5.6123647 5.6825431,5.6123647 c -0.027511,0 -0.3078308,0.2583435 -0.6229338,0.5740965 l -0.5729147,0.5740965 0.049433,0.1610685 c 0.036,0.1172981 0.036983,0.2026251 0.00362,0.3139903 -0.045171,0.1507663 -0.038233,0.1644117 0.4920561,0.9677922 0.2958299,0.4481787 0.5378726,0.835513 0.5378726,0.8607431 0,0.1196857 -0.3615332,0.9958042 -0.4249209,1.0297282 -0.039612,0.0212 -0.5125275,0.157142 -1.0509236,0.302094 -0.5383962,0.144952 -1.0125215,0.281278 -1.0536118,0.302946 -0.066787,0.03522 -0.074619,0.117338 -0.073851,0.77432 8.44e-4,0.722698 0.046418,1.247533 0.1142166,1.315332 0.018939,0.01894 0.4666627,0.15072 0.9949422,0.292847 0.5282795,0.142128 1.0018464,0.276274 1.0523709,0.298104 0.088149,0.03808 0.2661611,0.43041 0.3982978,0.877819 l 0.050433,0.170765 -0.5286848,0.836007 -0.5286845,0.836006 0.00313,0.327492 0.00313,0.327491 0.4687147,0.472435 c 0.2577928,0.25984 0.522934,0.511808 0.5892019,0.55993 l 0.1204875,0.08749 0.2210425,-0.11962 C 6.046536,17.68955 6.4972787,17.42836 6.9266134,17.174918 l 0.7806082,-0.460802 0.2012905,0.06716 c 0.3699991,0.123447 1.0542437,0.401635 1.1295592,0.459236 0.052726,0.04032 0.1418954,0.356353 0.3056543,1.083284 0.1271657,0.564492 0.252833,1.066752 0.2792606,1.116133 0.046009,0.08597 0.079607,0.08978 0.7908658,0.08978 0.408549,0 0.791335,-0.01845 0.850637,-0.04099 z m 6.237388,-5.234796 c 0.774846,-0.108429 1.425838,-0.213229 1.44665,-0.23289 0.02164,-0.02045 -0.0012,-0.101913 -0.05336,-0.190325 -0.113228,-0.191907 -0.115806,-0.27777 -0.0083,-0.27777 0.04557,0 0.09374,-0.0176 0.107032,-0.03911 0.01329,-0.02151 -0.305914,-0.487377 -0.709349,-1.035263 C 16.455694,9.9949443 16.020401,9.3992025 15.673859,8.9056375 l -0.370412,-0.5275631 0.11165,-0.1341359 c 0.06141,-0.073775 0.892248,-1.0139308 1.846312,-2.0892353 0.954064,-1.075305 1.740829,-1.9727136 1.748367,-1.9942415 0.0075,-0.021528 -0.03569,-0.051538 -0.09605,-0.06669 -0.138179,-0.034681 -0.137648,-0.08019 0.0033,-0.283591 0.06219,-0.089738 0.102197,-0.1740338 0.08891,-0.1873238 -0.04209,-0.042095 -3.267997,-0.6573497 -3.446612,-0.6573497 -0.08037,0 -0.489401,0.5010796 -2.446311,2.9968384 -0.509938,0.6503534 -0.943804,1.1927473 -0.964147,1.2053195 -0.02034,0.012573 -0.04906,-0.5099294 -0.06381,-1.1611148 -0.06735,-2.9726927 -0.07095,-3.0410431 -0.160087,-3.0410431 -0.122639,0 -2.8531125,0.4636384 -2.8995712,0.4923515 -0.052307,0.032328 -0.053679,10.7764821 -0.00139,10.8590681 0.045884,0.07246 0.4072451,0.04937 1.5832317,-0.101176 1.087101,-0.139167 1.35572,-0.189917 1.383116,-0.261307 0.01275,-0.03322 0.0359,-1.006457 0.05144,-2.162737 0.01554,-1.15628 0.04037,-2.1254144 0.05516,-2.1536308 0.0152,-0.028992 0.695045,0.9261508 1.563243,2.1962718 0.844988,1.236166 1.610844,2.342422 1.701903,2.458348 l 0.165561,0.210774 0.282697,-0.0262 c 0.155483,-0.01441 0.916662,-0.114916 1.691508,-0.223345 l 1e-6,0 z"
     id="path3374"
     inkscape:connector-curvature="0" />
  <path
     style="opacity:1;fill:#000000;fill-opacity:0.30952382;stroke:none;stroke-width:1;stroke-miterlimit:4;stroke-dasharray:none;stroke-opacity:0"
     d="M 20.845902,1.9637926 C 20.78322,1.8604573 20.650148,1.7217844 20.550186,1.6556305 L 20.368436,1.5353507 11.122658,1.5231975 C 4.3249352,1.5142623 1.8300417,1.5238726 1.69998,1.5594939 1.4983784,1.6147083 1.2446568,1.8083448 1.1207531,2.0015508 L 1.0364363,2.1330281 1.0602711,1.9045253 C 1.0907545,1.6122815 1.2450753,1.3494303 1.4794954,1.1904695 l 0.183929,-0.1247226 6.3396501,-0.029525 c 7.1678295,-0.033382 12.0104015,-0.010752 12.2798685,0.057386 0.221013,0.055886 0.462076,0.2511547 0.569143,0.4610241 0.07181,0.1407665 0.16736,0.6020137 0.123955,0.5983921 -0.0089,-7.424e-4 -0.06746,-0.085896 -0.130139,-0.1892317 z"
     id="path3376"
     inkscape:connector-curvature="0" />
  <path
     style="opacity:1;fill:#000000;fill-opacity:0.30952382;stroke:none;stroke-width:1;stroke-miterlimit:4;stroke-dasharray:none;stroke-opacity:0"
     d="M 1.7090464,20.877101 C 1.6167376,20.843048 1.4541992,20.728173 1.3478499,20.621824 1.1724374,20.446412 1.1516014,20.403589 1.1233966,20.160524 1.1062966,20.013159 1.0784401,15.930151 1.0614931,11.087175 L 1.0306805,2.2817632 1.1947602,2.0435268 c 0.090244,-0.13103 0.2311197,-0.2893673 0.3130575,-0.3518607 l 0.1489778,-0.1136242 9.1819325,0.00312 c 5.050063,0.00172 9.272516,0.017204 9.383228,0.034411 0.286372,0.04451 0.581539,0.3150422 0.634438,0.5814874 0.05749,0.2895708 0.09504,12.135263 0.04844,15.283466 -0.03177,2.146835 -0.05372,2.79029 -0.09959,2.920158 -0.03643,0.103125 -0.13773,0.233213 -0.265962,0.34153 l -0.207126,0.174958 -9.22764,0.01092 c -7.9750181,0.0094 -9.2504223,0.0025 -9.3954736,-0.051 z M 11.263957,19.48892 c 0.130146,-0.04948 0.163351,-0.152177 0.415641,-1.285487 0.128068,-0.575293 0.209802,-0.85436 0.27064,-0.924053 0.05375,-0.06158 0.318531,-0.187064 0.690838,-0.327408 0.707327,-0.266632 0.581796,-0.285904 1.432072,0.219852 0.312629,0.185955 0.717716,0.419901 0.900194,0.519879 l 0.331778,0.181778 0.137825,-0.105184 c 0.0758,-0.05785 0.346873,-0.307782 0.602376,-0.555401 0.43371,-0.42033 0.462335,-0.458274 0.431179,-0.571568 -0.03995,-0.145257 -0.04024,-0.208589 -0.0017,-0.377497 0.0246,-0.107949 -0.0085,-0.18845 -0.210927,-0.512295 -0.385835,-0.617399 -1.121441,-1.612688 -1.600994,-2.166175 l -0.106802,-0.123268 -0.310142,0.42744 c -0.749685,1.033224 -1.588171,1.636965 -2.683031,1.931882 -0.489112,0.13175 -1.6389293,0.132924 -2.1194914,0.0022 C 7.4930546,15.292906 6.122225,13.608422 6.1253995,11.74644 6.1262917,11.223629 6.1985851,10.857007 6.3965235,10.371502 6.7035551,9.6184122 7.3734,8.8165284 8.1432435,8.2804711 l 0.3677202,-0.2560514 0.0022,-0.7577696 c 0.00175,-0.6016952 -0.00945,-0.7577697 -0.054358,-0.7577697 -0.031107,0 -0.1981113,0.048145 -0.3711188,0.1069886 C 7.9081445,6.6769367 7.7354405,6.7111281 7.6853189,6.69553 7.6370222,6.6804997 7.178172,6.4306389 6.6656521,6.1402834 6.1531326,5.8499282 5.7110114,5.6123647 5.6831609,5.6123647 c -0.02785,0 -0.3063669,0.2562576 -0.6189261,0.5694615 l -0.5682893,0.5694611 0.033213,0.1669629 c 0.018267,0.091829 0.031429,0.176568 0.029248,0.1883081 -0.00218,0.01174 -0.016381,0.080041 -0.031556,0.1517806 -0.0244,0.1153497 0.034309,0.2253065 0.5076163,0.9507226 0.2943641,0.4511581 0.5352071,0.8382067 0.5352071,0.8601082 0,0.050188 -0.3292165,0.8993078 -0.3783119,0.9757473 -0.020029,0.03119 -0.4858154,0.179803 -1.0350802,0.330262 -0.5492648,0.150459 -1.0418882,0.292629 -1.0947186,0.315934 -0.09432,0.04161 -0.09604,0.05569 -0.095197,0.77971 8.444e-4,0.725485 0.046359,1.249892 0.1143861,1.317918 0.019032,0.01903 0.4576937,0.149591 0.9748039,0.290129 0.5171102,0.140539 0.9903078,0.274577 1.0515502,0.297861 0.087431,0.03324 0.139282,0.115482 0.241385,0.382863 0.071519,0.18729 0.1524064,0.415196 0.1797489,0.506457 l 0.049714,0.16593 -0.4218565,0.659777 c -0.6765432,1.058104 -0.6263682,0.952708 -0.6327019,1.329033 l -0.00563,0.334351 0.5643296,0.554805 c 0.3103814,0.305143 0.5840429,0.554805 0.608137,0.554805 0.045234,0 0.5211171,-0.266319 1.4749262,-0.825414 l 0.5495516,-0.322132 0.4536927,0.163454 c 0.5920755,0.213311 0.8271369,0.317616 0.8920545,0.395837 0.029113,0.03508 0.1574287,0.517213 0.2851477,1.07141 0.1277185,0.554198 0.2531889,1.046821 0.2788229,1.094718 0.044169,0.08253 0.085456,0.08709 0.7894226,0.08709 0.408548,0 0.791095,-0.01836 0.850104,-0.04079 z m 5.308583,-5.103807 c 1.430767,-0.191118 2.337382,-0.329666 2.373625,-0.362735 0.01951,-0.0178 -0.0045,-0.110735 -0.05336,-0.206514 -0.111105,-0.217784 -0.111446,-0.213755 0.02237,-0.264633 0.139204,-0.05293 0.284569,0.167629 -1.391679,-2.111511 -1.415763,-1.9249668 -2.111472,-2.8863114 -2.175918,-3.0067293 -0.03075,-0.057453 0.188068,-0.3273501 1.094624,-1.350161 2.287402,-2.580734 2.594813,-2.9367808 2.548843,-2.9521042 -0.0258,-0.0086 -0.0825,-0.041667 -0.126018,-0.073485 -0.07579,-0.055419 -0.07398,-0.065261 0.04298,-0.2340356 0.06715,-0.096901 0.111212,-0.1870677 0.09791,-0.2003698 -0.04398,-0.043978 -3.25993,-0.6573277 -3.446542,-0.6573277 -0.07518,0 -0.628625,0.6774654 -2.539034,3.1079885 -0.558556,0.7106235 -0.859481,1.0611452 -0.879619,1.0245899 -0.01683,-0.03056 -0.05224,-0.9669584 -0.07868,-2.0808848 -0.02644,-1.1139262 -0.05867,-2.0359194 -0.07163,-2.0488738 -0.02569,-0.025694 -2.8988014,0.4486099 -2.9648912,0.4894557 -0.052422,0.032398 -0.053915,10.7763811 -0.00151,10.8591441 0.046002,0.07265 0.4041183,0.04951 1.6045765,-0.103677 1.067446,-0.136216 1.334068,-0.186614 1.361192,-0.257298 0.01235,-0.03219 0.03563,-0.938101 0.05173,-2.013132 0.0161,-1.075031 0.04097,-2.0390693 0.05527,-2.1423061 l 0.026,-0.1877032 0.325054,0.4651963 c 0.17878,0.255858 0.877705,1.272061 1.553168,2.258229 0.675463,0.986168 1.294115,1.874679 1.374781,1.97447 0.176926,0.218871 0.134849,0.216254 1.196757,0.07441 l 2e-6,0 z"
     id="path3378"
     inkscape:connector-curvature="0" />
  <path
     style="opacity:1;fill:#000000;fill-opacity:0.30952382;stroke:none;stroke-width:1;stroke-miterlimit:4;stroke-dasharray:none;stroke-opacity:0"
     d="m 15.442024,14.33556 c -0.07631,-0.0824 -0.138746,-0.167334 -0.138746,-0.188732 0,-0.0214 -0.01921,-0.0389 -0.04269,-0.0389 -0.02348,0 -0.04269,-0.02058 -0.04269,-0.04574 0,-0.02516 -0.02401,-0.07252 -0.05336,-0.105246 -0.126687,-0.141269 -0.160092,-0.189559 -0.160092,-0.231432 0,-0.02447 -0.01921,-0.04449 -0.04269,-0.04449 -0.02348,0 -0.04269,-0.02882 -0.04269,-0.06404 0,-0.03522 -0.01921,-0.06404 -0.04269,-0.06404 -0.02348,0 -0.04269,-0.02601 -0.04269,-0.0578 0,-0.03179 -0.04803,-0.109625 -0.106728,-0.172964 -0.0587,-0.06334 -0.106728,-0.133383 -0.106728,-0.155653 0,-0.02227 -0.01921,-0.04049 -0.04269,-0.04049 -0.02348,0 -0.04269,-0.02882 -0.04269,-0.06404 0,-0.03522 -0.01921,-0.06404 -0.04269,-0.06404 -0.02348,0 -0.04269,-0.02882 -0.04269,-0.06404 0,-0.03522 -0.01921,-0.06404 -0.04269,-0.06404 -0.02348,0 -0.04269,-0.02882 -0.04269,-0.06404 0,-0.03522 -0.01921,-0.06404 -0.04269,-0.06404 -0.02348,0 -0.04269,-0.02421 -0.04269,-0.0538 0,-0.02959 -0.04803,-0.105596 -0.106728,-0.168902 -0.0587,-0.06331 -0.106729,-0.135151 -0.106729,-0.159656 0,-0.0245 -0.01921,-0.04455 -0.04269,-0.04455 -0.02348,0 -0.04269,-0.02882 -0.04269,-0.06404 0,-0.03522 -0.01921,-0.06404 -0.04269,-0.06404 -0.02348,0 -0.04269,-0.02882 -0.04269,-0.06404 0,-0.03522 -0.01921,-0.06404 -0.04269,-0.06404 -0.02348,0 -0.04269,-0.02882 -0.04269,-0.06404 0,-0.03522 -0.01921,-0.06404 -0.04269,-0.06404 -0.02348,0 -0.04269,-0.02005 -0.04269,-0.04455 0,-0.0245 -0.04803,-0.09635 -0.106729,-0.159656 -0.0587,-0.06331 -0.106728,-0.139312 -0.106728,-0.168902 0,-0.02959 -0.01921,-0.0538 -0.04269,-0.0538 -0.02348,0 -0.04269,-0.02882 -0.04269,-0.06404 0,-0.03522 -0.01921,-0.06404 -0.04269,-0.06404 -0.02348,0 -0.04269,-0.02882 -0.04269,-0.06404 0,-0.03522 -0.01921,-0.06404 -0.04269,-0.06404 -0.02348,0 -0.04269,-0.02721 -0.04269,-0.06048 0,-0.03326 -0.01666,-0.06688 -0.03702,-0.07471 -0.02036,-0.0078 -0.2903,-0.384555 -0.599869,-0.837175 -0.55813,-0.8160386 -0.562745,-0.8247599 -0.549989,-1.0393045 l 0.01286,-0.2163601 0.130308,0.1854798 c 0.07167,0.1020139 0.835965,1.2173458 1.698433,2.4785148 0.862468,1.261169 1.582613,2.301989 1.600321,2.312933 0.01771,0.01094 0.655821,-0.06552 1.418028,-0.169919 0.762207,-0.1044 1.476946,-0.194273 1.588309,-0.199717 0.111362,-0.0054 0.203036,-0.02911 0.203721,-0.05259 0.0019,-0.0643 0.170133,0.320305 0.170133,0.388883 0,0.05838 -0.05039,0.07724 -0.164487,0.06155 -0.03177,-0.0044 -0.0894,0.0053 -0.128074,0.02141 -0.03867,0.01614 -0.118342,0.03503 -0.177042,0.04196 -0.171073,0.02022 -0.584036,0.07836 -0.885875,0.124716 -0.07633,0.01172 -0.201199,0.0306 -0.277493,0.04196 -0.07629,0.01135 -0.196349,0.02936 -0.266789,0.04001 -0.20997,0.03174 -0.548954,0.07809 -0.640369,0.08755 -0.04696,0.0049 -0.181438,0.0228 -0.298839,0.03986 -0.481859,0.07004 -0.460451,0.07309 -0.60835,-0.08662 z"
     id="path3380"
     inkscape:connector-curvature="0" />
  <path
     style="opacity:1;fill:#000000;fill-opacity:0.30952382;stroke:none;stroke-width:1;stroke-miterlimit:4;stroke-dasharray:none;stroke-opacity:0"
     d="m 10.618726,14.163721 c 0.04154,-0.01082 0.09917,-0.01011 0.128074,0.0016 0.0289,0.01169 -0.0051,0.02055 -0.07552,0.01968 -0.07044,-8.7e-4 -0.09409,-0.01044 -0.05255,-0.02126 z"
     id="path3382"
     inkscape:connector-curvature="0" />
  <path
     style="opacity:1;fill:#000000;fill-opacity:0.30952382;stroke:none;stroke-width:1;stroke-miterlimit:4;stroke-dasharray:none;stroke-opacity:0"
     d="m 15.136096,8.2754263 -0.088,-0.1118693 0.123788,-0.1549509 c 0.169994,-0.212789 3.360065,-3.8026895 3.48712,-3.9241811 0.05624,-0.053781 0.102262,-0.077795 0.102262,-0.053364 0,0.02443 0.02768,0.044419 0.06152,0.044419 0.160781,0 0.103797,0.1944019 -0.109625,0.3739841 -0.06746,0.056765 -0.122657,0.1236639 -0.122657,0.1486637 0,0.025 -0.07204,0.118411 -0.160093,0.2075807 -0.08805,0.08917 -0.232705,0.2447099 -0.321455,0.345645 -0.08875,0.1009351 -0.232833,0.2635819 -0.320185,0.3614373 -0.08735,0.097856 -0.239445,0.2707551 -0.337987,0.3842213 -0.427271,0.491984 -1.264804,1.4413793 -1.424813,1.6151133 -0.06487,0.070441 -0.265801,0.2961705 -0.446501,0.5016221 -0.180699,0.2054516 -0.334582,0.3735484 -0.341961,0.3735484 -0.0074,0 -0.05301,-0.050341 -0.101413,-0.1118694 z"
     id="path3384"
     inkscape:connector-curvature="0" />
  <path
     style="opacity:1;fill:#000000;fill-opacity:0.30952382;stroke:none;stroke-width:1;stroke-miterlimit:4;stroke-dasharray:none;stroke-opacity:0"
     d="M 9.9786926,18.945769 9.6703295,18.92834 9.6285475,18.770094 C 9.6055677,18.68306 9.4976532,18.198811 9.388738,17.693987 9.2798228,17.189163 9.1758555,16.749575 9.1576998,16.717125 9.1395441,16.684674 9.0596338,16.634435 8.9801213,16.605482 8.1540696,16.304691 7.7286441,16.157194 7.6884447,16.157651 7.6619095,16.15795 7.2175556,16.416963 6.7009915,16.73323 6.1844274,17.049497 5.7326792,17.3086 5.6971066,17.309014 5.661534,17.30944 5.394669,17.071434 5.1040733,16.780139 4.7044818,16.379585 4.5809927,16.230339 4.5973628,16.16774 4.6092677,16.122216 4.8487195,15.72178 5.1294779,15.277883 5.4102363,14.833986 5.6752664,14.410122 5.7184336,14.335962 L 5.7969194,14.201125 5.5797027,13.651477 C 5.4602335,13.34917 5.3492602,13.049132 5.3330953,12.984726 5.3169304,12.92032 5.2716384,12.850463 5.2324464,12.829488 5.1932544,12.808513 4.7024628,12.675266 4.1417985,12.533382 3.5811341,12.391499 3.1015142,12.254517 3.0759765,12.22898 c -0.060697,-0.0607 -0.063554,-1.386892 -0.00312,-1.447329 0.023823,-0.02382 0.5233106,-0.170069 1.1099725,-0.324992 0.5866618,-0.154922 1.0779403,-0.294882 1.09173,-0.311022 0.01379,-0.01614 0.088588,-0.2118509 0.1662178,-0.4349126 C 5.5184091,9.4876626 5.6372717,9.1943099 5.7049181,9.0588295 5.8487411,8.7707847 5.8711414,8.8390023 5.4002994,8.1311482 4.8859434,7.3578761 4.5877748,6.8729154 4.5877748,6.8096057 c 0,-0.082074 1.0269915,-1.1118585 1.1088429,-1.1118585 0.037005,0 0.4029993,0.2028105 0.8133208,0.45069 0.4103215,0.2478795 0.8517,0.508978 0.980841,0.5802188 L 7.7255814,6.8581848 8.0632038,6.7239781 c 0.2656216,-0.1055859 0.3451447,-0.1223473 0.3728948,-0.078597 0.047612,0.075064 0.046148,0.6439073 -0.00198,0.7704991 -0.02238,0.058865 -0.2166991,0.2207752 -0.4630869,0.3858532 -1.0681649,0.7156629 -1.7783033,1.8465369 -1.933424,3.0789193 -0.183042,1.454207 0.2115825,2.719904 1.1589885,3.717276 0.5705148,0.600604 1.3042428,1.056259 2.0690061,1.284881 0.461775,0.138046 1.3768305,0.18835 1.9367915,0.106472 1.213634,-0.177456 2.47929,-1.010647 3.136165,-2.064559 0.112813,-0.181002 0.217535,-0.328871 0.232715,-0.328597 0.01518,2.56e-4 0.142866,0.166066 0.283747,0.368428 0.140882,0.202361 0.342598,0.458342 0.448258,0.568846 0.207724,0.217247 0.797529,1.061919 1.027387,1.471343 l 0.142156,0.253207 -0.552753,0.52481 c -0.304014,0.288646 -0.577236,0.525305 -0.607161,0.525909 -0.02992,6.02e-4 -0.452569,-0.237305 -0.939208,-0.528685 -0.486639,-0.29138 -0.934882,-0.552561 -0.996095,-0.580403 -0.115253,-0.05242 -0.106552,-0.05495 -1.169441,0.339752 -0.117401,0.0436 -0.246069,0.08971 -0.285928,0.102467 -0.08617,0.02759 -0.118813,0.141099 -0.339368,1.180261 -0.253473,1.194258 -0.220586,1.109926 -0.432958,1.110228 -0.09888,1.28e-4 -0.333481,0.0072 -0.521322,0.01558 -0.187841,0.0084 -0.480294,0.0075 -0.6498935,-0.0021 l -9e-7,2e-6 z"
     id="path3386"
     inkscape:connector-curvature="0" />
  <path
     style="opacity:1;fill:#000000;fill-opacity:0.30952382;stroke:none;stroke-width:1;stroke-miterlimit:4;stroke-dasharray:none;stroke-opacity:0"
     d="m 15.33428,13.627646 c -0.263724,-0.350767 -3.230196,-4.6779858 -3.26321,-4.7600738 -0.07891,-0.1962106 -0.09771,0.1289502 -0.09771,1.6902268 0,0.958976 -0.01254,2.005097 -0.02787,2.324714 l -0.02787,0.581123 -0.110876,0.02294 c -0.06098,0.01262 -0.648786,0.09038 -1.306232,0.172816 -0.6574448,0.08243 -1.2577904,0.160311 -1.334101,0.173065 l -0.1387466,0.02319 0,-5.1675752 c 0,-2.8421663 0.015158,-5.1675752 0.033684,-5.1675752 0.018526,0 0.5768343,-0.095551 1.2406846,-0.2123358 0.663851,-0.1167848 1.298823,-0.2245165 1.411049,-0.2394039 l 0.204049,-0.027068 0.02811,0.4595012 c 0.01546,0.2527257 0.02811,1.2537717 0.02811,2.2245468 0,0.970775 0.01441,1.7639505 0.03202,1.7626121 0.01761,-0.00134 0.166496,-0.1775418 0.330857,-0.3915628 0.638956,-0.8320091 2.816964,-3.6093276 2.997076,-3.8217643 0.11506,-0.1357113 0.224554,-0.2241291 0.277552,-0.2241291 0.08211,0 3.288503,0.5934712 3.307152,0.6121211 0.0047,0.00475 -0.732179,0.8439215 -1.637612,1.8648346 -2.115695,2.3855359 -2.288939,2.5901661 -2.248964,2.6564088 0.0773,0.1280891 0.691199,0.9649332 2.227197,3.0360136 1.082157,1.45914 1.624854,2.224518 1.591796,2.244949 -0.04491,0.02776 -3.112946,0.476854 -3.233863,0.47337 -0.02727,-7.86e-4 -0.154301,-0.140709 -0.28229,-0.310941 z"
     id="path3388"
     inkscape:connector-curvature="0" />
</svg>
