#define iconify_width 8
#define iconify_height 8
static unsigned char iconify_bits[] = {
   0x00, 0x00, 0x00, 0x1f, 0x1f, 0x1b, 0x1f, 0x1f };
