#define shade_toggled_width 8
#define shade_toggled_height 8
static unsigned char shade_toggled_bits[] = {
   0xff, 0xff, 0x81, 0x81, 0x81, 0x81, 0x81, 0xff };
