<?xml version="1.0" encoding="UTF-8" standalone="no"?>
<svg
   xmlns:dc="http://purl.org/dc/elements/1.1/"
   xmlns:cc="http://creativecommons.org/ns#"
   xmlns:rdf="http://www.w3.org/1999/02/22-rdf-syntax-ns#"
   xmlns:svg="http://www.w3.org/2000/svg"
   xmlns="http://www.w3.org/2000/svg"
   viewBox="0 0 22.75 22"
   height="22"
   width="22.75"
   version="1.1"
   id="svg3444">
  <metadata
     id="metadata3450">
    <rdf:RDF>
      <cc:Work
         rdf:about="">
        <dc:format>image/svg+xml</dc:format>
        <dc:type
           rdf:resource="http://purl.org/dc/dcmitype/StillImage" />
        <dc:title></dc:title>
      </cc:Work>
    </rdf:RDF>
  </metadata>
  <defs
     id="defs3448" />
  <g
     id="g3454"
     transform="translate(-1.5111943,-0.55597012)">
    <path
       id="path3456"
       d="M 0,0.5 0,0 0.5,0 1,0 1.5,0 2,0 2.5,0 3,0 3.5,0 4,0 4.5,0 5,0 5.5,0 6,0 6.5,0 7,0 7.5,0 8,0 8.5,0 9,0 9.5,0 10,0 l 0.5,0 0.5,0 0.5,0 0.5,0 0.5,0 0.5,0 0.5,0 0.5,0 0.5,0 0.5,0 0.5,0 0.5,0 0.5,0 0.5,0 0.5,0 0.5,0 0.5,0 0.5,0 0.5,0 0.5,0 0.5,0 0.5,0 0.5,0 0.5,0 0.5,0 0.5,0 0.5,0 0.5,0 0.5,0 0.5,0 0.5,0 0.5,0 0.5,0 0.5,0 0,0.5 0,0.5 0,0.5 0,0.5 0,0.5 0,0.5 0,0.5 0,0.5 0,0.5 0,0.5 0,0.5 0,0.5 0,0.5 0,0.5 0,0.5 0,0.5 0,0.5 0,0.5 0,0.5 0,0.5 0,0.5 0,0.5 0,0.5 0,0.5 0,0.5 0,0.5 0,0.5 0,0.5 0,0.5 0,0.5 0,0.5 0,0.5 0,0.5 0,0.5 0,0.5 0,0.5 0,0.5 0,0.5 0,0.5 0,0.5 0,0.5 0,0.5 0,0.5 0,0.5 0,0.5 0,0.5 0,0.5 0,0.5 -0.5,0 L 26,24 25.5,24 25,24 24.5,24 24,24 23.5,24 23,24 22.5,24 22,24 21.5,24 21,24 20.5,24 20,24 19.5,24 19,24 18.5,24 18,24 17.5,24 17,24 16.5,24 16,24 15.5,24 15,24 14.5,24 14,24 13.5,24 13,24 12.5,24 12,24 11.5,24 11,24 10.5,24 10,24 9.5,24 9,24 8.5,24 8,24 7.5,24 7,24 6.5,24 6,24 5.5,24 5,24 4.5,24 4,24 3.5,24 3,24 2.5,24 2,24 1.5,24 1,24 0.5,24 0,24 0,23.5 0,23 0,22.5 0,22 0,21.5 0,21 0,20.5 0,20 0,19.5 0,19 0,18.5 0,18 0,17.5 0,17 0,16.5 0,16 0,15.5 0,15 0,14.5 0,14 0,13.5 0,13 0,12.5 0,12 0,11.5 0,11 0,10.5 0,10 0,9.5 0,9 0,8.5 0,8 0,7.5 0,7 0,6.5 0,6 0,5.5 0,5 0,4.5 0,4 0,3.5 0,3 0,2.5 0,2 0,1.5 0,1 0,0.5 M 10.5,22 Q 11,22 11,21.5 l 0,-0.5 0.5,0 Q 12,21 12,20.5 l 0,-0.5 0,-0.5 q 0,-0.5 0,-1 0,-0.5 0,-1 l 0,-0.5 0.5,0 0.5,0 0.5,0 Q 14,17 14,16.5 l 0,-0.5 0.5,0 q 0.5,0 0.5,0.5 l 0,0.5 0,0.5 0,0.5 0,0.5 0,0.5 0,0.5 0,0.5 0,0.5 q 0,0.5 0.5,0.5 l 0.5,0 0.5,0 0.5,0 0.5,0 Q 18,21 18,20.5 l 0,-0.5 0,-0.5 0,-0.5 0,-0.5 0,-0.5 0,-0.5 q 0,-0.5 0,-1 l 0,-0.5 0.5,0 0.5,0 0.5,0 0.5,0 0.5,0 0.5,0 0.5,0 Q 22,16 22,15.5 l 0,-0.5 0.5,0 Q 23,15 23,14.5 23,14 22.5,14 L 22,14 22,13.5 Q 22,13 21.5,13 l -0.5,0 -0.5,0 q -0.5,0 -1,0 l -0.5,0 -0.5,0 -0.5,0 0,-0.5 q 0,-0.5 0,-1 0,-0.5 0,-1 l 0,-0.5 0.5,0 0.5,0 0.5,0 0.5,0 0.5,0 Q 21,10 21,9.5 L 21,9 21.5,9 22,9 22.5,9 23,9 23.5,9 Q 24,9 24,8.5 L 24,8 24,7.5 Q 24,7 23.5,7 L 23,7 22.5,7 22,7 21.5,7 Q 21,7 20.5,7 20,7 19.5,7 19,7 18.5,7 L 18,7 18,6.5 18,6 18,5.5 18,5 18,4.5 18,4 18,3.5 18,3 18,2.5 Q 18,2 17.5,2 L 17,2 16.5,2 16,2 15.5,2 Q 15,2 15,2.5 L 15,3 15,3.5 15,4 15,4.5 15,5 15,5.5 15,6 15,6.5 15,7 14.5,7 Q 14,7 14,7.5 L 14,8 13.5,8 13,8 12.5,8 12,8 12,7.5 12,7 12,6.5 Q 12,6 11.5,6 L 11,6 11,5.5 11,5 11,4.5 Q 11,4 10.5,4 L 10,4 9.5,4 9,4 8.5,4 Q 8,4 8,4.5 L 8,5 8,5.5 8,6 8,6.5 8,7 8,7.5 8,8 7.5,8 7,8 6.5,8 6,8 5.5,8 Q 5,8 5,8.5 L 5,9 4.5,9 Q 4,9 4,9.5 L 4,10 4,10.5 Q 4,11 4.5,11 L 5,11 5,11.5 Q 5,12 5.5,12 L 6,12 6.5,12 7,12 7.5,12 8,12 8,12.5 Q 8,13 8.5,13 L 9,13 9,13.5 9,14 8.5,14 Q 8,14 7.5,14 L 7,14 6.5,14 6,14 5.5,14 5,14 4.5,14 4,14 3.5,14 3,14 2.5,14 Q 2,14 2,14.5 L 2,15 2,15.5 2,16 2,16.5 Q 2,17 2.5,17 l 0.5,0 0.5,0 0.5,0 0.5,0 q 0.5,0 1,0 0.5,0 1,0 0.5,0 1,0 L 8,17 8,17.5 Q 8,18 8.5,18 L 9,18 9,18.5 9,19 9,19.5 9,20 9,20.5 9,21 9,21.5 Q 9,22 9.5,22 l 0.5,0 0.5,0"
       style="fill:#000000;fill-opacity:0" />
    <path
       id="path3458"
       d="M 15,2.5 Q 15,2 15.5,2 L 16,2 16,2.5 16,3 15.5,3 15,3 15,2.5"
       style="fill:#1c1c1c;fill-opacity:0.28235294" />
    <path
       id="path3460"
       d="M 16,2.5 16,2 16.5,2 17,2 17,2.5 17,3 16.5,3 16,3 16,2.5"
       style="fill:#1c1c1c;fill-opacity:0.84313725" />
    <path
       id="path3462"
       d="M 17,2.5 17,2 17.5,2 Q 18,2 18,2.5 L 18,3 17.5,3 17,3 17,2.5"
       style="fill:#1e1e1e;fill-opacity:0.16470588" />
    <path
       id="path3464"
       d="M 15,3.5 15,3 15.5,3 16,3 16,3.5 16,4 15.5,4 15,4 15,3.5"
       style="fill:#1e1e1e;fill-opacity:0.72941176" />
    <path
       id="path3466"
       d="M 16,3.5 16,3 16.5,3 17,3 17,3.5 17,4 17,4.5 17,5 17,5.5 17,6 17,6.5 17,7 17,7.5 Q 17,8 17.5,8 l 0.5,0 0.5,0 q 0.5,0 1,0 L 20,8 20,8.5 20,9 19.5,9 19,9 18.5,9 18,9 17.5,9 Q 17,9 17,9.5 l 0,0.5 0,0.5 q 0,0.5 0,1 0,0.5 0,1 l 0,0.5 0,0.5 q 0,0.5 0.5,0.5 l 0.5,0 0.5,0 0.5,0 0.5,0 q 0.5,0 1,0 l 0.5,0 0.5,0 0.5,0 0,0.5 0,0.5 -0.5,0 -0.5,0 -0.5,0 -0.5,0 -0.5,0 -0.5,0 -0.5,0 Q 18,15 18,15.5 l 0,0.5 -0.5,0 q -0.5,0 -0.5,0.5 0,0.5 0,1 l 0,0.5 0,0.5 0,0.5 0,0.5 0,0.5 -0.5,0 -0.5,0 0,-0.5 0,-0.5 0,-0.5 0,-0.5 0,-0.5 Q 16,17 15.5,17 L 15,17 15,16.5 Q 15,16 14.5,16 L 14,16 13.5,16 13,16 12.5,16 12,16 11.5,16 Q 11,16 11,16.5 l 0,0.5 0,0.5 q 0,0.5 0,1 0,0.5 0,1 l 0,0.5 0,0.5 0,0.5 -0.5,0 -0.5,0 0,-0.5 0,-0.5 0,-0.5 0,-0.5 0,-0.5 Q 10,18 9.5,18 L 9,18 9,17.5 Q 9,17 8.5,17 L 8,17 7.5,17 Q 7,17 6.5,17 6,17 5.5,17 5,17 4.5,17 L 4,17 4,16.5 Q 4,16 3.5,16 L 3,16 3,15.5 3,15 3.5,15 4,15 4.5,15 5,15 5.5,15 6,15 6.5,15 7,15 7.5,15 Q 8,15 8.5,15 9,15 9,14.5 L 9,14 9,13.5 9,13 9,12.5 9,12 9,11.5 Q 9,11 8.5,11 L 8,11 7.5,11 7,11 6.5,11 6,11 6,10.5 6,10 6,9.5 6,9 6.5,9 7,9 7.5,9 8,9 8.5,9 Q 9,9 9,8.5 L 9,8 9,7.5 9,7 9,6.5 9,6 9,5.5 9,5 9.5,5 10,5 10,5.5 10,6 10,6.5 Q 10,7 10.5,7 L 11,7 11,7.5 11,8 11,8.5 Q 11,9 11.5,9 L 12,9 12.5,9 13,9 13.5,9 Q 14,9 14,8.5 L 14,8 14.5,8 Q 15,8 15,7.5 L 15,7 15,6.5 15,6 15.5,6 Q 16,6 16,5.5 L 16,5 16,4.5 16,4 16,3.5 M 14.5,15 Q 15,15 15,14.5 l 0,-0.5 0,-0.5 0,-0.5 0,-0.5 q 0,-0.5 0,-1 L 15,11 15,10.5 Q 15,10 14.5,10 L 14,10 13.5,10 13,10 12.5,10 12,10 11.5,10 Q 11,10 11,10.5 l 0,0.5 0,0.5 0,0.5 0,0.5 0,0.5 0,0.5 q 0,0.5 0.5,0.5 l 0.5,0 0.5,0 0.5,0 0.5,0 0.5,0 0,0.5 q 0,0.5 0.5,0.5"
       style="fill:#1e1e1e;fill-opacity:1" />
    <path
       id="path3468"
       d="M 17,3.5 17,3 17.5,3 18,3 18,3.5 18,4 17.5,4 17,4 17,3.5"
       style="fill:#1e1e1e;fill-opacity:0.4627451" />
    <path
       id="path3470"
       d="M 8,4.5 Q 8,4 8.5,4 L 9,4 9,4.5 9,5 8.5,5 8,5 8,4.5"
       style="fill:#1d1d1d;fill-opacity:0.44705882" />
    <path
       id="path3472"
       d="M 9,4.5 9,4 9.5,4 10,4 10,4.5 10,5 9.5,5 9,5 9,4.5"
       style="fill:#1e1e1e;fill-opacity:0.95686275" />
    <path
       id="path3474"
       d="M 10,4.5 10,4 10.5,4 Q 11,4 11,4.5 L 11,5 10.5,5 10,5 10,4.5"
       style="fill:#1f1f1f;fill-opacity:0.39215686" />
    <path
       id="path3476"
       d="M 15,4.5 15,4 15.5,4 16,4 16,4.5 16,5 15.5,5 15,5 15,4.5"
       style="fill:#1c1c1c;fill-opacity:0.91372549" />
    <path
       id="path3478"
       d="M 17,4.5 17,4 17.5,4 18,4 18,4.5 18,5 17.5,5 17,5 17,4.5"
       style="fill:#1d1d1d;fill-opacity:0.2745098" />
    <path
       id="path3480"
       d="M 8,5.5 8,5 8.5,5 9,5 9,5.5 9,6 8.5,6 8,6 8,5.5"
       style="fill:#1f1f1f;fill-opacity:0.91764706" />
    <path
       id="path3482"
       d="M 10,5.5 10,5 10.5,5 11,5 11,5.5 11,6 10.5,6 10,6 10,5.5"
       style="fill:#1e1e1e;fill-opacity:0.84705882" />
    <path
       id="path3484"
       d="M 15,5.5 15,5 15.5,5 16,5 16,5.5 Q 16,6 15.5,6 L 15,6 15,5.5"
       style="fill:#1d1d1d;fill-opacity:0.97647059" />
    <path
       id="path3486"
       d="M 17,5.5 17,5 17.5,5 18,5 18,5.5 18,6 17.5,6 17,6 17,5.5"
       style="fill:#1e1e1e;fill-opacity:0.16862745" />
    <path
       id="path3488"
       d="M 8,6.5 8,6 8.5,6 9,6 9,6.5 9,7 8.5,7 8,7 8,6.5"
       style="fill:#1e1e1e;fill-opacity:0.84705882" />
    <path
       id="path3490"
       d="M 10,6.5 10,6 10.5,6 11,6 11,6.5 11,7 10.5,7 Q 10,7 10,6.5"
       style="fill:#1e1e1e;fill-opacity:0.99607843" />
    <path
       id="path3492"
       d="M 11,6.5 11,6 11.5,6 Q 12,6 12,6.5 L 12,7 11.5,7 11,7 11,6.5"
       style="fill:#2b2b2b;fill-opacity:0.02352941" />
    <path
       id="path3494"
       d="M 17,6.5 17,6 17.5,6 18,6 18,6.5 18,7 17.5,7 17,7 17,6.5"
       style="fill:#212121;fill-opacity:0.12156863" />
    <path
       id="path3496"
       d="M 8,7.5 8,7 8.5,7 9,7 9,7.5 9,8 8.5,8 8,8 8,7.5"
       style="fill:#1e1e1e;fill-opacity:0.76078431" />
    <path
       id="path3498"
       d="M 11,7.5 11,7 11.5,7 12,7 12,7.5 12,8 11.5,8 11,8 11,7.5"
       style="fill:#232323;fill-opacity:0.08627451" />
    <path
       id="path3500"
       d="M 14,7.5 Q 14,7 14.5,7 L 15,7 15,7.5 Q 15,8 14.5,8 L 14,8 14,7.5"
       style="fill:#222222;fill-opacity:0.11764706" />
    <path
       id="path3502"
       d="M 17,7.5 17,7 17.5,7 18,7 18,7.5 18,8 17.5,8 Q 17,8 17,7.5"
       style="fill:#1e1e1e;fill-opacity:0.69411765" />
    <path
       id="path3504"
       d="M 18,7.5 18,7 18.5,7 q 0.5,0 1,0 0.5,0 1,0 0.5,0 1,0 L 22,7 22,7.5 22,8 21.5,8 21,8 20.5,8 20,8 19.5,8 Q 19,8 18.5,8 L 18,8 18,7.5"
       style="fill:#1e1e1e;fill-opacity:0.62745098" />
    <path
       id="path3506"
       d="M 22,7.5 22,7 22.5,7 23,7 23,7.5 23,8 22.5,8 22,8 22,7.5"
       style="fill:#1d1d1d;fill-opacity:0.58039216" />
    <path
       id="path3508"
       d="M 23,7.5 23,7 23.5,7 Q 24,7 24,7.5 L 24,8 23.5,8 23,8 23,7.5"
       style="fill:#1e1e1e;fill-opacity:0.23137255" />
    <path
       id="path3510"
       d="M 5,8.5 Q 5,8 5.5,8 L 6,8 6,8.5 6,9 5.5,9 5,9 5,8.5"
       style="fill:#1f1f1f;fill-opacity:0.25490196" />
    <path
       id="path3512"
       d="M 6,8.5 6,8 6.5,8 7,8 7,8.5 7,9 6.5,9 6,9 6,8.5"
       style="fill:#1e1e1e;fill-opacity:0.63921569" />
    <path
       id="path3514"
       d="M 7,8.5 7,8 7.5,8 8,8 8,8.5 8,9 7.5,9 7,9 7,8.5"
       style="fill:#1e1e1e;fill-opacity:0.79215686" />
    <path
       id="path3516"
       d="M 8,8.5 8,8 8.5,8 9,8 9,8.5 Q 9,9 8.5,9 L 8,9 8,8.5"
       style="fill:#1e1e1e;fill-opacity:0.95686275" />
    <path
       id="path3518"
       d="M 11,8.5 11,8 11.5,8 12,8 12,8.5 12,9 11.5,9 Q 11,9 11,8.5"
       style="fill:#1e1e1e;fill-opacity:0.8627451" />
    <path
       id="path3520"
       d="M 12,8.5 12,8 12.5,8 13,8 13,8.5 13,9 12.5,9 12,9 12,8.5"
       style="fill:#1e1e1e;fill-opacity:0.84705882" />
    <path
       id="path3522"
       d="M 13,8.5 13,8 13.5,8 14,8 14,8.5 Q 14,9 13.5,9 L 13,9 13,8.5"
       style="fill:#1e1e1e;fill-opacity:0.89803922" />
    <path
       id="path3524"
       d="M 20,8.5 20,8 20.5,8 21,8 21,8.5 21,9 20.5,9 20,9 20,8.5"
       style="fill:#1e1e1e;fill-opacity:0.94901961" />
    <path
       id="path3526"
       d="M 21,8.5 21,8 21.5,8 22,8 22,8.5 22,9 21.5,9 21,9 21,8.5"
       style="fill:#1d1d1d;fill-opacity:0.74901961" />
    <path
       id="path3528"
       d="M 22,8.5 22,8 22.5,8 23,8 23,8.5 23,9 22.5,9 22,9 22,8.5"
       style="fill:#1e1e1e;fill-opacity:0.50196078" />
    <path
       id="path3530"
       d="M 23,8.5 23,8 23.5,8 24,8 24,8.5 Q 24,9 23.5,9 L 23,9 23,8.5"
       style="fill:#1b1b1b;fill-opacity:0.10980392" />
    <path
       id="path3532"
       d="M 4,9.5 Q 4,9 4.5,9 L 5,9 5,9.5 5,10 4.5,10 4,10 4,9.5"
       style="fill:#202020;fill-opacity:0.21960784" />
    <path
       id="path3534"
       d="M 5,9.5 5,9 5.5,9 6,9 6,9.5 6,10 5.5,10 5,10 5,9.5"
       style="fill:#1e1e1e;fill-opacity:0.99607843" />
    <path
       id="path3536"
       d="M 17,9.5 Q 17,9 17.5,9 l 0.5,0 0,0.5 0,0.5 -0.5,0 -0.5,0 0,-0.5"
       style="fill:#1f1f1f;fill-opacity:0.52156863" />
    <path
       id="path3538"
       d="M 18,9.5 18,9 18.5,9 19,9 19,9.5 19,10 18.5,10 18,10 18,9.5"
       style="fill:#1d1d1d;fill-opacity:0.31372549" />
    <path
       id="path3540"
       d="M 19,9.5 19,9 19.5,9 20,9 20,9.5 20,10 19.5,10 19,10 19,9.5"
       style="fill:#1c1c1c;fill-opacity:0.14117647" />
    <path
       id="path3542"
       d="M 20,9.5 20,9 20.5,9 21,9 21,9.5 Q 21,10 20.5,10 L 20,10 20,9.5"
       style="fill:#000000;fill-opacity:0.00392157" />
    <path
       id="path3544"
       d="M 4,10.5 4,10 4.5,10 5,10 5,10.5 5,11 4.5,11 Q 4,11 4,10.5"
       style="fill:#212121;fill-opacity:0.09019608" />
    <path
       id="path3546"
       d="M 5,10.5 5,10 5.5,10 6,10 6,10.5 6,11 5.5,11 5,11 5,10.5"
       style="fill:#1d1d1d;fill-opacity:0.94509804" />
    <path
       id="path3548"
       d="M 11,10.5 Q 11,10 11.5,10 l 0.5,0 0,0.5 0,0.5 -0.5,0 -0.5,0 0,-0.5"
       style="fill:#1d1d1d;fill-opacity:0.64705882" />
    <path
       id="path3550"
       d="m 12,10.5 0,-0.5 0.5,0 0.5,0 0,0.5 0,0.5 -0.5,0 -0.5,0 0,-0.5"
       style="fill:#202020;fill-opacity:0.21960784" />
    <path
       id="path3552"
       d="m 13,10.5 0,-0.5 0.5,0 0.5,0 0,0.5 0,0.5 -0.5,0 -0.5,0 0,-0.5"
       style="fill:#1c1c1c;fill-opacity:0.07058824" />
    <path
       id="path3554"
       d="m 14,10.5 0,-0.5 0.5,0 q 0.5,0 0.5,0.5 l 0,0.5 -0.5,0 -0.5,0 0,-0.5"
       style="fill:#2b2b2b;fill-opacity:0.02352941" />
    <path
       id="path3556"
       d="m 17,10.5 0,-0.5 0.5,0 0.5,0 0,0.5 q 0,0.5 0,1 0,0.5 0,1 l 0,0.5 -0.5,0 -0.5,0 0,-0.5 q 0,-0.5 0,-1 0,-0.5 0,-1"
       style="fill:#1b1b1b;fill-opacity:0.10980392" />
    <path
       id="path3558"
       d="M 5,11.5 5,11 5.5,11 6,11 6,11.5 6,12 5.5,12 Q 5,12 5,11.5"
       style="fill:#1f1f1f;fill-opacity:0.12941176" />
    <path
       id="path3560"
       d="M 6,11.5 6,11 6.5,11 7,11 7,11.5 7,12 6.5,12 6,12 6,11.5"
       style="fill:#222222;fill-opacity:0.11764706" />
    <path
       id="path3562"
       d="M 7,11.5 7,11 7.5,11 8,11 8,11.5 8,12 7.5,12 7,12 7,11.5"
       style="fill:#242424;fill-opacity:0.02745098" />
    <path
       id="path3564"
       d="M 8,11.5 8,11 8.5,11 Q 9,11 9,11.5 L 9,12 8.5,12 8,12 8,11.5"
       style="fill:#1e1e1e;fill-opacity:0.33333333" />
    <path
       id="path3566"
       d="m 11,11.5 0,-0.5 0.5,0 0.5,0 0,0.5 0,0.5 -0.5,0 -0.5,0 0,-0.5"
       style="fill:#222222;fill-opacity:0.11764706" />
    <path
       id="path3568"
       d="m 12,11.5 0,-0.5 0.5,0 0.5,0 0.5,0 0.5,0 0.5,0 0.5,0 0,0.5 q 0,0.5 0,1 l 0,0.5 -0.5,0 -0.5,0 -0.5,0 -0.5,0 -0.5,0 -0.5,0 0,-0.5 0,-0.5 0,-0.5"
       style="fill:#000000;fill-opacity:0" />
    <path
       id="path3570"
       d="M 8,12.5 8,12 8.5,12 9,12 9,12.5 9,13 8.5,13 Q 8,13 8,12.5"
       style="fill:#272727;fill-opacity:0.05098039" />
    <path
       id="path3572"
       d="m 11,12.5 0,-0.5 0.5,0 0.5,0 0,0.5 0,0.5 -0.5,0 -0.5,0 0,-0.5"
       style="fill:#1c1c1c;fill-opacity:0.14117647" />
    <path
       id="path3574"
       d="m 11,13.5 0,-0.5 0.5,0 0.5,0 0,0.5 0,0.5 -0.5,0 Q 11,14 11,13.5"
       style="fill:#1d1d1d;fill-opacity:0.44313725" />
    <path
       id="path3576"
       d="m 12,13.5 0,-0.5 0.5,0 0.5,0 0,0.5 0,0.5 -0.5,0 -0.5,0 0,-0.5"
       style="fill:#1e1e1e;fill-opacity:0.16470588" />
    <path
       id="path3578"
       d="m 13,13.5 0,-0.5 0.5,0 0.5,0 0,0.5 0,0.5 -0.5,0 -0.5,0 0,-0.5"
       style="fill:#151515;fill-opacity:0.04705882" />
    <path
       id="path3580"
       d="m 14,13.5 0,-0.5 0.5,0 0.5,0 0,0.5 0,0.5 -0.5,0 -0.5,0 0,-0.5"
       style="fill:#2b2b2b;fill-opacity:0.02352941" />
    <path
       id="path3582"
       d="m 17,13.5 0,-0.5 0.5,0 0.5,0 0,0.5 0,0.5 -0.5,0 Q 17,14 17,13.5"
       style="fill:#1c1c1c;fill-opacity:0.67058824" />
    <path
       id="path3584"
       d="m 18,13.5 0,-0.5 0.5,0 0.5,0 0,0.5 0,0.5 -0.5,0 -0.5,0 0,-0.5"
       style="fill:#1f1f1f;fill-opacity:0.38431373" />
    <path
       id="path3586"
       d="m 19,13.5 0,-0.5 0.5,0 q 0.5,0 1,0 l 0.5,0 0,0.5 0,0.5 -0.5,0 q -0.5,0 -1,0 l -0.5,0 0,-0.5"
       style="fill:#1e1e1e;fill-opacity:0.29803922" />
    <path
       id="path3588"
       d="m 21,13.5 0,-0.5 0.5,0 q 0.5,0 0.5,0.5 l 0,0.5 -0.5,0 -0.5,0 0,-0.5"
       style="fill:#1f1f1f;fill-opacity:0.25882353" />
    <path
       id="path3590"
       d="M 2,14.5 Q 2,14 2.5,14 L 3,14 3,14.5 3,15 2.5,15 2,15 2,14.5"
       style="fill:#151515;fill-opacity:0.04705882" />
    <path
       id="path3592"
       d="M 3,14.5 3,14 3.5,14 4,14 4,14.5 4,15 3.5,15 3,15 3,14.5"
       style="fill:#1e1e1e;fill-opacity:0.49411765" />
    <path
       id="path3594"
       d="M 4,14.5 4,14 4.5,14 5,14 5,14.5 5,15 4.5,15 4,15 4,14.5"
       style="fill:#1e1e1e;fill-opacity:0.7254902" />
    <path
       id="path3596"
       d="M 5,14.5 5,14 5.5,14 6,14 6,14.5 6,15 5.5,15 5,15 5,14.5"
       style="fill:#1c1c1c;fill-opacity:0.80784314" />
    <path
       id="path3598"
       d="M 6,14.5 6,14 6.5,14 7,14 7,14.5 7,15 6.5,15 6,15 6,14.5"
       style="fill:#1c1c1c;fill-opacity:0.84313725" />
    <path
       id="path3600"
       d="M 7,14.5 7,14 7.5,14 q 0.5,0 1,0 L 9,14 9,14.5 Q 9,15 8.5,15 8,15 7.5,15 L 7,15 7,14.5"
       style="fill:#1e1e1e;fill-opacity:0.84705882" />
    <path
       id="path3602"
       d="m 14,14.5 0,-0.5 0.5,0 0.5,0 0,0.5 Q 15,15 14.5,15 14,15 14,14.5"
       style="fill:#1d1d1d;fill-opacity:0.98039216" />
    <path
       id="path3604"
       d="m 22,14.5 0,-0.5 0.5,0 Q 23,14 23,14.5 23,15 22.5,15 l -0.5,0 0,-0.5"
       style="fill:#222222;fill-opacity:0.11764706" />
    <path
       id="path3606"
       d="M 2,15.5 2,15 2.5,15 3,15 3,15.5 3,16 2.5,16 2,16 2,15.5"
       style="fill:#1f1f1f;fill-opacity:0.45490196" />
    <path
       id="path3608"
       d="M 18,15.5 Q 18,15 18.5,15 l 0.5,0 0,0.5 0,0.5 -0.5,0 -0.5,0 0,-0.5"
       style="fill:#1e1e1e;fill-opacity:0.99215686" />
    <path
       id="path3610"
       d="m 19,15.5 0,-0.5 0.5,0 0.5,0 0,0.5 0,0.5 -0.5,0 -0.5,0 0,-0.5"
       style="fill:#1d1d1d;fill-opacity:0.94117647" />
    <path
       id="path3612"
       d="m 20,15.5 0,-0.5 0.5,0 0.5,0 0,0.5 0,0.5 -0.5,0 -0.5,0 0,-0.5"
       style="fill:#1f1f1f;fill-opacity:0.78431373" />
    <path
       id="path3614"
       d="m 21,15.5 0,-0.5 0.5,0 0.5,0 0,0.5 Q 22,16 21.5,16 l -0.5,0 0,-0.5"
       style="fill:#1e1e1e;fill-opacity:0.39607843" />
    <path
       id="path3616"
       d="M 2,16.5 2,16 2.5,16 3,16 3,16.5 3,17 2.5,17 Q 2,17 2,16.5"
       style="fill:#1f1f1f;fill-opacity:0.12941176" />
    <path
       id="path3618"
       d="M 3,16.5 3,16 3.5,16 Q 4,16 4,16.5 L 4,17 3.5,17 3,17 3,16.5"
       style="fill:#1e1e1e;fill-opacity:0.89019608" />
    <path
       id="path3620"
       d="M 11,16.5 Q 11,16 11.5,16 l 0.5,0 0,0.5 0,0.5 -0.5,0 -0.5,0 0,-0.5"
       style="fill:#1e1e1e;fill-opacity:0.43921569" />
    <path
       id="path3622"
       d="m 12,16.5 0,-0.5 0.5,0 0.5,0 0,0.5 0,0.5 -0.5,0 -0.5,0 0,-0.5"
       style="fill:#202020;fill-opacity:0.21960784" />
    <path
       id="path3624"
       d="m 13,16.5 0,-0.5 0.5,0 0.5,0 0,0.5 Q 14,17 13.5,17 l -0.5,0 0,-0.5"
       style="fill:#202020;fill-opacity:0.0627451" />
    <path
       id="path3626"
       d="M 17,16.5 Q 17,16 17.5,16 l 0.5,0 0,0.5 q 0,0.5 0,1 l 0,0.5 -0.5,0 -0.5,0 0,-0.5 q 0,-0.5 0,-1"
       style="fill:#1b1b1b;fill-opacity:0.10980392" />
    <path
       id="path3628"
       d="M 8,17.5 8,17 8.5,17 Q 9,17 9,17.5 L 9,18 8.5,18 Q 8,18 8,17.5"
       style="fill:#1f1f1f;fill-opacity:0.09803922" />
    <path
       id="path3630"
       d="m 11,17.5 0,-0.5 0.5,0 0.5,0 0,0.5 q 0,0.5 0,1 0,0.5 0,1 l 0,0.5 -0.5,0 -0.5,0 0,-0.5 q 0,-0.5 0,-1 0,-0.5 0,-1"
       style="fill:#1b1b1b;fill-opacity:0.10980392" />
    <path
       id="path3632"
       d="m 15,17.5 0,-0.5 0.5,0 q 0.5,0 0.5,0.5 l 0,0.5 -0.5,0 -0.5,0 0,-0.5"
       style="fill:#1d1d1d;fill-opacity:0.97647059" />
    <path
       id="path3634"
       d="M 9,18.5 9,18 9.5,18 Q 10,18 10,18.5 L 10,19 9.5,19 9,19 9,18.5"
       style="fill:#1d1d1d;fill-opacity:0.98039216" />
    <path
       id="path3636"
       d="m 15,18.5 0,-0.5 0.5,0 0.5,0 0,0.5 0,0.5 -0.5,0 -0.5,0 0,-0.5"
       style="fill:#1f1f1f;fill-opacity:0.91764706" />
    <path
       id="path3638"
       d="m 17,18.5 0,-0.5 0.5,0 0.5,0 0,0.5 0,0.5 -0.5,0 -0.5,0 0,-0.5"
       style="fill:#1d1d1d;fill-opacity:0.34901961" />
    <path
       id="path3640"
       d="M 9,19.5 9,19 9.5,19 10,19 10,19.5 10,20 9.5,20 9,20 9,19.5"
       style="fill:#1f1f1f;fill-opacity:0.91764706" />
    <path
       id="path3642"
       d="m 15,19.5 0,-0.5 0.5,0 0.5,0 0,0.5 0,0.5 -0.5,0 -0.5,0 0,-0.5"
       style="fill:#1d1d1d;fill-opacity:0.8" />
    <path
       id="path3644"
       d="m 17,19.5 0,-0.5 0.5,0 0.5,0 0,0.5 0,0.5 -0.5,0 -0.5,0 0,-0.5"
       style="fill:#1e1e1e;fill-opacity:0.4627451" />
    <path
       id="path3646"
       d="M 9,20.5 9,20 9.5,20 10,20 10,20.5 10,21 9.5,21 9,21 9,20.5"
       style="fill:#1d1d1d;fill-opacity:0.78039216" />
    <path
       id="path3648"
       d="m 11,20.5 0,-0.5 0.5,0 0.5,0 0,0.5 Q 12,21 11.5,21 l -0.5,0 0,-0.5"
       style="fill:#1e1e1e;fill-opacity:0.06666667" />
    <path
       id="path3650"
       d="m 15,20.5 0,-0.5 0.5,0 0.5,0 0,0.5 0,0.5 -0.5,0 Q 15,21 15,20.5"
       style="fill:#1d1d1d;fill-opacity:0.5098038" />
    <path
       id="path3652"
       d="m 16,20.5 0,-0.5 0.5,0 0.5,0 0,0.5 0,0.5 -0.5,0 -0.5,0 0,-0.5"
       style="fill:#1e1e1e;fill-opacity:0.92156863" />
    <path
       id="path3654"
       d="m 17,20.5 0,-0.5 0.5,0 0.5,0 0,0.5 Q 18,21 17.5,21 l -0.5,0 0,-0.5"
       style="fill:#202020;fill-opacity:0.09411765" />
    <path
       id="path3656"
       d="m 9,21.5 0,-0.5 0.5,0 0.5,0 0,0.5 0,0.5 -0.5,0 Q 9,22 9,21.5"
       style="fill:#1e1e1e;fill-opacity:0.43137255" />
    <path
       id="path3658"
       d="m 10,21.5 0,-0.5 0.5,0 0.5,0 0,0.5 Q 11,22 10.5,22 l -0.5,0 0,-0.5"
       style="fill:#1f1f1f;fill-opacity:0.68627451" />
  </g>
</svg>
