<?xml version="1.0" encoding="UTF-8" standalone="no"?>
<svg
   xmlns:dc="http://purl.org/dc/elements/1.1/"
   xmlns:cc="http://creativecommons.org/ns#"
   xmlns:rdf="http://www.w3.org/1999/02/22-rdf-syntax-ns#"
   xmlns:svg="http://www.w3.org/2000/svg"
   xmlns="http://www.w3.org/2000/svg"
   xmlns:sodipodi="http://sodipodi.sourceforge.net/DTD/sodipodi-0.dtd"
   xmlns:inkscape="http://www.inkscape.org/namespaces/inkscape"
   width="22"
   height="22"
   version="1"
   id="svg2"
   inkscape:version="0.91 r13725"
   sodipodi:docname="bluetooth-disabled.svg">
  <metadata
     id="metadata18">
    <rdf:RDF>
      <cc:Work
         rdf:about="">
        <dc:format>image/svg+xml</dc:format>
        <dc:type
           rdf:resource="http://purl.org/dc/dcmitype/StillImage" />
      </cc:Work>
    </rdf:RDF>
  </metadata>
  <defs
     id="defs16" />
  <sodipodi:namedview
     pagecolor="#ffffff"
     bordercolor="#666666"
     borderopacity="1"
     objecttolerance="10"
     gridtolerance="10"
     guidetolerance="10"
     inkscape:pageopacity="0"
     inkscape:pageshadow="2"
     inkscape:window-width="1366"
     inkscape:window-height="723"
     id="namedview14"
     showgrid="false"
     inkscape:zoom="23.424006"
     inkscape:cx="11"
     inkscape:cy="11"
     inkscape:window-x="0"
     inkscape:window-y="0"
     inkscape:window-maximized="1"
     inkscape:current-layer="svg2" />
  <g
     id="g3360">
    <g
       id="g4">
      <rect
         id="rect6"
         transform="matrix(0,-1,-1,0,0,0)"
         ry="7"
         rx="7"
         y="-18"
         x="-21"
         height="14"
         width="20"
         style="fill:#324090" />
      <path
         id="path8"
         d="m 7.7066,7.7929 7,6.5 -3.2066,3.5 0,-13.5 3.2066,3.5 -7,6.5"
         style="fill:none;stroke:#ffffff;stroke-linecap:square" />
      <path
         id="path10"
         d="M 11,1 C 7.122,1 4,4.122 4,8 l 0,0.5 c 0,-3.878 3.122,-7 7,-7 3.878,0 7,3.122 7,7 L 18,8 C 18,4.122 14.878,1 11,1 Z"
         style="opacity:0.1;fill:#ffffff" />
      <path
         id="path12"
         d="m 4,14 0,0.5 c 0,3.878 3.122,7 7,7 3.878,0 7,-3.122 7,-7 L 18,14 c 0,3.878 -3.122,7 -7,7 -3.878,0 -7,-3.122 -7,-7 z"
         style="opacity:0.2" />
    </g>
    <path
       inkscape:connector-curvature="0"
       id="path3346"
       d="M 10.209144,20.939141 C 9.0307454,20.790007 7.8977361,20.359358 6.9784846,19.711189 6.7554228,19.553908 6.3414276,19.194186 6.0584952,18.911808 5.0725206,17.927765 4.4673631,16.805931 4.1502528,15.374331 c -0.095659,-0.431853 -0.096119,-0.451797 -0.096119,-4.169413 0,-3.4564592 0.00582,-3.7625132 0.077965,-4.0973377 C 4.6655854,4.6315336 6.4031595,2.6582459 8.7367799,1.8782434 9.6160868,1.5843389 9.9176074,1.5388083 10.991462,1.537779 c 0.84474,-8.096e-4 1.014599,0.010879 1.408811,0.096942 2.818768,0.6153846 4.90565,2.7221317 5.474045,5.5261511 0.0964,0.4755775 0.09716,0.5067127 0.09716,3.9800092 0,3.199937 -0.0067,3.540712 -0.07844,3.966628 -0.500744,2.974384 -2.740195,5.239557 -5.705647,5.771181 -0.432764,0.07758 -1.568617,0.112292 -1.978247,0.06045 z m 3.06458,-4.308511 2.163834,-2.36544 -0.120504,-0.116122 c -0.06628,-0.06387 -0.831314,-0.774609 -1.700081,-1.579424 -0.868766,-0.804816 -1.585217,-1.486191 -1.592112,-1.514166 -0.0069,-0.02798 0.757476,-0.766297 1.698603,-1.640715 L 15.434604,7.8249128 15.274998,7.6471734 C 15.187215,7.5494168 14.192311,6.4622966 13.0641,5.2313507 L 11.012807,2.9932675 11.00189,6.5441067 c -0.006,1.9529614 -0.02089,3.5508393 -0.03308,3.5508393 -0.01219,0 -0.755351,-0.6813177 -1.6514748,-1.5140391 C 8.0448598,7.3984584 7.6756086,7.0771709 7.6313403,7.1139102 7.6001651,7.1397836 7.4402194,7.3100824 7.2759055,7.4923523 l -0.2987526,0.3313998 1.7360196,1.6134584 1.7360195,1.6134585 -0.196022,0.17318 c -0.107812,0.09525 -0.8872377,0.815621 -1.7320569,1.600826 -1.3924193,1.294164 -1.530892,1.43499 -1.4810219,1.50619 0.067919,0.09697 0.6225167,0.673574 0.6478646,0.673574 0.010118,0 0.7527432,-0.682392 1.6502785,-1.516427 l 1.6318817,-1.516428 0.01092,3.57451 c 0.0093,3.042674 0.01969,3.565245 0.06989,3.512243 0.03243,-0.03425 1.032693,-1.126715 2.222802,-2.427707 z"
       style="opacity:1;fill:#4d4d4d;fill-opacity:1;stroke:none;stroke-width:1;stroke-miterlimit:4;stroke-dasharray:none;stroke-opacity:0" />
    <path
       inkscape:connector-curvature="0"
       id="path3348"
       d="m 12.016052,7.6208269 c 0,-1.081174 0.0072,-1.965771 0.01604,-1.965771 0.02941,0 1.926552,2.0937667 1.917554,2.1162985 -0.0049,0.012194 -0.44192,0.4256121 -0.971225,0.9187071 l -0.962373,0.8965364 0,-1.965771 z"
       style="opacity:1;fill:#4d4d4d;fill-opacity:1;stroke:none;stroke-width:1;stroke-miterlimit:4;stroke-dasharray:none;stroke-opacity:0" />
    <path
       inkscape:connector-curvature="0"
       id="path3350"
       d="m 12.016052,14.487887 0,-1.968385 0.160092,0.140008 c 0.465308,0.406934 1.761014,1.63515 1.761014,1.669288 0,0.0218 -0.432249,0.509395 -0.960553,1.083552 l -0.960553,1.043922 0,-1.968385 z"
       style="opacity:1;fill:#000000;fill-opacity:1;stroke:none;stroke-width:1;stroke-miterlimit:4;stroke-dasharray:none;stroke-opacity:0" />
    <path
       inkscape:connector-curvature="0"
       id="path3352"
       d="M 17.88801,7.2111553 C 17.836812,6.8697431 17.61748,6.1466187 17.440874,5.7369783 16.548921,3.6680744 14.754552,2.1815463 12.507001,1.6495577 12.072122,1.5466232 11.963212,1.538291 11.034153,1.5368773 10.231363,1.5356557 9.958404,1.5505577 9.6680331,1.6114594 8.7257775,1.809086 7.6781223,2.2590412 6.9357933,2.7849232 6.4178726,3.1518294 5.672776,3.8964519 5.3026673,4.4170098 4.7960632,5.1295486 4.3186239,6.1976642 4.1450508,7.0068021 4.100754,7.2132988 4.0814226,7.2573656 4.0789602,7.1574591 4.0734305,6.9331025 4.241392,6.1897766 4.4033799,5.7217162 5.6694277,2.0634977 9.6435727,0.14263118 13.314214,1.4147461 c 1.612777,0.5589316 3.044003,1.7842619 3.831667,3.2804457 0.281071,0.5339011 0.482221,1.0468002 0.610841,1.5575416 0.110645,0.4393672 0.216908,1.100708 0.182403,1.1352132 -0.01177,0.011767 -0.03477,-0.067789 -0.05111,-0.1767913 z"
       style="opacity:1;fill:#1a1a1a;fill-opacity:1;stroke:none;stroke-width:1;stroke-miterlimit:4;stroke-dasharray:none;stroke-opacity:0" />
    <path
       inkscape:connector-curvature="0"
       id="path3354"
       d="m 12.016052,7.6427184 c 0,-1.0434825 0.01529,-1.9066924 0.03398,-1.9182442 0.02946,-0.018209 1.688359,1.7744589 1.83256,1.9803347 0.04733,0.067566 -0.05022,0.1731212 -0.883008,0.9555533 -0.514916,0.4837784 -0.946859,0.8795972 -0.959874,0.8795972 -0.01301,0 -0.02366,-0.8537584 -0.02366,-1.897241 z"
       style="opacity:1;fill:#000000;fill-opacity:0;stroke:none;stroke-width:1;stroke-miterlimit:4;stroke-dasharray:none;stroke-opacity:0" />
    <path
       inkscape:connector-curvature="0"
       id="path3356"
       d="m 12.017965,14.501315 c -0.0018,-1.828977 0.0021,-1.931029 0.0728,-1.891535 0.160369,0.08961 1.78236,1.65566 1.78236,1.720888 0,0.03808 -0.336194,0.438277 -0.747097,0.889332 -0.410903,0.451055 -0.827883,0.908861 -0.926621,1.017348 l -0.179525,0.197248 -0.0019,-1.933281 z"
       style="opacity:1;fill:#4d4d4d;fill-opacity:1;stroke:none;stroke-width:1;stroke-miterlimit:4;stroke-dasharray:none;stroke-opacity:0" />
    <path
       inkscape:connector-curvature="0"
       id="path3358"
       d="m 10.457821,21.468585 c -0.07044,-0.01008 -0.281762,-0.03874 -0.4696035,-0.06369 C 8.8198669,21.249722 7.5845099,20.720845 6.6570382,19.978768 5.3962222,18.969979 4.5363488,17.593673 4.1861508,16.023889 4.0338626,15.341247 4.0451512,15.105811 4.2010228,15.713718 c 0.311744,1.215818 0.8677508,2.220913 1.7256526,3.119468 0.9704337,1.01642 2.268227,1.74669 3.5919383,2.021189 1.4907553,0.309139 2.9612473,0.158383 4.3297403,-0.443889 2.040376,-0.897968 3.55446,-2.766248 4.013969,-4.952976 0.09813,-0.466982 0.114097,-0.319523 0.02314,0.213724 -0.499028,2.925717 -2.77567,5.207649 -5.698649,5.711892 -0.396976,0.06848 -1.475193,0.121775 -1.728996,0.08546 z"
       style="opacity:1;fill:#b3b3b3;fill-opacity:1;stroke:none;stroke-width:1;stroke-miterlimit:4;stroke-dasharray:none;stroke-opacity:0" />
  </g>
</svg>
