<?xml version="1.0" encoding="UTF-8" standalone="no"?>
<svg
   xmlns:dc="http://purl.org/dc/elements/1.1/"
   xmlns:cc="http://creativecommons.org/ns#"
   xmlns:rdf="http://www.w3.org/1999/02/22-rdf-syntax-ns#"
   xmlns:svg="http://www.w3.org/2000/svg"
   xmlns="http://www.w3.org/2000/svg"
   xmlns:sodipodi="http://sodipodi.sourceforge.net/DTD/sodipodi-0.dtd"
   xmlns:inkscape="http://www.inkscape.org/namespaces/inkscape"
   width="22px"
   height="22px"
   viewBox="0 0 22 22"
   version="1.1"
   id="svg2"
   inkscape:version="0.91 r13725"
   sodipodi:docname="drive-removable-media-usb.svg">
  <metadata
     id="metadata39">
    <rdf:RDF>
      <cc:Work
         rdf:about="">
        <dc:format>image/svg+xml</dc:format>
        <dc:type
           rdf:resource="http://purl.org/dc/dcmitype/StillImage" />
      </cc:Work>
    </rdf:RDF>
  </metadata>
  <sodipodi:namedview
     pagecolor="#ffffff"
     bordercolor="#666666"
     borderopacity="1"
     objecttolerance="10"
     gridtolerance="10"
     guidetolerance="10"
     inkscape:pageopacity="0"
     inkscape:pageshadow="2"
     inkscape:window-width="1366"
     inkscape:window-height="723"
     id="namedview37"
     showgrid="false"
     inkscape:zoom="23.424006"
     inkscape:cx="4.5190798"
     inkscape:cy="11"
     inkscape:window-x="0"
     inkscape:window-y="0"
     inkscape:window-maximized="1"
     inkscape:current-layer="svg2" />
  <!-- Generator: Sketch 41.2 (35397) - http://www.bohemiancoding.com/sketch -->
  <title
     id="title4">drive-removable-media-usb</title>
  <desc
     id="desc6">Created with Sketch.</desc>
  <defs
     id="defs8">
    <linearGradient
       x1="7.7701352"
       y1="0.22671154"
       x2="7.7701352"
       y2="15.217547"
       id="linearGradient-1"
       gradientTransform="scale(0.90088525,1.1100193)"
       gradientUnits="userSpaceOnUse">
      <stop
         stop-color="#CE85FE"
         offset="0%"
         id="stop11" />
      <stop
         stop-color="#A170FC"
         offset="100%"
         id="stop13" />
    </linearGradient>
  </defs>
  <g
     id="g3411"
     transform="translate(18.428276,0.48394537)">
    <rect
       id="rect4"
       style="fill:#839496;fill-opacity:1;stroke:none"
       rx="1"
       y="2.494709"
       x="-13.428276"
       height="16"
       width="12" />
    <g
       style="fill:#ffffff;fill-rule:evenodd;stroke:none;stroke-width:1"
       transform="translate(-11.541457,5.4152997)"
       id="Group">
      <circle
         r="1"
         cy="11"
         cx="3.8000002"
         id="circle25" />
      <polygon
         points="3.8000002,0.5 2.3000002,3 5.3000002,3 "
         id="Shape" />
      <circle
         r="1"
         cy="6"
         cx="1.8000002"
         id="circle28" />
      <rect
         height="2"
         width="2"
         y="4"
         x="4.8000002"
         id="Rectangle-path" />
      <polygon
         points="4.2,2 3.5,2 3.5,11 4.2,11 "
         id="polygon31" />
      <path
         inkscape:connector-curvature="0"
         id="path33"
         d="m 5.57,6.5 c 0,0.2666667 -0.030667,0.3713333 -0.242,0.5726667 L 3.5,8.3533333 l 0,0.548 L 5.6353333,7.354 c 0,0 0.368,-0.2206667 0.368,-0.8186667 l -0.00133,-1.47 -0.432,0 L 5.57,6.5 Z" />
      <path
         inkscape:connector-curvature="0"
         id="path35"
         d="m 2.0333337,7.5 c 0,0.2613333 0.030667,0.364 0.242,0.5613333 l 1.9246661,1.2553334 0,0.5373333 -2.2319994,-1.5166667 c 0,0 -0.368,-0.2166666 -0.368,-0.802 l 0.002,-0.93 0.4313333,0 0,0.8946667 z" />
    </g>
    <rect
       id="rect6"
       style="opacity:0.46400003;fill:#fdf6e3;fill-opacity:1;stroke:none"
       y="2.5374002"
       x="-4.4909668"
       height="16"
       width="2" />
  </g>
</svg>
