<?xml version="1.0" encoding="UTF-8" standalone="no"?>
<svg
   xmlns:dc="http://purl.org/dc/elements/1.1/"
   xmlns:cc="http://creativecommons.org/ns#"
   xmlns:rdf="http://www.w3.org/1999/02/22-rdf-syntax-ns#"
   xmlns:svg="http://www.w3.org/2000/svg"
   xmlns="http://www.w3.org/2000/svg"
   xmlns:sodipodi="http://sodipodi.sourceforge.net/DTD/sodipodi-0.dtd"
   xmlns:inkscape="http://www.inkscape.org/namespaces/inkscape"
   width="22px"
   height="22px"
   viewBox="0 0 22 22"
   version="1.1"
   id="svg2"
   inkscape:version="0.91 r13725"
   sodipodi:docname="drive-harddisk-linux.svg">
  <metadata
     id="metadata28">
    <rdf:RDF>
      <cc:Work
         rdf:about="">
        <dc:format>image/svg+xml</dc:format>
        <dc:type
           rdf:resource="http://purl.org/dc/dcmitype/StillImage" />
      </cc:Work>
    </rdf:RDF>
  </metadata>
  <sodipodi:namedview
     pagecolor="#ffffff"
     bordercolor="#666666"
     borderopacity="1"
     objecttolerance="10"
     gridtolerance="10"
     guidetolerance="10"
     inkscape:pageopacity="0"
     inkscape:pageshadow="2"
     inkscape:window-width="1366"
     inkscape:window-height="723"
     id="namedview26"
     showgrid="false"
     inkscape:zoom="18.08373"
     inkscape:cx="19.511758"
     inkscape:cy="9.2825258"
     inkscape:window-x="0"
     inkscape:window-y="0"
     inkscape:window-maximized="1"
     inkscape:current-layer="svg2" />
  <!-- Generator: Sketch 41.2 (35397) - http://www.bohemiancoding.com/sketch -->
  <title
     id="title4">drive-harddisk-linux</title>
  <desc
     id="desc6">Created with Sketch.</desc>
  <defs
     id="defs8">
    <linearGradient
       x1="7.7701352"
       y1="0.063801332"
       x2="7.7701352"
       y2="15.54027"
       id="linearGradient-1"
       gradientTransform="scale(0.90088525,1.1100193)"
       gradientUnits="userSpaceOnUse">
      <stop
         stop-color="#9DDA00"
         offset="0%"
         id="stop11" />
      <stop
         stop-color="#73C300"
         offset="100%"
         id="stop13" />
    </linearGradient>
  </defs>
  <g
     id="g3386"
     transform="translate(0.96755791,0.14241529)">
    <rect
       id="rect4"
       style="fill:#839496;fill-opacity:1;stroke:none"
       rx="1"
       y="2.8362391"
       x="4.0324421"
       height="16"
       width="12" />
    <path
       style="fill:#ffffff;fill-rule:evenodd;stroke:none;stroke-width:1"
       inkscape:connector-curvature="0"
       id="path24"
       d="m 12.633103,14.112172 c 0,-0.06696 -0.102298,-0.145077 -0.306897,-0.234357 0.01488,-0.0558 0.02883,-0.106948 0.04185,-0.153449 0.01302,-0.0465 0.02232,-0.09486 0.0279,-0.145077 0.0056,-0.05022 0.01116,-0.09021 0.01674,-0.119969 0.0056,-0.02976 0.0065,-0.07161 0.0028,-0.125549 -0.0037,-0.05394 -0.0056,-0.09021 -0.0056,-0.108808 0,-0.0186 -0.0065,-0.05952 -0.01953,-0.12276 -0.01302,-0.06324 -0.02046,-0.101368 -0.02232,-0.114387 -0.0019,-0.01302 -0.01116,-0.05952 -0.0279,-0.1395 -0.01674,-0.07998 -0.02697,-0.129267 -0.03069,-0.147867 -0.0372,-0.178559 -0.124617,-0.370135 -0.262257,-0.574735 -0.13764,-0.204598 -0.271556,-0.344095 -0.401756,-0.418495 0.08928,0.0744 0.195298,0.228777 0.318057,0.463136 0.323639,0.602636 0.424076,1.119704 0.301317,1.551222 -0.04092,0.148799 -0.133918,0.226918 -0.278997,0.234357 -0.11532,0.01488 -0.186929,-0.01953 -0.214828,-0.103228 -0.0279,-0.0837 -0.04278,-0.239006 -0.04464,-0.465925 -0.0019,-0.226919 -0.02325,-0.425934 -0.06417,-0.597054 -0.03348,-0.145079 -0.06975,-0.273416 -0.108808,-0.385015 -0.03906,-0.111599 -0.07533,-0.196228 -0.108809,-0.253887 -0.03348,-0.05766 -0.06231,-0.103229 -0.08649,-0.136709 -0.02418,-0.03348 -0.04836,-0.06138 -0.07254,-0.0837 -0.02418,-0.02232 -0.03813,-0.03534 -0.04185,-0.03906 -0.05207,-0.230637 -0.109726,-0.422214 -0.172965,-0.574732 -0.06324,-0.152519 -0.118109,-0.256677 -0.164608,-0.312477 -0.0465,-0.0558 -0.09021,-0.117178 -0.131129,-0.184137 -0.04092,-0.06696 -0.06882,-0.141358 -0.0837,-0.223198 -0.01488,-0.07812 -0.0037,-0.177627 0.03348,-0.298527 0.0372,-0.120899 0.04557,-0.212968 0.02511,-0.276207 -0.02046,-0.06324 -0.103229,-0.1097389 -0.248308,-0.1394979 -0.0558,-0.01116 -0.138568,-0.044639 -0.248308,-0.10044 -0.109739,-0.0558 -0.175768,-0.085559 -0.198088,-0.089278 -0.02976,-0.00372 -0.05022,-0.052079 -0.06138,-0.1450791 -0.01116,-0.092999 0.0037,-0.1878572 0.04464,-0.2845762 0.04092,-0.096719 0.107879,-0.146939 0.200878,-0.1506587 0.13764,-0.011159 0.232498,0.044639 0.284578,0.1673987 0.05208,0.1227583 0.05952,0.2306365 0.02232,0.3236358 -0.04092,0.07068 -0.04464,0.1199685 -0.01116,0.1478689 0.03348,0.027899 0.08928,0.028829 0.167398,0.00279 0.04836,-0.01488 0.07254,-0.081839 0.07254,-0.2008775 l 0,-0.2064583 c -0.0186,-0.1115991 -0.04371,-0.2045971 -0.07533,-0.2789965 -0.03162,-0.0744 -0.07068,-0.131129 -0.117179,-0.1701885 -0.0465,-0.03906 -0.09021,-0.066959 -0.131129,-0.083699 -0.04092,-0.01674 -0.09114,-0.03069 -0.150657,-0.041849 -0.3980387,0.029759 -0.5635767,0.2789941 -0.4966167,0.7477114 0,0.0558 -0.0019,0.083699 -0.0056,0.083699 -0.03348,-0.03348 -0.08835,-0.053009 -0.164609,-0.058589 -0.07626,-0.00558 -0.137637,-0.00465 -0.184137,0.00279 -0.0465,0.00744 -0.07533,-0.00186 -0.08649,-0.027899 0.0037,-0.2120391 -0.02604,-0.3794353 -0.08928,-0.5021948 -0.06324,-0.1227583 -0.146937,-0.1859973 -0.251097,-0.1897171 -0.100439,-0.00372 -0.177628,0.047429 -0.231568,0.1534473 -0.05394,0.1060195 -0.08463,0.2166875 -0.09207,0.3320064 -0.0037,0.055801 0.0028,0.1246181 0.01953,0.2064582 0.01674,0.08184 0.04092,0.1515887 0.07254,0.2092481 0.03162,0.057659 0.06045,0.082769 0.08649,0.075329 0.0372,-0.01116 0.06696,-0.0372 0.08928,-0.078119 0.01488,-0.03348 0.0019,-0.04836 -0.03906,-0.04464 -0.02604,0 -0.05487,-0.026969 -0.08649,-0.080909 -0.03162,-0.05394 -0.04929,-0.1162488 -0.05301,-0.1869273 -0.0037,-0.08184 0.01302,-0.1506587 0.05022,-0.2064583 0.0372,-0.0558 0.100437,-0.081839 0.189717,-0.078119 0.06324,0 0.113459,0.03906 0.150658,0.1171787 0.0372,0.078119 0.05487,0.1506575 0.05301,0.2176175 -0.0019,0.06696 -0.0046,0.1078794 -0.0084,0.1227583 -0.08184,0.055801 -0.139499,0.1097392 -0.172978,0.1618191 -0.02976,0.044639 -0.08091,0.088348 -0.153448,0.1311277 -0.07254,0.042781 -0.110669,0.06603 -0.114389,0.06975 -0.04836,0.05208 -0.07719,0.1022991 -0.08649,0.1506591 -0.0093,0.04836 0.0047,0.08184 0.04185,0.100438 0.05208,0.02976 0.09858,0.06603 0.139498,0.108809 0.04092,0.04278 0.07068,0.07812 0.08928,0.106019 0.0186,0.0279 0.05301,0.05208 0.10323,0.07254 0.05022,0.02046 0.116248,0.03255 0.198088,0.03627 0.174838,0.0074 0.364555,-0.02046 0.569154,-0.0837 0.0074,-0.0037 0.05022,-0.01674 0.128337,-0.03906 0.07812,-0.02232 0.1422897,-0.04185 0.1925087,-0.05859 0.05022,-0.01674 0.105089,-0.04092 0.164609,-0.07254 0.05952,-0.03162 0.09858,-0.06417 0.117179,-0.09765 0.03348,-0.05208 0.07068,-0.06696 0.111598,-0.04464 0.0186,0.01116 0.03069,0.02697 0.03627,0.04743 0.0056,0.02046 0,0.04278 -0.01674,0.06696 -0.01674,0.02418 -0.04743,0.04185 -0.09207,0.05301 -0.0744,0.02232 -0.179488,0.06231 -0.315267,0.119969 -0.135781,0.05766 -0.2204087,0.09393 -0.2538877,0.108808 -0.163679,0.07068 -0.293877,0.113459 -0.390596,0.128339 -0.093,0.0186 -0.239937,0.01488 -0.440815,-0.01116 -0.0372,-0.0074 -0.05394,-0.0037 -0.05022,0.01116 0.0037,0.01488 0.03534,0.05022 0.09486,0.106018 0.093,0.08556 0.217617,0.126479 0.373856,0.12276 0.06324,-0.0037 0.130198,-0.01674 0.200878,-0.03906 0.07068,-0.02232 0.137639,-0.04836 0.200878,-0.07812 0.06324,-0.02976 0.1255477,-0.06231 0.1869277,-0.09765 0.06138,-0.03534 0.117179,-0.06696 0.167398,-0.09486 0.05022,-0.0279 0.09579,-0.05022 0.136709,-0.06696 0.04092,-0.01674 0.07347,-0.02139 0.09765,-0.01395 0.02418,0.0074 0.03999,0.0279 0.04743,0.06138 0,0.0074 -0.0019,0.01581 -0.0056,0.02511 -0.0037,0.0093 -0.01116,0.0186 -0.02232,0.0279 -0.01116,0.0093 -0.02232,0.01767 -0.03348,0.02511 -0.01116,0.0074 -0.02697,0.01674 -0.04743,0.0279 -0.02046,0.01116 -0.0372,0.01953 -0.05022,0.02511 -0.01302,0.0056 -0.03162,0.01488 -0.0558,0.0279 -0.02418,0.01302 -0.04185,0.02139 -0.05301,0.02511 -0.10416,0.05208 -0.229708,0.133918 -0.3766467,0.245517 -0.14694,0.1116 -0.270627,0.191577 -0.371066,0.239937 -0.10044,0.04836 -0.191578,0.05022 -0.273417,0.0056 -0.07812,-0.04092 -0.195298,-0.176696 -0.351536,-0.407334 -0.08184,-0.11532 -0.128339,-0.15624 -0.139499,-0.12276 -0.0037,0.01116 -0.0056,0.02976 -0.0056,0.0558 0,0.093 -0.0279,0.198088 -0.083699,0.315267 -0.0558,0.11718 -0.1106692,0.220407 -0.1646089,0.309686 -0.05394,0.08928 -0.092998,0.197158 -0.1171788,0.323637 -0.024179,0.12648 -0.00279,0.243657 0.06417,0.351537 -0.08556,0.02232 -0.2018073,0.189715 -0.3487463,0.502193 -0.146939,0.312479 -0.2352874,0.574733 -0.2650476,0.786772 -0.00744,0.06696 -0.010229,0.195297 -0.00837,0.385015 0.00186,0.189719 -0.00837,0.299457 -0.03069,0.329216 -0.029759,0.08928 -0.083699,0.09486 -0.1618179,0.01674 -0.1189429,-0.11532 -0.1859004,-0.290157 -0.2007805,-0.524516 -0.00744,-0.104158 0,-0.208316 0.02232,-0.312476 0.01488,-0.07068 0.01302,-0.104158 -0.00558,-0.100439 l -0.022321,0.0279 c -0.1339187,0.241798 -0.1153188,0.550551 0.0558,0.926269 0.0186,0.04464 0.065099,0.09672 0.1394983,0.156239 0.074401,0.05952 0.1190386,0.09672 0.1339187,0.111599 0.074399,0.08556 0.2678362,0.253886 0.580314,0.504985 0.3124778,0.251097 0.485455,0.393385 0.518935,0.426864 0.05952,0.0558 0.09207,0.126479 0.09765,0.212038 0.0056,0.08556 -0.02046,0.165537 -0.07812,0.239938 -0.05766,0.0744 -0.142288,0.117179 -0.2538866,0.128338 0.029759,0.0558 0.083699,0.138568 0.1618176,0.248307 0.07812,0.10974 0.130198,0.210177 0.156238,0.301317 0.02604,0.09114 0.03906,0.222267 0.03906,0.393386 0.171118,-0.08928 0.184139,-0.260396 0.03906,-0.513355 -0.01488,-0.02976 -0.03441,-0.05952 -0.05859,-0.08928 -0.02418,-0.02976 -0.04185,-0.05208 -0.05301,-0.06696 -0.01116,-0.01488 -0.01488,-0.02604 -0.01116,-0.03348 0.01116,-0.0186 0.03534,-0.03627 0.07254,-0.05301 0.0372,-0.01674 0.0744,-0.01209 0.1116,0.01395 0.171118,0.19344 0.479872,0.260398 0.9262687,0.200879 0.494759,-0.0558 0.823972,-0.217616 0.987651,-0.485455 0.08556,-0.141359 0.148797,-0.197158 0.189718,-0.167399 0.04464,0.02232 0.06324,0.119039 0.0558,0.290157 -0.0037,0.093 -0.0465,0.264116 -0.12834,0.513355 -0.03348,0.08556 -0.04464,0.155308 -0.03348,0.209248 0.01116,0.05394 0.0558,0.08277 0.133919,0.08649 0.01116,-0.07068 0.03813,-0.213897 0.08091,-0.429656 0.04278,-0.215758 0.06789,-0.383155 0.07533,-0.502194 0.0074,-0.07812 -0.0046,-0.214826 -0.03627,-0.410125 -0.03162,-0.1953 -0.04557,-0.375716 -0.04185,-0.541255 0.0037,-0.165539 0.0465,-0.296666 0.128339,-0.393385 0.0558,-0.06696 0.150658,-0.100439 0.284577,-0.100439 0.0037,-0.13764 0.06789,-0.236217 0.192508,-0.295737 0.124619,-0.05952 0.259466,-0.07905 0.404546,-0.05859 0.145079,0.02046 0.256677,0.06231 0.334796,0.125548 l 0,0 z M 9.1289013,9.4975639 c 0.01116,-0.06324 0.0065,-0.1190385 -0.01395,-0.1673987 -0.02046,-0.048359 -0.04185,-0.076259 -0.06417,-0.083699 -0.03348,-0.00744 -0.05022,0.00558 -0.05022,0.03906 0.0074,0.0186 0.01674,0.02976 0.0279,0.03348 0.0372,0 0.05022,0.027899 0.03906,0.083699 -0.01116,0.074399 0.0037,0.1115991 0.04464,0.1115991 0.01116,0 0.01674,-0.00558 0.01674,-0.01674 l 0,0 z m 1.3447647,-0.089279 c 0,-0.040919 -0.0093,-0.077189 -0.0279,-0.1088081 -0.0186,-0.03162 -0.03906,-0.05487 -0.06138,-0.06975 -0.02232,-0.01488 -0.03906,-0.02046 -0.05022,-0.01674 -0.05208,0.00372 -0.0651,0.01674 -0.03906,0.03906 0.0074,0.00372 0.01488,0.00744 0.02232,0.01116 0.05208,0.01488 0.08556,0.072538 0.10044,0.1729783 0,0.011159 0.01488,0.00744 0.04464,-0.01116 l 0.01116,-0.01674 z m 3.62696,6.3192811 c 0.04092,0.0465 0.06324,0.09114 0.06696,0.133918 0.0037,0.04278 -9.29e-4,0.08463 -0.01395,0.125548 -0.01302,0.04092 -0.04185,0.08184 -0.08649,0.122759 -0.04464,0.04092 -0.08835,0.07719 -0.131127,0.108809 -0.04278,0.03162 -0.09858,0.06603 -0.167399,0.103229 -0.06882,0.0372 -0.127408,0.06789 -0.175768,0.09207 -0.04836,0.02418 -0.107878,0.05301 -0.178558,0.08649 -0.07068,0.03348 -0.120898,0.05766 -0.150659,0.07254 -0.141359,0.07068 -0.300385,0.174838 -0.477084,0.312477 -0.176699,0.137639 -0.317126,0.256677 -0.421286,0.357116 -0.06324,0.05952 -0.189717,0.09579 -0.379435,0.108809 -0.18972,0.01302 -0.355256,-0.01395 -0.496615,-0.08091 -0.06696,-0.03348 -0.121829,-0.07719 -0.164608,-0.131129 -0.04278,-0.05394 -0.07347,-0.101369 -0.09207,-0.142288 -0.0186,-0.04092 -0.05952,-0.07719 -0.122759,-0.108809 -0.06324,-0.03162 -0.150657,-0.04929 -0.262256,-0.05301 -0.163679,-0.0037 -0.405475,-0.0056 -0.725394,-0.0056 -0.07068,0 -0.1766967,0.0028 -0.3180567,0.0084 -0.141359,0.0056 -0.249236,0.01023 -0.323635,0.01395 -0.163679,0.0037 -0.311547,0.03162 -0.443606,0.0837 -0.132059,0.05208 -0.231567,0.107879 -0.298526,0.167398 -0.06696,0.05952 -0.1478691,0.112529 -0.2427282,0.159029 -0.094859,0.0465 -0.1943667,0.06789 -0.2985264,0.06417 -0.1078784,-0.0037 -0.3143342,-0.06139 -0.6193726,-0.172993 -0.3050383,-0.111599 -0.5765917,-0.191578 -0.8146709,-0.239937 -0.07068,-0.01488 -0.1655376,-0.03255 -0.2845768,-0.05301 -0.1190393,-0.02046 -0.2120373,-0.0372 -0.2789968,-0.05022 -0.06696,-0.01302 -0.140428,-0.03069 -0.220408,-0.05301 -0.07998,-0.02232 -0.142288,-0.04929 -0.186927,-0.08091 -0.04464,-0.03162 -0.07626,-0.06789 -0.09486,-0.108809 -0.0372,-0.08556 -0.02418,-0.209247 0.03906,-0.371066 0.06324,-0.161819 0.09672,-0.263186 0.100439,-0.304107 0.0037,-0.05952 -0.0037,-0.133917 -0.02232,-0.223197 -0.0186,-0.08928 -0.0372,-0.168327 -0.0558,-0.237147 -0.0186,-0.06882 -0.02697,-0.136708 -0.02511,-0.203668 0.0019,-0.06696 0.02139,-0.117179 0.05859,-0.150658 0.05208,-0.04464 0.158097,-0.07068 0.318056,-0.07812 0.1599587,-0.0074 0.2715564,-0.02976 0.334796,-0.06696 0.1115993,-0.06696 0.1897177,-0.132058 0.2343574,-0.195298 0.04464,-0.06324 0.066959,-0.158097 0.066959,-0.284576 0,0.106018 0.098579,-0.167398 0.083699,-0.256678 -0.01116,-0.05952 -0.01488,-0.130198 -0.01116,-0.212036 0.00372,-0.10788 0.02232,-0.204599 0.055799,-0.290157 0.03348,-0.08556 0.078119,-0.172979 0.1339186,-0.262258 0.0558,-0.08928 0.096719,-0.167398 0.1227583,-0.234358 0.02976,-0.07812 0.079049,-0.212036 0.1478689,-0.401754 0.068822,-0.189717 0.1236902,-0.334793 0.1646096,-0.435233 0.040921,-0.100439 0.096719,-0.213897 0.1673987,-0.340376 0.07068,-0.126479 0.143218,-0.226917 0.2176175,-0.301316 C 8.2379727,11.186422 8.4686079,10.823731 8.5206865,10.630292 8.4760475,10.213654 8.4462885,9.637066 8.4314085,8.90051 8.4239685,8.5657125 8.4686065,8.2839287 8.5653272,8.0551496 8.6620462,7.8263705 8.8592026,7.632005 9.1568006,7.4720458 c 0.145079,-0.078119 0.338514,-0.1171787 0.580314,-0.1171787 0.197159,-0.00372 0.3943144,0.02139 0.5914734,0.075329 0.197159,0.05394 0.362695,0.1311277 0.496614,0.2315677 0.212039,0.1562382 0.382225,0.3822238 0.510565,0.6779629 0.12834,0.2957378 0.183208,0.5700823 0.164608,0.8230408 -0.0186,0.3533973 0.0372,0.7514287 0.167399,1.1941065 0.126479,0.420358 0.373853,0.82583 0.742132,1.216426 0.204598,0.219479 0.389664,0.522652 0.555203,0.909531 0.165539,0.386877 0.276207,0.742129 0.332006,1.065767 0.02976,0.182279 0.03906,0.339446 0.0279,0.471505 -0.01116,0.13206 -0.03348,0.235287 -0.06696,0.309687 -0.03348,0.0744 0.04836,0.373856 0.100439,0.329216 0.0037,0.11532 0.0186,0.220407 0.04464,0.315266 0.02604,0.09486 0.05301,0.170189 0.08091,0.225988 0.0279,0.0558 0.06603,0.108809 0.114388,0.159028 0.04836,0.05022 0.08742,0.08556 0.117178,0.106019 0.02976,0.02046 0.06975,0.04464 0.11997,0.07254 0.05022,0.0279 0.08091,0.04557 0.09207,0.05301 0.0744,0.04464 0.132059,0.09021 0.172978,0.136709 z" />
    <rect
       id="rect6"
       style="opacity:0.46400003;fill:#fdf6e3;fill-opacity:1;stroke:none"
       y="2.8789303"
       x="12.969752"
       height="16"
       width="2" />
  </g>
</svg>
