<?xml version="1.0" encoding="UTF-8" standalone="no"?>
<svg
   xmlns:dc="http://purl.org/dc/elements/1.1/"
   xmlns:cc="http://creativecommons.org/ns#"
   xmlns:rdf="http://www.w3.org/1999/02/22-rdf-syntax-ns#"
   xmlns:svg="http://www.w3.org/2000/svg"
   xmlns="http://www.w3.org/2000/svg"
   xmlns:sodipodi="http://sodipodi.sourceforge.net/DTD/sodipodi-0.dtd"
   xmlns:inkscape="http://www.inkscape.org/namespaces/inkscape"
   width="22px"
   height="22px"
   viewBox="0 0 22 22"
   version="1.1"
   id="svg2"
   inkscape:version="0.91 r13725"
   sodipodi:docname="drive-network.svg">
  <metadata
     id="metadata37">
    <rdf:RDF>
      <cc:Work
         rdf:about="">
        <dc:format>image/svg+xml</dc:format>
        <dc:type
           rdf:resource="http://purl.org/dc/dcmitype/StillImage" />
      </cc:Work>
    </rdf:RDF>
  </metadata>
  <sodipodi:namedview
     pagecolor="#ffffff"
     bordercolor="#666666"
     borderopacity="1"
     objecttolerance="10"
     gridtolerance="10"
     guidetolerance="10"
     inkscape:pageopacity="0"
     inkscape:pageshadow="2"
     inkscape:window-width="1366"
     inkscape:window-height="723"
     id="namedview35"
     showgrid="false"
     inkscape:zoom="23.424006"
     inkscape:cx="5.4074467"
     inkscape:cy="11"
     inkscape:window-x="0"
     inkscape:window-y="0"
     inkscape:window-maximized="1"
     inkscape:current-layer="svg2" />
  <!-- Generator: Sketch 41.2 (35397) - http://www.bohemiancoding.com/sketch -->
  <title
     id="title4">drive-network</title>
  <desc
     id="desc6">Created with Sketch.</desc>
  <defs
     id="defs8">
    <linearGradient
       x1="7.7701352"
       y1="0.063801332"
       x2="7.7701352"
       y2="15.54027"
       id="linearGradient-1"
       gradientTransform="scale(0.90088525,1.1100193)"
       gradientUnits="userSpaceOnUse">
      <stop
         stop-color="#9DDA00"
         offset="0%"
         id="stop11" />
      <stop
         stop-color="#73C300"
         offset="100%"
         id="stop13" />
    </linearGradient>
  </defs>
  <g
     id="g3413"
     transform="translate(18.428278,1.0816227)">
    <rect
       id="rect4"
       style="fill:#839496;fill-opacity:1;stroke:none"
       rx="1"
       y="1.8970317"
       x="-13.428278"
       height="16"
       width="12" />
    <g
       transform="translate(-12.48531,7.1410509)"
       id="g24"
       style="fill:none;fill-rule:evenodd;stroke:none;stroke-width:1">
      <path
         style="stroke:#ffffff"
         inkscape:connector-curvature="0"
         id="Stroke-1"
         d="M 9.5833333,5 C 9.5833333,7.5310784 7.5310784,9.5833333 5,9.5833333 2.4689216,9.5833333 0.41666667,7.5310784 0.41666667,5 0.41666667,2.4689216 2.4689216,0.41666667 5,0.41666667 7.5310784,0.41666667 9.5833333,2.4689216 9.5833333,5 l 0,0 z" />
      <g
         style="stroke:#ffffff;stroke-width:0.80000001"
         transform="translate(0.583333,0.416667)"
         id="Group">
        <path
           inkscape:connector-curvature="0"
           id="Stroke-3"
           d="M 8.7575278,5.6641343 C 3.5833335,7.5 1.2166668,3.0264815 0.66666683,2.0833333" />
        <path
           inkscape:connector-curvature="0"
           id="Stroke-5"
           d="M 0.66666683,7.0833332 C 0.87597238,5.986898 2.1817685,2.107213 6.9367222,0.94559259" />
        <path
           inkscape:connector-curvature="0"
           id="Stroke-7"
           d="M 6.8931806,8.2210741 C 7.2944768,3.2705648 3.7725927,0.94375 2.7500002,0.41666667" />
        <path
           inkscape:connector-curvature="0"
           id="Stroke-9"
           d="m 6.916667,6.25 c 0,0 -2.4188892,0.7675417 -3.6660652,2.4424954" />
      </g>
      <path
         style="fill:#ffffff"
         inkscape:connector-curvature="0"
         id="Fill-11"
         d="M 5,3.3333333 C 4.54,3.3333333 4.1666667,2.96 4.1666667,2.5 4.1666667,2.04 4.54,1.6666667 5,1.6666667 5.46,1.6666667 5.8333333,2.04 5.8333333,2.5 5.8333333,2.96 5.46,3.3333333 5,3.3333333 Z" />
      <path
         style="fill:#ffffff"
         inkscape:connector-curvature="0"
         id="Fill-13"
         d="m 3.3333333,4.5833333 c 0,0.46 -0.3733333,0.8333334 -0.8333333,0.8333334 -0.46,0 -0.8333333,-0.3733334 -0.8333333,-0.8333334 C 1.6666667,4.1233333 2.04,3.75 2.5,3.75 c 0.46,0 0.8333333,0.3733333 0.8333333,0.8333333" />
      <path
         style="fill:#ffffff"
         inkscape:connector-curvature="0"
         id="Fill-15"
         d="M 8.3333333,6.6666667 C 8.3333333,7.1266667 7.96,7.5 7.5,7.5 7.04,7.5 6.6666667,7.1266667 6.6666667,6.6666667 6.6666667,6.2066667 7.04,5.8333333 7.5,5.8333333 c 0.46,0 0.8333333,0.3733334 0.8333333,0.8333334" />
    </g>
    <rect
       id="rect6"
       style="opacity:0.46400003;fill:#fdf6e3;fill-opacity:1;stroke:none"
       y="1.9397229"
       x="-4.4909678"
       height="16"
       width="2" />
  </g>
</svg>
