<?xml version="1.0" encoding="UTF-8" standalone="no"?>
<svg
   xmlns:dc="http://purl.org/dc/elements/1.1/"
   xmlns:cc="http://creativecommons.org/ns#"
   xmlns:rdf="http://www.w3.org/1999/02/22-rdf-syntax-ns#"
   xmlns:svg="http://www.w3.org/2000/svg"
   xmlns="http://www.w3.org/2000/svg"
   xmlns:sodipodi="http://sodipodi.sourceforge.net/DTD/sodipodi-0.dtd"
   xmlns:inkscape="http://www.inkscape.org/namespaces/inkscape"
   width="36pt"
   height="36pt"
   version="1.1"
   viewBox="0 0 36 36"
   id="svg2"
   inkscape:version="0.91 r13725"
   sodipodi:docname="package-available.svg">
  <metadata
     id="metadata14">
    <rdf:RDF>
      <cc:Work
         rdf:about="">
        <dc:format>image/svg+xml</dc:format>
        <dc:type
           rdf:resource="http://purl.org/dc/dcmitype/StillImage" />
      </cc:Work>
    </rdf:RDF>
  </metadata>
  <defs
     id="defs12" />
  <sodipodi:namedview
     pagecolor="#ffffff"
     bordercolor="#666666"
     borderopacity="1"
     objecttolerance="10"
     gridtolerance="10"
     guidetolerance="10"
     inkscape:pageopacity="0"
     inkscape:pageshadow="2"
     inkscape:window-width="1366"
     inkscape:window-height="720"
     id="namedview10"
     showgrid="false"
     inkscape:zoom="11.390278"
     inkscape:cx="22.5"
     inkscape:cy="22.5"
     inkscape:window-x="0"
     inkscape:window-y="0"
     inkscape:window-maximized="1"
     inkscape:current-layer="svg2" />
  <g
     id="g4">
    <path
       style="fill:rgb(21.176%,48.235%,94.117%)"
       d="M 36 34.195312 L 36 1.796875 C 36 0.800781 35.195312 -0.00390625 34.199219 -0.00390625 L 1.800781 -0.00390625 C 0.804688 -0.00390625 0 0.800781 0 1.796875 L 0 34.195312 C 0 35.1875 0.804688 35.996094 1.800781 35.996094 L 34.199219 35.996094 C 35.195312 35.996094 36 35.1875 36 34.195312 Z M 36 34.195312"
       id="path6" />
    <path
       style="fill:rgb(100.000%,100.000%,100.000%)"
       d="M 15.75 6.75 L 15.75 22.5 L 20.25 22.476562 L 20.25 6.75 Z M 15.75 24.753906 L 15.75 29.25 L 20.25 29.25 L 20.25 24.753906 Z M 15.75 24.753906"
       id="path8" />
  </g>
  <path
     style="opacity:1;fill:#916f6f;fill-opacity:0.30952382;stroke:none;stroke-width:1;stroke-miterlimit:4;stroke-dasharray:none;stroke-opacity:0"
     d="M 1.8212091,44.931393 C 1.3732687,44.861604 0.66658408,44.354265 0.38780096,43.902331 L 0.1212657,43.47025 0.09552993,22.656141 C 0.0782343,8.6681028 0.09921789,1.7399559 0.15951325,1.5307818 0.29042308,1.0766351 0.83575582,0.48801333 1.345502,0.25064804 l 0.443853,-0.20668179 20.719424,0 20.719425,0 0.43961,0.20471599 c 0.520675,0.24246598 0.932325,0.68286633 1.131937,1.21099406 0.132928,0.3516917 0.142593,2.0510172 0.120529,21.1895737 -0.02247,19.489773 -0.03355,20.824695 -0.175063,21.083233 -0.225625,0.412213 -0.675752,0.827085 -1.120954,1.033159 l -0.396059,0.183328 -20.587733,0.0092 c -11.323254,0.0051 -20.6919212,-0.007 -20.8192619,-0.02683 z m 23.5408809,-11.17618 0,-2.809414 -2.853311,0 -2.85331,0 0,2.809414 0,2.809413 2.85331,0 2.853311,0 0,-2.809413 z m 0,-15.495671 0,-9.8768448 -2.853311,0 -2.85331,0 0,9.8768448 0,9.876844 2.85331,0 2.853311,0 0,-9.876844 z"
     id="path3342"
     inkscape:connector-curvature="0"
     transform="scale(0.8,0.8)" />
  <path
     style="opacity:1;fill:#916f6f;fill-opacity:0.30952382;stroke:none;stroke-width:1;stroke-miterlimit:4;stroke-dasharray:none;stroke-opacity:0"
     d="M 1.1656892,44.619741 C 0.93247585,44.462809 0.61678003,44.169763 0.46414303,43.968527 L 0.18662119,43.602643 0.122355,35.759772 C 0.08700859,31.446193 0.07318119,21.990794 0.09162745,14.747775 0.12289504,2.4703935 0.13544714,1.5596049 0.27699454,1.2974093 0.49384645,0.89572319 0.99395504,0.4358676 1.4440283,0.22430815 l 0.3873101,-0.1820572 20.6926626,0 20.692662,0 0.393415,0.19044866 c 0.497168,0.24067477 1.022687,0.77797949 1.17145,1.19772009 0.09335,0.2634056 0.112748,4.1344535 0.103953,20.7494233 -0.0059,11.234083 -0.03924,20.691082 -0.07399,21.015552 -0.05622,0.525018 -0.10172,0.63176 -0.413366,0.969856 -0.192604,0.20895 -0.517471,0.460889 -0.721928,0.559865 -0.37155,0.179864 -0.38242,0.179957 -21.229112,0.179957 l -20.8573724,0 -0.4240244,-0.285332 z M 25.36209,33.755213 l 0,-2.809414 -2.853311,0 -2.85331,0 0,2.809414 0,2.809413 2.85331,0 2.853311,0 0,-2.809413 z m 0,-15.495671 0,-9.8768448 -2.853311,0 -2.85331,0 0,9.8768448 0,9.876844 2.85331,0 2.853311,0 0,-9.876844 z"
     id="path3344"
     inkscape:connector-curvature="0"
     transform="scale(0.8,0.8)" />
  <path
     style="opacity:1;fill:#916f6f;fill-opacity:0.30952382;stroke:none;stroke-width:1;stroke-miterlimit:4;stroke-dasharray:none;stroke-opacity:0"
     d="M 1.1215052,44.563537 C 0.85571162,44.373207 0.52499848,44.054068 0.38658717,43.85434 L 0.13493021,43.491199 0.12809796,22.578822 C 0.12150177,2.3890227 0.12688619,1.6551387 0.28393002,1.3392778 0.47792365,0.94910012 0.98898527,0.46939509 1.4746218,0.22164182 1.8257958,0.04248622 1.8533825,0.04225095 22.508201,0.04225095 l 20.681943,0 0.419675,0.21266527 c 0.533203,0.27019431 1.030472,0.81818188 1.151998,1.26949318 0.06648,0.2468993 0.08738,6.5252752 0.07057,21.1997216 l -0.02389,20.848935 -0.266098,0.378594 c -0.146354,0.208228 -0.459305,0.498053 -0.695448,0.644056 l -0.42935,0.265459 -20.906418,0.02421 -20.9064187,0.02421 -0.4832611,-0.346056 z M 25.36209,33.755213 l 0,-2.809414 -2.853311,0 -2.85331,0 0,2.809414 0,2.809413 2.85331,0 2.853311,0 0,-2.809413 z m 0,-15.495671 0,-9.8768448 -2.853311,0 -2.85331,0 0,9.8768448 0,9.876844 2.85331,0 2.853311,0 0,-9.876844 z"
     id="path3346"
     inkscape:connector-curvature="0"
     transform="scale(0.8,0.8)" />
  <path
     style="opacity:1;fill:#916f6f;fill-opacity:0.30952382;stroke:none;stroke-width:1;stroke-miterlimit:4;stroke-dasharray:none;stroke-opacity:0"
     d="M 1.2577178,44.659867 C 1.0642855,44.519745 0.73885274,44.215185 0.53453406,43.983067 L 0.16304554,43.561033 0.18605271,22.482047 0.20905987,1.4030606 0.40825989,1.1237896 C 0.67459153,0.75040258 1.2455659,0.30687674 1.6423372,0.16517369 1.9049998,0.07136626 5.7992314,0.04924199 22.600458,0.04610448 L 43.235971,0.04225095 43.711362,0.327582 c 0.261466,0.15693208 0.599222,0.44819903 0.75057,0.6472599 0.248416,0.3267288 0.280858,0.442717 0.333569,1.192599 0.07242,1.0302938 0.0521,39.6661171 -0.02145,40.7802641 -0.05256,0.79624 -0.05852,0.813463 -0.404527,1.168801 -0.193147,0.19836 -0.489452,0.447057 -0.658456,0.552661 l -0.30728,0.192008 -20.897189,0.02673 -20.89719,0.02673 -0.3516952,-0.254766 z M 25.36209,33.755213 l 0,-2.809414 -2.853311,0 -2.85331,0 0,2.809414 0,2.809413 2.85331,0 2.853311,0 0,-2.809413 z m 0,-15.495671 0,-9.8768448 -2.853311,0 -2.85331,0 0,9.8768448 0,9.876844 2.85331,0 2.853311,0 0,-9.876844 z"
     id="path3348"
     inkscape:connector-curvature="0"
     transform="scale(0.8,0.8)" />
</svg>
