<?xml version="1.0" encoding="UTF-8" standalone="no"?>
<svg
   xmlns:dc="http://purl.org/dc/elements/1.1/"
   xmlns:cc="http://creativecommons.org/ns#"
   xmlns:rdf="http://www.w3.org/1999/02/22-rdf-syntax-ns#"
   xmlns:svg="http://www.w3.org/2000/svg"
   xmlns="http://www.w3.org/2000/svg"
   xmlns:sodipodi="http://sodipodi.sourceforge.net/DTD/sodipodi-0.dtd"
   xmlns:inkscape="http://www.inkscape.org/namespaces/inkscape"
   width="36pt"
   height="36pt"
   version="1.1"
   viewBox="0 0 36 36"
   id="svg2"
   inkscape:version="0.91 r13725"
   sodipodi:docname="package-available-locked.svg">
  <metadata
     id="metadata14">
    <rdf:RDF>
      <cc:Work
         rdf:about="">
        <dc:format>image/svg+xml</dc:format>
        <dc:type
           rdf:resource="http://purl.org/dc/dcmitype/StillImage" />
      </cc:Work>
    </rdf:RDF>
  </metadata>
  <defs
     id="defs12" />
  <sodipodi:namedview
     pagecolor="#ffffff"
     bordercolor="#666666"
     borderopacity="1"
     objecttolerance="10"
     gridtolerance="10"
     guidetolerance="10"
     inkscape:pageopacity="0"
     inkscape:pageshadow="2"
     inkscape:window-width="1366"
     inkscape:window-height="720"
     id="namedview10"
     showgrid="false"
     inkscape:zoom="11.390278"
     inkscape:cx="22.5"
     inkscape:cy="22.5"
     inkscape:window-x="0"
     inkscape:window-y="0"
     inkscape:window-maximized="1"
     inkscape:current-layer="svg2" />
  <g
     id="g4">
    <path
       style="fill:rgb(21.176%,48.235%,94.117%)"
       d="M 36 34.195312 L 36 1.796875 C 36 0.800781 35.195312 -0.00390625 34.199219 -0.00390625 L 1.800781 -0.00390625 C 0.804688 -0.00390625 0 0.800781 0 1.796875 L 0 34.195312 C 0 35.1875 0.804688 35.996094 1.800781 35.996094 L 34.199219 35.996094 C 35.195312 35.996094 36 35.1875 36 34.195312 Z M 36 34.195312"
       id="path6" />
    <path
       style="fill:rgb(100.000%,100.000%,100.000%)"
       d="M 11.25 11.25 L 11.25 15.75 L 10.125 15.75 C 9.5 15.75 9 16.25 9 16.875 L 9 28.125 C 9 28.746094 9.5 29.25 10.125 29.25 L 25.875 29.25 C 26.5 29.25 27 28.746094 27 28.125 L 27 16.875 C 27 16.25 26.5 15.75 25.875 15.75 L 24.75 15.75 L 24.75 11.25 C 24.75 6.75 22.5 6.75 20.25 6.75 L 15.75 6.75 C 13.5 6.75 11.25 6.75 11.25 11.25 Z M 20.25 11.25 L 20.25 15.75 L 15.75 15.75 L 15.75 11.25 Z M 20.25 11.25"
       id="path8" />
  </g>
  <path
     style="opacity:1;fill:#916f6f;fill-opacity:0.30952382;stroke:none;stroke-width:1;stroke-miterlimit:4;stroke-dasharray:none;stroke-opacity:0"
     d="M 1.8212091,44.931393 C 1.3732687,44.861604 0.66658408,44.354265 0.38780096,43.902331 L 0.1212657,43.47025 0.09552993,22.656141 C 0.0782343,8.6681028 0.09921789,1.7399559 0.15951325,1.5307818 0.29042308,1.0766351 0.83575582,0.48801333 1.345502,0.25064804 l 0.443853,-0.20668179 20.719424,0 20.719425,0 0.43961,0.20471599 c 0.520675,0.24246598 0.932325,0.68286633 1.131937,1.21099406 0.132928,0.3516917 0.142593,2.0510172 0.120529,21.1895737 -0.02247,19.489773 -0.03355,20.824695 -0.175063,21.083233 -0.225625,0.412213 -0.675752,0.827085 -1.120954,1.033159 l -0.396059,0.183328 -20.587733,0.0092 c -11.323254,0.0051 -20.6919212,-0.007 -20.8192619,-0.02683 z M 33.08887,36.367089 c 0.159633,-0.108645 0.372889,-0.309064 0.473902,-0.445376 0.182395,-0.24613 0.183837,-0.298188 0.209151,-7.550299 0.01402,-4.016352 0.0019,-7.433215 -0.02691,-7.593028 -0.07087,-0.393008 -0.596618,-0.957383 -0.994909,-1.068011 -0.176322,-0.04897 -0.64652,-0.08926 -1.044886,-0.08953 l -0.724302,-4.9e-4 -2.63e-4,-3.138641 C 30.980478,14.74182 30.937433,12.990934 30.88398,12.55292 30.628708,10.461155 29.829368,9.2320137 28.396893,8.7285389 27.52441,8.4218857 26.397754,8.3661524 21.879948,8.4061598 c -3.644301,0.032272 -4.372144,0.060056 -4.850714,0.1851686 -1.477772,0.3863324 -2.284603,1.2483579 -2.750286,2.9384286 -0.171569,0.622665 -0.187794,0.94353 -0.221059,4.371604 l -0.0359,3.699617 -0.892884,0.03305 c -1.038952,0.03846 -1.388696,0.194548 -1.707699,0.762136 l -0.194177,0.34552 0,7.415619 0,7.415618 0.199627,0.296226 c 0.109793,0.162924 0.332927,0.386057 0.495851,0.495851 l 0.296225,0.199626 10.289848,0 10.289849,0 0.290242,-0.197537 z"
     id="path3342"
     inkscape:connector-curvature="0"
     transform="scale(0.8,0.8)" />
  <path
     style="opacity:1;fill:#916f6f;fill-opacity:0.30952382;stroke:none;stroke-width:1;stroke-miterlimit:4;stroke-dasharray:none;stroke-opacity:0"
     d="M 1.1690927,44.619741 C 0.93775123,44.462809 0.62710415,44.182641 0.47876587,43.997144 L 0.20905987,43.659877 0.1595898,39.651332 C 0.13238126,37.446633 0.11262757,27.978356 0.11569272,18.610718 0.12094607,2.5555168 0.13008562,1.5625185 0.27504433,1.2974093 0.4956405,0.89396959 0.99542954,0.43517447 1.4440283,0.22430815 l 0.3873101,-0.1820572 20.6926626,0 20.692662,0 0.393415,0.19044866 c 0.497168,0.24067477 1.022687,0.77797949 1.17145,1.19772009 0.09335,0.2634056 0.112748,4.1344535 0.103953,20.7494233 -0.0059,11.234083 -0.03924,20.691082 -0.07399,21.015552 -0.05622,0.525018 -0.10172,0.63176 -0.413366,0.969856 -0.192604,0.20895 -0.517471,0.460889 -0.721928,0.559865 -0.37155,0.179864 -0.38242,0.179957 -21.229112,0.179957 l -20.8573724,0 -0.4206209,-0.285332 z m 32.0414793,-8.33388 c 0.609784,-0.502635 0.579758,-0.08101 0.579758,-8.14094 0,-4.922867 -0.0302,-7.364135 -0.09318,-7.53117 -0.13858,-0.36757 -0.603454,-0.807907 -0.956457,-0.905974 -0.171146,-0.04755 -0.63711,-0.08667 -1.035476,-0.08694 l -0.724302,-4.9e-4 -2.63e-4,-3.138641 c -1.76e-4,-1.73989 -0.04322,-3.490776 -0.09667,-3.92879 -0.255589,-2.09436 -1.054334,-3.3208089 -2.491765,-3.8260252 -0.860152,-0.3023195 -2.108523,-0.363011 -6.62503,-0.3220861 -3.655152,0.03312 -4.33683,0.059734 -4.782882,0.1867343 -1.130571,0.3218963 -1.876753,0.9368971 -2.337238,1.926343 -0.535338,1.150283 -0.547318,1.258979 -0.588486,5.339599 l -0.03777,3.743537 -0.892297,0.03303 c -1.038311,0.03844 -1.38816,0.194621 -1.70711,0.762115 l -0.194177,0.34552 0,7.442263 0,7.442265 0.229655,0.301092 c 0.12631,0.165601 0.353478,0.376596 0.504817,0.468878 0.266766,0.162667 0.58993,0.167796 10.592922,0.168114 l 10.31776,3.51e-4 0.33819,-0.278765 0,-2.3e-5 z"
     id="path3344"
     inkscape:connector-curvature="0"
     transform="scale(0.8,0.8)" />
  <path
     style="opacity:1;fill:#916f6f;fill-opacity:0.30952382;stroke:none;stroke-width:1;stroke-miterlimit:4;stroke-dasharray:none;stroke-opacity:0"
     d="M 1.1263985,44.565811 C 0.86329624,44.376732 0.54926229,44.089286 0.4285453,43.927044 L 0.20905987,43.632057 0.18405771,22.737044 C 0.17030652,11.244787 0.18241578,1.7112753 0.21096717,1.5514622 0.27763926,1.1782729 0.78147949,0.62200523 1.346227,0.2980721 l 0.443128,-0.25417343 20.700394,-8.2386e-4 20.700395,-8.2386e-4 0.419675,0.21266527 c 0.533203,0.27019431 1.030472,0.81818188 1.151998,1.26949318 0.06648,0.2468993 0.08738,6.5252752 0.07057,21.1997216 l -0.02389,20.848935 -0.266098,0.378594 c -0.146354,0.208228 -0.459305,0.498053 -0.695448,0.644056 l -0.42935,0.265459 -20.906418,0.02421 -20.9064187,0.02421 -0.4783678,-0.343782 z M 33.244832,36.253014 c 0.22761,-0.194826 0.397868,-0.433378 0.454285,-0.636508 0.126925,-0.456999 0.124873,-14.666517 -0.0022,-15.002755 -0.127074,-0.336331 -0.505938,-0.72634 -0.847588,-0.872521 -0.170299,-0.07287 -0.597463,-0.120879 -1.075476,-0.120879 l -0.792967,0 -7.02e-4,-3.138641 C 30.979424,12.97063 30.90957,12.084745 30.551704,11.046128 30.082454,9.6842967 29.237794,8.8932616 27.923443,8.5847482 27.316997,8.4423989 26.762738,8.4265943 22.377088,8.4265943 c -4.480181,0 -4.914998,0.012997 -5.399341,0.1613949 -1.143972,0.3504996 -1.822899,0.9040497 -2.322372,1.8934998 -0.521307,1.032704 -0.549312,1.279542 -0.60853,5.363713 l -0.0541,3.731252 -0.877942,0.04996 c -1.022237,0.05817 -1.316542,0.180812 -1.652622,0.688663 l -0.234953,0.355039 0,7.478048 0,7.478049 0.229655,0.301092 c 0.12631,0.165601 0.353478,0.376596 0.504817,0.468878 0.266768,0.162668 0.589995,0.167796 10.597122,0.168114 l 10.321961,3.51e-4 0.364049,-0.311612 0,-2.3e-5 z"
     id="path3346"
     inkscape:connector-curvature="0"
     transform="scale(0.8,0.8)" />
  <path
     style="opacity:1;fill:#916f6f;fill-opacity:0.30952382;stroke:none;stroke-width:1;stroke-miterlimit:4;stroke-dasharray:none;stroke-opacity:0"
     d="M 1.2604132,44.657075 C 1.0684632,44.515418 0.75338373,44.234818 0.56023656,44.03352 L 0.20905987,43.667522 0.18161629,23.018159 C 0.16652231,11.66101 0.18014648,2.1162467 0.21189222,1.8075749 0.26550843,1.2862506 0.29936058,1.2166044 0.68807772,0.82788723 0.91823406,0.59773094 1.2684792,0.32680792 1.4664003,0.22583609 l 0.3598567,-0.18358514 20.704857,0 20.704857,0 0.475391,0.28533105 c 0.261466,0.15693208 0.599222,0.44819903 0.75057,0.6472599 0.248416,0.3267288 0.280858,0.442717 0.333569,1.192599 0.07242,1.0302938 0.0521,39.6661171 -0.02145,40.7802641 -0.05256,0.79624 -0.05852,0.813463 -0.404527,1.168801 -0.193147,0.19836 -0.489452,0.447057 -0.658456,0.552661 l -0.30728,0.192008 -20.897189,0.02673 -20.89719,0.02673 -0.3489998,-0.257558 z M 33.261572,36.248702 c 0.204182,-0.184465 0.386743,-0.44932 0.438734,-0.636507 0.12582,-0.452983 0.12264,-14.66497 -0.0034,-14.998444 -0.127075,-0.336331 -0.505939,-0.72634 -0.847588,-0.872521 -0.169584,-0.07256 -0.596244,-0.120879 -1.067366,-0.120879 l -0.784853,0 -0.03764,-3.665406 C 30.9247,12.564982 30.907939,12.238692 30.736469,11.61292 30.374207,10.290862 29.724947,9.3436562 28.888514,8.9169397 27.946534,8.4363777 27.819247,8.4265943 22.508779,8.4265943 c -5.360111,0 -5.434735,0.00591 -6.387209,0.5058455 -0.618623,0.3247032 -1.110501,0.8444227 -1.466344,1.5493442 -0.534609,1.059055 -0.551092,1.20254 -0.595958,5.187829 -0.02256,2.003902 -0.07485,3.707133 -0.116208,3.784957 -0.05809,0.109327 -0.260719,0.151204 -0.891173,0.18418 -0.961796,0.05031 -1.294819,0.192322 -1.605651,0.684711 l -0.219008,0.346931 0,7.50141 0,7.501411 0.237693,0.282481 c 0.13073,0.155365 0.357898,0.355785 0.504816,0.445379 0.256187,0.156227 0.690406,0.162911 10.604635,0.163225 l 10.337511,3.51e-4 0.349689,-0.315924 0,-2.3e-5 z"
     id="path3348"
     inkscape:connector-curvature="0"
     transform="scale(0.8,0.8)" />
  <path
     style="opacity:1;fill:#916f6f;fill-opacity:0.30952382;stroke:none;stroke-width:1;stroke-miterlimit:4;stroke-dasharray:none;stroke-opacity:0"
     d="m 19.743263,16.854835 0,-2.765517 2.765516,0 2.765517,0 0,2.765517 0,2.765516 -2.765517,0 -2.765516,0 0,-2.765516 z"
     id="path3350"
     inkscape:connector-curvature="0"
     transform="scale(0.8,0.8)" />
  <path
     style="opacity:1;fill:#916f6f;fill-opacity:0.30952382;stroke:none;stroke-width:1;stroke-miterlimit:4;stroke-dasharray:none;stroke-opacity:0"
     d="m 19.743263,16.854835 0,-2.765517 2.765516,0 2.765517,0 0,2.765517 0,2.765516 -2.765517,0 -2.765516,0 0,-2.765516 z"
     id="path3352"
     inkscape:connector-curvature="0"
     transform="scale(0.8,0.8)" />
  <path
     style="opacity:1;fill:#916f6f;fill-opacity:0.30952382;stroke:none;stroke-width:1;stroke-miterlimit:4;stroke-dasharray:none;stroke-opacity:0"
     d="m 19.743263,16.854835 0,-2.765517 2.765516,0 2.765517,0 0,2.765517 0,2.765516 -2.765517,0 -2.765516,0 0,-2.765516 z"
     id="path3354"
     inkscape:connector-curvature="0"
     transform="scale(0.8,0.8)" />
  <path
     style="opacity:1;fill:#916f6f;fill-opacity:0.30952382;stroke:none;stroke-width:1;stroke-miterlimit:4;stroke-dasharray:none;stroke-opacity:0"
     d="m 19.743263,16.854835 0,-2.765517 2.765516,0 2.765517,0 0,2.765517 0,2.765516 -2.765517,0 -2.765516,0 0,-2.765516 z"
     id="path3356"
     inkscape:connector-curvature="0"
     transform="scale(0.8,0.8)" />
</svg>
