<?xml version="1.0" encoding="UTF-8" standalone="no"?>
<svg
   xmlns:dc="http://purl.org/dc/elements/1.1/"
   xmlns:cc="http://creativecommons.org/ns#"
   xmlns:rdf="http://www.w3.org/1999/02/22-rdf-syntax-ns#"
   xmlns:svg="http://www.w3.org/2000/svg"
   xmlns="http://www.w3.org/2000/svg"
   xmlns:sodipodi="http://sodipodi.sourceforge.net/DTD/sodipodi-0.dtd"
   xmlns:inkscape="http://www.inkscape.org/namespaces/inkscape"
   width="16"
   height="16"
   version="1.1"
   id="svg4"
   sodipodi:docname="battery-full-charged-symbolic.svg"
   inkscape:version="0.92.1 r15371">
  <metadata
     id="metadata10">
    <rdf:RDF>
      <cc:Work
         rdf:about="">
        <dc:format>image/svg+xml</dc:format>
        <dc:type
           rdf:resource="http://purl.org/dc/dcmitype/StillImage" />
      </cc:Work>
    </rdf:RDF>
  </metadata>
  <defs
     id="defs8" />
  <sodipodi:namedview
     pagecolor="#ffffff"
     bordercolor="#666666"
     borderopacity="1"
     objecttolerance="10"
     gridtolerance="10"
     guidetolerance="10"
     inkscape:pageopacity="0"
     inkscape:pageshadow="2"
     inkscape:window-width="1918"
     inkscape:window-height="1004"
     id="namedview6"
     showgrid="false"
     inkscape:zoom="14.75"
     inkscape:cx="8"
     inkscape:cy="8"
     inkscape:window-x="0"
     inkscape:window-y="24"
     inkscape:window-maximized="1"
     inkscape:current-layer="svg4" />
  <path
     style="fill:#5c616c"
     d="M 6,1 V 2 H 3 V 14 C 3,14.55 3.446,15 4,15 H 12 C 12.554,15 13,14.55 13,14 V 2 H 10 V 1 Z M 8,5 V 8 H 11 L 8,13 V 10 H 5 Z"
     id="path2" />
  <path
     style="fill:#1a1a1a;stroke-width:0.06779661"
     d="M 3.491427,14.809524 C 3.3720509,14.736736 3.2195085,14.576681 3.152444,14.453845 3.0380363,14.244296 3.0293544,13.85494 3.0118153,8.1470644 L 2.9931221,2.0636203 4.5033407,2.0453695 6.0135593,2.0271186 6.0334786,1.5355932 6.0533979,1.0440678 H 8.0165295 9.979661 v 0.5084746 0.5084745 h 1.492579 1.492578 l -0.018,6.1525424 c -0.01765,6.0326387 -0.02065,6.1560647 -0.153596,6.3332607 -0.310278,0.413539 -0.09262,0.395577 -4.7901212,0.395299 -4.1398874,-2.71e-4 -4.3024445,-0.005 -4.5116718,-0.132595 z M 9.5225708,10.517477 C 10.333292,9.165139 10.99661,8.0363254 10.99661,8.009002 c 0,-0.027324 -0.670603,-0.04968 -1.4902282,-0.04968 H 8.0161534 L 7.9979073,6.4675271 7.979661,4.9757321 6.4774121,7.4794024 C 5.6511752,8.856421 4.9927006,10.00061 5.0141353,10.022045 c 0.021435,0.02143 0.6898195,0.03897 1.4852998,0.03897 h 1.4463276 v 1.457627 c 0,0.801695 0.023123,1.457627 0.051384,1.457627 0.028261,0 0.7147021,-1.106457 1.5254237,-2.458794 z"
     id="path12"
     inkscape:connector-curvature="0" />
</svg>
