#define close_hover_width 10
#define close_hover_height 10
static unsigned char close_hover_bits[] = {
   0x7c, 0x00, 0xfe, 0x00, 0xff, 0x01, 0xef, 0x01, 0xc7, 0x01, 0xef, 0x01,
   0xff, 0x01, 0xfe, 0x00, 0x7c, 0x00, 0x00, 0x00 };
