#define close_hover_width 10
#define close_hover_height 10
static unsigned char close_hover_bits[] = {
   0x7c, 0x00, 0xee, 0x00, 0xef, 0x01, 0xef, 0x01, 0x01, 0x01, 0xef, 0x01,
   0xef, 0x01, 0xee, 0x00, 0x7c, 0x00, 0x00, 0x00 };
