<?xml version="1.0" encoding="UTF-8" standalone="no"?>
<svg
   xmlns:dc="http://purl.org/dc/elements/1.1/"
   xmlns:cc="http://creativecommons.org/ns#"
   xmlns:rdf="http://www.w3.org/1999/02/22-rdf-syntax-ns#"
   xmlns:svg="http://www.w3.org/2000/svg"
   xmlns="http://www.w3.org/2000/svg"
   xmlns:sodipodi="http://sodipodi.sourceforge.net/DTD/sodipodi-0.dtd"
   xmlns:inkscape="http://www.inkscape.org/namespaces/inkscape"
   width="512"
   height="512"
   version="1.1"
   viewBox="0 0 384 384"
   id="svg2"
   inkscape:version="0.91 r13725"
   sodipodi:docname="bluetooth-active.svg">
  <metadata
     id="metadata18">
    <rdf:RDF>
      <cc:Work
         rdf:about="">
        <dc:format>image/svg+xml</dc:format>
        <dc:type
           rdf:resource="http://purl.org/dc/dcmitype/StillImage" />
      </cc:Work>
    </rdf:RDF>
  </metadata>
  <defs
     id="defs16" />
  <sodipodi:namedview
     pagecolor="#ffffff"
     bordercolor="#666666"
     borderopacity="1"
     objecttolerance="10"
     gridtolerance="10"
     guidetolerance="10"
     inkscape:pageopacity="0"
     inkscape:pageshadow="2"
     inkscape:window-width="1366"
     inkscape:window-height="723"
     id="namedview14"
     showgrid="false"
     inkscape:zoom="1.0065002"
     inkscape:cx="256"
     inkscape:cy="256"
     inkscape:window-x="0"
     inkscape:window-y="0"
     inkscape:window-maximized="1"
     inkscape:current-layer="svg2" />
  <path
     d="m192 23.25c93.199 0 168.75 75.551 168.75 168.75s-75.551 168.75-168.75 168.75-168.75-75.551-168.75-168.75 75.551-168.75 168.75-168.75z"
     fill="#353a4a"
     fill-rule="evenodd"
     id="path4" />
  <path
     d="m145.59 163.79 34.797 35.188-34.797 35.187 11.066 11.156 28.93-28.613v67.168l52.816-49.801-32.02-35.098 31.934-35.047-52.445-48.805-0.24609 66.852-28.93-29.305zm55.93-15.758 16.039 15.27-16.039 19.785zm0 70.207 16.078 16.414-16.043 15.273z"
     opacity=".3"
     id="path6" />
  <path
     d="m145.59 156.29 34.797 35.188-34.797 35.188 11.066 11.156 28.93-28.613v67.168l52.816-49.801-32.02-35.098 31.934-35.047-52.445-48.805-0.24609 66.852-28.93-29.305zm55.93-15.758 16.039 15.27-16.039 19.785zm0 70.207 16.078 16.414-16.043 15.273z"
     fill="#fff"
     id="path8" />
  <path
     transform="scale(.75)"
     d="m31.064 251c-0.036282 1.6632-0.064453 3.3281-0.064453 5 0 124.27 100.73 225 225 225s225-100.73 225-225c0-1.6719-0.02817-3.3368-0.06445-5-2.6604 121.96-102.34 220-224.94 220-122.59 0-222.28-98.045-224.94-220z"
     fill-rule="evenodd"
     opacity=".3"
     stroke-width="1.3333"
     id="path10" />
  <path
     transform="scale(.75)"
     d="m256 31c-124.27 0-225 100.73-225 225 0 1.6719 0.028171 3.3368 0.064453 5 2.6604-121.96 102.34-220 224.94-220 122.59 0 222.28 98.045 224.94 220 0.03628-1.6632 0.06445-3.3281 0.06445-5 0-124.27-100.73-225-225-225z"
     fill="#fff"
     fill-rule="evenodd"
     opacity=".1"
     stroke-width="1.3333"
     id="path12" />
  <path
     style="opacity:1;fill:#ffffff;fill-opacity:0.30952382;stroke:none;stroke-width:1;stroke-miterlimit:4;stroke-dasharray:none;stroke-opacity:0"
     d="M 240.81206,470.39357 C 169.03968,465.73921 102.77776,425.8193 64.73126,364.31259 49.241944,339.27226 40.125331,315.11347 34.281106,283.62046 31.815596,270.33446 31.468431,266.31123 31.751987,254.31098 32.639018,216.77132 45.341318,177.51345 67.756745,143.0343 98.059259,96.42333 146.67737,61.530722 200.02756,48.105207 c 17.12619,-4.309785 29.42591,-5.972932 48.8936,-6.611307 28.02171,-0.918875 52.45729,2.573817 78.41514,11.20824 80.76809,26.866097 140.31645,98.78577 151.56399,183.05182 1.5422,11.55406 1.76165,36.41842 0.35671,40.41494 -0.38421,1.09289 -1.47293,6.45802 -2.4194,11.9225 -7.60186,43.88966 -32.05599,88.70669 -66.05758,121.06362 -45.22506,43.03752 -107.06411,65.31779 -169.96796,61.23855 z m 39.82778,-123.20598 c 10.10928,-9.49663 22.52598,-21.2303 27.59265,-26.07481 l 9.21213,-8.8082 -1.95455,-2.74492 -1.95456,-2.74493 2.41817,-2.41817 2.41818,-2.41817 -18.86602,-20.6979 c -10.3763,-11.38384 -18.866,-20.99497 -18.866,-21.35807 0,-0.3631 8.33406,-9.79094 18.52014,-20.95076 l 18.52013,-20.29058 -2.52583,-2.17263 -2.52583,-2.17263 2.91622,-2.91623 2.91622,-2.91622 -35.05558,-32.57939 -35.05558,-32.57939 -0.65811,4.81256 c -0.36197,2.64692 -0.72046,22.47278 -0.79666,44.05747 l -0.13851,39.2449 -18.83999,-19.33512 -18.84,-19.3351 -7.43737,7.38774 c -4.09056,4.06326 -7.43739,7.81721 -7.43739,8.34212 0,0.52491 0.9825,2.0002 2.18333,3.27842 l 2.18333,2.32404 -2.19279,2.1928 -2.19279,2.19278 20.61658,20.63413 20.61658,20.63413 -20.60712,20.62465 c -11.33391,11.34357 -20.60712,21.03904 -20.60712,21.5455 0,0.50647 0.97212,1.95562 2.16027,3.22035 l 2.16028,2.2995 -2.14124,2.27925 -2.14123,2.27924 7.44008,7.39043 7.44009,7.39043 18.86973,-18.85013 18.86974,-18.85013 0.007,37.74478 c 0.004,20.75963 0.29519,40.79594 0.64734,44.52514 l 0.64029,6.78035 7.05261,-6.85032 c 3.87903,-3.76767 15.32394,-14.62028 25.43323,-24.11691 z"
     id="path3346"
     inkscape:connector-curvature="0"
     transform="scale(0.74999998,0.74999998)" />
  <path
     style="opacity:1;fill:#ffffff;fill-opacity:0.30952382;stroke:none;stroke-width:1;stroke-miterlimit:4;stroke-dasharray:none;stroke-opacity:0"
     d="M 476.04174,218.94957 C 469.88157,187.47328 451.29462,149.21751 429.50309,123.16347 421.07946,113.09216 405.28575,97.357891 396.49754,90.28217 370.20273,69.111207 334.88226,52.537144 301.50421,45.706746 267.45866,38.739749 227.88124,40.171984 194.41214,49.582217 130.32,67.60247 75.735998,115.69555 49.244992,177.48662 c -5.448787,12.70945 -10.205993,27.00206 -12.95871,38.93329 -2.534254,10.98433 -2.540097,5.8828 -0.0076,-6.66224 5.006866,-24.80243 17.947654,-55.76371 32.262596,-77.18934 C 104.86014,78.208665 159.83314,43.423626 225.0015,33.565621 c 15.44895,-2.33696 46.93803,-2.340537 62.13702,-0.0071 47.74162,7.329698 89.14675,27.316784 123.04128,59.394504 28.95011,27.398309 50.81699,63.206429 61.52598,100.751859 3.21888,11.28532 6.88446,29.65784 6.46855,32.42153 -0.17405,1.15659 -1.13372,-2.07302 -2.13259,-7.17689 z"
     id="path3348"
     inkscape:connector-curvature="0"
     transform="scale(0.74999998,0.74999998)" />
  <path
     style="opacity:1;fill:#ffffff;fill-opacity:0.30952382;stroke:none;stroke-width:1;stroke-miterlimit:4;stroke-dasharray:none;stroke-opacity:0"
     d="M 228.97566,478.83274 C 134.16207,467.0769 57.611536,397.57394 36.817189,304.36521 c -1.416637,-6.34995 -2.544475,-12.83281 -2.506306,-14.40636 0.03817,-1.57354 1.113149,1.60994 2.388844,7.07442 16.881142,72.31094 67.931543,131.2184 137.657433,158.84402 13.46154,5.3335 33.70649,10.70544 49.68622,13.18409 15.60626,2.42072 47.68519,2.41139 63.51583,-0.0185 40.57683,-6.22817 78.10381,-22.48127 109.32501,-47.34911 18.26801,-14.55058 39.22924,-38.50011 51.55272,-58.90226 12.25314,-20.2857 23.47397,-48.24472 27.78639,-69.23565 1.06651,-5.19126 1.98236,-8.37709 2.03521,-7.07963 0.0529,1.29747 -1.03795,7.95988 -2.424,14.80536 -6.86337,33.89703 -23.36608,68.77154 -45.47447,96.09938 -9.14283,11.30131 -28.29755,29.68897 -39.93387,38.33471 -32.6385,24.25028 -70.7301,39.20641 -110.98914,43.57831 -12.71509,1.3808 -37.42661,1.15491 -50.4614,-0.46127 z"
     id="path3350"
     inkscape:connector-curvature="0"
     transform="scale(0.74999998,0.74999998)" />
  <path
     style="opacity:1;fill:#ffffff;fill-opacity:0.30952382;stroke:none;stroke-width:1;stroke-miterlimit:4;stroke-dasharray:none;stroke-opacity:0"
     d="M 248.8465,470.72081 C 208.61771,467.21368 185.0841,461.16169 156.50973,446.97513 88.827873,413.37258 44.273983,351.14072 33.184275,274.71697 c -1.450186,-9.99383 -0.630786,-36.41081 1.480437,-47.72839 0.840128,-4.50366 1.031368,-7.82496 0.483406,-8.39543 -1.480865,-1.54168 -1.033992,-2.51889 0.832065,-1.81955 1.549682,0.58077 1.583629,0.46114 0.312272,-1.10045 -1.116124,-1.37091 -1.157624,-1.91819 -0.19077,-2.51573 0.788758,-0.48748 1.006088,-1.80759 0.600909,-3.65007 -0.424207,-1.92899 -0.325053,-2.44785 0.298934,-1.56431 0.69044,0.97765 1.094512,0.51793 1.551024,-1.76464 1.170669,-5.85335 10.8263,-30.38496 16.250218,-41.28618 22.964393,-46.15479 65.14424,-85.905063 112.57331,-106.089044 27.96064,-11.898969 54.75947,-17.270854 87.43167,-17.525868 28.24759,-0.220479 51.30077,3.484474 75.0124,12.055491 21.40147,7.735964 55.57131,25.972502 61.3512,32.743296 0.95629,1.120229 1.75357,1.651929 1.77176,1.181555 0.0182,-0.470373 0.91237,0.200268 1.98708,1.490313 1.07471,1.290045 1.95403,1.966277 1.95403,1.502735 0,-1.610286 30.00929,28.985562 36.17977,36.886942 14.28959,18.29798 29.43487,46.5374 37.14011,69.25028 2.16903,6.39368 4.25593,11.31263 4.63756,10.931 0.38163,-0.38163 0.36878,0.60141 -0.0285,2.18452 -0.54732,2.18069 -0.42067,2.6919 0.52246,2.10901 0.91591,-0.56606 1.06379,-0.1988 0.55959,1.38981 -0.38541,1.21429 -0.17717,2.77144 0.47585,3.55829 0.63864,0.76951 0.87274,1.86579 0.52022,2.43618 -0.35252,0.57038 -0.15172,1.03706 0.4462,1.03706 0.71925,0 0.77957,0.58837 0.17824,1.7387 -0.57313,1.09638 -0.42197,4.67497 0.40917,9.68703 0.72493,4.37158 1.34175,15.63809 1.3707,25.03668 0.0465,15.08574 -0.29337,18.83013 -2.89997,31.95099 -13.71694,69.04697 -57.2016,126.68443 -119.01017,157.74393 -20.61557,10.35956 -41.75305,17.24927 -64.82309,21.12891 -13.7612,2.3142 -36.17717,4.058 -43.71584,3.40078 z m 32.25435,-123.41113 c 15.86666,-14.97092 30.58881,-28.90114 32.7159,-30.95605 3.82027,-3.69065 3.96749,-4.5129 1.43625,-8.02223 -0.93945,-1.30247 -0.73278,-2.16992 1.06006,-4.44914 l 2.22703,-2.83121 -4.96902,-4.98952 c -2.73295,-2.74423 -7.34844,-7.65038 -10.25664,-10.90256 -2.90818,-3.25218 -7.62536,-8.28199 -10.48261,-11.17734 -2.85724,-2.89536 -4.8902,-5.2643 -4.51768,-5.2643 0.37252,0 -1.0769,-1.79647 -3.22093,-3.99216 -3.68512,-3.77389 -3.81836,-4.12045 -2.43711,-6.33902 0.80363,-1.29078 8.83818,-10.47191 17.85457,-20.40252 9.01639,-9.93061 16.54508,-18.48676 16.73042,-19.01368 0.18533,-0.52691 -0.70885,-1.80937 -1.98709,-2.8499 l -2.32406,-1.89188 2.73224,-2.86442 c 2.67226,-2.80154 3.50216,-4.49379 1.96048,-3.99762 -0.42447,0.13661 -3.81888,-2.97931 -7.54312,-6.92427 -3.72425,-3.94497 -7.08444,-7.07462 -7.46709,-6.95479 -0.38265,0.11982 -3.5102,-2.78699 -6.95008,-6.4596 -3.43988,-3.6726 -6.56954,-6.57871 -6.95479,-6.45802 -0.38525,0.12069 -3.52709,-2.79844 -6.98187,-6.48697 -3.45478,-3.68852 -6.73649,-6.7064 -7.29271,-6.7064 -0.5562,0 -3.67422,-2.90611 -6.92889,-6.45802 -3.25468,-3.55192 -6.39087,-6.45803 -6.9693,-6.45803 -0.57844,0 -3.39737,-2.57078 -6.26432,-5.71286 -2.86694,-3.14208 -5.5955,-5.33859 -6.06346,-4.88113 -0.46796,0.45745 -0.81798,20.38802 -0.7778,44.29014 l 0.073,43.4584 -18.95033,-19.23491 -18.95034,-19.23491 -7.84311,7.38722 c -7.83084,7.37566 -8.09326,7.94959 -5.3694,11.7437 0.9838,1.37037 0.85849,2.06508 -0.67896,3.76393 -2.12534,2.34846 -5.49353,-1.60684 26.87839,31.56353 l 12.84615,13.163 -19.19905,18.52813 c -10.55947,10.19048 -19.92383,19.63429 -20.80967,20.98627 -1.51074,2.30567 -1.49081,2.5465 0.32126,3.88333 2.16287,1.59561 2.04317,3.91157 -0.33989,6.57595 -1.49437,1.67079 -1.11294,2.26677 6.00822,9.38793 l 7.60389,7.60389 18.67161,-18.5458 18.67161,-18.54579 0.54342,43.43505 c 0.29888,23.88928 0.6342,43.61612 0.74516,43.83743 0.30615,0.61064 2.36196,-1.2702 33.44962,-30.60285 z"
     id="path3352"
     inkscape:connector-curvature="0"
     transform="scale(0.74999998,0.74999998)" />
  <path
     style="opacity:1;fill:#ffffff;fill-opacity:0.30952382;stroke:none;stroke-width:1;stroke-miterlimit:4;stroke-dasharray:none;stroke-opacity:0"
     d="m 268.71733,307.01006 0,-15.80868 8.21017,7.88366 c 4.51559,4.33601 8.19102,7.88365 8.16762,7.88365 -0.0234,0 -3.71797,3.56626 -8.21017,7.92503 l -8.16762,7.92502 0,-15.80868 z"
     id="path3354"
     inkscape:connector-curvature="0"
     transform="scale(0.74999998,0.74999998)" />
  <path
     style="opacity:1;fill:#ffffff;fill-opacity:0.30952382;stroke:none;stroke-width:1;stroke-miterlimit:4;stroke-dasharray:none;stroke-opacity:0"
     d="m 268.71733,215.57445 0,-17.70655 2.23547,1.85533 c 4.13841,3.43467 13.6612,12.79114 13.6612,13.42259 0,0.47043 -13.17357,17.22101 -15.50983,19.72122 -0.21276,0.22768 -0.38684,-7.55398 -0.38684,-17.29259 z"
     id="path3356"
     inkscape:connector-curvature="0"
     transform="scale(0.74999998,0.74999998)" />
</svg>
