<?xml version="1.0" encoding="UTF-8" standalone="no"?>
<!-- Created with Inkscape (http://www.inkscape.org/) -->

<svg
   xmlns:dc="http://purl.org/dc/elements/1.1/"
   xmlns:cc="http://creativecommons.org/ns#"
   xmlns:rdf="http://www.w3.org/1999/02/22-rdf-syntax-ns#"
   xmlns:svg="http://www.w3.org/2000/svg"
   xmlns="http://www.w3.org/2000/svg"
   xmlns:sodipodi="http://sodipodi.sourceforge.net/DTD/sodipodi-0.dtd"
   xmlns:inkscape="http://www.inkscape.org/namespaces/inkscape"
   id="svg2"
   version="1.1"
   inkscape:version="0.91 r13725"
   width="860"
   height="860"
   viewBox="0 0 860 860"
   sodipodi:docname="openscad.svg">
  <metadata
     id="metadata8">
    <rdf:RDF>
      <cc:Work
         rdf:about="">
        <dc:format>image/svg+xml</dc:format>
        <dc:type
           rdf:resource="http://purl.org/dc/dcmitype/StillImage" />
        <dc:title />
      </cc:Work>
    </rdf:RDF>
  </metadata>
  <defs
     id="defs6" />
  <sodipodi:namedview
     pagecolor="#ffffff"
     bordercolor="#666666"
     borderopacity="1"
     objecttolerance="10"
     gridtolerance="10"
     guidetolerance="10"
     inkscape:pageopacity="0"
     inkscape:pageshadow="2"
     inkscape:window-width="1366"
     inkscape:window-height="720"
     id="namedview4"
     showgrid="false"
     inkscape:zoom="0.26010608"
     inkscape:cx="811.97066"
     inkscape:cy="191.51549"
     inkscape:window-x="0"
     inkscape:window-y="0"
     inkscape:window-maximized="1"
     inkscape:current-layer="svg2" />
  <g
     id="g4142"
     transform="translate(5.6702776,2.0989181)">
    <path
       style="fill:#fefefe"
       d="M 0,430 0,0 l 430,0 430,0 0,430 0,430 -430,0 -430,0 0,-430 z"
       id="path4158"
       inkscape:connector-curvature="0" />
    <path
       style="fill:#b6b6b6"
       d="M 403.125,758.07791 C 360.62416,753.4201 313.69494,738.35424 276.81554,717.52832 L 259.375,707.6796 237.5,719.08415 c -46.44896,24.21621 -42.60238,22.59104 -54.85708,23.17695 -12.84308,0.61404 -20.5819,-0.81036 -33.40437,-6.14837 C 111.43775,720.37621 72.394007,677.8255 45.563107,623.125 25.426992,582.07324 16.084261,546.20431 15.934803,509.375 c -0.127172,-31.33713 6.945684,-53.49804 21.714082,-68.03533 4.799466,-4.72435 10.088172,-7.87127 23.943137,-14.24677 36.849723,-16.95678 47.000938,-22.13006 47.654968,-24.28605 0.36403,-1.20001 1.81091,-10.13438 3.21528,-19.85413 C 127.26544,280.49926 188.64776,191.49681 279.375,140.9345 297.17614,131.01392 323.7865,119.55975 345,112.68686 389.94626,98.124874 446.38949,94.826466 496.43255,103.8375 c 17.86468,3.21682 48.71344,12.19614 64.19245,18.68486 6.875,2.88197 15.13916,6.2912 18.36481,7.57608 7.57308,3.01658 29.55193,15.1411 38.98419,21.50541 4.04195,2.72726 8.54195,4.93914 10,4.9153 1.45805,-0.0239 10.80725,-3.95995 20.776,-8.74691 24.1305,-11.58736 25.72944,-12.04809 41.875,-12.06595 21.73909,-0.024 37.02412,5.33019 60.81021,21.30135 44.34639,29.7764 82.83723,93.6337 92.34493,153.20268 2.41096,15.10552 0.97896,52.91481 -2.44959,64.67657 -4.72474,16.20842 -10.90695,27.29869 -20.65082,37.04549 -7.63654,7.63882 -11.36725,10.11088 -28.1186,18.63206 C 769.3577,442.36767 767.5,443.96875 767.5,452.16347 c 0,14.4583 -5.05735,44.08034 -11.47497,67.21153 -5.76992,20.79659 -11.58378,35.46802 -22.78559,57.5 -17.3711,34.16586 -36.21309,60.19054 -62.47752,86.29435 -45.50291,45.22464 -97.51176,73.87696 -159.51192,87.87712 -20.20036,4.56143 -30.78614,6.02108 -55.625,7.67008 -23.4684,1.55801 -33.57848,1.43504 -52.5,-0.63864 z M 531.69457,640.54273 c 11.33713,-2.88914 26.73979,-10.84486 34.55543,-17.84842 l 6.875,-6.16066 -2.5,-2.79381 c -4.00833,-4.4794 -15.91873,-12.10755 -28.35592,-18.16087 -12.29162,-5.98245 -24.27227,-10.24245 -25.46136,-9.05336 -0.39743,0.39744 -1.24604,6.2552 -1.8858,13.01725 -1.26857,13.40853 0.41619,38.47723 2.77708,41.32193 1.76642,2.12841 4.63922,2.0623 13.99557,-0.32206 z M 369.12497,262.0758 c 1.79594,-4.68011 -4.29706,-39.6251 -7.35092,-42.15959 -1.1409,-0.94685 -4.95132,-0.75496 -13.25024,0.6673 -12.71562,2.17918 -28.30044,8.94291 -36.07182,15.655 -4.24968,3.67041 -4.28233,3.77248 -1.82699,5.71235 4.88321,3.85809 23.60091,12.21108 37.9453,16.93355 15.75061,5.18543 19.56239,5.77727 20.55467,3.19139 z"
       id="path4156"
       inkscape:connector-curvature="0" />
    <path
       style="fill:#a9a9a9"
       d="M 403.125,758.07791 C 360.62416,753.4201 313.69494,738.35424 276.81554,717.52832 L 259.375,707.6796 237.5,719.08415 c -46.44896,24.21621 -42.60238,22.59104 -54.85708,23.17695 -12.84308,0.61404 -20.5819,-0.81036 -33.40437,-6.14837 C 111.43775,720.37621 72.394007,677.8255 45.563107,623.125 25.426992,582.07324 16.084261,546.20431 15.934803,509.375 c -0.0731,-18.01379 1.092574,-26.55077 5.547124,-40.625 6.237918,-19.70883 15.425395,-30.04109 34.768073,-39.10028 7.21875,-3.38092 21.5625,-10.0968 31.875,-14.92417 10.3125,-4.82737 19.45313,-9.66046 20.3125,-10.74021 1.27015,-1.59585 1.5625,1.13736 1.5625,14.60792 0,15.56561 1.20361,22.35549 3.69041,20.81856 0.58574,-0.362 2.28908,-4.68826 3.7852,-9.6139 6.90783,-22.74252 16.50415,-35.55198 32.35909,-43.1939 8.25747,-3.98 11.03379,-4.67076 20.64721,-5.13716 22.43475,-1.08844 41.87065,6.46106 66.02942,25.64781 12.18165,9.67462 29.99768,26.92948 34.21605,33.13833 2.0062,2.95284 9.05553,12.68201 15.66521,21.6204 6.60966,8.93837 13.2349,18.5016 14.72272,21.2516 1.48784,2.75 3.80764,6.6875 5.15513,8.75 1.34749,2.0625 3.40457,5.57812 4.57128,7.8125 2.3565,4.51291 3.17978,4.87268 5.30118,2.31654 0.79696,-0.96028 2.50558,-1.46967 3.79691,-1.13197 1.57257,0.41124 3.04958,-0.45693 4.4728,-2.62905 1.34592,-2.05411 3.26647,-3.24302 5.23875,-3.24302 1.83259,0 4.12528,-1.28584 5.57196,-3.125 1.37869,-1.75273 3.75073,-3.125 5.40168,-3.125 1.65095,0 4.02299,-1.37228 5.40167,-3.125 1.37357,-1.74621 3.75754,-3.12849 5.40323,-3.1329 1.9428,-0.005 3.65249,-1.25131 5.02365,-3.66148 1.50095,-2.63827 2.75929,-3.47553 4.52823,-3.01295 1.73373,0.45338 3.25176,-0.48581 5.19407,-3.21353 1.5288,-2.147 3.87275,-3.85414 5.29186,-3.85414 1.40113,0 3.65364,-1.40625 5.00562,-3.125 1.35197,-1.71875 3.53523,-3.125 4.85172,-3.125 1.43313,0 3.66012,-2.00631 5.54995,-5 1.99479,-3.15995 4.09201,-5 5.69881,-5 1.51624,0 3.40195,-1.51044 4.67183,-3.7421 1.34028,-2.35539 3.14005,-3.74503 4.85675,-3.75 1.59774,-0.005 3.83335,-1.56109 5.39761,-3.7579 1.46862,-2.0625 3.42935,-3.75 4.35718,-3.75 0.92781,0 2.71763,-2.10938 3.97737,-4.6875 1.25975,-2.57813 3.91112,-5.45669 5.89195,-6.39681 1.98081,-0.94012 4.20354,-3.30432 4.93937,-5.25378 0.9048,-2.39709 2.35614,-3.66464 4.48346,-3.91569 2.49247,-0.29415 3.37429,-1.34445 4.24728,-5.05872 0.86818,-3.69379 1.69535,-4.6875 3.90192,-4.6875 1.77978,0 3.32321,-1.14791 4.23546,-3.1501 0.78941,-1.73255 2.76934,-3.6573 4.39984,-4.27721 1.91781,-0.72915 3.23812,-2.49493 3.73932,-5.00095 0.60278,-3.01388 1.5821,-4.03529 4.41158,-4.60119 3.07937,-0.61588 3.75622,-1.47408 4.41582,-5.59895 0.5951,-3.72161 1.35181,-4.8716 3.20558,-4.8716 1.54446,0 3.18128,-1.59043 4.50265,-4.375 1.14185,-2.40625 2.71511,-4.37711 3.49615,-4.37969 0.78103,-0.002 2.46016,-2.53382 3.7314,-5.625 1.27122,-3.09117 2.8468,-5.62031 3.50127,-5.62031 0.65449,0 2.01256,-1.96875 3.01796,-4.375 1.00539,-2.40625 2.66419,-4.375 3.68622,-4.375 1.02202,0 1.85822,-0.80059 1.85822,-1.77909 0,-0.97851 1.32929,-3.36914 2.95396,-5.3125 1.62468,-1.94337 3.33359,-4.74707 3.79758,-6.23044 0.464,-1.48336 1.66596,-3.01258 2.67105,-3.39826 1.00507,-0.38569 1.82741,-1.61456 1.82741,-2.73082 0,-1.11627 1.125,-3.45978 2.5,-5.2078 1.375,-1.74803 2.5,-4.20759 2.5,-5.46568 0,-1.2581 1.125,-2.88954 2.5,-3.62541 1.40768,-0.75336 2.5,-2.61728 2.5,-4.26593 0,-1.61037 0.84375,-3.62821 1.875,-4.48407 1.03125,-0.85586 1.875,-2.57206 1.875,-3.81378 0,-1.24171 0.84375,-3.1014 1.875,-4.13265 1.03125,-1.03125 1.875,-3.0152 1.875,-4.40877 0,-1.39358 1.40625,-4.606 3.125,-7.13873 2.71884,-4.00642 3.19573,-5.33197 3.10825,-8.63956 -0.009,-0.34842 1.39703,-3.42347 3.125,-6.83345 3.41191,-6.7331 4.04928,-11.28526 1.57925,-11.27927 -0.85937,0.002 -7.1875,1.09406 -14.0625,2.42662 -6.875,1.33258 -15.3125,2.77428 -18.75,3.20379 -3.4375,0.42951 -7.375,1.12321 -8.75,1.54156 -1.375,0.41835 -5.03125,0.84295 -8.125,0.94356 -3.09375,0.10063 -15.48036,0.64849 -27.5258,1.21752 -15.24637,0.72025 -24.9314,0.59173 -31.875,-0.42295 -5.48581,-0.80165 -15.88045,-1.98175 -23.0992,-2.62243 -18.57322,-1.64842 -26.5781,-3.65182 -25.84179,-6.46747 1.57814,-6.03482 -4.31113,-39.85739 -7.38416,-42.40778 -1.14104,-0.94697 -4.94167,-0.75262 -13.22022,0.67603 -12.795,2.20805 -25.81763,7.7612 -35.4587,15.1204 l -5.83984,4.45763 -5.19014,-3.4048 c -8.95155,-5.87231 -21.44586,-19.57572 -25.6678,-28.15172 -6.02134,-12.23109 -7.29535,-21.2982 -4.5744,-32.55591 2.68388,-11.1043 6.41506,-17.76219 15.38211,-27.44767 8.36559,-9.03583 19.04634,-17.16087 30.4052,-23.12978 4.75185,-2.49703 8.63974,-4.98638 8.63974,-5.53188 0,-1.37528 24.15745,-9.24583 40,-13.03208 40.21172,-9.61032 87.67604,-10.732889 130.18255,-3.07893 17.86468,3.21682 48.71344,12.19614 64.19245,18.68486 6.875,2.88197 15.13916,6.2912 18.36481,7.57608 7.57308,3.01658 29.55193,15.1411 38.98419,21.50541 4.04195,2.72726 8.54195,4.93914 10,4.9153 1.45805,-0.0239 10.80725,-3.95995 20.776,-8.74691 24.1305,-11.58737 25.72944,-12.04809 41.875,-12.06595 21.73909,-0.024 37.02412,5.33018 60.81021,21.30135 44.34639,29.7764 82.83723,93.6337 92.34493,153.20268 2.41096,15.10552 0.97896,52.9148 -2.44959,64.67657 -4.72474,16.20842 -10.90695,27.29869 -20.65082,37.04549 -7.63654,7.63882 -11.36725,10.11088 -28.1186,18.63206 C 769.3577,442.36767 767.5,443.96875 767.5,452.16347 c 0,12.08137 -6.78693,54.07094 -10.03904,62.10985 -1.60445,3.96605 -1.32155,0.92847 0.68904,-7.39832 3.2293,-13.37407 1.76767,-12.88603 -1.87174,0.625 -1.94449,7.21875 -4.08046,14.83864 -4.74662,16.93309 -1.70474,5.35982 -10.25574,24.64757 -11.70089,26.39267 -0.86754,1.0476 -13.92924,-6.00145 -47.00141,-25.36541 l -45.80002,-26.81617 -4.63557,3.49041 c -2.54956,1.91972 -9.33429,7.05531 -15.07716,11.41241 -5.74288,4.3571 -13.66929,9.70085 -17.61425,11.875 l -7.17268,3.953 -0.0199,6.25 c -0.0491,15.47949 -7.38246,45.42696 -14.69229,60 -3.51504,7.00765 -14.6031,23.16095 -19.56449,28.5019 -1.78916,1.92605 -3.25302,3.93366 -3.25302,4.46136 0,0.5277 16.86715,11.22723 37.48255,23.77673 20.6154,12.5495 37.75492,23.25797 38.08781,23.79661 1.10999,1.79599 -8.43111,9.48584 -31.92056,25.72705 -16.55805,11.44865 -29.15246,18.93701 -46.53494,27.66864 -16.76265,8.42027 -22.7324,10.79138 -40.86486,16.23103 -13.24836,3.97445 -13.42955,4.3291 -1.25,2.4467 2.40625,-0.3719 -0.96875,0.69614 -7.5,2.3734 -16.07038,4.12697 -32.9878,6.53409 -56.85366,8.0895 -24.47172,1.5949 -33.25737,1.49119 -52.52134,-0.62001 z m 97.1875,-6.40576 c -0.85938,-0.34676 -2.26563,-0.34676 -3.125,0 -0.85938,0.34676 -0.15625,0.63049 1.5625,0.63049 1.71875,0 2.42187,-0.28373 1.5625,-0.63049 z m 5.59896,-1.17736 c -0.41536,-0.41536 -1.4935,-0.45976 -2.39584,-0.0986 -0.99716,0.39903 -0.70097,0.69523 0.75522,0.7552 1.3177,0.0543 2.05598,-0.24116 1.64062,-0.65652 z m 25.78311,-109.95206 c 11.33713,-2.88914 26.73979,-10.84485 34.55543,-17.84842 l 6.875,-6.16066 -2.5,-2.79381 c -4.00833,-4.4794 -15.91873,-12.10755 -28.35592,-18.16086 -12.29162,-5.98245 -24.27227,-10.24245 -25.46136,-9.05337 -0.39743,0.39744 -1.24604,6.2552 -1.8858,13.01725 -1.26857,13.40853 0.41619,38.47723 2.77708,41.32193 1.76642,2.12841 4.63922,2.0623 13.99557,-0.32206 z M 760.85389,491.01562 c -0.39903,-0.99716 -0.69523,-0.70097 -0.7552,0.75522 -0.0543,1.3177 0.24116,2.05598 0.65652,1.64062 0.41536,-0.41536 0.45977,-1.4935 0.0986,-2.39584 z m 1.25,-6.25 c -0.39903,-0.99716 -0.69523,-0.70097 -0.7552,0.75522 -0.0543,1.3177 0.24116,2.05598 0.65652,1.64062 0.41536,-0.41536 0.45977,-1.4935 0.0986,-2.39584 z M 538.75,257.5 c 1.61586,-1.04425 1.58286,-1.21436 -0.23873,-1.23086 -1.16255,-0.01 -2.46137,0.54336 -2.88627,1.23086 -0.97772,1.582 0.67704,1.582 3.125,0 z m -11.875,488.75 c 1.375,-0.59086 3.34375,-1.07429 4.375,-1.07429 1.18185,0 0.9508,0.39714 -0.625,1.07429 -1.375,0.59086 -3.34375,1.07429 -4.375,1.07429 -1.18185,0 -0.9508,-0.39714 0.625,-1.07429 z m 7.89062,-2.10389 c 0.90234,-0.36109 1.98048,-0.31668 2.39584,0.0986 0.41536,0.41536 -0.32292,0.7108 -1.64062,0.65652 -1.45619,-0.06 -1.75238,-0.35617 -0.75522,-0.7552 z M 551.25,738.75 c 1.03125,-0.66645 2.4375,-1.21171 3.125,-1.21171 0.6875,0 0.40625,0.54526 -0.625,1.21171 -1.03125,0.66645 -2.4375,1.21171 -3.125,1.21171 -0.6875,0 -0.40625,-0.54526 0.625,-1.21171 z m 6.25,-2.5 c 1.03125,-0.66645 2.4375,-1.21171 3.125,-1.21171 0.6875,0 0.40625,0.54526 -0.625,1.21171 -1.03125,0.66645 -2.4375,1.21171 -3.125,1.21171 -0.6875,0 -0.40625,-0.54526 0.625,-1.21171 z m 6.25,-2.5 c 1.03125,-0.66645 2.4375,-1.21171 3.125,-1.21171 0.6875,0 0.40625,0.54526 -0.625,1.21171 -1.03125,0.66645 -2.4375,1.21171 -3.125,1.21171 -0.6875,0 -0.40625,-0.54526 0.625,-1.21171 z m 6.25,-2.5 c 1.03125,-0.66645 2.4375,-1.21171 3.125,-1.21171 0.6875,0 0.40625,0.54526 -0.625,1.21171 -1.03125,0.66645 -2.4375,1.21171 -3.125,1.21171 -0.6875,0 -0.40625,-0.54526 0.625,-1.21171 z M 741.95536,557.13359 c 0.46942,-1.23278 1.16837,-1.92653 1.55323,-1.54167 0.38486,0.38487 8e-4,1.39349 -0.85348,2.24142 -1.23452,1.22532 -1.3781,1.08175 -0.69975,-0.69975 z m 1.83293,-4.00859 c 0,-0.6875 0.54526,-2.09375 1.21171,-3.125 0.66645,-1.03125 1.21171,-1.3125 1.21171,-0.625 0,0.6875 -0.54526,2.09375 -1.21171,3.125 -0.66645,1.03125 -1.21171,1.3125 -1.21171,0.625 z m 2.60335,-6.875 c 0.0241,-1.03125 1.1258,-4.125 2.44827,-6.875 1.32248,-2.75 2.0535,-3.63008 1.6245,-1.95571 -1.17252,4.57621 -4.1228,10.9731 -4.07277,8.83071 z m 6.28707,-18.125 c 0.0125,-2.60778 3.32399,-12.18779 3.45721,-10 0.0419,0.6875 -0.72146,3.78125 -1.69627,6.875 -0.97483,3.09375 -1.76725,4.5 -1.76094,3.125 z"
       id="path4154"
       inkscape:connector-curvature="0" />
    <path
       style="fill:#868686"
       d="m 401.25,755.71691 c -29.00901,-3.3582 -58.45811,-10.4311 -81.87035,-19.66311 -14.38741,-5.67331 -44.85856,-20.44408 -53.12965,-25.75438 -3.09375,-1.98628 -10.61263,-6.6631 -16.7086,-10.39292 -18.99698,-11.62329 -52.9189,-43.05839 -66.05981,-61.21696 -2.2148,-3.0605 -4.34035,-5.84579 -4.72343,-6.18954 -0.38307,-0.34375 -3.57435,-4.5625 -7.09171,-9.375 -26.06405,-35.66109 -46.87006,-81.5398 -54.70349,-120.625 -3.63202,-18.12214 -6.93528,-44.69545 -6.95162,-55.92276 -0.0106,-7.27782 0.17074,-7.77792 2.71931,-7.5 2.33291,0.25438 3.23832,-1.06324 6.21604,-9.04617 1.91697,-5.13915 4.52443,-10.73557 5.79435,-12.4365 3.29811,-4.41745 61.90101,-32.46306 67.75896,-32.42742 2.40625,0.0146 7.1875,1.02397 10.625,2.24297 7.19252,2.55059 7.0998,2.115 4.0102,18.83988 -1.57643,8.53367 -1.71049,12.71633 -0.68109,21.25 1.32311,10.96849 5.52806,24.91069 9.56925,31.7284 2.07036,3.49285 2.88176,3.87565 7.83066,3.69437 6.73016,-0.24651 26.25331,-6.69386 37.67728,-12.44258 4.62346,-2.3266 9.15374,-4.23019 10.06729,-4.23019 0.91355,0 3.38996,1.82812 5.50315,4.0625 5.17701,5.47391 20.63651,26.60538 24.00517,32.8125 1.49245,2.75 3.81604,6.6875 5.16353,8.75 1.34749,2.0625 3.40457,5.57812 4.57128,7.8125 2.3565,4.51291 3.17978,4.87268 5.30118,2.31654 0.79696,-0.96028 2.50558,-1.46967 3.79691,-1.13197 1.57257,0.41124 3.04958,-0.45693 4.4728,-2.62905 1.34592,-2.05411 3.26647,-3.24302 5.23875,-3.24302 1.83259,0 4.12528,-1.28584 5.57196,-3.125 1.37869,-1.75273 3.75073,-3.125 5.40168,-3.125 1.65095,0 4.02299,-1.37228 5.40167,-3.125 1.37357,-1.74621 3.75754,-3.12849 5.40323,-3.1329 1.9428,-0.005 3.65249,-1.25131 5.02365,-3.66148 1.50095,-2.63827 2.75929,-3.47553 4.52823,-3.01295 1.73373,0.45338 3.25176,-0.48581 5.19407,-3.21353 1.5288,-2.147 3.87275,-3.85414 5.29186,-3.85414 1.40113,0 3.65364,-1.40625 5.00562,-3.125 1.35197,-1.71875 3.53523,-3.125 4.85172,-3.125 1.43313,0 3.66012,-2.00631 5.54995,-5 1.99479,-3.15995 4.09201,-5 5.69881,-5 1.51624,0 3.40195,-1.51044 4.67183,-3.7421 1.34028,-2.35539 3.14005,-3.74503 4.85675,-3.75 1.59774,-0.005 3.83335,-1.56109 5.39761,-3.7579 1.46862,-2.0625 3.42935,-3.75 4.35718,-3.75 0.92781,0 2.71763,-2.10938 3.97737,-4.6875 1.25975,-2.57813 3.91112,-5.45669 5.89195,-6.39681 1.98081,-0.94012 4.20354,-3.30432 4.93937,-5.25378 0.9048,-2.39709 2.35614,-3.66464 4.48346,-3.91569 2.49247,-0.29415 3.37429,-1.34445 4.24728,-5.05872 0.86818,-3.69379 1.69535,-4.6875 3.90192,-4.6875 1.77978,0 3.32321,-1.14791 4.23546,-3.1501 0.78941,-1.73255 2.76934,-3.6573 4.39984,-4.27721 1.91781,-0.72915 3.23812,-2.49493 3.73932,-5.00095 0.60278,-3.01388 1.5821,-4.03529 4.41158,-4.60119 3.07937,-0.61588 3.75622,-1.47408 4.41582,-5.59895 0.5951,-3.72161 1.35181,-4.8716 3.20558,-4.8716 1.54446,0 3.18128,-1.59043 4.50265,-4.375 1.14185,-2.40625 2.71511,-4.37711 3.49615,-4.37969 0.78103,-0.002 2.46016,-2.53382 3.7314,-5.625 1.27122,-3.09117 2.8468,-5.62031 3.50127,-5.62031 0.65449,0 2.01256,-1.96875 3.01796,-4.375 1.00539,-2.40625 2.66419,-4.375 3.68622,-4.375 1.02202,0 1.85822,-0.80059 1.85822,-1.77909 0,-0.97851 1.32929,-3.36914 2.95396,-5.3125 1.62468,-1.94337 3.33359,-4.74707 3.79758,-6.23044 0.464,-1.48336 1.66596,-3.01258 2.67105,-3.39826 1.00507,-0.38569 1.82741,-1.61456 1.82741,-2.73082 0,-1.11627 1.125,-3.45978 2.5,-5.2078 1.375,-1.74803 2.5,-4.20759 2.5,-5.46568 0,-1.2581 1.125,-2.88954 2.5,-3.62541 1.40768,-0.75336 2.5,-2.61728 2.5,-4.26593 0,-1.61037 0.84375,-3.62821 1.875,-4.48407 1.03125,-0.85586 1.875,-2.57206 1.875,-3.81378 0,-1.24171 0.84375,-3.1014 1.875,-4.13265 1.03125,-1.03125 1.875,-3.0152 1.875,-4.40877 0,-1.39358 1.40625,-4.606 3.125,-7.13873 2.71884,-4.00642 3.19573,-5.33197 3.10825,-8.63956 -0.009,-0.34842 1.39703,-3.42347 3.125,-6.83345 3.41191,-6.7331 4.04928,-11.28526 1.57925,-11.27927 -0.85937,0.002 -7.1875,1.09406 -14.0625,2.42662 -6.875,1.33258 -15.3125,2.77428 -18.75,3.20379 -3.4375,0.42951 -7.375,1.12321 -8.75,1.54156 -1.375,0.41835 -5.03125,0.84554 -8.125,0.94929 -3.09375,0.10375 -15.77234,0.65255 -28.17462,1.21954 -15.82122,0.72328 -24.39972,0.60681 -28.75,-0.39038 -3.41022,-0.78169 -13.79413,-1.98099 -23.07538,-2.6651 -9.28125,-0.68411 -18.90195,-1.82021 -21.37934,-2.52466 l -4.50432,-1.28081 -0.74553,-11.55432 c -0.71273,-11.04603 -5.7122,-32.52071 -8.13515,-34.94366 -1.76143,-1.76144 -20.70976,1.24378 -30.07985,4.77066 -4.5024,1.6947 -12.37328,5.92219 -17.49085,9.39442 -11.1733,7.581 -10.95741,7.63583 -25.19957,-6.40074 -10.76735,-10.61191 -16.62654,-20.92345 -18.93139,-33.31716 -1.21029,-6.508 -1.08884,-9.10583 0.78895,-16.875 2.68388,-11.1043 6.41506,-17.76219 15.38211,-27.44767 9.84051,-10.62892 20.31849,-18.09576 35.91994,-25.59732 45.38749,-21.82344 114.06075,-28.951144 171.875,-17.83918 44.17374,8.49024 91.85015,27.25568 123.99391,48.804 3.9154,2.62478 7.46097,4.77233 7.87904,4.77233 0.41806,0 5.08955,3.18904 10.38109,7.08674 31.99586,23.56795 57.68067,51.06061 83.38352,89.25256 l 10.81345,16.06774 39.89193,-19.95353 C 793.28349,240.22909 811.46606,231.25 811.74865,231.25 c 0.28259,0 1.94023,2.43402 3.68365,5.40895 23.95368,40.87385 33.50772,89.58859 25.17055,128.34105 -0.56986,2.64879 -6.00059,5.85391 -35.63759,21.03266 -19.23089,9.8492 -35.03074,18.00545 -35.11075,18.125 -0.08,0.1195 -0.6096,8.37359 -1.17686,18.34234 -1.3233,23.25517 -3.2082,41.62824 -5.64249,55 -3.62486,19.9117 -11.89391,50.55067 -15.43991,57.20884 -0.5943,1.11591 -13.84388,-5.99319 -44.84646,-24.0625 -24.20163,-14.10549 -44.70514,-25.6331 -45.56338,-25.61693 -0.85822,0.0161 -4.92427,3.08591 -9.03566,6.82161 -5.40519,4.9113 -13.96969,10.16834 -30.92751,18.98388 l -23.45227,12.19169 3.74002,3.85871 c 3.13267,3.23211 3.7392,4.86399 3.73498,10.04921 -0.0125,15.18353 -6.23728,41.14539 -13.59686,56.70722 -3.9709,8.39645 -11.24711,20.10827 -12.49268,20.10827 -0.45868,0 -4.75942,-2.87042 -9.55719,-6.37874 -14.37157,-10.50899 -46.85619,-25.36331 -49.55799,-22.66151 -2.19559,2.19559 -3.55761,26.85096 -2.24958,40.72159 1.76814,18.74952 1.83894,18.84766 12.90782,17.89105 4.90958,-0.4243 12.01232,-1.90791 15.78386,-3.29693 3.77155,-1.389 7.55601,-2.52546 8.40993,-2.52546 0.85389,0 19.02832,10.70471 40.3876,23.78826 21.35927,13.08354 39.51231,23.4491 40.34008,23.03458 8.30104,-4.1569 -31.08295,23.69013 -46.02146,32.54015 -14.36566,8.51065 -37.22825,19.77782 -48.0985,23.70397 -12.06931,4.35923 -39.46742,11.40095 -54.15242,13.91798 -15.80603,2.70917 -63.1943,3.42028 -82.09758,1.23197 z M 298.2364,684.9352 c 7.29095,-3.4685 19.2636,-14.33698 19.2636,-17.487 0,-1.1335 -42.76775,20.0136 -45,22.25087 -0.34375,0.34452 3.59375,0.2283 8.75,-0.25826 6.32992,-0.59731 11.84725,-2.06076 16.9864,-4.50561 z M 664.63823,463.90135 c 0.38002,-2.83324 0.19501,-5.12594 -0.41114,-5.09486 -0.60615,0.0311 -3.5142,1.31907 -6.46233,2.86225 l -5.36023,2.80577 2.86023,2.60365 c 5.98662,5.44954 8.32263,4.65783 9.37347,-3.17681 z M 500.625,235.76509 l 25,-12.013 -6.47205,-0.001 c -18.05164,-0.002 -37.98149,5.12996 -58.9496,15.18232 -10.28534,4.93092 -12.75982,6.61648 -12.1285,8.26169 0.43624,1.1368 1.11497,4.41485 1.50831,7.28458 l 0.71517,5.21766 12.66333,-5.9596 c 6.96484,-3.27779 23.91334,-11.36545 37.66334,-17.97261 z m 39.05247,21.07012 c 1.50355,-1.05312 5.09344,-2.74734 7.97752,-3.76489 7.54117,-2.66068 23.50276,-12.16427 23.55266,-14.02335 0.0583,-2.17181 -12.66418,-10.11943 -20.7464,-12.96011 -7.34344,-2.58101 -9.08085,-2.77809 -11.4172,-1.29505 -1.75954,1.1169 -5.28969,19.25165 -5.29234,27.18735 -0.003,7.14264 1.22509,8.14854 5.92576,4.85605 z"
       id="path4152"
       inkscape:connector-curvature="0" />
    <path
       style="fill:#777777"
       d="M 397.5,754.32451 C 368.41439,751.29363 330.5273,740.73934 301.25,727.51194 274.40621,715.384 243.72625,695.73171 222.8125,677.26819 215.07812,670.43996 208.75,664.58521 208.75,664.25764 c 0,-0.98539 5.32595,2.11973 10.23646,5.96803 5.94053,4.65553 26.2626,15.06394 35.61983,18.2435 3.99778,1.35845 10.9363,3.17987 15.41891,4.04759 7.12192,1.37863 9.09327,1.30524 15.625,-0.58166 9.94441,-2.87276 23.04877,-9.84314 27.82515,-14.80055 14.20899,-14.74756 24.42814,-49.36359 21.8752,-74.09928 l -0.69566,-6.74025 -8.26494,4.36247 c -4.54572,2.39936 -11.63995,6.91577 -15.76495,10.03648 -5.2815,3.99564 -8.36678,5.51632 -10.43025,5.14085 -1.99139,-0.36233 -12.34857,4.2769 -32.32531,14.47929 -30.4675,15.56018 -31.54842,15.86945 -31.6003,9.04178 -0.0349,-4.58583 -9.80599,-41.0162 -14.41139,-53.73089 -4.81524,-13.29401 -10.8749,-26.1294 -13.983,-29.61839 -1.75004,-1.9645 -3.91823,-1.10402 -29.84844,11.84587 -32.43392,16.19792 -28.01807,16.60326 -37.88504,-3.47748 -12.15381,-24.7348 -19.53781,-47.66538 -23.14488,-71.875 -2.41342,-16.19816 -3.73498,-36.07199 -2.25805,-33.95684 0.89335,1.2794 1.34691,0.98809 1.94617,-1.25 0.42974,-1.60499 0.78903,-4.20144 0.79842,-5.76989 0.009,-1.56846 0.80587,-3.15442 1.76995,-3.52437 2.05162,-0.78729 10.59908,2.91771 17.38243,7.53461 2.61818,1.78199 6.94653,4.35529 9.61854,5.71845 l 4.85822,2.47849 26.82533,-12.97194 26.82532,-12.97193 4.48,10.79421 c 7.55232,18.19669 24.07275,39.58506 33.88228,43.86607 18.70471,8.16298 44.49941,14.91113 60.3125,15.77837 8.98574,0.49278 9.41127,-0.19098 5.2253,-8.39615 -1.42296,-2.78924 -2.29703,-5.36152 -1.94236,-5.71619 0.59343,-0.59343 5.20893,6.11949 6.19632,9.01211 0.24423,0.71548 1.39751,0.44824 2.69699,-0.62492 1.24868,-1.03122 3.27637,-1.70449 4.506,-1.49618 1.30295,0.22074 3.1081,-0.9527 4.32674,-2.81257 1.31575,-2.00809 3.24555,-3.19133 5.20487,-3.19133 1.83259,0 4.12528,-1.28584 5.57196,-3.125 1.37869,-1.75272 3.75073,-3.125 5.40168,-3.125 1.65095,0 4.02299,-1.37227 5.40167,-3.125 1.37357,-1.74621 3.75754,-3.12849 5.40323,-3.1329 1.9428,-0.005 3.65249,-1.25131 5.02365,-3.66147 1.50095,-2.63828 2.75929,-3.47554 4.52823,-3.01295 1.73373,0.45337 3.25176,-0.48582 5.19407,-3.21354 1.5288,-2.147 3.87275,-3.85414 5.29186,-3.85414 1.40113,0 3.65364,-1.40625 5.00562,-3.125 1.35197,-1.71875 3.53523,-3.125 4.85172,-3.125 1.43313,0 3.66012,-2.00631 5.54995,-5 1.99479,-3.15995 4.09201,-5 5.69881,-5 1.51624,0 3.40195,-1.51044 4.67183,-3.7421 1.34028,-2.35539 3.14005,-3.74502 4.85675,-3.75 1.59774,-0.005 3.83335,-1.56109 5.39761,-3.7579 1.46862,-2.0625 3.42935,-3.75 4.35718,-3.75 0.92781,0 2.71763,-2.10937 3.97737,-4.6875 1.25975,-2.57812 3.91112,-5.45669 5.89195,-6.39681 1.98081,-0.94011 4.20354,-3.30431 4.93937,-5.25378 0.9048,-2.39708 2.35614,-3.66463 4.48346,-3.91568 2.49247,-0.29415 3.37429,-1.34445 4.24728,-5.05873 0.86818,-3.69379 1.69535,-4.6875 3.90192,-4.6875 1.77978,0 3.32321,-1.14791 4.23546,-3.1501 0.78941,-1.73255 2.76934,-3.6573 4.39984,-4.27721 1.91781,-0.72915 3.23812,-2.49493 3.73932,-5.00095 0.60278,-3.01388 1.5821,-4.03529 4.41158,-4.60119 3.07937,-0.61587 3.75622,-1.47407 4.41582,-5.59895 0.5951,-3.72161 1.35181,-4.8716 3.20558,-4.8716 1.54446,0 3.18128,-1.59042 4.50265,-4.375 1.14185,-2.40625 2.71511,-4.37711 3.49615,-4.37969 0.78103,-0.002 2.46016,-2.53382 3.7314,-5.625 1.27122,-3.09117 2.8468,-5.62031 3.50127,-5.62031 0.65449,0 2.01256,-1.96875 3.01796,-4.375 1.00539,-2.40625 2.66419,-4.375 3.68622,-4.375 1.02202,0 1.85822,-0.80059 1.85822,-1.77909 0,-0.97851 1.32929,-3.36913 2.95396,-5.3125 1.62468,-1.94337 3.33359,-4.74707 3.79758,-6.23043 0.464,-1.48337 1.66596,-3.01259 2.67105,-3.39827 1.00507,-0.38568 1.82741,-1.61456 1.82741,-2.73082 0,-1.11626 1.125,-3.45978 2.5,-5.2078 1.375,-1.74803 2.5,-4.20759 2.5,-5.46568 0,-1.2581 1.125,-2.88953 2.5,-3.62541 1.40768,-0.75336 2.5,-2.61727 2.5,-4.26592 0,-1.61038 0.84375,-3.62822 1.875,-4.48408 1.03125,-0.85586 1.875,-2.57206 1.875,-3.81377 0,-1.24172 0.84375,-3.1014 1.875,-4.13265 1.03125,-1.03125 1.875,-3.0152 1.875,-4.40878 0,-1.39357 1.40625,-4.606 3.125,-7.13872 2.71884,-4.00643 3.19573,-5.33198 3.10825,-8.63957 -0.009,-0.34842 1.39703,-3.42347 3.125,-6.83345 1.72796,-3.40997 3.14175,-7.41555 3.14175,-8.90126 0,-2.46385 -0.46701,-2.63454 -5.3125,-1.94167 l -5.3125,0.75963 6.25,-2.47386 c 3.4375,-1.36062 7.43826,-2.47432 8.89058,-2.47489 3.46225,-0.001 19.00078,-6.44482 28.54672,-11.83771 15.60858,-8.8179 34.02488,-26.98986 40.0104,-39.47955 7.23138,-15.08934 7.16658,-28.09476 -0.21601,-43.35969 -4.7528,-9.82733 -19.51498,-24.50625 -32.80443,-32.61943 C 562.98725,127.90459 558.55717,125 558.95766,125 c 0.40048,0 5.72071,2.00627 11.82274,4.45837 29.0598,11.67773 72.83175,40.05577 97.10865,62.95704 10.0974,9.52524 28.00225,29.99322 37.65372,43.04397 14.25122,19.2705 27.02077,41.78226 38.88937,68.55899 3.13422,7.07114 6.15782,13.31715 6.71911,13.88 0.56127,0.56287 19.10551,-8.02255 41.20941,-19.07867 39.09229,-19.55355 40.21821,-20.02489 41.2627,-17.27339 3.00329,7.91156 6.3596,22.61459 7.06591,30.95369 l 0.79404,9.375 -38.96275,19.83567 c -21.42951,10.90963 -39.26434,20.62163 -39.63296,21.58223 -0.36861,0.9606 0.26624,10.59704 1.41079,21.41432 2.56931,24.28294 2.9306,51.52265 0.92402,69.66778 -1.76746,15.98282 -5.98944,42.07474 -7.68605,47.5 -1.01502,3.24575 -1.14495,2.82555 -0.96621,-3.125 0.11363,-3.78125 0.0626,-11.9375 -0.11325,-18.125 -0.28331,-9.96976 -0.49109,-10.86296 -1.82581,-7.84896 l -1.50613,3.40103 -39.58267,-22.77406 c -38.92548,-22.39595 -39.60749,-22.85712 -41.07678,-27.77604 -0.82175,-2.75108 -2.56656,-7.10882 -3.87736,-9.68387 l -2.38329,-4.6819 -26.22745,13.12509 c -14.42506,7.2188 -26.22741,13.66005 -26.22741,14.31389 0,0.65383 1.40625,3.26102 3.125,5.79374 1.71875,2.53272 3.12328,4.94833 3.12117,5.36802 -0.006,1.21364 -56.70047,29.43966 -58.43367,29.09194 -0.85938,-0.1724 -1.5625,0.55017 -1.5625,1.60573 0,1.05557 -1.125,2.62178 -2.5,3.48048 -1.375,0.8587 -2.5,2.16043 -2.5,2.89275 0,0.7323 -1.40625,3.23752 -3.125,5.56716 -3.8664,5.2406 -3.94989,7.87641 -0.3125,9.86571 1.54687,0.846 3.85366,2.95027 5.12619,4.67616 l 2.31369,3.13798 -8.06418,7.72257 c -4.43529,4.24742 -10.12544,9.30012 -12.64477,11.2282 -6.75509,5.16979 -12.78464,18.16293 -19.11073,41.18188 -0.80047,2.91273 1.02049,2.76807 10.09422,-0.80186 14.5557,-5.72674 13.22308,-6.56953 13.22308,8.36265 l 0,13.04177 -12.64572,-4.32966 c -10.71051,-3.66709 -12.90793,-4.06746 -14.35912,-2.61628 -1.56633,1.56634 -4.65558,26.7247 -3.51897,28.65797 0.2432,0.41365 1.04491,7.14351 1.78157,14.95526 0.85467,9.06286 2.00041,14.93358 3.16583,16.22134 1.00452,1.10998 1.84222,2.81762 1.86156,3.79474 0.0194,0.97711 1.84745,5.12643 4.0625,9.22071 3.98839,7.37211 4.28426,7.6019 30.58034,23.75 14.60415,8.96822 26.55727,16.68649 26.5625,17.15171 0.005,0.46521 -0.97487,1.14965 -2.17799,1.52099 -6.57797,2.03021 25.55526,-0.91645 32.90062,-3.01704 4.75966,-1.36114 8.88803,-2.4748 9.17417,-2.4748 1.1248,0 -25.07408,17.65369 -34.38617,23.17056 -47.82202,28.33176 -90.5828,39.55773 -149.24346,39.1808 -12.72296,-0.0818 -30.16391,-0.88134 -38.75766,-1.77685 z m -93.04464,-263.9581 c -0.67835,-1.7815 -0.53477,-1.92507 0.69975,-0.69975 0.85428,0.84793 1.23834,1.85655 0.85348,2.24142 -0.38486,0.38486 -1.08382,-0.30889 -1.55323,-1.54167 z m 76.59135,-228.20913 c -6.78055,-3.50315 -7.97108,-4.62858 -8.26447,-7.8125 -1.32147,-14.3407 -7.74951,-36.08508 -11.04081,-37.34807 -3.13273,-1.20214 -23.14586,2.97274 -31.91759,6.65824 -4.6672,1.96095 -11.92574,5.91343 -16.13008,8.78329 -7.05087,4.81287 -7.8548,5.07804 -10.35651,3.4159 -6.44202,-4.28008 -15.06131,-12.95061 -19.34237,-19.4574 L 279.375,209.375 278.98037,187.68025 c -0.39231,-21.56791 -0.37443,-21.73463 3.05699,-28.51672 3.89771,-7.70368 15.66427,-19.42979 27.80751,-27.71193 18.36562,-12.526 57.45247,-25.23414 89.08958,-28.96532 20.0911,-2.36947 69.80904,-1.02637 89.19055,2.40943 23.45942,4.1587 54.99498,13.5858 57.8125,17.28221 1.80308,2.36552 2.0015,20.47758 0.74305,67.82208 l -0.81405,30.625 -21.37075,0.0414 c -21.20126,0.041 -21.48902,0.0787 -36.28327,4.75997 -8.20189,2.59524 -21.13939,7.92037 -28.75,11.83364 -12.96649,6.66717 -13.86213,7.37074 -14.22918,11.17752 -0.42837,4.44288 -0.63724,4.60327 -3.79429,2.91365 -2.25568,-1.2072 -17.46655,3.34624 -36.83112,11.02555 -5.37192,2.1303 -11.08839,3.87329 -12.70329,3.87329 -1.61489,0 -6.50094,-1.84173 -10.85789,-4.09272 z"
       id="path4150"
       inkscape:connector-curvature="0" />
    <path
       style="fill:#6b6b6b"
       d="m 358.75,746.76906 c -16.39001,-3.5927 -39.18981,-11.09343 -55.55872,-18.27782 -12.94467,-5.68148 -37.10019,-18.8312 -42.56628,-23.17213 -2.0625,-1.63795 -8.25,-5.82933 -13.75,-9.31421 -8.60818,-5.45425 -38.125,-30.03336 -38.125,-31.74726 0,-0.99325 5.26824,2.13511 11.875,7.05157 12.99919,9.6734 39.91004,20.69512 53.781,22.02674 6.4951,0.62354 8.84607,0.1964 17.0916,-3.10526 5.25834,-2.10554 11.71626,-5.18906 14.35096,-6.85228 17.67448,-11.1574 28.90073,-37.71217 29.49762,-69.77418 0.19783,-10.62707 0.54472,-12.8682 1.74128,-11.25 1.16109,1.57022 1.83234,1.6875 3.01068,0.52598 0.835,-0.82307 3.03883,-1.19031 4.90426,-0.81723 2.3949,0.47898 3.61223,0.0927 4.15348,-1.3177 0.49191,-1.28189 2.27465,-1.99528 4.98616,-1.99528 2.52427,0 5.06455,-0.93266 6.32065,-2.32065 1.37657,-1.5211 3.1839,-2.11349 5.24562,-1.71936 1.72999,0.33071 3.0026,0.10937 2.828,-0.49185 -0.17458,-0.60123 0.38435,-2.35876 1.2421,-3.90564 1.15503,-2.08299 2.69312,-2.8125 5.9298,-2.8125 2.73155,0 4.64004,-0.70306 5.08975,-1.875 0.39574,-1.03125 2.24878,-1.875 4.11788,-1.875 2.08737,0 4.56742,-1.2833 6.42877,-3.32656 1.66671,-1.82961 2.24035,-2.8677 1.27475,-2.30686 -1.18136,0.68615 -1.46389,0.54765 -0.86372,-0.42344 0.49055,-0.79373 2.54621,-1.44314 4.56813,-1.44314 2.02193,0 4.80979,-1.13356 6.19527,-2.51904 1.79402,-1.79402 3.42537,-2.29156 5.66807,-1.72867 2.79455,0.70139 3.37662,0.21102 5.17058,-4.35596 1.58464,-4.03409 2.66883,-5.14633 5.01661,-5.14633 1.64729,0 4.29834,-1.40625 5.89123,-3.125 1.63478,-1.76396 4.28864,-3.125 6.09337,-3.125 2.54561,0 3.49149,-0.89165 4.6411,-4.375 1.12309,-3.40299 2.11847,-4.375 4.48021,-4.375 1.68084,0 4.24933,-1.39507 5.75348,-3.125 1.71085,-1.96765 4.0374,-3.125 6.28201,-3.125 2.54861,0 3.86789,-0.80177 4.62781,-2.8125 0.58463,-1.54688 0.8121,-3.23835 0.50549,-3.75883 -0.58938,-1.00052 0.5103,-1.48146 6.311,-2.76011 1.97175,-0.43462 3.24225,-1.13297 2.82334,-1.55189 -0.4189,-0.41891 -0.13515,-1.51653 0.63056,-2.43916 0.76571,-0.92264 0.90146,-1.75156 0.30165,-1.84206 -0.5998,-0.0905 0.8782,-0.51237 3.28445,-0.9375 2.40625,-0.42513 4.38962,-1.33545 4.40749,-2.02295 0.0785,-3.02149 4.7421,-7.89241 8.22298,-8.5886 2.0999,-0.41998 3.43722,-1.32011 3.0036,-2.02173 -0.42988,-0.69556 -0.15272,-1.26467 0.61593,-1.26467 0.76865,0 1.06305,-0.54123 0.65422,-1.20271 -0.40882,-0.6615 0.96687,-1.64588 3.05709,-2.1875 2.09021,-0.54164 3.74973,-1.4844 3.68778,-2.09504 -0.062,-0.61063 0.62385,-1.5654 1.52396,-2.1217 0.90012,-0.55631 1.65129,-2.3067 1.66926,-3.88976 0.0261,-2.30165 0.71308,-2.86907 3.4289,-2.83222 2.57448,0.0349 3.75206,-0.81303 4.86697,-3.50465 0.98007,-2.36612 2.66193,-3.78895 5.04128,-4.26481 2.85957,-0.57191 3.57054,-1.37994 3.57054,-4.05786 0,-3.88871 2.04372,-6.34375 5.28094,-6.34375 1.28581,0 2.80183,-1.37008 3.4749,-3.14036 0.65668,-1.7272 2.6007,-3.78132 4.32003,-4.5647 2.85384,-1.3003 4.39074,-3.78239 5.19864,-8.39582 0.42038,-2.40048 2.23071,-4.0074 4.99961,-4.4378 1.47858,-0.22983 2.31589,-1.3401 2.25659,-2.99216 -0.0652,-1.81747 1.02269,-3.01612 3.53126,-3.89061 1.99405,-0.69513 3.2689,-1.84093 2.83302,-2.54621 -0.43589,-0.70529 -0.2342,-1.28234 0.44821,-1.28234 0.68241,0 1.41874,-1.54688 1.63627,-3.4375 0.28554,-2.48161 1.1915,-3.5504 3.25798,-3.84349 1.98969,-0.2822 3.07672,-1.47741 3.56526,-3.92006 0.4223,-2.1115 1.94804,-4.08145 3.82264,-4.93558 1.97761,-0.90106 2.86049,-2.09731 2.41146,-3.26742 -0.38959,-1.01528 -0.1635,-1.84595 0.50241,-1.84595 0.66593,0 1.14417,-0.42188 1.06275,-0.9375 -0.43392,-2.74821 0.45754,-4.25713 3.27303,-5.53994 1.71875,-0.78312 3.125,-2.39386 3.125,-3.57945 0,-1.18557 1.40625,-3.077 3.125,-4.20316 1.71875,-1.12618 3.125,-3.17727 3.125,-4.558 0,-1.38073 0.84375,-2.83419 1.875,-3.22991 2.63884,-1.01263 2.34912,-3.02577 -0.3125,-2.17145 -1.69061,0.54265 -1.57415,0.17881 0.51271,-1.60173 1.48511,-1.26712 2.91291,-3.42886 3.17289,-4.80386 0.27057,-1.43104 1.3818,-2.42673 2.59884,-2.32863 1.16938,0.0942 1.81776,-0.32762 1.44083,-0.9375 -0.37692,-0.60988 -0.0896,-1.10887 0.63845,-1.10887 0.72808,0 1.32378,-1.03783 1.32378,-2.30626 0,-1.26845 1.125,-3.32438 2.5,-4.56874 1.375,-1.24436 2.5,-3.3789 2.5,-4.74343 0,-1.36453 0.87786,-3.12288 1.95081,-3.90743 1.07295,-0.78457 2.00014,-3.1608 2.0604,-5.28053 0.0759,-2.66967 0.7059,-3.81017 2.05006,-3.71132 1.33864,0.0985 2.05727,-1.1845 2.31702,-4.13652 0.20708,-2.35358 1.21918,-5.21037 2.24911,-6.34843 1.02994,-1.13805 1.89049,-2.86865 1.91235,-3.84577 0.0219,-0.97711 0.82699,-2.81562 1.78915,-4.08557 0.96216,-1.26995 1.48117,-3.00795 1.15336,-3.86224 -0.32782,-0.85427 0.27331,-2.27472 1.33585,-3.15655 C 609.13065,340.41539 610,338.70664 610,337.5 c 0,-1.20664 0.84375,-2.89414 1.875,-3.75 1.03125,-0.85586 1.875,-2.86029 1.875,-4.45429 0,-1.59399 0.5625,-3.24581 1.25,-3.67071 0.6875,-0.4249 1.25,-2.1124 1.25,-3.75 0,-1.6376 0.5625,-3.3251 1.25,-3.75 0.6875,-0.4249 1.25,-2.39365 1.25,-4.375 0,-1.98135 0.48985,-3.9052 1.08855,-4.27521 0.5987,-0.37003 1.44439,-2.452 1.87933,-4.62664 0.43492,-2.17463 1.60846,-4.57695 2.60786,-5.33851 1.75886,-1.34027 3.5263,-11.30498 3.33384,-18.79603 -0.0517,-2.01376 0.50016,-4.3774 1.22645,-5.25251 0.72628,-0.87513 0.96991,-2.69579 0.54139,-4.04593 -0.42851,-1.35012 -0.1608,-2.83692 0.59492,-3.30397 0.82875,-0.5122 1.04391,-2.35221 0.54217,-4.63659 -0.54623,-2.48702 -0.38598,-3.51182 0.46675,-2.9848 1.67402,1.0346 2.35621,-4.67442 1.3083,-10.94847 -0.44402,-2.65852 -0.27054,-6.77775 0.38554,-9.15388 0.78574,-2.84569 0.73625,-6.44932 -0.14497,-10.55835 -0.73582,-3.43097 -1.00703,-7.55622 -0.6027,-9.1672 0.40433,-1.61099 0.17338,-3.97871 -0.5132,-5.26164 -0.6866,-1.28291 -1.60923,-5.67446 -2.0503,-9.75898 -0.44108,-4.08454 -1.32852,-8.0609 -1.97209,-8.83638 -0.64359,-0.77546 -0.81363,-1.76646 -0.37786,-2.20221 0.43574,-0.43576 0.2369,-1.509 -0.44189,-2.38499 -0.67879,-0.876 -1.95705,-4.26459 -2.84058,-7.53021 -0.88352,-3.26563 -2.12901,-5.9375 -2.76774,-5.9375 -0.63872,0 -0.81367,-0.5625 -0.38877,-1.25 0.4249,-0.6875 0.21325,-1.25 -0.47032,-1.25 -0.68357,0 -1.95477,-1.96875 -2.82488,-4.375 -0.87011,-2.40625 -2.03153,-4.375 -2.58091,-4.375 -0.54939,0 -0.99889,-0.84375 -0.99889,-1.875 0,-1.03125 -0.5625,-1.875 -1.25,-1.875 -0.6875,0 -1.25,-0.51471 -1.25,-1.14381 0,-1.26019 -2.81853,-4.81724 -11.10855,-14.01934 -3.01595,-3.34776 -5.10292,-6.08685 -4.6377,-6.08685 4.03704,0 30.50385,16.41729 48.15191,29.86847 18.98835,14.47275 29.55129,24.33589 44.05836,41.13944 24.79556,28.72072 40.28952,53.44589 56.71812,90.51046 3.13422,7.07114 6.15782,13.31715 6.71911,13.88 0.56127,0.56287 19.10551,-8.02255 41.20941,-19.07867 39.09229,-19.55355 40.21821,-20.02489 41.2627,-17.27339 3.00613,7.91905 6.35931,22.6161 7.0622,30.95369 l 0.79034,9.375 -39.17545,20 c -38.76721,19.79159 -39.1835,20.04559 -39.9484,24.375 -0.42513,2.40625 -0.847,3.42382 -0.9375,2.26127 -0.0905,-1.16255 -0.72644,-2.461 -1.41319,-2.88542 -0.80364,-0.49668 -1.24454,4.26596 -1.23715,13.36372 0.006,7.77449 -0.21084,16.10418 -0.48254,18.51043 -1.13168,10.02236 -3.6447,24.71229 -5.03696,29.44374 -1.17575,3.99562 -1.14497,6.90663 0.14536,13.75 2.06463,10.94986 2.63587,30.50768 0.97267,33.30188 -1.10903,1.86318 -6.06609,-0.64045 -40.83268,-20.62303 -38.92065,-22.37019 -39.59495,-22.82579 -41.06451,-27.74562 -0.82175,-2.75108 -2.56656,-7.10882 -3.87736,-9.68387 l -2.38329,-4.6819 -26.22745,13.12509 c -14.4251,7.2188 -26.22745,13.66005 -26.22745,14.31389 0,0.65383 1.40625,3.26102 3.125,5.79374 1.71875,2.53272 3.12328,4.94833 3.12117,5.36802 -0.006,1.21364 -56.70047,29.43966 -58.43367,29.09194 -0.85938,-0.1724 -1.5625,0.55017 -1.5625,1.60573 0,1.05557 -1.125,2.62178 -2.5,3.48048 -1.375,0.8587 -2.5,2.16043 -2.5,2.89275 0,0.7323 -1.40625,3.23752 -3.125,5.56716 -3.8664,5.2406 -3.94989,7.87641 -0.3125,9.86571 1.54687,0.846 3.85366,2.95027 5.12619,4.67616 l 2.31369,3.13798 -8.06418,7.72257 c -4.43529,4.24742 -10.12379,9.29879 -12.6411,11.22527 -5.49356,4.20419 -11.08344,14.78046 -15.98349,30.24149 -1.95999,6.18428 -3.56361,11.66866 -3.56361,12.1875 0,1.581 2.58514,1.07855 10.52692,-2.04604 14.5557,-5.72674 13.22308,-6.56953 13.22308,8.36265 l 0,13.04177 -12.64572,-4.32966 c -10.71051,-3.66709 -12.90793,-4.06746 -14.35912,-2.61628 -1.56633,1.56634 -4.65558,26.7247 -3.51897,28.65797 0.2432,0.41365 1.04491,7.14351 1.78157,14.95526 0.85467,9.06286 2.00041,14.93358 3.16583,16.22134 1.00452,1.10998 1.84222,2.81762 1.86156,3.79474 0.0194,0.97711 1.84745,5.12643 4.0625,9.22071 3.98839,7.37211 4.28426,7.6019 30.58034,23.75 14.60415,8.96822 26.55727,16.811 26.5625,17.42839 0.0126,1.48911 -20.72031,0.0588 -25.90353,-1.78703 -3.35166,-1.19357 -4.37607,-1.09996 -6.02678,0.55075 -1.09382,1.09381 -3.00469,1.98875 -4.2464,1.98875 -1.24172,0 -2.93984,0.82196 -3.7736,1.82659 -0.83377,1.00462 -2.73077,2.21056 -4.21557,2.67986 -1.48478,0.4693 -4.38711,2.06946 -6.44961,3.55593 -2.0625,1.48646 -6.84375,4.05642 -10.625,5.71103 -3.78125,1.6546 -7.88129,4.01373 -9.1112,5.24248 -1.2299,1.22876 -3.05802,2.30442 -4.0625,2.39036 -3.03876,0.25999 -7.44338,1.92568 -14.7401,5.57425 -1.94634,0.97323 -4.1095,1.7695 -4.80704,1.7695 -0.69752,0 -2.76132,1.03365 -4.5862,2.297 -1.82487,1.26335 -6.13046,2.98835 -9.56796,3.83334 -3.4375,0.84499 -7.9375,2.29561 -10,3.2236 -2.0625,0.928 -5.4375,2.11026 -7.5,2.62725 -2.0625,0.51699 -4.03125,1.02945 -4.375,1.13881 -0.34375,0.10938 -2.875,0.60205 -5.625,1.09488 -6.79314,1.21741 -14.42984,3.3039 -17.72818,4.8437 -1.5005,0.70048 -3.55487,0.95637 -4.56528,0.56865 -1.01043,-0.38774 -2.20579,-0.33632 -2.65638,0.11425 -0.89796,0.89796 -1.80361,0.96157 -28.17516,1.97917 -16.3068,0.62924 -19.56702,0.3833 -32.5,-2.45162 z M 237.00939,642.1875 c -4.91192,-25.66611 -15.95577,-61.72061 -23.44398,-76.53683 -6.81294,-13.48008 -3.75971,-13.66925 -35.5391,2.2018 C 145.59239,584.0504 150.00824,584.45574 140.14127,564.375 127.781,539.22001 120.25756,515.65422 117.195,492.5 c -2.55172,-19.29204 -1.35216,-43.19255 2.23695,-44.56981 1.89515,-0.72725 10.64647,3.14056 17.20336,7.60332 2.61818,1.78199 6.94653,4.35529 9.61854,5.71845 l 4.85822,2.47849 26.82533,-12.97194 26.82532,-12.97193 4.48,10.79421 c 7.55232,18.19669 24.07275,39.58506 33.88228,43.86607 18.35896,8.01209 44.52921,14.91827 59.67592,15.74814 3.94677,0.21623 7.70802,0.722 8.35836,1.12393 4.03349,2.49283 17.58636,40.29637 21.85443,60.95943 2.33388,11.29903 3.96787,28.20388 2.60359,26.93623 -1.3466,-1.25125 -15.88744,6.59122 -24.9923,13.47939 -5.2815,3.99563 -8.36677,5.51631 -10.43025,5.14085 -1.99031,-0.36214 -12.25684,4.23005 -32.0056,14.316 C 252.19773,638.31787 238.76142,645 238.33072,645 c -0.4307,0 -1.02531,-1.26563 -1.32133,-2.8125 z M 381.04671,262.15728 c -6.78055,-3.50315 -7.97108,-4.62858 -8.26447,-7.81251 -1.32147,-14.3407 -7.74951,-36.08507 -11.04081,-37.34806 -3.13273,-1.20214 -23.14586,2.97274 -31.91759,6.65824 -4.6672,1.96095 -11.92574,5.91343 -16.13008,8.78329 -7.05087,4.81287 -7.8548,5.07804 -10.35651,3.4159 -6.44202,-4.28008 -15.06131,-12.95061 -19.34237,-19.4574 L 279.375,209.375 278.98037,187.68025 c -0.39295,-21.60301 -0.37992,-21.7238 3.08157,-28.56529 6.45652,-12.76111 28.19581,-29.85863 49.64582,-39.04546 17.66919,-7.56754 46.71243,-15.16383 67.22669,-17.58322 20.0911,-2.36947 69.80904,-1.02637 89.19055,2.40943 23.45942,4.1587 54.99498,13.5858 57.8125,17.28221 1.80308,2.36552 2.0015,20.47758 0.74305,67.82208 l -0.81405,30.625 -21.37075,0.0414 c -21.20126,0.041 -21.48902,0.0787 -36.28327,4.75997 -8.20189,2.59524 -21.13939,7.92037 -28.75,11.83364 -12.96649,6.66717 -13.86213,7.37074 -14.22918,11.17752 -0.42837,4.44288 -0.63724,4.60327 -3.79429,2.91365 -2.25568,-1.2072 -17.46655,3.34624 -36.83112,11.02555 -5.37192,2.1303 -11.08839,3.87329 -12.70329,3.87329 -1.61489,0 -6.50094,-1.84173 -10.85789,-4.09272 z"
       id="path4148"
       inkscape:connector-curvature="0" />
    <path
       style="fill:#666666"
       d="m 358.75,746.76906 c -32.44384,-7.11171 -75.1796,-25.07946 -96.875,-40.72995 -2.75,-1.98377 -9.5,-6.47865 -15,-9.9886 -8.63886,-5.5131 -38.125,-30.10192 -38.125,-31.79287 0,-0.99325 5.26824,2.13511 11.875,7.05157 12.99919,9.6734 39.91004,20.69512 53.781,22.02674 6.4951,0.62354 8.84607,0.1964 17.0916,-3.10526 5.25834,-2.10554 11.71626,-5.18906 14.35096,-6.85228 17.67448,-11.1574 28.90073,-37.71217 29.49762,-69.77418 0.19783,-10.62707 0.54472,-12.8682 1.74128,-11.25 1.16109,1.57022 1.83234,1.6875 3.01068,0.52598 0.835,-0.82307 3.03883,-1.19031 4.90426,-0.81723 2.3949,0.47898 3.61223,0.0927 4.15348,-1.3177 0.49191,-1.28189 2.27465,-1.99528 4.98616,-1.99528 2.52427,0 5.06455,-0.93266 6.32065,-2.32065 1.37657,-1.5211 3.1839,-2.11349 5.24562,-1.71936 1.72999,0.33071 3.0026,0.10937 2.828,-0.49185 -0.17458,-0.60123 0.38435,-2.35876 1.2421,-3.90564 1.15503,-2.08299 2.69312,-2.8125 5.9298,-2.8125 2.73155,0 4.64004,-0.70306 5.08975,-1.875 0.39574,-1.03125 2.24878,-1.875 4.11788,-1.875 2.08737,0 4.56742,-1.2833 6.42877,-3.32656 1.66671,-1.82961 2.24035,-2.8677 1.27475,-2.30686 -1.18136,0.68615 -1.46389,0.54765 -0.86372,-0.42344 0.49055,-0.79373 2.54621,-1.44314 4.56813,-1.44314 2.02193,0 4.80979,-1.13356 6.19527,-2.51904 1.79402,-1.79402 3.42537,-2.29156 5.66807,-1.72867 2.79455,0.70139 3.37662,0.21102 5.17058,-4.35596 1.58464,-4.03409 2.66883,-5.14633 5.01661,-5.14633 1.64729,0 4.29834,-1.40625 5.89123,-3.125 1.63478,-1.76396 4.28864,-3.125 6.09337,-3.125 2.54561,0 3.49149,-0.89165 4.6411,-4.375 1.12309,-3.40299 2.11847,-4.375 4.48021,-4.375 1.68084,0 4.24933,-1.39507 5.75348,-3.125 1.71085,-1.96765 4.0374,-3.125 6.28201,-3.125 2.54861,0 3.86789,-0.80177 4.62781,-2.8125 0.58463,-1.54688 0.8121,-3.23835 0.50549,-3.75883 -0.58938,-1.00052 0.5103,-1.48146 6.311,-2.76011 1.97175,-0.43462 3.24225,-1.13297 2.82334,-1.55189 -0.4189,-0.41891 -0.13515,-1.51653 0.63056,-2.43916 0.76571,-0.92264 0.90146,-1.75156 0.30165,-1.84206 -0.5998,-0.0905 0.8782,-0.51237 3.28445,-0.9375 2.40625,-0.42513 4.38962,-1.33545 4.40749,-2.02295 0.0785,-3.02149 4.7421,-7.89241 8.22298,-8.5886 2.0999,-0.41998 3.43722,-1.32011 3.0036,-2.02173 -0.42988,-0.69556 -0.15272,-1.26467 0.61593,-1.26467 0.76865,0 1.06305,-0.54123 0.65422,-1.20271 -0.40882,-0.6615 0.96687,-1.64588 3.05709,-2.1875 2.09021,-0.54164 3.74973,-1.4844 3.68778,-2.09504 -0.062,-0.61063 0.62385,-1.5654 1.52396,-2.1217 0.90012,-0.55631 1.65129,-2.3067 1.66926,-3.88976 0.0261,-2.30165 0.71308,-2.86907 3.4289,-2.83222 2.57448,0.0349 3.75206,-0.81303 4.86697,-3.50465 0.98007,-2.36612 2.66193,-3.78895 5.04128,-4.26481 2.85957,-0.57191 3.57054,-1.37994 3.57054,-4.05786 0,-3.88871 2.04372,-6.34375 5.28094,-6.34375 1.28581,0 2.80183,-1.37008 3.4749,-3.14036 0.65668,-1.7272 2.6007,-3.78132 4.32003,-4.5647 2.85384,-1.3003 4.39074,-3.78239 5.19864,-8.39582 0.42038,-2.40048 2.23071,-4.0074 4.99961,-4.4378 1.47858,-0.22983 2.31589,-1.3401 2.25659,-2.99216 -0.0652,-1.81747 1.02269,-3.01612 3.53126,-3.89061 1.99405,-0.69513 3.2689,-1.84093 2.83302,-2.54621 -0.43589,-0.70529 -0.2342,-1.28234 0.44821,-1.28234 0.68241,0 1.41874,-1.54688 1.63627,-3.4375 0.28554,-2.48161 1.1915,-3.5504 3.25798,-3.84349 1.98969,-0.2822 3.07672,-1.47741 3.56526,-3.92006 0.4223,-2.1115 1.94804,-4.08145 3.82264,-4.93558 1.97761,-0.90106 2.86049,-2.09731 2.41146,-3.26742 -0.38959,-1.01528 -0.1635,-1.84595 0.50241,-1.84595 0.66593,0 1.14417,-0.42188 1.06275,-0.9375 -0.43392,-2.74821 0.45754,-4.25713 3.27303,-5.53994 1.71875,-0.78312 3.125,-2.39386 3.125,-3.57945 0,-1.18557 1.40625,-3.077 3.125,-4.20316 1.71875,-1.12618 3.125,-3.17727 3.125,-4.558 0,-1.38073 0.84375,-2.83419 1.875,-3.22991 2.63884,-1.01263 2.34912,-3.02577 -0.3125,-2.17145 -1.69061,0.54265 -1.57415,0.17881 0.51271,-1.60173 1.48511,-1.26712 2.91291,-3.42886 3.17289,-4.80386 0.27057,-1.43104 1.3818,-2.42673 2.59884,-2.32863 1.16938,0.0942 1.81776,-0.32762 1.44083,-0.9375 -0.37692,-0.60988 -0.0896,-1.10887 0.63845,-1.10887 0.72808,0 1.32378,-1.03783 1.32378,-2.30626 0,-1.26845 1.125,-3.32438 2.5,-4.56874 1.375,-1.24436 2.5,-3.3789 2.5,-4.74343 0,-1.36453 0.87786,-3.12288 1.95081,-3.90743 1.07295,-0.78457 2.00014,-3.1608 2.0604,-5.28053 0.0759,-2.66967 0.7059,-3.81017 2.05006,-3.71132 1.33864,0.0985 2.05727,-1.1845 2.31702,-4.13652 0.20708,-2.35358 1.21918,-5.21037 2.24911,-6.34843 1.02994,-1.13805 1.89049,-2.86865 1.91235,-3.84577 0.0219,-0.97711 0.82699,-2.81562 1.78915,-4.08557 0.96216,-1.26995 1.48117,-3.00795 1.15336,-3.86224 -0.32782,-0.85427 0.27331,-2.27472 1.33585,-3.15655 C 609.13065,340.41539 610,338.70664 610,337.5 c 0,-1.20664 0.84375,-2.89414 1.875,-3.75 1.03125,-0.85586 1.875,-2.86029 1.875,-4.45429 0,-1.59399 0.5625,-3.24581 1.25,-3.67071 0.6875,-0.4249 1.25,-2.1124 1.25,-3.75 0,-1.6376 0.5625,-3.3251 1.25,-3.75 0.6875,-0.4249 1.25,-2.39365 1.25,-4.375 0,-1.98135 0.48985,-3.9052 1.08855,-4.27521 0.5987,-0.37003 1.44439,-2.452 1.87933,-4.62664 0.43492,-2.17463 1.60846,-4.57695 2.60786,-5.33851 1.75886,-1.34027 3.5263,-11.30498 3.33384,-18.79603 -0.0517,-2.01376 0.50016,-4.3774 1.22645,-5.25251 0.72628,-0.87513 0.96991,-2.69579 0.54139,-4.04593 -0.42851,-1.35012 -0.1608,-2.83692 0.59492,-3.30397 0.82875,-0.5122 1.04391,-2.35221 0.54217,-4.63659 -0.54623,-2.48702 -0.38598,-3.51182 0.46675,-2.9848 1.67402,1.0346 2.35621,-4.67442 1.3083,-10.94847 -0.44402,-2.65852 -0.27054,-6.77775 0.38554,-9.15388 0.78574,-2.84569 0.73625,-6.44932 -0.14497,-10.55835 -0.73582,-3.43097 -1.00703,-7.55622 -0.6027,-9.1672 0.40433,-1.61099 0.17338,-3.97871 -0.5132,-5.26164 -0.6866,-1.28291 -1.60923,-5.67446 -2.0503,-9.75898 -0.44108,-4.08454 -1.32852,-8.0609 -1.97209,-8.83638 -0.64359,-0.77546 -0.81363,-1.76646 -0.37786,-2.20221 0.43574,-0.43576 0.2369,-1.509 -0.44189,-2.38499 -0.67879,-0.876 -1.95705,-4.26459 -2.84058,-7.53021 -0.88352,-3.26563 -2.12901,-5.9375 -2.76774,-5.9375 -0.63872,0 -0.81367,-0.5625 -0.38877,-1.25 0.4249,-0.6875 0.21325,-1.25 -0.47032,-1.25 -0.68357,0 -1.95477,-1.96875 -2.82488,-4.375 -0.87011,-2.40625 -2.03153,-4.375 -2.58091,-4.375 -0.54939,0 -0.99889,-0.84375 -0.99889,-1.875 0,-1.03125 -0.5625,-1.875 -1.25,-1.875 -0.6875,0 -1.25,-0.51471 -1.25,-1.14381 0,-1.26019 -2.81853,-4.81724 -11.10855,-14.01934 -3.01595,-3.34776 -5.10292,-6.08685 -4.6377,-6.08685 4.03704,0 30.50385,16.41729 48.15191,29.86847 18.98835,14.47275 29.55129,24.33589 44.05836,41.13944 34.49657,39.9574 57.55363,83.13551 70.42547,131.8832 4.03893,15.29609 6.0199,29.75646 3.07156,22.42139 C 760.58927,366.26562 759.782,365 759.4171,365 c -0.3649,0 -0.6585,6.32812 -0.65244,14.0625 0.006,7.73437 -0.21128,16.03125 -0.48298,18.4375 -1.12969,10.00466 -3.64362,24.70872 -5.03067,29.4246 -1.15519,3.92754 -1.143,6.84402 0.0549,13.125 2.26086,11.85527 1.99691,15.69075 -0.5902,8.57629 -1.14985,-3.16201 -2.68338,-5.54255 -3.40784,-5.2901 -0.72447,0.25246 -20.13073,-10.28669 -43.125,-23.42034 L 664.375,396.03609 657.5,398.14132 c -18.25369,5.58958 -51.18795,26.19547 -55.90171,34.97587 -0.8397,1.5641 -2.80845,3.21252 -4.375,3.66316 -1.56656,0.45064 -5.94204,4.48537 -9.72329,8.96607 -3.78125,4.48072 -11.24146,13.31767 -16.57826,19.63767 -9.3962,11.12728 -14.87493,18.51896 -17.97812,24.25531 -0.8225,1.52042 -2.52442,4.5349 -3.78203,6.69884 -2.28054,3.92405 -2.27844,3.93987 0.79751,5.9856 1.69625,1.12813 4.50875,3.27155 6.25,4.76315 l 3.1659,2.71198 -8.25049,7.91302 c -4.53776,4.35215 -10.3101,9.48922 -12.82741,11.4157 -7.08186,5.4197 -13.09364,18.55737 -19.54775,42.71813 -1.46494,5.48395 -3.1684,10.57918 -3.78549,11.32272 -0.61709,0.74355 -1.70328,7.51628 -2.4138,15.05053 -1.43261,15.19159 0.082,38.17382 2.95352,44.81449 0.91358,2.11279 3.14551,7.77894 4.95983,12.59144 6.0948,16.16642 18.22958,29.27006 35.16159,37.96894 7.48199,3.8439 6.4765,5.3801 -1.664,2.54231 -3.18845,-1.1115 -4.27993,-0.9959 -5.90082,0.625 -1.09382,1.09381 -3.00469,1.98875 -4.2464,1.98875 -1.24172,0 -2.93984,0.82196 -3.7736,1.82659 -0.83377,1.00462 -2.73077,2.21056 -4.21557,2.67986 -1.48478,0.4693 -4.38711,2.06946 -6.44961,3.55593 -2.0625,1.48646 -6.84375,4.05642 -10.625,5.71103 -3.78125,1.6546 -7.88129,4.01373 -9.1112,5.24248 -1.2299,1.22876 -3.05802,2.30442 -4.0625,2.39036 -3.03876,0.25999 -7.44338,1.92568 -14.7401,5.57425 -1.94634,0.97323 -4.1095,1.7695 -4.80704,1.7695 -0.69752,0 -2.76132,1.03365 -4.5862,2.297 -1.82487,1.26335 -6.13046,2.98835 -9.56796,3.83334 -3.4375,0.84499 -7.9375,2.29561 -10,3.2236 -2.0625,0.928 -5.4375,2.11026 -7.5,2.62725 -2.0625,0.51699 -4.03125,1.02945 -4.375,1.13881 -0.34375,0.10938 -2.875,0.60205 -5.625,1.09488 -6.79314,1.21741 -14.42984,3.3039 -17.72818,4.8437 -1.5005,0.70048 -3.55487,0.95637 -4.56528,0.56865 -1.01043,-0.38774 -2.20579,-0.33632 -2.65638,0.11425 -0.89796,0.89796 -1.80361,0.96157 -28.17516,1.97917 -16.3068,0.62924 -19.56702,0.3833 -32.5,-2.45162 z m 206.01562,-48.87295 c 0.90234,-0.36108 1.98048,-0.31668 2.39584,0.0986 0.41536,0.41536 -0.32292,0.7108 -1.64062,0.65652 -1.45619,-0.06 -1.75238,-0.35617 -0.75522,-0.7552 z M 296.66884,608.79327 c -6.38976,-8.27302 -11.66817,-16.84536 -11.67178,-18.95543 -10e-4,-0.94207 -1.75425,-3.68159 -3.89476,-6.08784 -2.1405,-2.40625 -3.45316,-3.57629 -2.91701,-2.60008 0.72609,1.32203 0.4275,1.56491 -1.17015,0.95182 -1.17974,-0.4527 -1.86842,-0.3756 -1.53038,0.17136 0.87059,1.40864 -20.34295,11.71209 -22.0023,10.68655 -0.7528,-0.46525 -1.03446,-0.30506 -0.62591,0.35599 0.40856,0.66106 -4.01245,3.5603 -9.82445,6.44275 -9.07425,4.50037 -10.918,5.0218 -13.04969,3.69054 -1.36532,-0.85267 -2.48241,-2.42749 -2.48241,-3.49962 0,-1.07212 -0.48585,-2.48368 -1.07968,-3.13681 -0.59382,-0.65313 -2.88176,-6.25 -5.0843,-12.4375 -4.29722,-12.072 -10.3989,-24.93074 -13.46127,-28.36839 -1.75004,-1.9645 -3.91823,-1.10402 -29.84844,11.84587 C 145.59239,584.0504 150.00824,584.45574 140.14127,564.375 127.781,539.22001 120.25756,515.65422 117.195,492.5 c -2.55172,-19.29204 -1.35216,-43.19255 2.23695,-44.56981 1.89515,-0.72725 10.64647,3.14056 17.20336,7.60332 2.61818,1.78199 6.94653,4.35529 9.61854,5.71845 l 4.85822,2.47849 26.82533,-12.97194 26.82532,-12.97193 4.48,10.79421 c 4.71409,11.35822 15.00089,27.08395 23.7054,36.23911 6.33564,6.66365 14.14108,10.21466 37.67688,17.14075 7.00131,2.06035 18.595,7.4191 23.30664,10.77264 1.62599,1.15731 3.54793,0.89314 9.17875,-1.26165 3.91716,-1.49901 7.59668,-2.43219 8.17671,-2.07371 2.57915,1.594 8.95851,17.23402 15.59781,38.24056 4.92671,15.58792 7.7446,28.56297 8.89768,40.96964 0.7222,7.77055 0.57705,8.85548 -1.09869,8.21243 -2.54691,-0.97733 -11.97924,3.91005 -22.78214,11.80464 -4.79777,3.50614 -9.1093,6.3748 -9.58116,6.3748 -0.47186,0 -3.01516,-2.79302 -5.65176,-6.20672 z M 418.84391,255.51184 c 1.1875,-1.43084 0.90506,-1.76765 -1.50336,-1.79277 -1.63105,-0.017 -13.09055,-5.84187 -25.46555,-12.94413 -21.4137,-12.28975 -22.63809,-13.19959 -25.36012,-18.84495 l -2.86013,-5.93177 -10.26487,0.88133 c -5.64568,0.48472 -15.10357,2.42389 -21.01753,4.30926 l -10.75264,3.42794 -0.73242,-47.62088 -0.73242,-47.62087 2.73127,-2.32534 c 7.79342,-6.63514 34.6504,-16.29189 57.59016,-20.70723 26.39172,-5.07976 47.67426,-5.85099 83.59777,-3.0294 l 9.69908,0.7618 -0.32408,61.86756 -0.32407,61.86753 -10.85044,5.79535 C 449.00649,240.69192 445,244.25496 445,248.96789 c 0,3.85381 -0.35986,4.09646 -3.54623,2.39117 -1.4692,-0.7863 -5.54182,-0.0444 -13.10196,2.38684 -7.3531,2.36461 -10.48798,2.94687 -9.5079,1.76594 z"
       id="path4146"
       inkscape:connector-curvature="0" />
    <path
       style="fill:#494949"
       d="m 330.625,735.64538 c -10.21871,-1.90243 -17.26378,-4.22787 -31.875,-10.52126 -12.91521,-5.5629 -31.572,-15.6248 -33.67909,-18.16367 -1.54923,-1.86673 1.6724,-3.6297 37.0109,-20.25351 9.46878,-4.45428 20.44903,-16.78715 26.97423,-30.29713 3.40876,-7.0576 5.90607,-10.81336 6.95379,-10.4579 0.89916,0.30505 2.58666,-0.27831 3.75,-1.29637 1.96811,-1.72233 4.39103,-2.40752 14.95883,-4.23025 2.25152,-0.38834 4.66193,-1.7679 5.35648,-3.06569 0.8681,-1.62206 2.62881,-2.3596 5.63307,-2.3596 2.73155,0 4.64004,-0.70306 5.08975,-1.875 0.43459,-1.13249 2.32235,-1.875 4.76704,-1.875 2.38266,0 4.92768,-0.97255 6.18729,-2.3644 1.22012,-1.34824 3.13806,-2.10334 4.46257,-1.75697 1.54322,0.40356 3.03603,-0.48104 4.44775,-2.6356 1.56125,-2.38277 3.19592,-3.24303 6.16242,-3.24303 2.45001,0 4.92707,-0.98296 6.29997,-2.5 1.24436,-1.375 3.49436,-2.5 5,-2.5 1.50564,0 3.75564,-1.125 5,-2.5 1.24436,-1.375 3.56858,-2.5 5.16491,-2.5 1.7166,0 3.73904,-1.27679 4.95004,-3.125 1.34629,-2.0547 3.20219,-3.125 5.41874,-3.125 2.2963,0 4.25515,-1.19566 6.14366,-3.75 1.52488,-2.0625 3.86769,-3.75 5.20625,-3.75 1.33858,0 3.35518,-1.40625 4.48135,-3.125 1.15606,-1.76439 3.24378,-3.125 4.79495,-3.125 1.51105,0 4.33635,-1.65854 6.27843,-3.68562 1.94207,-2.0271 4.71392,-3.85523 6.15965,-4.0625 1.44573,-0.20729 3.3784,-1.94609 4.29482,-3.86403 1.04835,-2.19406 2.97063,-3.74804 5.18391,-4.19069 1.93473,-0.38695 4.69245,-2.29249 6.12825,-4.23451 1.43582,-1.94204 3.8843,-3.71247 5.44109,-3.93431 1.62329,-0.23131 3.54119,-1.89064 4.49675,-3.89049 1.07434,-2.24845 2.96823,-3.74755 5.3316,-4.22022 2.28189,-0.45639 4.25594,-1.96525 5.23001,-3.99757 0.86054,-1.79547 2.68534,-3.47006 4.0551,-3.72132 3.19852,-0.5867 6.86549,-3.83548 6.86549,-6.0825 0,-0.96045 1.68231,-2.33275 3.73848,-3.04953 2.05616,-0.71678 4.44678,-2.78043 5.3125,-4.5859 0.86571,-1.80545 2.94782,-3.96741 4.6269,-4.80434 1.67908,-0.83693 4.04613,-3.38464 5.26011,-5.66158 3.12445,-5.86024 2.80886,-3.14896 -0.90035,7.73511 -4.83005,14.17302 -10.53764,36.62945 -10.53764,41.46024 0,2.35937 -0.53919,4.82895 -1.1982,5.48796 -0.65902,0.65902 -1.79321,7.50772 -2.52045,15.21934 -1.38868,14.72562 0.13951,40.98042 2.65935,45.68879 0.68881,1.28704 2.11497,5.24477 3.16926,8.79495 1.05429,3.55016 4.12709,10.85071 6.82845,16.22345 l 4.91155,9.7686 -2.86247,2.4962 c -1.57438,1.37291 -4.59477,3.27691 -6.712,4.23111 -2.11723,0.95421 -4.54671,2.57501 -5.39887,3.6018 -0.85215,1.02677 -3.15663,2.21988 -5.12108,2.65135 -1.96444,0.43146 -4.46979,2.15511 -5.56744,3.83035 -1.17961,1.80031 -3.19926,3.04586 -4.93886,3.04586 -1.61872,0 -3.64338,0.84375 -4.49924,1.875 -0.85586,1.03125 -2.66603,1.875 -4.02259,1.875 -1.35657,0 -3.99387,1.0876 -5.86069,2.41689 -1.86682,1.32929 -4.8837,2.79072 -6.7042,3.24764 -1.82048,0.45692 -3.96442,1.61932 -4.76431,2.58311 -0.79987,0.9638 -2.70451,1.75236 -4.23254,1.75236 -1.52801,0 -3.79631,1.125 -5.04067,2.5 -1.24436,1.375 -3.82959,2.5 -5.74496,2.5 -1.91538,0 -3.83014,0.5625 -4.25504,1.25 -0.4249,0.6875 -2.03809,1.25 -3.58486,1.25 -1.54678,0 -3.9042,0.82586 -5.23873,1.83525 -1.33452,1.00938 -3.90441,1.85313 -5.71086,1.875 -1.80644,0.0219 -3.93391,0.82231 -4.7277,1.77878 -0.7938,0.95646 -2.97205,2.04737 -4.84056,2.42425 -8.69214,1.75318 -11.07113,2.3509 -13.39729,3.366 -1.375,0.60003 -12.0625,2.53053 -23.75,4.29 -23.84303,3.58938 -47.63184,4.09412 -62.5,1.3261 z m -93.54166,-48.97872 c -1.51833,-1.51832 -0.86369,-2.84985 1.04166,-2.1187 1.03125,0.39574 1.875,1.22183 1.875,1.83578 0,1.3105 -1.72205,1.47755 -2.91666,0.28292 z m 68.54166,-81.308 c -1.375,-0.33072 -3.03438,-1.10922 -3.6875,-1.72998 -0.65313,-0.62078 -2.10195,-1.12868 -3.21961,-1.12868 -2.62793,0 -5.98029,-3.79036 -11.71395,-13.24449 -5.10605,-8.41925 -6.15659,-15.24275 -3.1788,-20.64702 0.98992,-1.79659 3.69649,-6.83813 6.0146,-11.20343 4.8122,-9.06204 15.52706,-25.11595 18.29797,-27.41561 1.02427,-0.85006 1.86229,-2.19528 1.86229,-2.98938 0,-0.7941 0.90299,-2.733 2.00664,-4.30868 l 2.00664,-2.86488 3.12762,6.64924 c 3.90144,8.29434 9.53334,24.27119 12.03774,34.14925 2.56486,10.1166 5.02575,31.94064 3.7355,33.12799 -1.3253,1.2196 -23.581,12.54562 -24.27178,12.35201 C 308.35781,606.0253 307,605.6894 305.625,605.35866 Z M 706.28277,420 c -22.8961,-13.0625 -42.84395,-23.75 -44.32858,-23.75 -3.08079,0 -22.3599,6.53651 -24.74864,8.39094 -2.07463,1.61057 -17.33506,9.10906 -18.53818,9.10906 -1.28717,0 0.0928,-5.21095 1.98607,-7.5 0.85297,-1.03125 1.92006,-3.08866 2.3713,-4.57203 0.45123,-1.48336 1.64276,-3.01258 2.64785,-3.39826 1.00507,-0.38569 1.82741,-1.84941 1.82741,-3.25271 0,-1.40331 1.125,-3.51473 2.5,-4.69204 1.375,-1.17731 2.5,-3.35292 2.5,-4.83471 0,-1.48178 0.84375,-3.39439 1.875,-4.25025 1.03125,-0.85586 1.875,-2.54336 1.875,-3.75 0,-1.20664 0.84375,-2.89414 1.875,-3.75 1.03125,-0.85586 1.875,-3.19239 1.875,-5.19229 0,-2.07904 0.80294,-3.94429 1.875,-4.35567 1.03125,-0.39574 1.875,-1.9967 1.875,-3.55771 0,-1.56103 0.84375,-3.53847 1.875,-4.39433 1.03125,-0.85586 1.875,-2.86029 1.875,-4.45429 0,-1.59399 0.5625,-3.24581 1.25,-3.67071 0.6875,-0.4249 1.25,-2.39365 1.25,-4.375 0,-1.98135 0.5625,-3.9501 1.25,-4.375 0.6875,-0.4249 1.25,-2.1124 1.25,-3.75 0,-1.6376 0.56456,-3.32637 1.25459,-3.75284 0.69002,-0.42645 0.9257,-2.08579 0.52371,-3.6874 -0.40198,-1.60161 -0.12275,-3.28784 0.62041,-3.74716 0.74322,-0.45933 1.35129,-2.45625 1.35129,-4.4376 0,-1.98135 0.46745,-3.89136 1.03879,-4.24446 0.57132,-0.3531 1.78575,-4.74568 2.69872,-9.76128 0.91297,-5.01559 2.19965,-10.19117 2.8593,-11.5013 1.96939,-3.91134 2.16097,-51.24417 0.25093,-61.99296 -4.26765,-24.01618 -11.84464,-43.30551 -22.1893,-56.48906 C 638.31432,172.70492 636.50599,170 636.88991,170 c 1.57421,0 8.21959,4.8998 21.1111,15.56573 35.20406,29.12646 67.72145,75.36282 82.23824,116.93427 8.49549,24.32836 8.78331,60.86167 0.75676,96.0575 l -2.66424,11.6825 4.10762,8.3175 c 6.25582,12.66736 9.49573,25.1925 6.51662,25.1925 -0.57419,0 -19.77715,-10.6875 -42.67324,-23.75 z M 391.875,240.77494 c -21.4137,-12.28975 -22.63809,-13.19959 -25.36012,-18.84495 l -2.86013,-5.93177 -10.26487,0.88133 c -5.64568,0.48472 -15.10357,2.42389 -21.01753,4.30926 l -10.75264,3.42794 -0.73242,-47.62088 -0.73242,-47.62087 2.73127,-2.32534 c 7.79342,-6.63514 34.6504,-16.29189 57.59016,-20.70723 26.39172,-5.07976 47.67426,-5.85099 83.59777,-3.0294 l 9.69908,0.7618 -0.32408,61.89633 -0.32407,61.89633 -13.32591,7.02153 c -7.32925,3.86186 -14.4281,8.019 -15.77521,9.23812 -3.43704,3.11047 -20.8795,9.6291 -25.66599,9.59194 -2.73125,-0.0212 -11.05359,-4.08895 -26.48289,-12.94414 z"
       id="path4144"
       inkscape:connector-curvature="0" />
  </g>
</svg>
